<?xml version="1.0" encoding="utf-8"?>
<!DOCTYPE svg PUBLIC "-//W3C//DTD SVG 1.1//EN" "http://www.w3.org/Graphics/SVG/1.1/DTD/svg11.dtd">

<svg xmlns="http://www.w3.org/2000/svg" xmlns:xlink="http://www.w3.org/1999/xlink" id="Layer_1" style="enable-background:new 0 0 64 64;" version="1.1" viewBox="0 0 64 64" xml:space="preserve">

  <style type="text/css">
	.st0{fill:#134563;}
</style>
<g id="g3450" transform="matrix(0,1,-1,0,64,0)">
  <g id="Icon-Arrow-bottom" transform="translate(28,328)">
    <path class="st0" d="m 4,-272.1 c -13.2,0 -23.9,-10.7 -23.9,-23.9 0,-13.2 10.7,-23.9 23.9,-23.9 13.2,0 23.9,10.7 23.9,23.9 0,13.2 -10.7,23.9 -23.9,23.9 l 0,0 z m 0,-45.2 c -11.7,0 -21.3,9.6 -21.3,21.3 0,11.7 9.6,21.3 21.3,21.3 11.7,0 21.3,-9.6 21.3,-21.3 0,-11.7 -9.6,-21.3 -21.3,-21.3 l 0,0 z" id="Fill-25" inkscape:connector-curvature="0" style="fill:#134563"/>
    <polyline class="st0" id="Fill-26" points="3.5,-282.3 1.7,-284.2 13.4,-296 1.7,-307.8 3.5,-309.7 17.2,-296 3.5,-282.3    " style="fill:#134563"/>
    <polygon class="st0" id="Fill-27" points="-8.7,-294.6 -8.7,-297.4 15.3,-297.4 15.3,-294.6 " style="fill:#134563"/>
  </g>
</g>
</svg>
