<?xml version="1.0" encoding="utf-8"?>
<!-- Generator: Adobe Illustrator 16.0.0, SVG Export Plug-In . SVG Version: 6.00 Build 0)  -->
<!DOCTYPE svg PUBLIC "-//W3C//DTD SVG 1.1//EN" "http://www.w3.org/Graphics/SVG/1.1/DTD/svg11.dtd">
<svg version="1.1"
	 id="svg4156" xmlns:cc="http://creativecommons.org/ns#" xmlns:svg="http://www.w3.org/2000/svg" xmlns:sodipodi="http://sodipodi.sourceforge.net/DTD/sodipodi-0.dtd" xmlns:dc="http://purl.org/dc/elements/1.1/" xmlns:rdf="http://www.w3.org/1999/02/22-rdf-syntax-ns#" xmlns:inkscape="http://www.inkscape.org/namespaces/inkscape" inkscape:version="0.91 r13725" sodipodi:docname="start-latest.svg"
	 xmlns="http://www.w3.org/2000/svg" xmlns:xlink="http://www.w3.org/1999/xlink" x="0px" y="0px" width="45px" height="52px"
	 viewBox="0 0 45 52" enable-background="new 0 0 45 52" xml:space="preserve">
<sodipodi:namedview  id="base" width="500px" units="px" inkscape:cx="-56.428571" bordercolor="#666666" borderopacity="1.0" pagecolor="#ffffff" showgrid="false" inkscape:zoom="0.35" inkscape:cy="520" inkscape:window-maximized="1" inkscape:pageshadow="2" inkscape:window-y="-9" inkscape:window-height="1019" inkscape:window-x="-9" inkscape:current-layer="layer1-3" inkscape:window-width="1920" inkscape:document-units="px" inkscape:pageopacity="0.0">
	</sodipodi:namedview>
<polygon fill="#87AF25" points="45,39 22.5,52 0,39 0,13 22.5,0 45,13 "/>
<polygon fill="#D1DE4D" points="42.045,37.293 22.5,48.586 2.955,37.293 2.955,14.707 22.5,3.415 42.045,14.707 "/>
<g>
	<path fill="#C7D734" d="M25.783,15.712c-0.976-0.353-2.046,0.152-2.396,1.125c-0.354,0.972,0.152,2.044,1.123,2.395
		c0.974,0.351,2.048-0.151,2.398-1.125C27.258,17.135,26.754,16.062,25.783,15.712z"/>
	<path fill="#C7D734" d="M19.112,34.189c-0.485-0.174-1.021,0.075-1.196,0.566c-0.175,0.482,0.075,1.021,0.563,1.195
		s1.021-0.076,1.198-0.563C19.852,34.901,19.599,34.366,19.112,34.189z"/>
	<path fill="#C7D734" d="M30.437,19.128c-0.61-0.723-1.692-0.814-2.415-0.204l0,0c-0.725,0.61-0.816,1.693-0.205,2.417
		c0.608,0.723,1.691,0.814,2.416,0.205C30.955,20.935,31.046,19.852,30.437,19.128z"/>
	<path fill="#C7D734" d="M15.415,31.805c-0.279-0.325-0.771-0.367-1.101-0.091c-0.327,0.277-0.369,0.771-0.092,1.096
		c0.275,0.331,0.77,0.372,1.096,0.094C15.648,32.625,15.689,32.134,15.415,31.805z"/>
	<path fill="#C7D734" d="M32.716,24.354c-0.15-0.847-0.965-1.414-1.811-1.261l0,0c-0.847,0.152-1.412,0.964-1.259,1.812
		c0.15,0.847,0.963,1.411,1.809,1.258C32.304,26.011,32.867,25.2,32.716,24.354z"/>
	<path fill="#C7D734" d="M13.378,27.807c-0.063-0.34-0.386-0.563-0.727-0.504l0,0c-0.337,0.06-0.563,0.381-0.505,0.722
		c0.063,0.341,0.388,0.566,0.724,0.507C13.211,28.47,13.436,28.146,13.378,27.807z"/>
	<path fill="#C7D734" d="M31.248,28.127c-0.728-0.263-1.532,0.114-1.797,0.844c-0.265,0.729,0.115,1.534,0.844,1.797
		c0.729,0.262,1.533-0.114,1.798-0.845C32.354,29.191,31.978,28.39,31.248,28.127z"/>
	<path fill="#C7D734" d="M13.33,22.66c-0.243-0.091-0.512,0.037-0.597,0.28c-0.09,0.241,0.034,0.509,0.278,0.596
		c0.245,0.092,0.514-0.035,0.6-0.278C13.698,23.015,13.574,22.744,13.33,22.66z"/>
	<path fill="#C7D734" d="M28.961,32.62c-0.443-0.526-1.232-0.593-1.758-0.148c-0.525,0.446-0.594,1.232-0.148,1.758
		c0.443,0.528,1.231,0.593,1.758,0.148C29.342,33.935,29.406,33.149,28.961,32.62z"/>
	<path fill="#C7D734" d="M14.667,19.956c-0.112-0.132-0.311-0.149-0.441-0.04c-0.131,0.112-0.146,0.308-0.038,0.439
		c0.114,0.134,0.311,0.15,0.439,0.039C14.76,20.283,14.778,20.085,14.667,19.956z"/>
	<path fill="#C7D734" d="M24.69,35.288c-0.109-0.592-0.675-0.987-1.268-0.882l0,0c-0.593,0.107-0.987,0.675-0.882,1.269
		c0.108,0.593,0.674,0.988,1.268,0.879C24.398,36.451,24.796,35.883,24.69,35.288z"/>
</g>
<text transform="matrix(1.2162 0 0 1 10.126 29.2266)" fill="#54711E" font-family="'AdobeHeitiStd-Regular-GBpc-EUC-H'" font-size="15.607">R</text>
<text transform="matrix(1 0 0 1 11.7505 33.3145)" fill="#54711E" font-family="'AdobeHeitiStd-Regular-GBpc-EUC-H'" font-size="3.4545">UNNING</text>
<text transform="matrix(1 0 0 1 27.25 30.0645)" fill="#54711E" font-family="'AdobeHeitiStd-Regular-GBpc-EUC-H'" font-size="3.4545">end</text>
<path fill="#54711E" d="M33.331,25.721c0,0.369-0.299,0.668-0.668,0.668h-4.922c-0.369,0-0.668-0.3-0.668-0.668v-4.925
	c0-0.37,0.299-0.668,0.668-0.668h4.922c0.369,0,0.668,0.3,0.668,0.668V25.721L33.331,25.721z"/>
</svg>
