<?xml version="1.0" encoding="utf-8"?>
<!-- Generator: Adobe Illustrator 16.0.0, SVG Export Plug-In . SVG Version: 6.00 Build 0)  -->
<!DOCTYPE svg PUBLIC "-//W3C//DTD SVG 1.1//EN" "http://www.w3.org/Graphics/SVG/1.1/DTD/svg11.dtd">
<svg version="1.1"
	 id="svg4156" xmlns:cc="http://creativecommons.org/ns#" xmlns:svg="http://www.w3.org/2000/svg" xmlns:sodipodi="http://sodipodi.sourceforge.net/DTD/sodipodi-0.dtd" xmlns:dc="http://purl.org/dc/elements/1.1/" xmlns:rdf="http://www.w3.org/1999/02/22-rdf-syntax-ns#" xmlns:inkscape="http://www.inkscape.org/namespaces/inkscape" inkscape:version="0.91 r13725" sodipodi:docname="start-latest.svg"
	 xmlns="http://www.w3.org/2000/svg" xmlns:xlink="http://www.w3.org/1999/xlink" x="0px" y="0px" width="45px" height="52px"
	 viewBox="0 0 45 52" enable-background="new 0 0 45 52" xml:space="preserve">
<sodipodi:namedview  id="base" width="500px" units="px" inkscape:cx="-56.428571" bordercolor="#666666" borderopacity="1.0" pagecolor="#ffffff" showgrid="false" inkscape:zoom="0.35" inkscape:cy="520" inkscape:window-maximized="1" inkscape:pageshadow="2" inkscape:window-y="-9" inkscape:window-height="1019" inkscape:window-x="-9" inkscape:current-layer="layer1-3" inkscape:window-width="1920" inkscape:document-units="px" inkscape:pageopacity="0.0">
	</sodipodi:namedview>
<polygon fill="#87AF25" points="45,39 22.5,52 0,39 0,13 22.5,0 45,13 "/>
<polygon fill="#D1DE4D" points="42.045,37.293 22.5,48.586 2.955,37.293 2.955,14.707 22.5,3.415 42.045,14.707 "/>
<text transform="matrix(1 0 0 1 31 23.4395)" fill="#54711E" font-family="'AdobeHeitiStd-Regular-GBpc-EUC-H'" font-size="3.4545">end</text>
<path fill="#54711E" d="M33.956,24.596c0,0.369-0.299,0.669-0.668,0.669h-4.922c-0.369,0-0.668-0.3-0.668-0.669v-4.925
	c0-0.37,0.299-0.668,0.668-0.668h4.922c0.369,0,0.668,0.3,0.668,0.668V24.596L33.956,24.596z"/>
<g>
	<path fill="#54711E" d="M29.979,34.009c-1.543,1.857-3.632,3.162-6.021,3.734c-2.921,0.698-5.94,0.215-8.499-1.355
		c-2.56-1.571-4.354-4.048-5.054-6.968c-1.442-6.03,2.293-12.11,8.32-13.553c2.529-0.604,5.205-0.31,7.537,0.827
		c0.399,0.194,0.565,0.676,0.37,1.074c-0.197,0.396-0.675,0.565-1.073,0.369c-1.998-0.975-4.291-1.227-6.459-0.708
		c-5.166,1.234-8.367,6.446-7.131,11.616c0.598,2.503,2.136,4.624,4.331,5.973c2.195,1.346,4.782,1.758,7.285,1.159
		c4.037-0.964,6.873-4.352,7.334-8.251c0.063-0.531,0.337-0.824,0.868-0.853s0.813,0.26,0.746,0.904
		c-0.173,1.65-0.713,3.254-1.607,4.708C30.64,33.153,30.322,33.596,29.979,34.009L29.979,34.009z"/>
</g>
<g>
	<defs>
		
			<text id="SVGID_1_" transform="matrix(1 0 0 1 30.959 23.3979)" font-family="'AdobeHeitiStd-Regular-GBpc-EUC-H'" font-size="3.4545">end</text>
	</defs>
	<clipPath id="SVGID_2_">
		<use xlink:href="#SVGID_1_"  overflow="visible" enable-background="new    "/>
	</clipPath>
	<path clip-path="url(#SVGID_2_)" fill="#D1DE4D" d="M33.914,24.554c0,0.369-0.299,0.669-0.668,0.669h-4.922
		c-0.369,0-0.668-0.3-0.668-0.669v-4.925c0-0.37,0.299-0.668,0.668-0.668h4.922c0.369,0,0.668,0.3,0.668,0.668V24.554L33.914,24.554
		z"/>
</g>
<text transform="matrix(1.2162 0 0 1 15.626 32.9766)" fill="#54711E" font-family="'AdobeHeitiStd-Regular-GBpc-EUC-H'" font-size="15.607">R</text>
</svg>
