<?xml version="1.0" encoding="utf-8"?>
<!-- Generator: Adobe Illustrator 16.0.0, SVG Export Plug-In . SVG Version: 6.00 Build 0)  -->
<!DOCTYPE svg PUBLIC "-//W3C//DTD SVG 1.1//EN" "http://www.w3.org/Graphics/SVG/1.1/DTD/svg11.dtd">
<svg version="1.1"
	 id="svg4156" xmlns:cc="http://creativecommons.org/ns#" xmlns:svg="http://www.w3.org/2000/svg" xmlns:sodipodi="http://sodipodi.sourceforge.net/DTD/sodipodi-0.dtd" xmlns:dc="http://purl.org/dc/elements/1.1/" xmlns:rdf="http://www.w3.org/1999/02/22-rdf-syntax-ns#" xmlns:inkscape="http://www.inkscape.org/namespaces/inkscape" inkscape:version="0.91 r13725" sodipodi:docname="start-latest.svg"
	 xmlns="http://www.w3.org/2000/svg" xmlns:xlink="http://www.w3.org/1999/xlink" x="0px" y="0px" width="45px" height="52px"
	 viewBox="0 0 45 52" enable-background="new 0 0 45 52" xml:space="preserve">
<sodipodi:namedview  id="base" width="500px" units="px" inkscape:cx="-56.428571" bordercolor="#666666" borderopacity="1.0" pagecolor="#ffffff" showgrid="false" inkscape:zoom="0.35" inkscape:cy="520" inkscape:window-maximized="1" inkscape:pageshadow="2" inkscape:window-y="-9" inkscape:window-height="1019" inkscape:window-x="-9" inkscape:current-layer="layer1-3" inkscape:window-width="1920" inkscape:document-units="px" inkscape:pageopacity="0.0">
	</sodipodi:namedview>
<polygon fill="#87AF25" points="45,39 22.5,52 0,39 0,13 22.5,0 45,13 "/>
<polygon fill="#D1DE4D" points="42.045,37.293 22.5,48.586 2.955,37.293 2.955,14.707 22.5,3.415 42.045,14.707 "/>
<g>
	<path fill="#87AF25" d="M22.467,15.657c-1,0.275-1.583,1.306-1.308,2.302c0.273,0.997,1.306,1.58,2.301,1.306
		c0.997-0.276,1.583-1.306,1.307-2.303C24.492,15.967,23.461,15.382,22.467,15.657z"/>
	<path fill="#87AF25" d="M27.692,34.593c-0.499,0.14-0.791,0.652-0.651,1.154c0.137,0.495,0.65,0.789,1.15,0.651
		c0.498-0.139,0.789-0.653,0.653-1.152C28.706,34.748,28.19,34.457,27.692,34.593z"/>
	<path fill="#87AF25" d="M28.238,15.758c-0.916-0.238-1.852,0.313-2.09,1.228l0,0c-0.239,0.917,0.312,1.854,1.229,2.091
		c0.914,0.239,1.851-0.312,2.091-1.227C29.705,16.933,29.154,15.997,28.238,15.758z"/>
	<path fill="#87AF25" d="M23.295,34.781c-0.415-0.104-0.842,0.146-0.95,0.563c-0.108,0.415,0.143,0.841,0.558,0.947
		c0.416,0.111,0.842-0.141,0.949-0.557C23.96,35.317,23.709,34.892,23.295,34.781z"/>
	<path fill="#87AF25" d="M33.116,18.708c-0.612-0.605-1.603-0.597-2.206,0.016l0,0c-0.604,0.613-0.596,1.602,0.019,2.206
		c0.612,0.604,1.601,0.596,2.203-0.018C33.738,20.299,33.728,19.311,33.116,18.708z"/>
	<path fill="#87AF25" d="M19.324,32.695c-0.248-0.241-0.641-0.238-0.884,0.008l0,0c-0.241,0.243-0.239,0.636,0.003,0.881
		c0.248,0.241,0.645,0.239,0.884-0.006C19.57,33.332,19.567,32.938,19.324,32.695z"/>
	<path fill="#87AF25" d="M34.097,22.636c-0.746,0.206-1.185,0.979-0.979,1.727c0.205,0.747,0.979,1.186,1.727,0.979
		c0.746-0.207,1.185-0.979,0.979-1.727C35.614,22.867,34.845,22.429,34.097,22.636z"/>
	<path fill="#87AF25" d="M16.312,28.52c-0.251,0.067-0.396,0.326-0.326,0.573c0.066,0.249,0.323,0.395,0.573,0.326
		c0.251-0.068,0.398-0.326,0.328-0.574C16.818,28.597,16.561,28.448,16.312,28.52z"/>
	<path fill="#87AF25" d="M34.826,27.625c-0.667-0.173-1.349,0.228-1.521,0.894c-0.172,0.667,0.226,1.349,0.893,1.521
		c0.668,0.175,1.348-0.227,1.521-0.894C35.894,28.479,35.494,27.8,34.826,27.625z"/>
	<path fill="#87AF25" d="M15.842,25.54c-0.168-0.042-0.339,0.058-0.383,0.223c-0.043,0.167,0.058,0.336,0.223,0.381
		c0.17,0.043,0.339-0.057,0.381-0.223C16.107,25.754,16.008,25.583,15.842,25.54z"/>
	<path fill="#87AF25" d="M32.879,32.269c-0.431-0.419-1.121-0.415-1.543,0.013l0,0c-0.423,0.43-0.418,1.121,0.012,1.544
		c0.431,0.421,1.121,0.418,1.543-0.014C33.313,33.386,33.309,32.694,32.879,32.269z"/>
</g>
<text transform="matrix(1.2162 0 0 1 7.251 30.9141)" fill="#54711E" font-family="'AdobeHeitiStd-Regular-GBpc-EUC-H'" font-size="15.607">R</text>
<text transform="matrix(1 0 0 1 18.5005 29.5635)" fill="#54711E" font-family="'AdobeHeitiStd-Regular-GBpc-EUC-H'" font-size="3.4545">UNNING</text>
</svg>
