<?xml version="1.0" encoding="utf-8"?>
<!-- Generator: Adobe Illustrator 16.0.0, SVG Export Plug-In . SVG Version: 6.00 Build 0)  -->
<!DOCTYPE svg PUBLIC "-//W3C//DTD SVG 1.1//EN" "http://www.w3.org/Graphics/SVG/1.1/DTD/svg11.dtd">
<svg version="1.1"
	 id="svg4156" xmlns:cc="http://creativecommons.org/ns#" xmlns:svg="http://www.w3.org/2000/svg" xmlns:sodipodi="http://sodipodi.sourceforge.net/DTD/sodipodi-0.dtd" xmlns:dc="http://purl.org/dc/elements/1.1/" xmlns:rdf="http://www.w3.org/1999/02/22-rdf-syntax-ns#" xmlns:inkscape="http://www.inkscape.org/namespaces/inkscape" inkscape:version="0.91 r13725" sodipodi:docname="start-latest.svg"
	 xmlns="http://www.w3.org/2000/svg" xmlns:xlink="http://www.w3.org/1999/xlink" x="0px" y="0px" width="45px" height="52px"
	 viewBox="0 0 45 52" enable-background="new 0 0 45 52" xml:space="preserve">
<sodipodi:namedview  id="base" width="500px" units="px" inkscape:cx="-56.428571" bordercolor="#666666" borderopacity="1.0" pagecolor="#ffffff" showgrid="false" inkscape:zoom="0.35" inkscape:cy="520" inkscape:window-maximized="1" inkscape:pageshadow="2" inkscape:window-y="-9" inkscape:window-height="1019" inkscape:window-x="-9" inkscape:current-layer="layer1-3" inkscape:window-width="1920" inkscape:document-units="px" inkscape:pageopacity="0.0">
	</sodipodi:namedview>
<polygon fill="#87AF25" points="45,39 22.5,52 0,39 0,13 22.5,0 45,13 "/>
<polygon fill="#D1DE4D" points="42.045,37.293 22.5,48.586 2.955,37.293 2.955,14.707 22.5,3.415 42.045,14.707 "/>
<text transform="matrix(1 0 0 1 31.6914 23.5625)" fill="#54711E" font-family="'AdobeHeitiStd-Regular-GBpc-EUC-H'" font-size="3.9671">start</text>
<g>
	<path fill="#54711E" d="M30.929,35.077c-1.771,2.132-4.17,3.632-6.914,4.289c-3.354,0.802-6.821,0.246-9.76-1.556
		c-2.94-1.806-5-4.649-5.804-8.003c-1.656-6.925,2.633-13.907,9.555-15.564c2.904-0.693,5.977-0.356,8.654,0.949
		c0.459,0.223,0.649,0.777,0.426,1.234c-0.226,0.455-0.775,0.648-1.232,0.424c-2.295-1.12-4.928-1.409-7.417-0.813
		c-5.933,1.417-9.609,7.402-8.19,13.339c0.687,2.874,2.454,5.311,4.974,6.858c2.521,1.546,5.492,2.019,8.366,1.333
		c4.636-1.108,7.893-4.999,8.422-9.477c0.073-0.61,0.387-0.946,0.997-0.98c0.61-0.032,0.933,0.3,0.856,1.039
		c-0.199,1.895-0.818,3.736-1.846,5.407C31.689,34.094,31.323,34.603,30.929,35.077L30.929,35.077z"/>
	<path fill="#54711E" d="M26.938,20.758H26.03v1.51c0,1.901-0.879,3.609-2.391,4.538c1.513,0.924,2.391,2.618,2.391,4.521v1.208
		h0.907c0.309,0,0.594,0.214,0.594,0.622c0,0.323-0.252,0.586-0.561,0.586H15.115c-0.311,0-0.56-0.263-0.56-0.586
		c0-0.322,0.218-0.622,0.603-0.622h0.906v-1.208c0-1.902,0.939-3.598,2.449-4.521c-1.51-0.929-2.449-2.634-2.449-4.538V20.76h-0.906
		c-0.31,0-0.596-0.301-0.596-0.625c0-0.323,0.286-0.585,0.596-0.585h0.061h11.759c0.311,0,0.562,0.282,0.562,0.604
		C27.54,20.478,27.246,20.758,26.938,20.758L26.938,20.758z M24.822,20.758h-7.55v1.51c0,1.876,0.996,3.512,2.743,3.97
		c0.073,0.019,0.137,0.051,0.194,0.094c0.001,0,0.002,0.002,0.002,0.002c0.004,0.004,0.008,0.008,0.013,0.01
		c0.004,0.002,0.008,0.006,0.01,0.009c0.001,0.001,0.003,0.003,0.006,0.004c0.085,0.077,0.15,0.179,0.179,0.302
		c0.032,0.133,0.019,0.264-0.03,0.38c0,0,0,0.004-0.001,0.004c-0.002,0.005-0.004,0.012-0.009,0.019
		c-0.001,0.002-0.001,0.005-0.003,0.008c-0.001,0.004-0.003,0.009-0.006,0.015c-0.002,0.004-0.004,0.011-0.009,0.016
		c-0.001,0.002-0.002,0.004-0.002,0.007c-0.009,0.016-0.02,0.031-0.028,0.045l0,0c-0.004,0.006-0.01,0.016-0.016,0.021
		c-0.001,0.002-0.001,0.002-0.001,0.004c-0.005,0.008-0.01,0.015-0.015,0.019c-0.001,0-0.001,0.003-0.003,0.005
		c-0.004,0.005-0.009,0.01-0.014,0.018c0,0-0.001,0.002-0.002,0.002c-0.007,0.006-0.012,0.014-0.018,0.021l0,0
		c-0.014,0.012-0.026,0.024-0.041,0.034c-0.002,0-0.002,0.001-0.003,0.002c-0.005,0.005-0.012,0.012-0.02,0.016
		c-0.001,0-0.001,0-0.002,0c-0.058,0.043-0.127,0.073-0.2,0.088c-1.736,0.465-2.72,2.081-2.72,3.949v1.209h7.551V31.33
		c0-1.877-1.003-3.497-2.75-3.954c-0.008-0.002-0.019-0.004-0.025-0.008c-0.003,0-0.005,0-0.009-0.002
		c-0.004-0.004-0.011-0.004-0.014-0.006c-0.004-0.002-0.009-0.005-0.015-0.007c-0.002,0-0.004,0-0.006,0
		c-0.073-0.03-0.134-0.074-0.186-0.128c0,0-0.002-0.001-0.002-0.002c-0.004-0.005-0.007-0.009-0.012-0.016
		c-0.002,0-0.004-0.002-0.007-0.007c-0.004-0.002-0.006-0.005-0.01-0.009c-0.003-0.002-0.006-0.009-0.01-0.013
		c-0.002-0.003-0.004-0.006-0.006-0.007c-0.004-0.007-0.008-0.015-0.015-0.021l0,0c-0.021-0.031-0.038-0.063-0.053-0.097h-0.002
		c-0.003-0.007-0.005-0.016-0.01-0.023c-0.001,0-0.001-0.001-0.001-0.003c-0.003-0.008-0.006-0.015-0.008-0.023
		c0-0.002,0-0.002-0.003-0.004c-0.001-0.007-0.003-0.016-0.007-0.023c0-0.002,0-0.002,0-0.004c-0.002-0.009-0.005-0.021-0.007-0.027
		c-0.002-0.008-0.003-0.014-0.004-0.021c-0.002-0.001-0.002-0.006-0.002-0.006c-0.002-0.007-0.002-0.016-0.002-0.024
		c0,0-0.002-0.003-0.002-0.005c0-0.008-0.002-0.017-0.002-0.024c0-0.002,0-0.002,0-0.002c-0.03-0.285,0.147-0.557,0.42-0.629
		c1.747-0.459,2.75-2.093,2.75-3.968v-1.51H24.822z M21.842,25.361c-0.325,0.084-0.601,0.282-0.796,0.54
		c-0.059-0.081-0.13-0.155-0.206-0.223l-0.039-0.033l-0.032-0.027l-0.035-0.025c-0.148-0.107-0.312-0.186-0.487-0.232
		c-0.905-0.237-1.577-0.935-1.882-1.885h5.368C23.424,24.424,22.75,25.123,21.842,25.361L21.842,25.361z M20.75,28.758
		c0,0,0.051-0.04,0.053-0.043l0.006-0.004l0.034-0.027l0.004-0.004c0.024-0.025,0.048-0.045,0.069-0.068l0.03-0.03l0.041-0.048
		l0.04-0.051c0,0,0.014-0.023,0.015-0.023l0.083,0.126l0.037,0.021l0.011,0.011c0.103,0.105,0.223,0.188,0.356,0.249
		c0,0,0.04,0.019,0.049,0.022c0.007,0.003,0.044,0.015,0.044,0.015c0.02,0.006,0.04,0.015,0.061,0.02
		c1.011,0.284,1.631,1.123,1.631,2.453v0.258H18.78v-0.258c0-1.32,0.607-2.154,1.604-2.449c0.119-0.026,0.234-0.079,0.341-0.152
		L20.75,28.758L20.75,28.758z"/>
</g>
<g id="g4274_1_" transform="matrix(1.2891752,0,0,1.2891752,575.65756,-72.611309)">
	<g id="g4276_1_" transform="scale(0.1953125,0.1953125)">
		<path id="path4278_1_" inkscape:connector-curvature="0" fill="#54711E" d="M-2145.884,372.811l-19.865-14.441
			c-0.725-0.527-1.691-0.603-2.486-0.192c-0.803,0.403-1.307,1.231-1.307,2.129v28.879c0,0.902,0.504,1.722,1.307,2.135
			c0.337,0.169,0.71,0.256,1.082,0.256c0.496,0,0.993-0.151,1.408-0.456l19.862-14.438c0.628-0.452,0.989-1.173,0.989-1.937
			C-2144.898,373.978-2145.263,373.261-2145.884,372.811L-2145.884,372.811z"/>
	</g>
</g>
<g>
	<defs>
		<path id="path4278_2_" inkscape:connector-curvature="0" d="M35.375,21.25l-5.002-3.637c-0.183-0.133-0.426-0.151-0.626-0.048
			c-0.202,0.102-0.329,0.31-0.329,0.536v7.271c0,0.227,0.127,0.434,0.329,0.537c0.085,0.043,0.179,0.064,0.272,0.064
			c0.125,0,0.25-0.037,0.354-0.114l5.001-3.636c0.158-0.113,0.249-0.295,0.249-0.487C35.623,21.544,35.531,21.363,35.375,21.25
			L35.375,21.25z"/>
	</defs>
	<clipPath id="path4278_3_">
		<use xlink:href="#path4278_2_"  overflow="visible"/>
	</clipPath>
	<g clip-path="url(#path4278_3_)" enable-background="new    ">
		
			<text transform="matrix(1 0 0 1 31.6953 23.584)" fill="#D1DE4D" font-family="'AdobeHeitiStd-Regular-GBpc-EUC-H'" font-size="3.9671">start</text>
	</g>
</g>
</svg>
