<?xml version="1.0" encoding="utf-8"?>
<!-- Generator: Adobe Illustrator 16.0.0, SVG Export Plug-In . SVG Version: 6.00 Build 0)  -->
<!DOCTYPE svg PUBLIC "-//W3C//DTD SVG 1.1//EN" "http://www.w3.org/Graphics/SVG/1.1/DTD/svg11.dtd">
<svg version="1.1"
	 id="svg4156" xmlns:cc="http://creativecommons.org/ns#" xmlns:svg="http://www.w3.org/2000/svg" xmlns:sodipodi="http://sodipodi.sourceforge.net/DTD/sodipodi-0.dtd" xmlns:dc="http://purl.org/dc/elements/1.1/" xmlns:rdf="http://www.w3.org/1999/02/22-rdf-syntax-ns#" xmlns:inkscape="http://www.inkscape.org/namespaces/inkscape" inkscape:version="0.91 r13725" sodipodi:docname="stage-selected-latest.svg"
	 xmlns="http://www.w3.org/2000/svg" xmlns:xlink="http://www.w3.org/1999/xlink" x="0px" y="0px" width="45px" height="52px"
	 viewBox="0 0 45 52" enable-background="new 0 0 45 52" xml:space="preserve">
<g>
	
		<sodipodi:namedview  id="base" width="500px" units="px" inkscape:cx="-56.428571" bordercolor="#666666" borderopacity="1.0" pagecolor="#ffffff" showgrid="false" inkscape:zoom="0.35" inkscape:cy="520" inkscape:window-maximized="1" inkscape:pageshadow="2" inkscape:window-y="-9" inkscape:window-height="1019" inkscape:window-x="-9" inkscape:current-layer="layer1" inkscape:window-width="1920" inkscape:document-units="px" inkscape:pageopacity="0.0">
		</sodipodi:namedview>
	<polygon fill="#D1DE4D" points="45.001,39 22.5,52 0,39 0,13 22.5,0 45.001,13 	"/>
	<g id="g4236" transform="scale(0.1953125,0.1953125)">
		<path id="path4238" inkscape:connector-curvature="0" fill="#87AF25" d="M102.155,103.187c2.17,0,4.27-0.3,6.28-0.81L99.62,95.13
			c-3.075-2.515-4.98-6.075-5.385-10.04c-0.39-3.972,0.785-7.842,3.29-10.917c2.835-3.482,7.03-5.47,11.505-5.47
			c3.435,0,6.785,1.198,9.425,3.372l9.37,7.685c0.08-0.805,0.13-1.615,0.13-2.445c0-14.272-11.55-25.87-25.792-25.87
			c-14.252,0-25.8,11.59-25.8,25.87C76.355,91.607,87.905,103.187,102.155,103.187z M160.685,91.907c-5.07,0-9.87,1.175-14.17,3.225
			c-2.71,1.285-5.23,2.925-7.47,4.87l-25.98-21.33c-1.18-0.98-2.605-1.445-4.035-1.445c-1.835,0-3.67,0.795-4.92,2.335
			c-2.227,2.725-1.837,6.755,0.89,8.98l26.175,21.49c-1.37,2.665-2.4,5.52-3.01,8.545c-0.33,1.605-0.49,3.27-0.58,4.94l15.71-8.715
			c2.83-1.575,6.03-2.405,9.26-2.405c6.95,0,13.36,3.795,16.73,9.88c5.1,9.24,1.745,20.927-7.47,26.047l-13.73,7.62
			c3.89,1.585,8.14,2.475,12.595,2.475c18.33,0,33.18-14.89,33.18-33.26C193.865,106.797,179.015,91.907,160.685,91.907z
			 M161.845,126.402c-1.94-3.515-5.56-5.49-9.29-5.49c-1.74,0-3.51,0.43-5.13,1.325l-34.94,19.382
			c-2.005-2.205-4.242-4.26-6.667-6.015c-7.207-5.272-16.057-8.425-25.67-8.425c-24.095,0-43.617,19.57-43.617,43.745
			c0,24.17,19.53,43.735,43.617,43.735c24.112,0,43.642-19.58,43.642-43.735c0-0.5-0.06-0.97-0.08-1.45
			c-0.095-3.12-0.525-6.14-1.235-9.05l35.23-19.57C162.835,138,164.685,131.545,161.845,126.402L161.845,126.402z M80.21,207.369
			c-20.07,0-36.34-16.32-36.34-36.44s16.27-36.415,36.34-36.415c20.065,0,36.345,16.305,36.345,36.415
			C116.555,191.05,100.28,207.369,80.21,207.369L80.21,207.369z"/>
	</g>
	<polygon fill="#D1DE4D" points="15.753,35.012 14.118,33.375 15.209,33.375 15.209,31.193 16.297,31.193 16.297,33.375 
		17.387,33.375 	"/>
</g>
<g>
	<g>
		<path fill="#006C37" d="M5.319,57.359c-0.046,0.482,0.31,0.91,0.792,0.956c0.481,0.046,0.911-0.31,0.955-0.792
			c0.044-0.481-0.31-0.91-0.793-0.955C5.791,56.522,5.363,56.878,5.319,57.359z"/>
		<path fill="#006C37" d="M4.943,66.139c-0.022,0.242,0.154,0.455,0.396,0.478c0.242,0.021,0.456-0.155,0.478-0.397
			c0.021-0.242-0.154-0.454-0.396-0.479C5.18,65.721,4.965,65.897,4.943,66.139z"/>
		<path fill="#006C37" d="M3.222,58.155c0.186,0.403,0.662,0.581,1.068,0.396c0.403-0.186,0.58-0.662,0.394-1.064l0,0
			c-0.186-0.404-0.664-0.582-1.065-0.396C3.212,57.277,3.034,57.754,3.222,58.155z"/>
		<path fill="#006C37" d="M7.289,65.95c0.084,0.187,0.3,0.267,0.484,0.181c0.184-0.084,0.264-0.301,0.18-0.482
			c-0.084-0.186-0.302-0.264-0.485-0.182C7.285,65.553,7.203,65.769,7.289,65.95z"/>
		<path fill="#006C37" d="M1.781,59.875c0.33,0.233,0.786,0.156,1.018-0.174c0.234-0.332,0.156-0.788-0.174-1.02l0,0
			c-0.33-0.232-0.786-0.156-1.02,0.174C1.373,59.184,1.451,59.641,1.781,59.875z"/>
		<path fill="#006C37" d="M9.198,64.585c0.13,0.092,0.314,0.062,0.408-0.069c0.092-0.133,0.06-0.314-0.07-0.406l0,0
			c-0.134-0.094-0.316-0.064-0.41,0.068C9.034,64.309,9.066,64.49,9.198,64.585z"/>
		<path fill="#006C37" d="M0.761,61.342c-0.034,0.364,0.232,0.682,0.594,0.719c0.362,0.031,0.684-0.232,0.718-0.596
			c0.032-0.363-0.232-0.683-0.596-0.719C1.117,60.715,0.795,60.982,0.761,61.342z"/>
		<path fill="#006C37" d="M9.936,62.197c-0.012,0.121,0.078,0.227,0.198,0.238c0.12,0.01,0.228-0.08,0.238-0.199
			c0.012-0.121-0.078-0.229-0.198-0.238C10.054,61.986,9.947,62.078,9.936,62.197z"/>
		<path fill="#006C37" d="M1.267,63.889c0.134,0.295,0.482,0.422,0.776,0.289c0.294-0.135,0.422-0.482,0.288-0.776
			c-0.136-0.292-0.484-0.422-0.778-0.288C1.259,63.248,1.129,63.596,1.267,63.889z"/>
		<path fill="#006C37" d="M10.076,60.778c0.032,0.073,0.12,0.106,0.194,0.071c0.072-0.035,0.106-0.121,0.072-0.193
			c-0.034-0.074-0.122-0.105-0.196-0.074C10.073,60.619,10.042,60.705,10.076,60.778z"/>
		<path fill="#006C37" d="M2.956,65.811c0.23,0.164,0.55,0.107,0.714-0.124c0.164-0.229,0.108-0.55-0.122-0.714l0,0
			c-0.231-0.162-0.55-0.107-0.713,0.122C2.67,65.328,2.725,65.648,2.956,65.811z"/>
	</g>
	<path fill="#006C37" d="M4.855,61.284c-0.054,0.084,0.078,0.479,0.078,0.479s0.258,0.857,0.304,1.04
		c0.048,0.18,0.124,0.34,0.158,0.489c0.03-0.162,0.996-3.047,0.996-3.047h0.45c0,0,1.02,2.903,1.047,3.047
		c0.03-0.15,0.066-0.306,0.106-0.472c0.038-0.165,0.088-0.35,0.146-0.55l0.55-1.928c0.004-0.023,0.012-0.049,0.02-0.081
		s0.016-0.06,0.022-0.093c0.006-0.029,0.012-0.057,0.018-0.084c0.004-0.025,0.006-0.047,0.006-0.065
		c0-0.108-0.034-0.186-0.102-0.233c-0.068-0.049-0.172-0.072-0.31-0.072H8.198v-0.262h1.523v0.262H9.604
		c-0.062,0-0.114,0.006-0.16,0.018s-0.086,0.037-0.124,0.07c-0.036,0.034-0.07,0.084-0.1,0.146c-0.03,0.063-0.062,0.147-0.092,0.25
		l-1.056,3.71H7.511l-1.018-2.743l-0.954,2.743H4.963l-0.766-2.356c-0.022-0.066-0.044-0.121-0.07-0.162
		c-0.024-0.043-0.054-0.076-0.088-0.101c-0.036-0.026-0.076-0.042-0.124-0.054c-0.046-0.008-0.158-0.012-0.158-0.012l-0.006-0.262
		h1.432v0.262C5.191,61.225,4.91,61.202,4.855,61.284z"/>
</g>
<g>
	<path fill="#87AF25" d="M18.013,28.105c-0.516-0.227-1.115,0.009-1.34,0.523c-0.226,0.514,0.01,1.112,0.523,1.338
		c0.515,0.225,1.114-0.009,1.34-0.523C18.76,28.929,18.525,28.329,18.013,28.105z"/>
	<path fill="#87AF25" d="M13.732,37.877c-0.257-0.111-0.557,0.004-0.669,0.264c-0.111,0.255,0.004,0.556,0.263,0.668
		c0.257,0.112,0.556-0.005,0.67-0.263C14.107,38.289,13.988,37.99,13.732,37.877z"/>
	<path fill="#87AF25" d="M20.411,30.123c-0.304-0.414-0.888-0.502-1.301-0.197l0,0c-0.414,0.304-0.504,0.888-0.198,1.302
		c0.304,0.414,0.888,0.503,1.302,0.198C20.626,31.121,20.715,30.538,20.411,30.123z"/>
	<path fill="#87AF25" d="M11.814,36.451c-0.14-0.187-0.405-0.227-0.594-0.088c-0.187,0.138-0.228,0.403-0.088,0.59
		c0.137,0.189,0.403,0.229,0.59,0.09C11.912,36.904,11.95,36.64,11.814,36.451z"/>
	<path fill="#87AF25" d="M21.458,33.037c-0.052-0.465-0.472-0.801-0.937-0.748l0,0c-0.464,0.051-0.799,0.471-0.747,0.936
		c0.052,0.465,0.472,0.799,0.935,0.747C21.175,33.921,21.509,33.5,21.458,33.037z"/>
	<path fill="#87AF25" d="M20.526,35.029c-0.385-0.169-0.835,0.006-1.004,0.393c-0.169,0.385,0.006,0.835,0.393,1.004
		c0.386,0.167,0.835-0.007,1.004-0.394C21.087,35.646,20.912,35.197,20.526,35.029z"/>
	<path fill="#87AF25" d="M19.126,37.382c-0.222-0.302-0.647-0.366-0.948-0.144c-0.3,0.222-0.366,0.646-0.144,0.946
		c0.222,0.302,0.646,0.366,0.947,0.144C19.284,38.107,19.348,37.684,19.126,37.382z"/>
	<path fill="#87AF25" d="M16.715,38.673c-0.039-0.324-0.331-0.559-0.655-0.522l0,0c-0.326,0.036-0.56,0.329-0.524,0.654
		c0.038,0.325,0.33,0.561,0.655,0.522C16.515,39.292,16.751,38.999,16.715,38.673z"/>
</g>
<text transform="matrix(1.2162 0 0 1 11.4668 36.4805)" fill="#54711E" font-family="'AdobeHeitiStd-Regular-GBpc-EUC-H'" font-size="8.4758">R</text>
</svg>
