<?xml version="1.0" encoding="utf-8"?>
<!-- Generator: Adobe Illustrator 16.0.0, SVG Export Plug-In . SVG Version: 6.00 Build 0)  -->
<!DOCTYPE svg PUBLIC "-//W3C//DTD SVG 1.1//EN" "http://www.w3.org/Graphics/SVG/1.1/DTD/svg11.dtd">
<svg version="1.1"
	 id="svg4156" xmlns:cc="http://creativecommons.org/ns#" xmlns:svg="http://www.w3.org/2000/svg" xmlns:sodipodi="http://sodipodi.sourceforge.net/DTD/sodipodi-0.dtd" xmlns:dc="http://purl.org/dc/elements/1.1/" xmlns:rdf="http://www.w3.org/1999/02/22-rdf-syntax-ns#" xmlns:inkscape="http://www.inkscape.org/namespaces/inkscape" inkscape:version="0.91 r13725" sodipodi:docname="start-latest.svg"
	 xmlns="http://www.w3.org/2000/svg" xmlns:xlink="http://www.w3.org/1999/xlink" x="0px" y="0px" width="45px" height="52px"
	 viewBox="0 0 45 52" enable-background="new 0 0 45 52" xml:space="preserve">
<sodipodi:namedview  id="base" width="500px" units="px" inkscape:cx="-56.428571" bordercolor="#666666" borderopacity="1.0" pagecolor="#ffffff" showgrid="false" inkscape:zoom="0.35" inkscape:cy="520" inkscape:window-maximized="1" inkscape:pageshadow="2" inkscape:window-y="-9" inkscape:window-height="1019" inkscape:window-x="-9" inkscape:current-layer="layer1-3" inkscape:window-width="1920" inkscape:document-units="px" inkscape:pageopacity="0.0">
	</sodipodi:namedview>
<polygon fill="#92B952" points="45,39 22.5,52 0,39 0,13 22.5,0 45,13 "/>
<polygon fill="#D1DE4D" points="42.045,37.293 22.5,48.586 2.955,37.293 2.955,14.707 22.5,3.415 42.045,14.707 "/>
<g>
	<path fill="#54711E" d="M29.905,33.436c-1.593,1.593-3.646,2.627-5.915,2.953c-2.774,0.398-5.539-0.31-7.782-1.989
		c-2.244-1.682-3.699-4.136-4.098-6.91c-0.823-5.729,3.17-11.058,8.896-11.881c2.402-0.344,4.864,0.159,6.934,1.416
		c0.354,0.215,0.467,0.676,0.252,1.03c-0.217,0.351-0.676,0.467-1.03,0.251c-1.773-1.078-3.883-1.509-5.942-1.213
		c-4.908,0.704-8.33,5.272-7.625,10.184c0.341,2.378,1.588,4.481,3.512,5.922c1.924,1.44,4.293,2.045,6.67,1.703
		c4.913-0.704,8.334-5.273,7.628-10.183c-0.185-1.286-0.632-2.487-1.328-3.57c-0.224-0.349-0.122-0.814,0.225-1.037
		c0.348-0.224,0.813-0.124,1.036,0.224c0.813,1.267,1.335,2.668,1.552,4.169c0.398,2.774-0.308,5.539-1.99,7.783
		C30.594,32.698,30.261,33.081,29.905,33.436L29.905,33.436z"/>
	<path fill="#54711E" d="M27.314,21.077h-0.737v1.228c0,1.545-0.715,2.934-1.943,3.687c1.229,0.751,1.943,2.129,1.943,3.675v0.982
		h0.737c0.251,0,0.483,0.174,0.483,0.506c0,0.262-0.204,0.475-0.456,0.475h-9.635c-0.252,0-0.455-0.213-0.455-0.475
		c0-0.264,0.178-0.506,0.49-0.506h0.737v-0.982c0-1.546,0.763-2.924,1.991-3.675c-1.228-0.753-1.991-2.141-1.991-3.687v-1.227
		h-0.737c-0.252,0-0.484-0.244-0.484-0.507c0-0.262,0.232-0.475,0.484-0.475h0.05h9.556c0.253,0,0.457,0.228,0.457,0.49
		C27.805,20.849,27.565,21.077,27.314,21.077L27.314,21.077z M25.596,21.077H19.46v1.228c0,1.525,0.809,2.853,2.229,3.226
		c0.059,0.015,0.112,0.042,0.158,0.077c0.001,0,0.002,0.001,0.002,0.002c0.004,0.003,0.007,0.006,0.011,0.008
		c0.003,0.002,0.006,0.005,0.008,0.007c0.001,0.001,0.003,0.003,0.005,0.004c0.069,0.062,0.122,0.146,0.146,0.246
		c0.026,0.107,0.015,0.214-0.025,0.308c0,0,0,0.002-0.001,0.003c-0.002,0.004-0.004,0.009-0.007,0.014
		c-0.001,0.002-0.001,0.005-0.003,0.007c-0.001,0.004-0.003,0.007-0.005,0.011c-0.002,0.004-0.004,0.009-0.007,0.013
		c-0.001,0.001-0.002,0.003-0.002,0.005c-0.008,0.013-0.016,0.025-0.024,0.037c0,0,0,0.001,0,0.001
		c-0.003,0.006-0.008,0.011-0.012,0.017c-0.001,0.001-0.001,0.001-0.001,0.003c-0.004,0.005-0.008,0.01-0.012,0.014
		c-0.001,0.001-0.001,0.002-0.002,0.004c-0.004,0.004-0.008,0.008-0.012,0.014c0,0-0.001,0.001-0.002,0.001
		c-0.005,0.006-0.009,0.011-0.014,0.016h-0.001c-0.011,0.011-0.021,0.021-0.033,0.029c-0.001,0-0.001,0.001-0.002,0.002
		c-0.005,0.003-0.01,0.008-0.016,0.012c-0.001,0-0.001,0-0.002,0.001c-0.048,0.034-0.103,0.059-0.162,0.071
		c-1.411,0.378-2.211,1.691-2.211,3.21v0.982h6.136v-0.982c0-1.526-0.814-2.843-2.233-3.214c-0.007-0.002-0.015-0.004-0.021-0.006
		c-0.003-0.001-0.005-0.001-0.007-0.003c-0.004-0.001-0.009-0.002-0.012-0.003c-0.004-0.002-0.008-0.004-0.012-0.006
		c-0.002,0-0.004-0.001-0.006-0.001c-0.058-0.024-0.108-0.06-0.15-0.103c0,0-0.002-0.001-0.002-0.002
		c-0.003-0.004-0.006-0.007-0.01-0.011c-0.002-0.001-0.004-0.003-0.005-0.006c-0.003-0.002-0.005-0.005-0.007-0.008
		c-0.003-0.003-0.006-0.007-0.009-0.01c-0.002-0.002-0.003-0.004-0.005-0.005c-0.004-0.006-0.007-0.011-0.012-0.017l0,0
		c-0.017-0.025-0.031-0.05-0.044-0.078l-0.001,0c-0.002-0.006-0.005-0.013-0.008-0.02c-0.001,0-0.001-0.001-0.001-0.002
		c-0.003-0.006-0.005-0.012-0.007-0.019c0-0.001,0-0.002-0.002-0.003c-0.001-0.006-0.003-0.013-0.006-0.019c0-0.001,0-0.001,0-0.002
		c-0.002-0.008-0.005-0.016-0.006-0.023c-0.002-0.006-0.003-0.011-0.004-0.017c-0.001-0.001-0.001-0.003-0.001-0.004
		c-0.002-0.006-0.003-0.012-0.003-0.019c0-0.001-0.002-0.003-0.002-0.004c0-0.007-0.001-0.014-0.002-0.021c0-0.001,0-0.002,0-0.002
		c-0.024-0.232,0.119-0.452,0.342-0.51c1.42-0.373,2.234-1.701,2.234-3.226V21.077L25.596,21.077z M23.174,24.818
		c-0.265,0.069-0.489,0.229-0.647,0.439c-0.049-0.066-0.105-0.126-0.167-0.182l-0.032-0.027l-0.026-0.023l-0.029-0.02
		c-0.12-0.087-0.253-0.151-0.396-0.188c-0.735-0.193-1.281-0.76-1.53-1.532h4.363C24.459,24.057,23.912,24.625,23.174,24.818
		L23.174,24.818z M22.286,27.579c0,0,0.042-0.034,0.043-0.036l0.006-0.003l0.027-0.023l0.004-0.004
		c0.02-0.018,0.039-0.034,0.056-0.054l0.024-0.025l0.033-0.038l0.033-0.043c0,0,0.011-0.017,0.012-0.017l0.068,0.103l0.029,0.016
		l0.01,0.009c0.083,0.085,0.181,0.153,0.289,0.201c0,0,0.031,0.014,0.04,0.018c0.006,0.002,0.035,0.012,0.035,0.012
		c0.016,0.005,0.033,0.011,0.049,0.016c0.821,0.23,1.324,0.912,1.324,1.993v0.21h-3.683v-0.21c0-1.074,0.494-1.751,1.303-1.989
		c0.098-0.024,0.191-0.066,0.278-0.124L22.286,27.579L22.286,27.579z"/>
</g>
</svg>
