<?xml version="1.0" encoding="utf-8"?>
<!-- Generator: Adobe Illustrator 21.0.0, SVG Export Plug-In . SVG Version: 6.00 Build 0)  -->
<svg version="1.1" id="图层_1" xmlns="http://www.w3.org/2000/svg" xmlns:xlink="http://www.w3.org/1999/xlink" x="0px" y="0px"
	 viewBox="0 0 200 200" style="enable-background:new 0 0 200 200;" xml:space="preserve">
<path d="M0,100C0,44.8,44.8,0,100,0s100,44.8,100,100s-44.8,100-100,100S0,155.2,0,100z M185.7,100c0-47.3-38.4-85.7-85.7-85.7
	S14.3,52.7,14.3,100s38.4,85.7,85.7,85.7S185.7,147.3,185.7,100z"/>
<path d="M109.9,110l-12.9,12.9c-3.9,3.9-3.9,10.2,0,14.1c3.9,3.9,10.2,3.9,14.1,0l26.4-26.4c5.9-5.9,5.9-15.4,0-21.3l-26.4-26.4
	c-3.9-3.9-10.2-3.9-14.1,0c-3.9,3.9-3.9,10.2,0,14.1L109.9,90H64c-5.5,0-10,4.5-10,10c0,5.5,4.5,10,10,10
	C64,110,109.9,110,109.9,110z"/>
</svg>
