<?xml version="1.0" standalone="no"?><!DOCTYPE svg PUBLIC "-//W3C//DTD SVG 1.1//EN" "http://www.w3.org/Graphics/SVG/1.1/DTD/svg11.dtd"><svg t="1487243837829" class="icon" style="" viewBox="0 0 1024 1024" version="1.1" xmlns="http://www.w3.org/2000/svg" p-id="4481" xmlns:xlink="http://www.w3.org/1999/xlink" width="200" height="200"><defs><style type="text/css"></style></defs><path d="M205.8432 737.152c-29.184 0-55.68-23.872-55.68-52.992 0-29.12 23.872-52.992 55.68-52.992 31.744 0 55.68 23.872 55.68 52.992 0 29.12-26.56 52.992-55.68 52.992z m683.328-288.64c-5.76-42.432-32-76.8-66.56-103.36l-13.44-10.624-10.88 13.248c-21.12 23.872-29.44 66.24-26.88 97.92 2.56 23.936 10.24 47.744 23.68 66.304-10.88 5.312-24.32 10.624-34.56 15.872-24.32 7.936-48 10.624-71.68 10.624H4.1152l-2.56 15.872a297.6 297.6 0 0 0 24 151.04l10.624 18.56v2.56c64 105.984 177.92 153.6 302.08 153.6 238.72 0 434.56-103.232 527.36-325.76 60.8 2.688 122.24-13.248 151.04-71.488l7.68-13.248-12.8-7.936c-34.56-21.12-81.92-23.872-121.6-13.248z m-341.76-42.432H443.7952V509.44h103.68V406.016z m0-129.792H443.7952V379.52h103.68V276.352z m0-132.48H443.7952V247.04h103.68V143.872z m126.72 262.272H571.1552V509.44h103.296V406.016z m-384 0H187.1552V509.44h103.296V406.016z m129.28 0h-102.4V509.44h103.04V406.016z m-257.28 0H59.7952V509.44h103.68V406.016z m257.28-129.792h-102.4V379.52h103.04V276.352z m-129.92 0h-102.4V379.52h103.04V276.352z" fill="" p-id="4482"></path></svg>