<?xml version="1.0" standalone="no"?><!DOCTYPE svg PUBLIC "-//W3C//DTD SVG 1.1//EN" "http://www.w3.org/Graphics/SVG/1.1/DTD/svg11.dtd"><svg t="1484560630497" class="icon" style="" viewBox="0 0 1024 1024" version="1.1" xmlns="http://www.w3.org/2000/svg" p-id="2988" xmlns:xlink="http://www.w3.org/1999/xlink" width="200" height="200"><defs><style type="text/css"></style></defs><path d="M512 873.411765l481.882353-180.705882 0 120.470588-481.882353 180.705882-481.882353-180.705882 0-120.470588L512 873.411765zM30.117647 451.764706l0 120.470588 481.882353 180.705882 481.882353-180.705882L993.882353 451.764706l-481.882353 180.705882L30.117647 451.764706zM993.882353 210.823529l0 120.470588L512 512 30.117647 331.294118 30.117647 210.823529l481.882353-180.705882L993.882353 210.823529zM338.823529 133.722353C338.883765 134.686118 339.727059 135.469176 340.811294 135.529412l110.471529 7.348706 21.805176 39.393882c0.301176 0.542118 0.843294 0.903529 1.445647 1.024 0.120471 0 0.301176 0.060235 0.421647 0.060235 0.481882 0 0.963765-0.180706 1.385412-0.481882L522.420706 147.576471l111.073882 7.408941c1.024 0.060235 1.987765-0.542118 2.228706-1.505882 0.240941-0.903529-0.301176-1.867294-1.325176-2.228706l-80.112941-28.069647L596.931765 90.654118C597.654588 90.051765 597.895529 89.148235 597.473882 88.365176c-0.421647-0.783059-1.385412-1.204706-2.288941-1.084235l-95.774118 16.745412L418.213647 75.595294C417.430588 75.294118 416.466824 75.535059 415.924706 76.077176c-0.602353 0.602353-0.722824 1.445647-0.301176 2.168471l20.359529 36.864L340.570353 131.734588C339.486118 131.915294 338.763294 132.758588 338.823529 133.722353zM339.245176 249.193412C360.207059 241.423059 371.712 230.821647 371.651765 219.376941 371.591529 206.908235 358.339765 195.282824 334.305882 186.669176 311.175529 178.296471 280.997647 173.718588 249.313882 173.718588c-29.394824 0-56.862118 4.035765-77.402353 11.324235-21.684706 7.710118-33.671529 18.432-33.792 30.177882C138.059294 227.508706 150.889412 239.013647 174.320941 247.687529 197.571765 256.301176 228.231529 261.059765 260.457412 261.059765 290.514824 261.059765 318.524235 256.843294 339.245176 249.193412zM585.788235 277.805176c0.361412-0.602353 0.301176-1.385412-0.120471-1.987765-0.421647-0.602353-1.204706-0.903529-1.987765-0.843294L350.147765 296.478118C349.184 296.598588 348.400941 297.261176 348.280471 298.104471 348.16 299.008 348.641882 299.851294 349.545412 300.152471L531.636706 367.435294C531.877647 367.555765 532.178824 367.616 532.419765 367.616c0.783059 0 1.505882-0.361412 1.867294-1.024L585.788235 277.805176zM887.024941 216.244706c0-0.783059-0.542118-1.505882-1.325176-1.746824l-142.336-51.983059c-0.481882-0.180706-1.084235-0.180706-1.566118 0L615.664941 207.872C614.821647 208.173176 614.339765 208.896 614.279529 209.679059S614.821647 211.124706 615.604706 211.425882l142.938353 53.368471c0.240941 0.120471 0.542118 0.120471 0.783059 0.120471 0.301176 0 0.542118-0.060235 0.783059-0.120471l125.590588-46.742588C886.543059 217.690353 887.024941 217.027765 887.024941 216.244706z" p-id="2989"></path></svg>