<?xml version="1.0" standalone="no"?><!DOCTYPE svg PUBLIC "-//W3C//DTD SVG 1.1//EN" "http://www.w3.org/Graphics/SVG/1.1/DTD/svg11.dtd"><svg t="1484245633685" class="icon" style="" viewBox="0 0 1024 1024" version="1.1" xmlns="http://www.w3.org/2000/svg" p-id="3130" xmlns:xlink="http://www.w3.org/1999/xlink" width="200" height="200"><defs><style type="text/css"></style></defs><path d="M427.774472 761.429016c-30.631933 0-60.95001-0.001536-91.2686 0.011776-0.508928 0-1.017856 0.175104-1.72544 0.305152-0.102912 1.125888-0.274432 2.168832-0.2816 3.213312-0.030208 4.448768-0.013312 8.897535-0.013312 13.345791 0 29.251581 0.001536 58.505211-0.003584 87.756792 0 1.481216 0.050688 2.975744-0.11264 4.443648-0.456704 4.106752-3.771392 7.156735-7.845887 7.338495-4.320768 0.192-7.951871-2.627072-8.643071-6.875135-0.258048-1.582592-0.220672-3.222016-0.220672-4.834816-0.011776-33.026557-0.00512-66.054138-0.023552-99.080695-0.001536-1.72032 0.303104-3.488256-0.47872-5.346816-0.886272-0.094208-1.79456-0.264704-2.704384-0.27648-2.966016-0.036864-5.931519-0.01536-8.897535-0.01536-37.070845 0-74.142713-0.166912-111.212022 0.055808-27.504125 0.165376-54.418939-15.659519-67.026938-42.306044-4.806144-10.157567-7.038463-20.876798-7.030271-32.101373 0.022016-30.060541 0.006656-60.122619 0.00512-90.183672 0-11.997695 0-23.995902 0-35.992061 0-1.47456 0-2.94912 0-4.587008-0.960512-0.210432-1.701888-0.464896-2.45504-0.515584-1.20832-0.080896-2.424832-0.028672-3.638272-0.028672-32.891389 0-65.784826 0-98.676215-0.003584-1.348096 0-2.707968 0.080896-4.040704-0.070656-4.507648-0.512512-7.540735-4.023808-7.480319-8.540159 0.060416-4.497408 3.208704-7.852543 7.790079-8.226815 1.339904-0.109568 2.694656-0.065536 4.042752-0.065536 33.026557-0.003584 66.05465 0 99.080695-0.008192 1.59232 0 3.206656 0.1536 4.976128-0.272896 0.13824-0.845824 0.32-1.604096 0.374272-2.372608 0.065536-0.938496 0.027136-1.885696 0.027136-2.829312 0-27.634173 0.001536-55.269883-0.003584-82.903544 0-1.601024-0.05376-3.203584-0.07936-4.644352-1.60768-1.127424-3.139584-0.704512-4.576768-0.709632-13.615615-0.035328-27.229694-0.022016-40.845308-0.022016-19.816958 0-39.631868 0-59.448827-0.001536-1.21344 0-2.433536 0.055808-3.638272-0.04864-4.35456-0.379392-7.514111-3.666944-7.694335-7.928319-0.190464-4.52096 2.73152-8.176127 7.171583-8.818175 1.323008-0.192 2.689536-0.116224 4.035584-0.116224 33.295869-0.00512 66.593786-0.001536 99.889655-0.013312 1.584128 0 3.206656 0.220672 4.692992-0.296448 0.73472-3.818496 1.028096-60.607994 0.48384-89.8478-0.019968-1.044992-0.188928-2.087936-0.27648-2.996224-1.47968-0.886272-2.857984-0.578048-4.173824-0.583168-7.953919-0.028672-15.907327-0.01536-23.859198-0.01536-25.342462 0-50.686459 0.001536-76.028409-0.00512-1.615872 0-3.247104 0.045568-4.844544-0.150016-3.964928-0.486912-6.841343-3.651584-7.080959-7.616511-0.25088-4.1472 1.966592-7.566335 5.807103-8.629247 1.40032-0.387584 2.921984-0.45824 4.389888-0.46848 7.009791-0.045568 14.020095-0.019968 21.02835-0.019968 26.55539 0 53.112827 0.001536 79.668217-0.00512 1.594368 0 3.186688-0.07424 4.996096-0.11776 0.146432-0.975872 0.328704-1.73056 0.360448-2.493952 0.057344-1.34656 0.027136-2.696192 0.027136-4.042752 0.001536-41.5191 0.018432-83.038712-0.006656-124.557813-0.008192-14.523903 3.574272-28.043261 11.512831-40.225276 12.390399-19.013118 29.861885-30.261245 52.378107-33.611261 4.426752-0.658944 8.863743-0.692736 13.308927-0.694272 38.283773-0.01536 76.567545-0.006656 114.853366-0.016896 1.590784 0 3.208192 0.18688 4.782592-0.274432 0.780288-1.506304 0.515584-3.008 0.519168-4.45184 0.025088-9.705983 0.013312-19.412478 0.013312-29.116925 0-22.10867-0.001536-44.215292 0.00512-66.323962 0-1.481216-0.04864-2.979328 0.151552-4.438528 0.59648-4.34432 4.017152-7.208959 8.391679-7.158271 4.356096 0.050688 7.720959 3.041792 8.181247 7.378943 0.155136 1.467904 0.102912 2.960896 0.102912 4.443648 0.00512 31.543293 0.001536 63.088634 0.008192 94.631927 0 1.59232 0.07936 3.18464 0.128 5.033472 1.423872 0.108032 2.58816 0.27136 3.754496 0.272896 9.841151 0.019968 19.68179 0.011776 29.521405 0.011776 18.468862 0 36.935677 0.003584 55.404539-0.006656 1.456128 0 2.91328-0.091136 4.596736-0.14848 0.119808-0.964096 0.288256-1.729024 0.296448-2.493952 0.033792-3.100672 0.018432-6.201343 0.018432-9.302015 0-29.521405-0.006656-59.044347 0.019968-88.565752 0.001536-1.737216 0.067584-3.527168 0.48384-5.198336 0.87808-3.52 3.7376-5.766655 7.250943-6.030847 3.820032-0.288256 7.008255 1.526784 8.447487 4.952576 0.406016 0.967168 0.569344 2.067456 0.67072 3.124224 0.114688 1.2032 0.036864 2.423296 0.036864 3.636224 0 31.543293 0 63.088634 0.003584 94.631927 0 1.59744 0.050688 3.19488 0.080896 4.986368 0.964096 0.158208 1.722368 0.380928 2.482176 0.391168 3.235328 0.041984 6.470655 0.023552 9.705983 0.023552 25.342462 0 50.686459 0 76.028409 0 1.604096 0 3.208192 0 5.006336 0 0.195584-0.940032 0.438272-1.68192 0.486912-2.435072 0.077312-1.20832 0.027136-2.424832 0.027136-3.638272 0-31.408637 0-62.81881 0.003584-94.227447 0-1.348096-0.075776-2.707968 0.075776-4.039168 0.486912-4.301824 3.902464-7.355391 8.193023-7.431167 4.33408-0.075776 7.856127 2.79552 8.499711 7.077375 0.219136 1.45408 0.144896 2.957312 0.144896 4.438528 0.006656 31.678461 0.001536 63.358458 0.013312 95.036407 0 1.585664-0.188928 3.201536 0.33536 4.979712 0.854528 0.08448 1.626112 0.200704 2.399744 0.225792 1.211392 0.036864 2.426368 0.013312 3.639808 0.013312 43.5415 0 87.082488 0.01024 130.623988-0.01024 6.351359-0.003584 12.644863 0.360448 18.885118 1.670144 28.725757 6.032895 51.717627 29.641213 56.936443 58.500091 0.938496 5.190144 1.375232 10.412031 1.373184 15.681535-0.006656 41.5191-0.00512 83.038712 0 124.557813 0 1.594368 0.065536 3.188224 0.104448 5.006336 0.964096 0.131584 1.722368 0.294912 2.487296 0.326656 1.211392 0.052224 2.426368 0.022016 3.639808 0.022016 32.756733 0 65.515002 0 98.271735 0.001536 1.348096 0 2.706432-0.077312 4.040704 0.062464 4.485632 0.46848 7.771647 4.040704 7.792127 8.365055 0.022016 4.4672-3.442688 8.068095-8.145919 8.395263-1.476096 0.102912-2.963968 0.064-4.44672 0.065536-32.756733 0.003584-65.515002 0.001536-98.271735 0.00512-1.598976 0-3.2 0.045568-5.023232 0.072704-0.172032 0.933376-0.364032 1.678336-0.431104 2.435072-0.070656 0.802304-0.023552 1.615872-0.023552 2.424832 0 28.038653 0 56.078331 0 84.116984 0 1.339904 0 2.680832 0 4.19584 0.930304 0.188928 1.6768 0.426496 2.435072 0.4736 1.20832 0.075776 2.424832 0.025088 3.638272 0.025088 32.756733 0 65.515002 0 98.271735 0.001536 1.21344 0 2.429952-0.04864 3.638272 0.027136 4.907008 0.305152 8.507903 4.054528 8.352767 8.651263-0.153088 4.544512-3.612672 7.962111-8.363007 8.216575-1.209856 0.065536-2.426368 0.022016-3.639808 0.022016-33.026557 0-66.054138-0.001536-99.080695 0.006656-1.5872 0-3.174912 0.083968-4.47744 0.121344-0.364032 0.379392-0.480256 0.46336-0.54272 0.574464-0.062464 0.114688-0.097792 0.258048-0.099328 0.38912-0.04864 29.383165-0.092672 58.766331-0.131584 88.151032-0.001536 1.076736 0.036864 2.153472 0.092672 3.228672 0.013312 0.249344 0.17664 0.492032 0.362496 0.975872 0.781824 0.094208 1.68192 0.288256 2.583552 0.296448 4.044288 0.035328 8.088575 0.016896 12.132863 0.016896 29.791229 0 59.583483 0 89.374712 0.003584 1.348096 0 2.702848-0.050688 4.040704 0.075776 4.425216 0.417792 7.758335 4.061184 7.751679 8.386559-0.006656 4.145152-3.161088 7.770111-7.378943 8.341503-1.32608 0.178688-2.691072 0.097792-4.037632 0.097792-33.161213 0.00512-66.323962 0.003584-99.485175 0.003584-1.601024 0-3.201536 0-4.721664 0-1.105408 1.570304-0.694272 3.100672-0.697856 4.523008-0.035328 14.693887-0.022016 29.386749-0.022016 44.080636 0 1.476096 0 2.953728 0 4.58496-0.938496 0.406016-1.7408 0.87296-2.606592 1.112064-18.421758 5.082112-35.847165 12.491775-52.270075 22.260222-0.786944 0.46848-1.631232 0.837632-2.312192 1.183232-1.061376-0.412672-0.866304-1.167872-0.8832-1.787904-0.040448-1.481216-0.02048-2.966016-0.02048-4.448768 0-136.420852-0.00512-272.841703 0.016896-409.263067 0-4.878336-0.338432-9.689087-1.620992-14.410751-5.646847-20.780542-24.267262-33.287677-42.211836-33.653245-2.155008-0.044032-4.312064-0.094208-6.469119-0.094208-144.509427-0.00512-289.018854-0.001536-433.52828-0.01024-5.808639 0-11.566591 0.20224-17.208318 1.872384-16.985598 5.028352-29.829629 19.911166-32.124925 37.451261-0.33024 2.530816-0.520704 5.099008-0.52224 7.650303-0.023552 146.666483-0.030208 293.332965-0.008192 439.999448 0.001536 15.903743 6.374911 28.742653 19.237374 38.152189 7.603199 5.562367 16.219135 8.385023 25.694206 8.396799 1.61792 0.001536 3.235328 0.001536 4.853248 0.001536 136.15154 0 272.302567 0 408.454107 0 1.738752 0 3.478016 0 5.062144 0 0.886272 1.307648-0.025088 2.00704-0.46336 2.74688-5.08416 8.593919-9.620479 17.457662-13.492735 26.667006-3.399168 8.083455-6.287359 16.340479-8.679935 24.772606-0.33024 1.162752-0.700928 2.313728-1.037824 3.420672-1.498112 0.7296-3.006464 0.439808-4.4672 0.441344-17.525246 0.022016-35.048445 0.011776-52.573691 0.018432-1.462784 0-2.927104 0.060928-4.597248 0.099328-0.156672 0.92672-0.355328 1.679872-0.39424 2.441728-0.064 1.209856-0.022016 2.424832-0.022016 3.638272 0 32.891389 0 65.784826-0.003584 98.676215 0 1.348096 0.062464 2.706432-0.086016 4.040704-0.492032 4.426752-4.14208 7.609855-8.541695 7.540735-4.207616-0.064-7.724543-3.208192-8.219647-7.456767-0.155136-1.3312-0.06912-2.69312-0.06912-4.040704-0.003584-33.161213-0.001536-66.323962-0.001536-99.485175 0-1.606144 0-3.211776 0-4.981248-0.982528-0.185344-1.734144-0.39424-2.497536-0.45312-0.938496-0.072704-1.885696-0.022016-2.829312-0.022016-27.768829 0-55.539195-0.003584-83.308024 0.008192-1.584128 0-3.198464-0.18688-5.021696 0.353792-0.057344 1.541632-0.156672 2.991104-0.158208 4.438528-0.011776 14.020095-0.006656 28.038653-0.006656 42.058748 0 19.412478 0 38.822908-0.001536 58.235387 0 1.21344 0.052224 2.431488-0.040448 3.638272-0.305152 3.966976-3.270656 7.116287-7.116287 7.633407-4.106752 0.550912-7.956991-1.748992-9.155071-5.660159-0.426496-1.388544-0.544256-2.910208-0.569344-4.374528-0.072704-4.177408-0.027136-8.356351-0.027136-12.535295 0-29.521405 0.003584-59.044347-0.008192-88.565752C428.202504 765.055 428.395016 763.437592 427.774472 761.429016z" p-id="3131"></path><path d="M1020.00277 815.729683c-0.308224 109.605878-89.696248 196.137454-196.764654 195.768814-106.30655-0.365568-195.476974-86.572024-195.342318-196.351982 0.13312-108.76671 88.466424-195.915246 196.329966-195.753454C932.276186 619.556389 1020.053458 707.200541 1020.00277 815.729683zM715.111917 789.728277c-0.764928 0.357376-0.881152 0.444928-1.009152 0.466944-11.686399 1.974784-23.373822 3.948032-35.061757 5.911551-1.432064 0.241152-2.913792 0.296448-4.116992 1.108992-0.087552 0.584704-0.198656 0.98048-0.198656 1.375232-0.011776 11.187199-0.016896 22.37491 0 33.562109 0.001536 0.633344 0.198656 1.268736 0.342016 2.111488 13.362687 2.241024 26.617854 4.46208 39.653884 6.649343 2.323968 4.367872 13.229567 30.999037 13.947391 34.044413-2.514432 3.516928-5.099008 7.131135-7.680511 10.749439-2.6624 3.729408-5.360128 7.434751-7.970815 11.198975-2.514432 3.626496-5.333504 7.053823-7.475199 10.850303 2.685952 3.27936 23.667198 24.178174 26.339838 26.222078 1.029632-0.682496 2.155008-1.37984 3.232256-2.148352 8.774143-6.263295 17.540094-12.540415 26.30963-18.812414 0.766976-0.549376 1.5488-1.078272 2.305024-1.641472 0.845824-0.630272 1.742336-0.633344 2.675712-0.27136 0.628736 0.244224 1.24672 0.510464 1.8688 0.766976 9.087999 3.75296 18.177022 7.502335 27.259902 11.266559 0.98048 0.406016 1.924608 0.906752 3.085312 1.457664 1.097216 6.630911 2.099712 13.283839 3.316224 19.895806 1.211392 6.585343 1.971712 13.258239 3.516928 19.796478 0.746496 0.128 1.265664 0.291328 1.786368 0.293376 11.187199 0.01536 22.37491 0.018432 33.562109-0.006656 0.631808-0.001536 1.26208-0.272896 1.897472-0.41984 0.150016-0.684032 0.286208-1.196544 0.374272-1.717248 1.8688-11.158527 3.72736-22.320638 5.606399-33.478141 0.264704-1.572352 0.626688-3.129344 0.938496-4.670976 11.296767-4.637184 22.294014-9.347071 33.474557-13.797375 3.772928 2.67264 7.397375 5.232128 11.013631 7.805439 3.734016 2.655744 7.437823 5.353472 11.195903 7.973887 3.626496 2.52928 7.082495 5.313024 11.108351 7.714303 2.285056-2.248192 4.48768-4.400128 6.674431-6.568447 2.200576-2.184192 4.386304-4.383232 6.578687-6.573567 2.192384-2.192384 4.431872-4.340736 6.563327-6.588927 2.104832-2.221056 4.618752-4.081152 6.349311-6.824447-7.889407-11.057663-15.705087-22.012414-23.549438-33.004541 2.381312-5.769727 4.66944-11.369471 7.000063-16.952318 2.323968-5.569023 4.452352-11.224575 7.028735-16.691198 6.851583-1.152512 13.492735-2.229248 20.120062-3.395584 6.591999-1.159168 13.250047-1.973248 19.980286-3.528704 0.155136-6.285311 0.080896-12.335103 0.064-18.38131-0.018432-6.163967 0.190464-12.336639-0.219136-18.561534-0.85248-0.269312-1.467904-0.545792-2.111488-0.653824-6.907391-1.156096-13.819391-2.281472-20.730366-3.420672-5.050368-0.832512-10.093567-1.701888-15.150591-2.488832-1.491456-0.232448-2.485248-0.903168-2.953728-2.349056-0.165376-0.510464-0.41984-0.992256-0.625152-1.489408-3.81184-9.210879-7.625215-18.418174-11.423231-27.634173-0.352256-0.854528-0.60672-1.748992-0.93696-2.714624 7.839231-11.018751 15.638015-21.978622 23.569406-33.131005-3.122688-3.127808-6.063103-6.073343-9.006591-9.018879-2.857984-2.85952-5.678591-5.759999-8.588799-8.566783-2.970624-2.868224-5.624831-6.085119-9.067519-8.673279-11.082751 7.904767-22.03443 15.716863-33.039869 23.56787-11.254783-4.640768-22.317566-9.204223-33.371645-13.762047-0.291328-1.078272-0.61184-1.966592-0.766976-2.881536-1.944576-11.556351-3.858944-23.117822-5.807103-34.672637-0.150016-0.889856-0.497152-1.747456-0.722944-2.522624-3.590656-0.470016-23.980542-0.6656-34.559997-0.342016-0.786944 0.023552-1.568768 0.198656-2.581504 0.33536-2.234368 13.327359-4.459008 26.587646-6.711807 40.019452-11.283455 4.632576-22.383102 9.411583-33.658365 13.850111-3.809792-2.704384-7.429631-5.269504-11.045887-7.842303-3.734016-2.655744-7.451647-5.333504-11.195903-7.973887-3.60448-2.541056-7.102975-5.238784-10.851839-7.603199-0.630272 0.497152-1.081856 0.785408-1.45408 1.156096-7.918079 7.903231-15.831551 15.811583-23.728126 23.734782-0.443392 0.444928-0.733184 1.039872-1.140736 1.629184 7.851007 11.162111 15.813119 22.004222 23.510526 33.034749C724.180973 767.788567 719.607789 778.850838 715.111917 789.728277z" p-id="3132"></path><path d="M549.221885 369.638972c3.270656-0.544256 23.684094-0.630272 28.186621-0.12288 0 0.84736 0.151552 1.752576-0.022016 2.590208-3.250688 15.693311-6.538239 31.379965-9.820671 47.06662-3.034624 14.500351-6.108671 28.994045-9.072639 43.507708-0.481792 2.357248-0.820736 4.834304-0.652288 7.215615 0.572928 8.108543 4.982784 13.499391 12.525567 16.234495 4.884992 1.771008 10.016255 2.074112 15.164415 1.52832 2.26816-0.241152 4.539392-0.652288 6.747135-1.223168 7.326719-1.895936 12.673535-6.332415 16.220671-12.982271 2.171904-4.069376 3.639808-8.421887 4.713472-12.872703 2.020352-8.376831 3.914752-16.786942 5.699071-25.217534 4.435456-20.94899 8.777727-41.91846 13.169151-62.878202 0.192-0.91648 0.492032-1.80992 0.7936-2.901504 0.635392-0.126464 1.260544-0.355328 1.887232-0.357376 8.356351-0.022016 16.71475-0.016896 25.071102-0.001536 0.386048 0 0.771584 0.151552 1.314304 0.26624 0.490496 1.620992-0.144896 3.155968-0.450048 4.66944-1.491456 7.392767-3.055104 14.771711-4.598784 22.154238-3.749376 17.929726-7.470079 35.864061-11.266559 53.782011-1.563648 7.382527-3.536896 14.663679-6.052863 21.785086-0.761856 2.157056-1.593856 4.293632-2.49088 6.399999-7.281151 17.112062-20.123646 27.699709-38.137341 31.845373-12.390399 2.851328-24.877054 2.758656-37.245949-0.392704-7.030271-1.78944-13.359615-5.001216-18.679294-10.017791-8.514559-8.031231-12.474879-18.02035-12.649983-29.622269-0.075776-5.011456 0.52224-9.958911 1.540096-14.847487 5.431296-26.10739 10.890751-52.209659 16.360447-78.308345C547.991549 374.461499 548.223997 371.903548 549.221885 369.638972z" p-id="3133"></path><path d="M414.419977 456.166964c-1.35168 6.322687-2.632192 12.233727-3.87584 18.151934-1.21856 5.798399-2.325504 11.620351-3.61984 17.401854-1.317888 5.885951-2.217472 11.871743-3.862016 17.573886-3.838464 0.486912-24.793086 0.46336-28.110845 0-0.7936-1.130496-0.249344-2.323968-0.01536-3.45088 2.187264-10.548735 4.425216-21.085694 6.636031-31.629309 5.249024-25.04243 10.491391-50.084859 15.735295-75.126777 1.904128-9.094655 3.800064-18.190846 5.719039-27.281918 0.161792-0.768512 0.47872-1.506304 0.764928-2.393088 1.014272-0.075776 1.929216-0.205824 2.844672-0.205824 18.463742-0.011776 36.927485-0.05888 55.391227 0.019968 6.202879 0.027136 12.388863 0.54272 18.409982 2.207232 13.074943 3.61472 20.440062 12.430847 22.84339 25.530878 1.723904 9.392639 0.289792 18.51443-3.119104 27.357694-2.899968 7.520767-6.979583 14.244351-13.174271 19.575806-5.210624 4.485632-11.131903 7.537663-17.782782 9.182207-5.894655 1.4592-11.851263 2.563072-17.949694 2.65216-10.642943 0.156672-21.28435 0.291328-31.927805 0.429568C417.856009 456.182324 416.385033 456.166964 414.419977 456.166964zM427.88404 392.633402c-1.99168 6.800895-8.127487 36.792317-8.164351 39.904764 0.768512 0.086016 1.553408 0.24576 2.338816 0.25088 4.308992 0.022016 8.627711 0.18176 12.924927-0.041984 5.909503-0.308224 11.809279-0.840704 17.698814-1.428992 3.656704-0.364032 7.119359-1.563648 10.225151-3.533824 8.159231-5.176832 12.382207-12.580863 11.954175-22.319102-0.28672-6.509567-4.517888-11.116543-10.926079-12.122623-2.916864-0.45824-5.885951-0.748032-8.836607-0.7936-8.211455-0.126464-16.426495-0.087552-24.639486-0.099328C429.663752 392.450106 428.870152 392.56121 427.88404 392.633402z" p-id="3134"></path><path d="M355.808782 412.325944c-8.868863 1.18272-17.831934 1.72544-26.936318 2.788864-0.386048-1.041408-0.707584-1.887232-1.012736-2.740224-0.948736-2.65728-1.678336-5.4144-2.872832-7.955455-3.08736-6.558207-8.460799-10.322943-15.449087-11.832831-7.188479-1.55392-14.217215-0.800256-21.025278 1.880576-7.468543 2.941952-13.504511 7.751679-18.16371 14.292991-4.1856 5.877759-7.016959 12.402175-9.247743 19.220478-3.225088 9.852927-4.511232 19.941374-3.729408 30.283261 0.336896 4.463616 1.323008 8.777727 3.113984 12.897791 1.46944 3.378688 3.503104 6.361087 6.116863 8.954879 6.278655 6.226431 13.878271 8.580607 22.543358 7.456767 9.898495-1.284096 17.61587-6.308863 23.50387-14.257663 2.33728-3.155968 4.128768-6.622719 5.560831-10.277375 0.485376-1.240064 1.024512-2.46016 1.636352-3.91936 9.638911 1.285632 19.130878 2.797056 28.559357 4.281856 0 0.758272 0.072704 1.039872-0.01024 1.265664-4.596736 12.471295-11.343871 23.517182-21.584382 32.191997-9.944063 8.423935-21.446142 13.216255-34.389501 14.737919-8.797695 1.034752-17.50323 0.73984-26.070014-1.4848-17.159678-4.455424-28.368893-15.341055-33.992189-32.049149-3.222016-9.572863-4.061184-19.50003-3.772928-29.514749 0.318464-11.106303 2.173952-21.961726 6.115327-32.411133 3.55072-9.413119 8.282111-18.145278 15.019519-25.663998 12.119039-13.526527 27.287038-21.15635 45.329404-23.17875 8.258559-0.925184 16.436734-0.556032 24.460798 1.553408 19.634686 5.165056 31.336445 17.970174 35.754493 37.633533 0.323584 1.442304 0.534016 2.911744 0.742912 4.378112C356.060174 411.233848 355.90811 411.639864 355.808782 412.325944z" p-id="3135"></path><path d="M898.569181 816.000531c-0.177152-43.325436-34.565117-73.864697-72.139257-75.081721-39.92166-1.294336-76.287993 29.762557-77.002745 73.342457-0.690688 42.201596 32.729597 74.469881 72.226809 75.686393C862.052832 891.193356 897.696221 859.636751 898.569181 816.000531z" p-id="3136"></path></svg>