<?xml version="1.0" encoding="utf-8"?>
<!-- Generator: Adobe Illustrator 21.0.0, SVG Export Plug-In . SVG Version: 6.00 Build 0)  -->
<svg version="1.1" id="图层_1" xmlns="http://www.w3.org/2000/svg" xmlns:xlink="http://www.w3.org/1999/xlink" x="0px" y="0px"
	 viewBox="0 0 200 200" style="enable-background:new 0 0 200 200;" xml:space="preserve">
<style type="text/css">
	.st0{stroke:#FFFFFF;stroke-width:8;stroke-linecap:round;stroke-linejoin:round;stroke-miterlimit:10;}
	.st1{stroke:#FFFFFF;stroke-width:8;stroke-miterlimit:10;}
	.st2{stroke:#FFFFFF;stroke-miterlimit:10;}
</style>
<path d="M88.1,0c28.1,0,50.9,22.4,50.9,50.1c0,27.6-22.8,50.1-50.9,50.1S37.2,77.7,37.2,50.1C37.2,22.4,60,0,88.1,0z M88.1,0
	c28.1,0,50.9,22.4,50.9,50.1c0,27.6-22.8,50.1-50.9,50.1S37.2,77.7,37.2,50.1C37.2,22.4,60,0,88.1,0z M69,110h42.4
	c36.3,0,65.8,31.3,65.8,70v4.5c0,15.2-29.5,15.8-65.8,15.8H69c-36.3,0-65.8,0-65.8-15.8V180C3.3,141.3,32.7,110,69,110z"/>
<g>
	<path class="st0" d="M196.8,139.8c0-0.8-0.3-1.5-0.9-2.1c-0.6-0.6-1.4-0.9-2.1-0.9h-4.6c-1.9,0-3.9-1.5-4.5-3.3l-2.4-5.8
		c-0.9-1.7-0.5-4.2,0.8-5.5l3.3-3.3c0.5-0.5,0.9-1.3,0.9-2.1c0-0.8-0.3-1.6-0.9-2.1l-5.5-5.5c-0.5-0.5-1.3-0.9-2.1-0.9
		c-0.8,0-1.6,0.3-2.1,0.9l-3.3,3.3c-1.3,1.3-3.8,1.7-5.5,0.8l-5.8-2.4c-1.8-0.6-3.3-2.6-3.3-4.5v-4.6c0-0.8-0.3-1.5-0.9-2.1
		c-0.6-0.6-1.4-0.9-2.1-0.9h-7.8c-0.8,0-1.5,0.3-2.1,0.9c-0.6,0.6-0.9,1.4-0.9,2.1v4.6c0,1.9-1.5,3.9-3.3,4.5l-5.8,2.4
		c-1.7,0.9-4.2,0.5-5.5-0.8l-3.3-3.3c-0.5-0.5-1.3-0.9-2.1-0.9c-0.8,0-1.6,0.3-2.1,0.9l-5.5,5.5c-0.5,0.5-0.9,1.3-0.9,2.1
		c0,0.8,0.3,1.6,0.9,2.1l3.3,3.3c1.3,1.3,1.7,3.8,0.8,5.5l-2.4,5.8c-0.6,1.8-2.6,3.3-4.5,3.3l-4.6,0c-0.8,0-1.5,0.3-2.1,0.9
		c-0.6,0.6-0.9,1.4-0.9,2.1v7.8c0,0.8,0.3,1.5,0.9,2.1c0.6,0.6,1.4,0.9,2.1,0.9h4.6c1.9,0,3.9,1.5,4.5,3.3l2.4,5.8
		c0.9,1.7,0.5,4.2-0.8,5.5l-3.3,3.3c-0.5,0.5-0.9,1.3-0.9,2.1c0,0.8,0.3,1.6,0.9,2.1l5.5,5.5c0.5,0.5,1.3,0.9,2.1,0.9
		c0.8,0,1.6-0.3,2.1-0.9l3.3-3.3c1.3-1.3,3.8-1.7,5.5-0.8l5.8,2.4c1.8,0.6,3.3,2.6,3.3,4.5v4.6c0,0.8,0.3,1.5,0.9,2.1
		c0.6,0.6,1.4,0.9,2.1,0.9h7.8c0.8,0,1.5-0.3,2.1-0.9c0.6-0.6,0.9-1.4,0.9-2.1v-4.6c0-1.9,1.5-3.9,3.3-4.5l5.8-2.4
		c1.7-0.9,4.2-0.5,5.5,0.8l3.2,3.3c0.5,0.5,1.3,0.9,2.1,0.9c0.8,0,1.6-0.3,2.1-0.9l5.5-5.5c0.5-0.5,0.9-1.3,0.9-2.1
		c0-0.8-0.3-1.6-0.9-2.1l-3.3-3.3c-1.3-1.3-1.7-3.8-0.8-5.5l2.4-5.8c0.6-1.8,2.6-3.3,4.5-3.3h4.6c0.8,0,1.5-0.3,2.1-0.9
		c0.6-0.6,0.9-1.4,0.9-2.1V139.8L196.8,139.8L196.8,139.8z"/>
	<path class="st1" d="M166.3,143.7c0,8.1-6.5,14.6-14.6,14.6c-8.1,0-14.6-6.5-14.6-14.6c0-8.1,6.5-14.6,14.6-14.6
		C159.8,129.1,166.3,135.6,166.3,143.7"/>
</g>
<path class="st2" d="M193.9,140c0-0.7-0.3-1.4-0.8-2c-0.6-0.6-1.3-0.8-2-0.8h-4.3c-1.8,0-3.7-1.4-4.2-3.1l-2.2-5.4
	c-0.8-1.6-0.5-3.9,0.8-5.1l3.1-3.1c0.5-0.5,0.8-1.2,0.8-2c0-0.8-0.3-1.5-0.8-2l-5.2-5.2c-0.5-0.5-1.2-0.8-2-0.8
	c-0.8,0-1.5,0.3-2,0.8l-3.1,3.1c-1.3,1.3-3.6,1.6-5.1,0.8l-5.4-2.2c-1.7-0.5-3.1-2.4-3.1-4.2v-4.3c0-0.7-0.3-1.4-0.8-2
	c-0.6-0.6-1.3-0.8-2-0.8h-7.3c-0.7,0-1.4,0.3-2,0.8c-0.6,0.6-0.8,1.3-0.8,2v4.3c0,1.8-1.4,3.7-3.1,4.2l-5.4,2.2
	c-1.6,0.8-3.9,0.5-5.1-0.8l-3.1-3.1c-0.5-0.5-1.2-0.8-2-0.8c-0.8,0-1.5,0.3-2,0.8l-5.2,5.2c-0.5,0.5-0.8,1.2-0.8,2
	c0,0.8,0.3,1.5,0.8,2l3.1,3.1c1.3,1.3,1.6,3.6,0.8,5.1l-2.2,5.4c-0.5,1.7-2.4,3.1-4.2,3.1l-4.3,0c-0.7,0-1.4,0.3-2,0.8
	c-0.6,0.6-0.8,1.3-0.8,2v7.3c0,0.7,0.3,1.4,0.8,2c0.6,0.5,1.3,0.8,2,0.8h4.3c1.8,0,3.7,1.4,4.2,3.1l2.2,5.4c0.8,1.6,0.5,3.9-0.8,5.1
	l-3.1,3.1c-0.5,0.5-0.8,1.2-0.8,2c0,0.8,0.3,1.5,0.8,2l5.2,5.2c0.5,0.5,1.2,0.8,2,0.8c0.8,0,1.5-0.3,2-0.8l3.1-3.1
	c1.3-1.3,3.6-1.6,5.1-0.8l5.4,2.2c1.7,0.5,3.1,2.4,3.1,4.2v4.3c0,0.7,0.3,1.4,0.8,2c0.6,0.5,1.3,0.8,2,0.8h7.3c0.7,0,1.4-0.3,2-0.8
	c0.6-0.6,0.8-1.3,0.8-2v-4.3c0-1.8,1.4-3.7,3.1-4.2l5.4-2.2c1.6-0.9,3.9-0.5,5.2,0.8l3,3.1c0.5,0.5,1.2,0.8,2,0.8
	c0.8,0,1.5-0.3,2-0.8l5.2-5.2c0.5-0.5,0.8-1.2,0.8-2c0-0.8-0.3-1.5-0.8-2l-3.1-3.1c-1.3-1.3-1.6-3.6-0.8-5.1l2.2-5.4
	c0.5-1.7,2.4-3.1,4.2-3.1h4.3c0.7,0,1.4-0.3,2-0.8c0.6-0.6,0.8-1.3,0.8-2V140L193.9,140L193.9,140z M169.7,143.6c0,10-8.1,18-18,18
	c-10,0-18-8.1-18-18c0-10,8.1-18,18-18C161.6,125.5,169.7,133.6,169.7,143.6"/>
</svg>
