<?xml version="1.0" encoding="utf-8"?>
<!-- Generator: Adobe Illustrator 21.0.0, SVG Export Plug-In . SVG Version: 6.00 Build 0)  -->
<svg version="1.1" id="图层_1" xmlns="http://www.w3.org/2000/svg" xmlns:xlink="http://www.w3.org/1999/xlink" x="0px" y="0px"
	 viewBox="0 0 200 200" style="enable-background:new 0 0 200 200;" xml:space="preserve">
<path d="M98.1,12.6c24.6,0,44.5,19.6,44.5,43.8c0,24.2-19.9,43.8-44.5,43.8S53.6,80.6,53.6,56.4C53.6,32.2,73.6,12.6,98.1,12.6z
	 M98.1,12.6c24.6,0,44.5,19.6,44.5,43.8c0,24.2-19.9,43.8-44.5,43.8S53.6,80.6,53.6,56.4C53.6,32.2,73.6,12.6,98.1,12.6z
	 M81.4,114.8h37.1c31.8,0,57.5,25.3,57.5,56.6v3.6c0,12.3-25.7,12.8-57.5,12.8H81.4c-31.7,0-57.5,0-57.5-12.8v-3.6
	C24,140.1,49.7,114.8,81.4,114.8z"/>
</svg>
