<?xml version="1.0" standalone="no"?><!DOCTYPE svg PUBLIC "-//W3C//DTD SVG 1.1//EN" "http://www.w3.org/Graphics/SVG/1.1/DTD/svg11.dtd"><svg t="1484208082618" class="icon" style="" viewBox="0 0 1024 1024" version="1.1" xmlns="http://www.w3.org/2000/svg" p-id="2629" xmlns:xlink="http://www.w3.org/1999/xlink" width="200" height="200"><defs><style type="text/css"></style></defs><path d="M960.246 848.185c0 26.515-21.512 48.026-48.026 48.026L752.132 896.211c-26.515 0-48.026-21.512-48.026-48.026L704.106 688.097c0-26.515 21.512-48.026 48.026-48.026l48.026 0 0-96.053L544.018 544.018l0 96.053 48.026 0c26.515 0 48.026 21.512 48.026 48.026l0 160.088c0 26.515-21.512 48.026-48.026 48.026L431.956 896.211c-26.515 0-48.026-21.512-48.026-48.026L383.93 688.097c0-26.515 21.512-48.026 48.026-48.026l48.026 0 0-96.053L223.842 544.018l0 96.053 48.026 0c26.515 0 48.026 21.512 48.026 48.026l0 160.088c0 26.515-21.512 48.026-48.026 48.026L111.78 896.211c-26.515 0-48.026-21.512-48.026-48.026L63.754 688.097c0-26.515 21.512-48.026 48.026-48.026l48.026 0 0-96.053c0-35.02 29.016-64.035 64.035-64.035l256.141 0L479.982 383.93l-48.026 0c-26.515 0-48.026-21.512-48.026-48.026L383.93 175.815c0-26.515 21.512-48.026 48.026-48.026l160.088 0c26.515 0 48.026 21.512 48.026 48.026l0 160.088c0 26.515-21.512 48.026-48.026 48.026l-48.026 0 0 96.053 256.141 0c35.02 0 64.035 29.016 64.035 64.035l0 96.053 48.026 0c26.515 0 48.026 21.512 48.026 48.026L960.246 848.185z" p-id="2630"></path></svg>