<?xml version="1.0" standalone="no"?><!DOCTYPE svg PUBLIC "-//W3C//DTD SVG 1.1//EN" "http://www.w3.org/Graphics/SVG/1.1/DTD/svg11.dtd"><svg t="1484463845988" class="icon" style="" viewBox="0 0 1024 1024" version="1.1" xmlns="http://www.w3.org/2000/svg" p-id="10780" xmlns:xlink="http://www.w3.org/1999/xlink" width="200" height="200"><defs><style type="text/css"></style></defs><path d="M512.3198 0.6396c-282.19163 0-511.6802 229.48857-511.6802 511.6802 0 282.19163 229.48857 511.6802 511.6802 511.6802 282.19163 0 511.6802-229.48857 511.6802-511.6802C1024 230.12817 794.51143 0.6396 512.3198 0.6396zM512.3198 970.145659c-252.514179 0-457.825859-205.4396-457.825859-457.825859 0-252.514179 205.4396-457.825859 457.825859-457.825859 252.514179 0 457.825859 205.4396 457.825859 457.825859C970.145659 764.833979 764.833979 970.145659 512.3198 970.145659zM620.796002 234.093691c-93.765397 0-169.877826 75.98451-169.877826 169.621986 0 19.443848 3.325921 38.120175 9.338164 55.517302l-204.67208 203.009119c-29.421611 29.421611-29.421611 77.00787 0 106.301562s77.00787 29.421611 106.429482 0l14.199126-14.071205 41.062336 0c9.466084 0 17.269207-7.675203 17.269207-17.269207l0-40.038976 40.038976 0c9.466084 0 17.269207-7.675203 17.269207-17.269207l0-40.166896 75.72867-75.089069c16.757527 5.500562 34.666334 8.570643 53.342661 8.570643 93.765397 0 169.877826-75.98451 169.877826-169.621986C790.545909 309.950281 714.561399 234.093691 620.796002 234.093691zM661.474578 417.275203c-29.037851 0-52.703061-23.537289-52.703061-52.575141s23.537289-52.575141 52.703061-52.575141c29.037851 0 52.703061 23.537289 52.703061 52.575141S690.64035 417.275203 661.474578 417.275203z" p-id="10781"></path></svg>