<?xml version="1.0" standalone="no"?><!DOCTYPE svg PUBLIC "-//W3C//DTD SVG 1.1//EN" "http://www.w3.org/Graphics/SVG/1.1/DTD/svg11.dtd"><svg t="1483957269297" class="icon" style="" viewBox="0 0 1024 1024" version="1.1" xmlns="http://www.w3.org/2000/svg" p-id="2682" xmlns:xlink="http://www.w3.org/1999/xlink" width="200" height="200"><defs><style type="text/css"></style></defs><path d="M348.943059 207.721412c-17.980235 7.68-34.153412 16.534588-49.784471 26.895059C283.858824 245.248 269.131294 257.355294 256.180706 270.667294l0 0 0 0C242.326588 284.250353 230.550588 299.008 220.250353 314.398118l0 0c-10.601412 15.36-19.727059 32.496941-26.804706 49.633882-5.601882 13.010824 0.602353 27.196235 13.251765 32.496941 12.378353 5.330824 27.075765-0.602353 32.406588-13.010824 5.903059-14.185412 13.552941-28.370824 22.377412-41.381647l0 0C270.305882 329.155765 280.033882 316.747294 290.936471 306.115765c11.173647-11.233882 23.250824-21.293176 36.231529-30.147765 13.251765-8.854588 26.804706-16.263529 40.929882-22.467765 12.980706-5.330824 18.853647-19.516235 13.552941-32.496941C376.32 208.594824 361.592471 202.390588 348.943059 207.721412L348.943059 207.721412zM989.485176 947.681882 989.485176 947.681882l-179.350588-179.380706c29.153882-35.177412 52.705882-73.878588 70.384941-116.434824 22.377412-53.790118 34.153412-112.308706 34.153412-173.778824 0-60.295529-11.776-118.211765-33.581176-171.098353l-0.602353-2.078118c-22.407529-54.663529-55.356235-103.725176-96.015059-145.408L782.155294 157.485176c-41.231059-41.682824-91.286588-75.354353-146.672941-98.394353l0 0 0 0C582.204235 36.894118 523.565176 24.786824 462.607059 24.786824c-124.566588 0-237.658353 50.838588-319.548235 132.698353C101.556706 199.137882 67.704471 249.374118 45.025882 304.941176 22.919529 358.430118 10.842353 416.647529 10.842353 478.117647c0 60.867765 12.077176 118.814118 33.28 171.399529l0.873412 2.379294c22.678588 54.964706 56.530824 105.200941 98.063059 146.853647l0 0c41.833412 41.953882 91.888941 75.655529 146.672941 98.424471l0.602353 0c53.007059 22.467765 111.314824 34.575059 172.272941 34.575059 61.530353 0 119.567059-12.107294 172.875294-34.575059 42.405647-17.136941 81.588706-41.381647 116.043294-70.324706l179.651765 180.284235c15.902118 15.962353 42.405647 15.962353 58.307765-0.602353C1005.688471 990.238118 1005.387294 963.945412 989.485176 947.681882L989.485176 947.681882zM723.847529 739.930353 723.847529 739.930353l0 0.301176-0.602353 0.602353c-33.852235 33.701647-74.209882 61.168941-119.265882 79.480471-43.309176 18.311529-90.985412 28.370824-141.372235 28.370824-50.085647 0-97.792-10.059294-141.071059-28.370824l0 0c-45.357176-18.311529-85.714824-46.110118-119.567059-80.082824l-0.301176-0.301176 0.301176 0c-34.183529-33.972706-61.861647-75.053176-80.715294-120.289882l-0.602353-2.078118C103.333647 575.036235 93.605647 527.751529 93.605647 478.117647c0-50.236235 9.728-98.123294 27.678118-141.552941 18.853647-44.634353 46.531765-85.985882 80.715294-120.289882 66.56-66.800941 159.021176-108.453647 260.638118-108.453647 50.356706 0 98.063059 10.059294 141.372235 28.069647 45.056 18.311529 85.714824 46.110118 119.838118 80.384l2.379294 1.776941c32.677647 33.972706 59.482353 73.878588 77.763765 118.512941l1.174588 2.078118c16.805647 42.556235 27.075765 90.142118 27.075765 139.474824 0 50.537412-10.300235 98.394353-28.250353 141.552941C785.709176 664.877176 758.031059 705.957647 723.847529 739.930353L723.847529 739.930353zM730.322824 453.270588 730.322824 453.270588c-13.552941 0-24.726588 11.233882-24.726588 24.816941 0 31.924706-5.903059 63.819294-18.251294 93.394824l-0.602353 1.174588c-12.077176 27.768471-28.852706 54.663529-52.434824 77.432471-22.979765 23.642353-50.055529 41.381647-78.607059 53.187765-29.455059 12.408471-60.958118 18.311529-93.063529 18.311529-13.824 0-24.455529 11.233882-24.455529 25.118118s10.601412 25.118118 24.455529 25.118118c38.580706 0 76.288-7.68 112.218353-22.467765 34.755765-14.185412 67.132235-35.478588 94.840471-63.849412 27.678118-27.768471 48.579765-59.693176 63.036235-93.967059l0-0.903529c15.299765-36.050824 22.979765-74.752 22.979765-112.579765C755.651765 464.504471 744.176941 453.270588 730.322824 453.270588L730.322824 453.270588z" p-id="2683" fill="#323232"></path></svg>