<?xml version="1.0" encoding="utf-8"?>
<!-- Generator: Adobe Illustrator 14.0.0, SVG Export Plug-In  -->
<!DOCTYPE svg PUBLIC "-//W3C//DTD SVG 1.1//EN" "http://www.w3.org/Graphics/SVG/1.1/DTD/svg11.dtd" [
	<!ENTITY ns_flows "http://ns.adobe.com/Flows/1.0/">
	<!ENTITY st0 "fill:#F8B608;">
	<!ENTITY st1 "fill:#FFFFFF;">
]>
<svg version="1.1"
	 xmlns="http://www.w3.org/2000/svg" xmlns:xlink="http://www.w3.org/1999/xlink" xmlns:a="http://ns.adobe.com/AdobeSVGViewerExtensions/3.0/"
	 x="0px" y="0px" width="290px" height="260px" viewBox="0 0 290 260" style="enable-background:new 0 0 290 260;"
	 xml:space="preserve">
<defs>
</defs>
<path style="&st0;" d="M196.405,260H93.527C41.873,260,0,218.84,0,168.046V92.023C0,41.16,41.873,0.059,93.527,0.059L196.405,0
	C248.088,0.059,290,41.16,290,92.023v76.023C290,218.84,248.088,260,196.405,260L196.405,260z"/>
<path style="&st1;" d="M192.86,251.034H97.077C48.985,251.034,10,212.713,10,165.423V94.642C10,47.287,48.985,9.021,97.077,9.021
	l95.783-0.055C240.978,9.021,280,47.287,280,94.642v70.781C280,212.713,240.978,251.034,192.86,251.034L192.86,251.034z"/>
<path style="&st0;" d="M83.629,121.208v34.026v19.611h19.484h91.707l0.039,21.854l31.437-31.645L194.82,133.4l0.039,21.805
	l-20.745,0.01v0.02h-71.001v-34.026c11.58-4.064,19.934-15.025,19.934-28.054c0-16.481-13.293-29.854-29.676-29.854
	c-16.384,0-29.666,13.373-29.666,29.854C63.705,106.183,72.048,117.144,83.629,121.208z M74.249,97.435
	c0-10.618,38.195-10.618,38.195,0c0,10.607-8.549,19.207-19.093,19.207C82.798,116.642,74.249,108.042,74.249,97.435z"/>
</svg>
