<?xml version="1.0" encoding="utf-8"?>
<!-- Generator: Adobe Illustrator 16.0.0, SVG Export Plug-In . SVG Version: 6.00 Build 0)  -->
<!DOCTYPE svg PUBLIC "-//W3C//DTD SVG 1.1//EN" "http://www.w3.org/Graphics/SVG/1.1/DTD/svg11.dtd">
<svg version="1.1" id="图层_1" xmlns="http://www.w3.org/2000/svg" xmlns:xlink="http://www.w3.org/1999/xlink" x="0px" y="0px"
	 width="38px" height="38px" viewBox="0 0 38 38" enable-background="new 0 0 38 38" xml:space="preserve">
<g>
	<path fill="#1F6E85" d="M34,22.091C34,23.799,32.699,25,31.037,25H6.975C5.314,25,4,23.799,4,22.091v-6.183
		C4,14.2,5.314,13,6.975,13h24.062C32.699,13,34,14.2,34,15.908V22.091z"/>
	<path fill="#FFFFFF" d="M31,20.999C31,21.551,30.666,22,30.107,22H7.894C7.336,22,7,21.551,7,20.999v-3.998
		C7,16.449,7.336,16,7.894,16h22.213C30.666,16,31,16.449,31,17.001V20.999z"/>
	<g>
		<path fill="#1F6E85" d="M12.33,9c-0.562,0-0.688,0.31-0.284,0.691l2.583,2.432c0.405,0.383,1.069,0.381,1.475-0.001l2.582-2.43
			C19.091,9.311,18.963,9,18.402,9H12.33z"/>
		<path fill="#1F6E85" d="M14.307,9h2.255C15.366-1,0,0.11,0,0.11v1.886C2,1.997,12.739,2,14.307,9z"/>
	</g>
	<path fill="#1F6E85" d="M34,30.891c0-0.553,0.574-0.664,0.945-0.248l2.664,2.834c0.371,0.416,0.438,1.096,0.068,1.512l-2.769,2.838
		c-0.368,0.412-0.91,0.302-0.91-0.25L34,30.891L34,30.891z"/>
	<path fill="#1F6E85" d="M34,32.781v2.576C19,35.357,17.699,23,17.699,23h2.81C20.509,25,23,32.781,34,32.781z"/>
</g>
</svg>
