<?xml version="1.0" encoding="utf-8"?>
<!-- Generator: Adobe Illustrator 16.0.0, SVG Export Plug-In . SVG Version: 6.00 Build 0)  -->
<!DOCTYPE svg PUBLIC "-//W3C//DTD SVG 1.1//EN" "http://www.w3.org/Graphics/SVG/1.1/DTD/svg11.dtd">
<svg version="1.1" id="图层_1" xmlns="http://www.w3.org/2000/svg" xmlns:xlink="http://www.w3.org/1999/xlink" x="0px" y="0px"
	 width="100px" height="100px" viewBox="0 0 100 100" enable-background="new 0 0 100 100" xml:space="preserve">
<path fill="#BD7A63" d="M100,94c0,3.313-2.688,6-6,6H6c-3.313,0-6-2.688-6-6V6c0-3.313,2.687-6,6-6h88c3.313,0,6,2.687,6,6V94z"/>
<g>
	<g transform="scale(0.1953125, 0.1953125)">
		<path fill="#FFFFFF" d="M381.244,271.009h-110.24v110.235c0,5.76-4.675,10.435-10.435,10.435h-9.14
			c-5.765,0-10.44-4.675-10.44-10.435V271.009H130.755c-5.76,0-10.435-4.675-10.435-10.44v-9.14c0-5.765,4.675-10.435,10.435-10.435
			h110.235v-110.24c0-5.76,4.675-10.435,10.44-10.435h9.14c5.76,0,10.435,4.675,10.435,10.435v110.24h110.24
			c5.76,0,10.435,4.67,10.435,10.435v9.14C391.679,266.334,387.004,271.009,381.244,271.009z"/>
	</g>
</g>
</svg>
