<?xml version="1.0" encoding="utf-8"?>
<!-- Generator: Adobe Illustrator 16.0.0, SVG Export Plug-In . SVG Version: 6.00 Build 0)  -->
<!DOCTYPE svg PUBLIC "-//W3C//DTD SVG 1.1//EN" "http://www.w3.org/Graphics/SVG/1.1/DTD/svg11.dtd">
<svg version="1.1" id="图层_1" xmlns="http://www.w3.org/2000/svg" xmlns:xlink="http://www.w3.org/1999/xlink" x="0px" y="0px"
	 width="45px" height="45px" viewBox="0 0 45 45" enable-background="new 0 0 45 45" xml:space="preserve">
<g>
	<g transform="scale(0.1953125, 0.1953125)">
		<path fill="#1F6C83" d="M221.539,127.945h-93.6v93.595c0,4.89-3.97,8.86-8.86,8.86h-7.76c-4.895,0-8.865-3.97-8.865-8.86v-93.595
			H8.86c-4.89,0-8.86-3.97-8.86-8.865v-7.757c0-4.897,3.97-8.862,8.86-8.862h93.595V8.86c0-4.89,3.97-8.86,8.865-8.86h7.76
			c4.89,0,8.86,3.97,8.86,8.86v93.6h93.6c4.89,0,8.86,3.965,8.86,8.862v7.757C230.399,123.975,226.429,127.945,221.539,127.945z"/>
	</g>
</g>
</svg>
