<?xml version="1.0" encoding="UTF-8" standalone="no"?>
<!-- Generator: Adobe Illustrator 16.0.0, SVG Export Plug-In . SVG Version: 6.00 Build 0)  -->

<svg
   xmlns:dc="http://purl.org/dc/elements/1.1/"
   xmlns:cc="http://creativecommons.org/ns#"
   xmlns:rdf="http://www.w3.org/1999/02/22-rdf-syntax-ns#"
   xmlns:svg="http://www.w3.org/2000/svg"
   xmlns="http://www.w3.org/2000/svg"
   xmlns:sodipodi="http://sodipodi.sourceforge.net/DTD/sodipodi-0.dtd"
   xmlns:inkscape="http://www.inkscape.org/namespaces/inkscape"
   version="1.1"
   id="图层_1"
   x="0px"
   y="0px"
   width="45px"
   height="42px"
   viewBox="0 0 45 42"
   enable-background="new 0 0 45 42"
   xml:space="preserve"
   inkscape:version="0.91 r13725"
   sodipodi:docname="add-action-selected-latest.svg"><metadata
     id="metadata4147"><rdf:RDF><cc:Work
         rdf:about=""><dc:format>image/svg+xml</dc:format><dc:type
           rdf:resource="http://purl.org/dc/dcmitype/StillImage" /><dc:title></dc:title></cc:Work></rdf:RDF></metadata><defs
     id="defs4145" /><sodipodi:namedview
     pagecolor="#ffffff"
     bordercolor="#666666"
     borderopacity="1"
     objecttolerance="10"
     gridtolerance="10"
     guidetolerance="10"
     inkscape:pageopacity="0"
     inkscape:pageshadow="2"
     inkscape:window-width="1920"
     inkscape:window-height="1019"
     id="namedview4143"
     showgrid="false"
     inkscape:zoom="19.666667"
     inkscape:cx="22.5"
     inkscape:cy="21"
     inkscape:window-x="-9"
     inkscape:window-y="-9"
     inkscape:window-maximized="1"
     inkscape:current-layer="图层_1" /><g
     id="g4137"
     style="fill:#ffffff"><g
       transform="scale(0.1953125, 0.1953125)"
       id="g4139"
       style="fill:#ffffff"><path
         fill="#1F6C83"
         d="M221.539,119.415h-93.6v87.355c0,4.565-3.97,8.27-8.86,8.27h-7.76c-4.895,0-8.865-3.705-8.865-8.27    v-87.355H8.86c-4.89,0-8.86-3.705-8.86-8.275v-7.24c0-4.57,3.97-8.27,8.86-8.27h93.595V8.27c0-4.565,3.97-8.27,8.865-8.27h7.76    c4.89,0,8.86,3.705,8.86,8.27v87.36h93.6c4.89,0,8.86,3.7,8.86,8.27v7.24C230.399,115.71,226.429,119.415,221.539,119.415z"
         id="path4141"
         style="fill:#ffffff" /></g></g></svg>