<?xml version="1.0" encoding="utf-8"?>
<!-- Generator: Adobe Illustrator 16.0.0, SVG Export Plug-In . SVG Version: 6.00 Build 0)  -->
<!DOCTYPE svg PUBLIC "-//W3C//DTD SVG 1.1//EN" "http://www.w3.org/Graphics/SVG/1.1/DTD/svg11.dtd">
<svg version="1.1" id="图层_1" xmlns="http://www.w3.org/2000/svg" xmlns:xlink="http://www.w3.org/1999/xlink" x="0px" y="0px"
	 width="100px" height="50px" viewBox="0 0 100 50" enable-background="new 0 0 100 50" xml:space="preserve">
<g>
	<path fill="#CCCCCC" d="M100,0v37.399C100,44.082,95.377,50,88.749,50H12.786C6.157,50,0,44.082,0,37.399V0H100z"/>
	<g id="g7802">
		<path id="path7804" fill="#333333" d="M45.515,33.434c0.494,0,0.896-0.404,0.896-0.902V24.18c0-0.499-0.401-0.903-0.896-0.903
			c-0.495,0-0.896,0.404-0.896,0.903v8.352C44.619,33.029,45.02,33.434,45.515,33.434z M50.78,34.386
			c0.494,0,0.895-0.404,0.895-0.902V23.227c0-0.499-0.401-0.903-0.895-0.903c-0.494,0-0.895,0.404-0.895,0.903v10.256
			C49.881,33.981,50.282,34.386,50.78,34.386z M56.042,33.434c0.493,0,0.896-0.404,0.896-0.902V24.18
			c0-0.499-0.402-0.903-0.896-0.903c-0.494,0-0.895,0.404-0.895,0.903v8.352C55.147,33.029,55.548,33.434,56.042,33.434z
			 M63.181,13.271h-7.822v-1.335c0-1.626-1.312-2.948-2.925-2.948h-3.33c-1.613,0-2.924,1.322-2.924,2.948v1.335h-7.826
			c-1.554,0-2.816,1.276-2.816,2.839c0,1.566,1.265,2.839,2.816,2.839h0.684v15.697c0,2.742,2.213,4.973,4.933,4.973h13.595
			c2.721,0,4.934-2.23,4.934-4.973V18.953h0.683c1.555,0,2.816-1.276,2.816-2.839C65.997,14.547,64.732,13.271,63.181,13.271z
			 M47.967,11.936c0-0.629,0.51-1.143,1.135-1.143h3.329c0.624,0,1.134,0.514,1.134,1.143v1.335h-5.598V11.936z M60.707,34.648
			c0,1.746-1.407,3.169-3.143,3.169H43.97c-1.731,0-3.143-1.42-3.143-3.169V18.953h19.88V34.648L60.707,34.648z M63.181,17.148
			H38.354c-0.566,0-1.026-0.464-1.026-1.034c0-0.571,0.46-1.034,1.026-1.034h24.824c0.566,0,1.026,0.463,1.026,1.034
			C64.207,16.684,63.747,17.148,63.181,17.148z"/>
	</g>
</g>
</svg>
