<?xml version="1.0" encoding="UTF-8" standalone="no"?>
<!-- Generator: Adobe Illustrator 16.0.0, SVG Export Plug-In . SVG Version: 6.00 Build 0)  -->

<svg
   xmlns:dc="http://purl.org/dc/elements/1.1/"
   xmlns:cc="http://creativecommons.org/ns#"
   xmlns:rdf="http://www.w3.org/1999/02/22-rdf-syntax-ns#"
   xmlns:svg="http://www.w3.org/2000/svg"
   xmlns="http://www.w3.org/2000/svg"
   xmlns:sodipodi="http://sodipodi.sourceforge.net/DTD/sodipodi-0.dtd"
   xmlns:inkscape="http://www.inkscape.org/namespaces/inkscape"
   version="1.1"
   id="图层_1"
   x="0px"
   y="0px"
   width="100px"
   height="100px"
   viewBox="0 0 100 100"
   enable-background="new 0 0 100 100"
   xml:space="preserve"
   inkscape:version="0.91 r13725"
   sodipodi:docname="delete-latest.svg"><metadata
     id="metadata15"><rdf:RDF><cc:Work
         rdf:about=""><dc:format>image/svg+xml</dc:format><dc:type
           rdf:resource="http://purl.org/dc/dcmitype/StillImage" /></cc:Work></rdf:RDF></metadata><defs
     id="defs13" /><sodipodi:namedview
     pagecolor="#ffffff"
     bordercolor="#666666"
     borderopacity="1"
     objecttolerance="10"
     gridtolerance="10"
     guidetolerance="10"
     inkscape:pageopacity="0"
     inkscape:pageshadow="2"
     inkscape:window-width="1366"
     inkscape:window-height="706"
     id="namedview11"
     showgrid="false"
     inkscape:zoom="2.36"
     inkscape:cx="50"
     inkscape:cy="50"
     inkscape:window-x="-8"
     inkscape:window-y="-8"
     inkscape:window-maximized="1"
     inkscape:current-layer="图层_1" /><path
     fill="#AE62B1"
     d="M100,94c0,3.313-2.687,6-6,6H6c-3.313,0-6-2.687-6-6V6c0-3.313,2.687-6,6-6h88c3.313,0,6,2.687,6,6V94z"
     id="path3"
     style="fill:#5d8fc2;fill-opacity:1" /><g
     id="g5"><g
       transform="scale(0.1953125, 0.1953125)"
       id="g7"><path
         fill="#FFFFFF"
         d="M412.169,178.27c0.585-52.975-25.855-51.475-73.36-51.282c0.175-17.81,1.955-38.95-7.47-46.59    c-7.715-6.26-23.945-4.707-37.34-4.707c-26.055,0-52.127,0-78.182,0c-15.767,0-29.595-0.803-37.337,7.537    c-7.937,8.535-6.785,25.95-6.595,43.282c-48.205-0.51-72.995-0.747-72.04,51.29c8.055,0.148,16.107,0.318,24.16,0.47    c0,57.087,0,114.175,0,171.25c0,32.105-2.21,60.455,14.495,74.35c21.99,18.29,97.857,11.295,137.93,11.295    c32.485,0,76.75,5.3,95.76-9.885c16.905-13.49,14.505-41.54,14.505-73.4c0-57.865,0-115.742,0-173.61    C395.184,178.27,403.684,178.27,412.169,178.27z M173.647,402.694c-12.955-3.335-8.352-37.15-8.352-54.11    c0-57.09,0-114.185,0-171.257c8.495,0,16.987,0,25.482,0c0,58.18,0,116.377,0,174.552    C190.777,371.119,197.02,408.699,173.647,402.694z M257.109,402.694c-19.91,1.87-14.505-32.78-14.492-52.225    c0-57.715,0-115.43,0-173.142c8.637,0,17.272,0,25.907,0c0,57.242,0,114.492,0,171.732    C268.524,368.189,274.079,401.094,257.109,402.694z M315.089,127.45c-39.825,0-79.652,0-119.48,0c0-8.627,0-17.255,0-25.875    c39.827,0,79.655,0,119.48,0C315.089,110.195,315.089,118.822,315.089,127.45z M336.179,401.744    c-20.675,2.86-14.94-32.485-14.94-51.75c0-57.55,0-115.115,0-172.667c8.645,0,17.28,0,25.92,0c0,56.922,0,113.857,0,170.782    C347.159,367.349,352.734,399.469,336.179,401.744z"
         id="path9" /></g></g></svg>