<?xml version="1.0" encoding="utf-8"?>
<!-- Generator: Adobe Illustrator 16.0.0, SVG Export Plug-In . SVG Version: 6.00 Build 0)  -->
<!DOCTYPE svg PUBLIC "-//W3C//DTD SVG 1.1//EN" "http://www.w3.org/Graphics/SVG/1.1/DTD/svg11.dtd">
<svg version="1.1" id="图层_1" xmlns="http://www.w3.org/2000/svg" xmlns:xlink="http://www.w3.org/1999/xlink" x="0px" y="0px"
	 width="45px" height="52px" viewBox="0 0 45 52" enable-background="new 0 0 45 52" xml:space="preserve">
<g>
	<g transform="scale(0.1953125, 0.1953125)">
		<path fill="#1F6D84" d="M230.389,75.787c0.43-39.075-19.07-37.967-54.11-37.825c0.13-13.137,1.44-28.73-5.51-34.365
			c-5.69-4.617-17.66-3.472-27.54-3.472c-19.22,0-38.447,0-57.667,0c-11.63,0-21.83-0.592-27.54,5.56
			c-5.855,6.295-5.005,19.14-4.865,31.925c-35.555-0.377-53.84-0.552-53.135,37.83c5.94,0.11,11.88,0.235,17.82,0.348
			c0,42.107,0,84.217,0,126.317c0,23.68-1.63,44.585,10.69,54.84c16.22,13.485,72.18,8.325,101.737,8.325
			c23.96,0.005,56.61,3.91,70.63-7.285c12.47-9.955,10.7-30.64,10.7-54.14c0-42.68,0-85.375,0-128.057
			C217.859,75.787,224.129,75.787,230.389,75.787z M54.457,241.319c-9.555-2.455-6.16-27.4-6.16-39.905c0-42.11,0-84.227,0-126.322
			c6.265,0,12.53,0,18.795,0c0,42.912,0,85.837,0,128.747C67.092,218.029,71.697,245.749,54.457,241.319z M116.017,241.319
			c-14.685,1.385-10.695-24.18-10.69-38.52c0-42.565,0-85.14,0-127.707c6.37,0,12.742,0,19.112,0c0,42.22,0,84.447,0,126.667
			C124.44,215.869,128.535,240.139,116.017,241.319z M158.785,38.302c-29.375,0-58.752,0-88.127,0c0-6.362,0-12.727,0-19.085
			c29.375,0,58.752,0,88.127,0C158.785,25.575,158.785,31.94,158.785,38.302z M174.34,240.624c-15.25,2.105-11.02-23.96-11.02-38.17
			c0-42.455,0-84.912,0-127.362c6.375,0,12.745,0,19.12,0c0,41.985,0,83.977,0,125.972
			C182.44,215.249,186.55,238.944,174.34,240.624z"/>
	</g>
</g>
</svg>
