<?xml version="1.0" encoding="utf-8"?>
<!-- Generator: Adobe Illustrator 16.0.0, SVG Export Plug-In . SVG Version: 6.00 Build 0)  -->
<!DOCTYPE svg PUBLIC "-//W3C//DTD SVG 1.1//EN" "http://www.w3.org/Graphics/SVG/1.1/DTD/svg11.dtd">
<svg version="1.1" id="图层_1" xmlns="http://www.w3.org/2000/svg" xmlns:xlink="http://www.w3.org/1999/xlink" x="0px" y="0px"
	 width="100px" height="100px" viewBox="0 0 100 100" enable-background="new 0 0 100 100" xml:space="preserve">
<g>
	<g>
		<path fill="#333333" d="M100,50V11.738C100,5.11,94.809,0,88.181,0H12.217C5.589,0,0,5.11,0,11.738V50H100z"/>
		<path fill="#333333" d="M100,50v37.701C100,94.33,94.809,100,88.181,100H12.217C5.589,100,0,94.33,0,87.701V50H100z"/>
	</g>
	<path id="path6642_4_" fill="#CCCCCC" d="M63.754,43.913l-1.291,1.292l-7.748-7.747l1.291-1.292c1.427-1.427,3.739-1.427,5.166,0
		l2.582,2.583C65.178,40.175,65.178,42.486,63.754,43.913z M45.678,59.403c-0.357,0.357-0.357,0.936,0,1.291
		c0.356,0.359,0.934,0.359,1.291,0l14.204-14.198l-1.293-1.293L45.678,59.403z M39.221,52.95c-0.356,0.356-0.356,0.934,0,1.29
		c0.357,0.357,0.935,0.357,1.291,0l14.203-14.2l-1.291-1.291L39.221,52.95z M56.004,41.33L41.803,55.532
		c-0.713,0.71-0.711,1.867,0,2.581c0.713,0.714,1.868,0.717,2.583-0.002l14.201-14.198L56.004,41.33z M44.383,61.982
		c-0.437-0.437-0.647-0.991-0.726-1.563c-0.185,0.028-0.373,0.056-0.563,0.056c-0.976,0-1.892-0.381-2.582-1.072
		c-0.69-0.69-1.07-1.604-1.07-2.58c0-0.18,0.027-0.353,0.052-0.525c-0.59-0.079-1.136-0.338-1.563-0.766
		c-0.041-0.041-0.055-0.097-0.093-0.141l-2.229,8.917l8.895-2.226C44.465,62.046,44.42,62.021,44.383,61.982z"/>
</g>
</svg>
