<?xml version="1.0" encoding="utf-8"?>
<!-- Generator: Adobe Illustrator 16.0.0, SVG Export Plug-In . SVG Version: 6.00 Build 0)  -->
<!DOCTYPE svg PUBLIC "-//W3C//DTD SVG 1.1//EN" "http://www.w3.org/Graphics/SVG/1.1/DTD/svg11.dtd">
<svg version="1.1" id="图层_1" xmlns="http://www.w3.org/2000/svg" xmlns:xlink="http://www.w3.org/1999/xlink" x="0px" y="0px"
	 width="50px" height="50px" viewBox="0 0 50 50" enable-background="new 0 0 50 50" xml:space="preserve">
<path fill="#333333" d="M50,0H12.786C6.157,0,0,5.363,0,11.938V50h50V0z"/>
<g>
	<path id="path6642_5_" fill="#CCCCCC" d="M39.038,19.08l-1.291,1.281L30,12.677l1.291-1.281c1.426-1.416,3.738-1.416,5.165,0
		l2.582,2.562C40.463,15.372,40.463,17.665,39.038,19.08z M20.962,34.446c-0.357,0.354-0.357,0.927,0,1.28
		c0.356,0.355,0.934,0.355,1.291,0l14.204-14.085l-1.293-1.281L20.962,34.446z M14.506,28.044c-0.356,0.354-0.356,0.926,0,1.279
		c0.357,0.354,0.935,0.354,1.291,0L30,15.238l-1.291-1.28L14.506,28.044z M31.289,16.518L17.088,30.605
		c-0.713,0.704-0.711,1.853,0,2.56c0.713,0.708,1.868,0.712,2.583-0.001L33.873,19.08L31.289,16.518z M19.667,37.004
		c-0.437-0.434-0.647-0.983-0.726-1.55c-0.186,0.028-0.373,0.055-0.563,0.055c-0.975,0-1.892-0.379-2.582-1.063
		c-0.69-0.687-1.07-1.594-1.07-2.561c0-0.178,0.027-0.349,0.052-0.521c-0.59-0.08-1.136-0.336-1.563-0.76
		c-0.041-0.041-0.056-0.097-0.093-0.141l-2.229,8.847l8.895-2.209C19.75,37.066,19.706,37.041,19.667,37.004z"/>
</g>
</svg>
