<?xml version="1.0" encoding="utf-8"?>
<!-- Generator: Adobe Illustrator 16.0.0, SVG Export Plug-In . SVG Version: 6.00 Build 0)  -->
<!DOCTYPE svg PUBLIC "-//W3C//DTD SVG 1.1//EN" "http://www.w3.org/Graphics/SVG/1.1/DTD/svg11.dtd">
<svg version="1.1"
	 id="svg4156" sodipodi:docname="end-latest.svg" inkscape:version="0.91 r13725" xmlns:cc="http://creativecommons.org/ns#" xmlns:svg="http://www.w3.org/2000/svg" xmlns:sodipodi="http://sodipodi.sourceforge.net/DTD/sodipodi-0.dtd" xmlns:dc="http://purl.org/dc/elements/1.1/" xmlns:rdf="http://www.w3.org/1999/02/22-rdf-syntax-ns#" xmlns:inkscape="http://www.inkscape.org/namespaces/inkscape"
	 xmlns="http://www.w3.org/2000/svg" xmlns:xlink="http://www.w3.org/1999/xlink" x="0px" y="0px" width="45px" height="52px"
	 viewBox="0 0 45 52" enable-background="new 0 0 45 52" xml:space="preserve">
<sodipodi:namedview  id="base" width="500px" units="px" inkscape:pageopacity="0.0" inkscape:document-units="px" inkscape:window-width="1920" inkscape:current-layer="layer1-3" inkscape:window-x="-9" inkscape:window-height="1019" inkscape:window-y="-9" inkscape:pageshadow="2" inkscape:cy="520" inkscape:zoom="0.35" showgrid="false" pagecolor="#ffffff" borderopacity="1.0" bordercolor="#666666" inkscape:cx="-56.428571" inkscape:window-maximized="1">
	</sodipodi:namedview>
<g>
	<g>
		<polygon fill="#1F6D84" points="45,39 22.5,52 0,39 0,13 22.5,0 45,13 		"/>
		<polygon fill="#84C1BC" points="42.88,37.775 22.5,49.551 2.12,37.775 2.12,14.226 22.5,2.45 42.88,14.226 		"/>
	</g>
	<path fill="#1F6D84" d="M31.333,32.953c0,1.043-0.845,1.885-1.886,1.885H15.553c-1.041,0-1.886-0.845-1.886-1.885V19.046
		c0-1.041,0.845-1.884,1.886-1.884h13.894c1.041,0,1.887,0.845,1.887,1.884L31.333,32.953L31.333,32.953z"/>
</g>
</svg>
