<?xml version="1.0" encoding="utf-8"?>
<!-- Generator: Adobe Illustrator 16.0.0, SVG Export Plug-In . SVG Version: 6.00 Build 0)  -->
<!DOCTYPE svg PUBLIC "-//W3C//DTD SVG 1.1//EN" "http://www.w3.org/Graphics/SVG/1.1/DTD/svg11.dtd">
<svg version="1.1" xmlns="http://www.w3.org/2000/svg" xmlns:xlink="http://www.w3.org/1999/xlink" x="0px" y="0px" width="200px"
	 height="200px" viewBox="0 0 200 200" enable-background="new 0 0 200 200" xml:space="preserve">
<g id="背景_xA0_图像_1_">
	<image overflow="visible" width="200" height="200" id="背景_xA0_图像" xlink:href="9D45B59D.jpg" >
	</image>
</g>
<g id="组_1_1_">
	<g>
		<g id="圆角矩形_15">
			<g>
				<path fill-rule="evenodd" clip-rule="evenodd" fill="#FF3316" d="M152.94,0H47.059C21.069,0,0,21.069,0,47.059V152.94
					C0,178.931,21.069,200,47.059,200H152.94c25.99,0,47.06-21.069,47.06-47.06V47.059C200,21.069,178.931,0,152.94,0z"/>
			</g>
		</g>
		<g id="矩形_2">
			<g>
				<path fill-rule="evenodd" clip-rule="evenodd" fill="#FFFFFF" d="M152.146,140.177v-14.104V71.028V56.544
					c0-10.214-7.559-18.64-17.383-20.049v-0.23h-17.378V18.889l-28.97,26.069l28.97,26.069V53.646h17.378v17.382v69.146
					c-6.845,3.456-11.588,10.842-11.588,19.422c0,11.885,9.08,21.521,20.279,21.521c11.2,0,20.279-9.636,20.279-21.521
					C163.734,151.017,158.992,143.631,152.146,140.177z M143.455,170.356c-5.6,0-10.139-4.817-10.139-10.76
					c0-5.943,4.539-10.761,10.139-10.761c5.601,0,10.141,4.817,10.141,10.761C153.596,165.539,149.056,170.356,143.455,170.356z
					 M82.617,51.991c0-11.886-9.079-21.521-20.279-21.521s-20.279,9.635-20.279,21.521c0,8.58,4.743,15.965,11.588,19.421v68.761
					c-6.845,3.457-11.588,10.843-11.588,19.423c0,11.885,9.079,21.521,20.279,21.521s20.279-9.636,20.279-21.521
					c0-8.58-4.743-15.966-11.588-19.423V71.413C77.874,67.956,82.617,60.571,82.617,51.991z M72.478,159.597
					c0,5.942-4.54,10.76-10.14,10.76c-5.6,0-10.14-4.817-10.14-10.76c0-5.943,4.54-10.761,10.14-10.761
					C67.938,148.836,72.478,153.653,72.478,159.597z M62.338,62.752c-5.6,0-10.14-4.817-10.14-10.761
					c0-5.942,4.54-10.761,10.14-10.761c5.6,0,10.14,4.818,10.14,10.761C72.478,57.935,67.938,62.752,62.338,62.752z"/>
			</g>
		</g>
	</g>
</g>
</svg>
