<?xml version="1.0" encoding="utf-8"?>
<!-- Generator: Adobe Illustrator 16.0.0, SVG Export Plug-In . SVG Version: 6.00 Build 0)  -->
<!DOCTYPE svg PUBLIC "-//W3C//DTD SVG 1.1//EN" "http://www.w3.org/Graphics/SVG/1.1/DTD/svg11.dtd">
<svg version="1.1"
	 id="图层_1" xmlns:cc="http://creativecommons.org/ns#" xmlns:svg="http://www.w3.org/2000/svg" xmlns:sodipodi="http://sodipodi.sourceforge.net/DTD/sodipodi-0.dtd" xmlns:dc="http://purl.org/dc/elements/1.1/" xmlns:rdf="http://www.w3.org/1999/02/22-rdf-syntax-ns#" xmlns:inkscape="http://www.inkscape.org/namespaces/inkscape" sodipodi:docname="history-action-running.svg" inkscape:version="0.91 r13725"
	 xmlns="http://www.w3.org/2000/svg" xmlns:xlink="http://www.w3.org/1999/xlink" x="0px" y="0px" width="38px" height="38px"
	 viewBox="0 0 38 38" enable-background="new 0 0 38 38" xml:space="preserve">
<sodipodi:namedview  id="namedview19" inkscape:cy="12.559322" inkscape:zoom="6.2105263" showgrid="false" pagecolor="#ffffff" borderopacity="1" bordercolor="#666666" inkscape:cx="8.3342461" inkscape:window-maximized="1" inkscape:pageopacity="0" inkscape:window-width="1366" inkscape:current-layer="图层_1" inkscape:window-x="-8" inkscape:window-height="706" inkscape:window-y="-8" inkscape:pageshadow="2" gridtolerance="10" objecttolerance="10" guidetolerance="10">
	</sodipodi:namedview>
<rect id="rect4151" x="4" y="4" fill="#FFFFFF" width="30" height="30"/>
<g id="g3">
	<path fill="#CFD951" d="M31.037,13H6.975C5.314,13,4,14.2,4,15.908v6.183C4,23.799,5.314,25,6.975,25h24.062
		C32.699,25,34,23.799,34,22.091v-6.183C34,14.2,32.699,13,31.037,13z M31,20.999C31,21.551,30.666,22,30.107,22H7.894
		C7.336,22,7,21.551,7,20.999v-3.998C7,16.449,7.336,16,7.894,16h22.213C30.666,16,31,16.449,31,17.001V20.999z"/>
	<g id="g9">
		<path id="path11" fill="#CFD951" d="M12.33,9c-0.562,0-0.688,0.31-0.284,0.691l2.583,2.432c0.405,0.383,1.069,0.381,1.475-0.001
			l2.582-2.43C19.091,9.311,18.963,9,18.402,9H12.33z"/>
		<path id="path13" fill="#CFD951" d="M14.307,9h2.255C15.366-1,0,0.11,0,0.11v1.886C2,1.997,12.739,2,14.307,9z"/>
	</g>
	<path id="path15" fill="#CFD951" d="M34,30.891c0-0.553,0.574-0.664,0.945-0.248l2.664,2.834c0.371,0.416,0.438,1.096,0.067,1.512
		l-2.77,2.84c-0.368,0.41-0.91,0.302-0.91-0.25L34,30.891L34,30.891z"/>
	<path id="path17" fill="#CFD951" d="M34,32.781v2.576C19,35.357,17.699,23,17.699,23h2.81C20.509,25,23,32.781,34,32.781z"/>
</g>
<g id="g5875_1_" transform="matrix(0.0171875,0,0,0.0171875,-7.277629,2.2899954)">
	<path id="path5866_1_" inkscape:connector-curvature="0" fill="#CFD951" d="M2115.523,328.374
		c-41.363,55.055-96.361,82.611-165.223,82.611c-110.11,0-199.653-82.611-199.653-199.71h68.862l-110.11-103.179l-103.292,103.179
		h68.862c0,151.473,123.86,282.321,275.333,282.321c89.543,0,165.223-41.306,220.334-110.167l-27.499-20.681L2115.523,328.374z
		 M2225.747,211.275c0-151.416-123.974-282.208-275.446-282.208c-89.543,0-172.154,41.306-220.335,110.167l55.112,55.055
		c34.431-48.237,96.361-82.611,165.223-82.611c110.224,0,199.653,89.486,199.653,199.596h-62.044l103.292,103.292l103.292-103.292
		H2225.747z"/>
</g>
</svg>
