<?xml version="1.0" encoding="UTF-8" standalone="no"?>
<!-- Generator: Adobe Illustrator 16.0.0, SVG Export Plug-In . SVG Version: 6.00 Build 0)  -->

<svg
   xmlns:dc="http://purl.org/dc/elements/1.1/"
   xmlns:cc="http://creativecommons.org/ns#"
   xmlns:rdf="http://www.w3.org/1999/02/22-rdf-syntax-ns#"
   xmlns:svg="http://www.w3.org/2000/svg"
   xmlns="http://www.w3.org/2000/svg"
   xmlns:sodipodi="http://sodipodi.sourceforge.net/DTD/sodipodi-0.dtd"
   xmlns:inkscape="http://www.inkscape.org/namespaces/inkscape"
   version="1.1"
   id="图层_1"
   x="0px"
   y="0px"
   width="38px"
   height="38px"
   viewBox="0 0 38 38"
   enable-background="new 0 0 38 38"
   xml:space="preserve"
   inkscape:version="0.91 r13725"
   sodipodi:docname="history-action-selected-running.svg"><metadata
     id="metadata23"><rdf:RDF><cc:Work
         rdf:about=""><dc:format>image/svg+xml</dc:format><dc:type
           rdf:resource="http://purl.org/dc/dcmitype/StillImage" /><dc:title></dc:title></cc:Work></rdf:RDF></metadata><defs
     id="defs21" /><sodipodi:namedview
     pagecolor="#ffffff"
     bordercolor="#666666"
     borderopacity="1"
     objecttolerance="10"
     gridtolerance="10"
     guidetolerance="10"
     inkscape:pageopacity="0"
     inkscape:pageshadow="2"
     inkscape:window-width="1366"
     inkscape:window-height="706"
     id="namedview19"
     showgrid="false"
     inkscape:zoom="6.2105263"
     inkscape:cx="8.3342461"
     inkscape:cy="19"
     inkscape:window-x="-8"
     inkscape:window-y="-8"
     inkscape:window-maximized="1"
     inkscape:current-layer="图层_1" /><rect
     style="fill:#ffffff;fill-opacity:1"
     id="rect4151"
     width="30"
     height="30"
     x="-34"
     y="-34"
     transform="scale(-1,-1)" /><g
     id="g3"><path
       d="M34,22.091C34,23.799,32.699,25,31.037,25H6.975C5.314,25,4,23.799,4,22.091v-6.183   C4,14.2,5.314,13,6.975,13h24.062C32.699,13,34,14.2,34,15.908V22.091z"
       id="path5"
       fill="#EB4F38"
       style="fill:#d3eb00;fill-opacity:1" /><path
       d="M31,20.999C31,21.551,30.666,22,30.107,22H7.894C7.336,22,7,21.551,7,20.999v-3.998   C7,16.449,7.336,16,7.894,16h22.213C30.666,16,31,16.449,31,17.001V20.999z"
       id="path7"
       fill="#FFFFFF" /><path
       inkscape:connector-curvature="0"
       style="fill:#d3eb00;fill-opacity:1"
       id="path11"
       d="m 12.33,9 c -0.562,0 -0.688,0.31 -0.284,0.691 l 2.583,2.432 c 0.405,0.383 1.069,0.381 1.475,-10e-4 l 2.582,-2.43 C 19.091,9.311 18.963,9 18.402,9 L 12.33,9 Z" /><path
       inkscape:connector-curvature="0"
       style="fill:#d3eb00;fill-opacity:1"
       id="path13"
       d="m 14.307,9 2.255,0 C 15.366,-1 0,0.11 0,0.11 L 0,1.996 C 2,1.997 12.739,2 14.307,9 Z" /><path
       d="M34,30.891c0-0.553,0.574-0.664,0.945-0.248l2.664,2.834c0.371,0.416,0.438,1.096,0.068,1.512l-2.77,2.839   c-0.368,0.411-0.91,0.302-0.91-0.25L34,30.891L34,30.891z"
       id="path15"
       style="fill:#d3eb00;fill-opacity:1"
       fill="#EB4F38" /><path
       d="M34,32.781v2.576C19,35.357,17.699,23,17.699,23h2.81C20.509,25,23,32.781,34,32.781z"
       id="path17"
       style="fill:#d3eb00;fill-opacity:1"
       fill="#EB4F38" /></g><g
     id="g5875"
     transform="matrix(0.0171875,0,0,0.0171875,-7.277629,2.2899954)"><path
       id="path5866"
       p-id="1379"
       d="m 2047.5234,432.80252 c -27.9273,37.2364 -65.1636,55.8546 -111.7091,55.8546 -74.4727,0 -134.9818,-55.8546 -134.9818,-134.9819 l 46.5455,0 -74.4728,-69.8182 -69.8182,69.8182 46.5455,0 c 0,102.4 83.7818,190.8364 186.1818,190.8364 60.5091,0 111.7091,-27.9273 148.9455,-74.4727 l -18.6182,-13.9637 -18.6182,-23.2727 z m 74.4727,-79.1273 c 0,-102.4 -83.7818,-190.8364 -186.1818,-190.8364 -60.5091,0 -116.3636,27.9273 -148.9454,74.4728 l 37.2363,37.2363 c 23.2728,-32.5818 65.1637,-55.8545 111.7091,-55.8545 74.4727,0 134.9818,60.5091 134.9818,134.9818 l -41.8909,0 69.8182,69.8182 69.8182,-69.8182 -46.5455,0 z"
       inkscape:connector-curvature="0"
       style="fill:#d3eb00;fill-opacity:1" /></g></svg>