<?xml version="1.0" encoding="utf-8"?>
<!-- Generator: Adobe Illustrator 16.0.0, SVG Export Plug-In . SVG Version: 6.00 Build 0)  -->
<!DOCTYPE svg PUBLIC "-//W3C//DTD SVG 1.1 Tiny//EN" "http://www.w3.org/Graphics/SVG/1.1/DTD/svg11-tiny.dtd">
<svg version="1.1" baseProfile="tiny" id="图层_1"
	 xmlns="http://www.w3.org/2000/svg" xmlns:xlink="http://www.w3.org/1999/xlink" x="0px" y="0px" width="38px" height="38px"
	 viewBox="0 0 38 38" xml:space="preserve">
<path fill="#FFFFFF" d="M4,4h30v30H4V4z"/>
<path fill="#D3EB00" d="M34,22.091C34,23.799,32.699,25,31.037,25H6.975C5.314,25,4,23.799,4,22.091v-6.183
	C4,14.2,5.314,13,6.975,13h24.062C32.699,13,34,14.2,34,15.908V22.091z"/>
<path fill="#FFFFFF" d="M31,20.999C31,21.551,30.666,22,30.107,22H7.894C7.336,22,7,21.551,7,20.999v-3.998
	C7,16.449,7.336,16,7.894,16h22.213C30.666,16,31,16.449,31,17.001V20.999z"/>
<path fill="#D3EB00" d="M12.33,9c-0.562,0-0.688,0.31-0.284,0.691l2.583,2.432c0.417,0.382,1.058,0.382,1.475-0.001l2.582-2.43
	C19.091,9.311,18.963,9,18.402,9H12.33z M14.307,9h2.255C15.366-1,0,0.11,0,0.11v1.886C2,1.997,12.739,2,14.307,9z M34,30.891
	c0-0.553,0.574-0.664,0.945-0.248l2.664,2.834c0.371,0.416,0.438,1.096,0.065,1.512l-2.77,2.842c-0.368,0.408-0.91,0.302-0.91-0.25
	L34,30.891z"/>
<path fill="#D3EB00" d="M34,32.781v2.576C19,35.357,17.699,23,17.699,23h2.81C20.509,25,23,32.781,34,32.781z"/>
<path fill="#D3EB00" d="M32.38,2.87h-0.622v1.036c0,1.304-0.604,2.481-1.643,3.117c1.037,0.634,1.643,1.8,1.643,3.106v0.826h0.622
	c0.211,0,0.407,0.147,0.407,0.429c0.006,0.216-0.167,0.397-0.383,0.402c-0.002,0-0.002,0-0.002,0h-8.142
	c-0.217-0.005-0.389-0.185-0.385-0.402c0-0.222,0.151-0.429,0.414-0.429h0.622v-0.826c0-1.306,0.646-2.472,1.683-3.106
	c-1.036-0.636-1.683-1.81-1.683-3.117V2.87H24.29c-0.214,0-0.409-0.207-0.409-0.428c0-0.222,0.195-0.403,0.409-0.403h8.115
	c0.214,0,0.388,0.194,0.388,0.418C32.794,2.676,32.592,2.87,32.38,2.87z M30.928,2.87h-5.185v1.036c0,1.289,0.684,2.412,1.885,2.726
	c0.05,0.016,0.095,0.036,0.134,0.067l0,0c0.004,0.002,0.006,0.007,0.012,0.007c0,0.002,0.004,0.005,0.007,0.005
	c0,0.002,0.001,0.005,0.003,0.005c0.063,0.054,0.104,0.128,0.126,0.207c0.021,0.088,0.014,0.18-0.021,0.263L27.879,7.2l-0.002,0.005
	c0,0.002,0,0.006-0.003,0.01l-0.006,0.01L27.867,7.23c-0.006,0.012-0.014,0.022-0.021,0.031l-0.01,0.016v0.002
	c-0.005,0.002-0.007,0.01-0.011,0.012c0,0,0,0.002-0.003,0.004l-0.01,0.011h-0.002l-0.012,0.017
	c-0.01,0.008-0.019,0.015-0.029,0.023v0.002c-0.006,0.001-0.01,0.006-0.014,0.011h-0.003c-0.04,0.029-0.087,0.049-0.137,0.059
	c-1.189,0.322-1.867,1.43-1.867,2.713v0.828h5.187v-0.828c0-1.288-0.688-2.402-1.887-2.717c-0.007-0.001-0.012-0.003-0.018-0.006
	l-0.008-0.001l-0.01-0.001c-0.002-0.004-0.005-0.005-0.01-0.006h-0.005c-0.047-0.021-0.09-0.05-0.127-0.087L28.87,7.312L28.865,7.3
	c-0.001,0-0.003-0.001-0.006-0.005c-0.002-0.002-0.002-0.005-0.004-0.007l-0.008-0.007l-0.004-0.005
	c-0.003-0.005-0.005-0.01-0.013-0.015c-0.013-0.021-0.024-0.042-0.034-0.065h-0.002c-0.003-0.005-0.003-0.011-0.008-0.018V7.175
	L28.78,7.158V7.154c0-0.006-0.003-0.011-0.007-0.016V7.137c0-0.007-0.002-0.013-0.004-0.021l-0.002-0.015
	c-0.004,0-0.004-0.003-0.004-0.003l-0.001-0.02l-0.001-0.002l0.001-0.016v0.002c-0.021-0.195,0.101-0.378,0.288-0.433
	c1.199-0.313,1.887-1.438,1.887-2.724V2.87H30.928z M28.882,6.027c-0.219,0.059-0.412,0.19-0.546,0.374
	c-0.042-0.057-0.088-0.108-0.143-0.155l-0.027-0.024l-0.021-0.019l-0.023-0.019c-0.102-0.074-0.215-0.127-0.336-0.157
	c-0.621-0.165-1.082-0.644-1.29-1.295h3.687C29.967,5.386,29.506,5.865,28.882,6.027z M28.132,8.363l0.037-0.031l0.005-0.002
	l0.022-0.02l0.003-0.004c0.017-0.015,0.033-0.028,0.047-0.045l0.021-0.021l0.025-0.031l0.027-0.037l0.011-0.015l0.057,0.086
	l0.026,0.013l0.007,0.006C28.5,8.345,28.595,8.408,28.7,8.45c0.005,0,0.028,0.011,0.028,0.011c0.012,0.003,0.025,0.007,0.041,0.012
	c0.692,0.195,1.121,0.771,1.121,1.686v0.176h-3.115v-0.176c0-0.908,0.418-1.479,1.102-1.683c0.085-0.02,0.163-0.055,0.234-0.104
	L28.132,8.363z"/>
</svg>
