<?xml version="1.0" encoding="utf-8"?>
<!-- Generator: Adobe Illustrator 16.0.0, SVG Export Plug-In . SVG Version: 6.00 Build 0)  -->
<!DOCTYPE svg PUBLIC "-//W3C//DTD SVG 1.1//EN" "http://www.w3.org/Graphics/SVG/1.1/DTD/svg11.dtd">
<svg version="1.1"
	 id="svg4156" xmlns:svg="http://www.w3.org/2000/svg" xmlns:inkscape="http://www.inkscape.org/namespaces/inkscape" xmlns:rdf="http://www.w3.org/1999/02/22-rdf-syntax-ns#" xmlns:cc="http://creativecommons.org/ns#" xmlns:sodipodi="http://sodipodi.sourceforge.net/DTD/sodipodi-0.dtd" xmlns:dc="http://purl.org/dc/elements/1.1/" sodipodi:docname="start-latest.svg" inkscape:version="0.91 r13725"
	 xmlns="http://www.w3.org/2000/svg" xmlns:xlink="http://www.w3.org/1999/xlink" x="0px" y="0px" width="45px" height="52px"
	 viewBox="0 0 45 52" enable-background="new 0 0 45 52" xml:space="preserve">
<sodipodi:namedview  id="base" units="px" width="500px" pagecolor="#ffffff" borderopacity="1.0" bordercolor="#666666" inkscape:cx="-56.428571" inkscape:cy="520" showgrid="false" inkscape:zoom="0.35" inkscape:window-width="1920" inkscape:document-units="px" inkscape:pageopacity="0.0" inkscape:pageshadow="2" inkscape:current-layer="layer1-3" inkscape:window-y="-9" inkscape:window-x="-9" inkscape:window-height="1019" inkscape:window-maximized="1">
	</sodipodi:namedview>
<polygon fill="#87AF25" points="45,39 22.5,52 0,39 0,13 22.5,0 45,13 "/>
<polygon fill="#D1DE4D" points="42.045,37.293 22.5,48.586 2.955,37.293 2.955,14.707 22.5,3.415 42.045,14.707 "/>
<g enable-background="new    ">
	<path fill="#54711E" d="M33.072,21.789c-0.088-0.056-0.238-0.123-0.417-0.123c-0.206,0-0.317,0.119-0.317,0.266
		c0,0.151,0.1,0.227,0.365,0.342c0.361,0.146,0.551,0.345,0.551,0.662c0,0.421-0.32,0.671-0.816,0.671
		c-0.23,0-0.449-0.06-0.596-0.147l0.104-0.341c0.111,0.067,0.313,0.146,0.5,0.146c0.246,0,0.365-0.119,0.365-0.285
		c0-0.167-0.092-0.258-0.354-0.369c-0.389-0.154-0.56-0.373-0.56-0.627c0-0.365,0.298-0.654,0.758-0.654
		c0.214,0,0.401,0.06,0.521,0.127L33.072,21.789z"/>
	<path fill="#54711E" d="M33.794,20.979l0.456-0.143v0.54h0.52v0.345h-0.52v1.106c0,0.271,0.084,0.401,0.277,0.401
		c0.092,0,0.147-0.012,0.203-0.028l0.016,0.354c-0.079,0.031-0.202,0.052-0.357,0.052c-0.182,0-0.337-0.06-0.432-0.167
		c-0.111-0.119-0.163-0.302-0.163-0.587v-1.131h-0.31v-0.345h0.31V20.979z"/>
	<path fill="#54711E" d="M36.698,23.043c0,0.187,0.004,0.377,0.031,0.52h-0.417l-0.031-0.254H36.27
		c-0.123,0.171-0.338,0.298-0.611,0.298c-0.408,0-0.643-0.302-0.643-0.639c0-0.544,0.473-0.813,1.223-0.813
		c0-0.163,0-0.488-0.441-0.488c-0.193,0-0.393,0.06-0.531,0.15l-0.096-0.305c0.155-0.1,0.413-0.183,0.707-0.183
		c0.643,0,0.821,0.425,0.821,0.889V23.043z M36.25,22.464c-0.361,0-0.777,0.067-0.777,0.456c0,0.242,0.15,0.349,0.32,0.349
		c0.25,0,0.457-0.19,0.457-0.444V22.464z"/>
	<path fill="#54711E" d="M38.376,21.781c-0.04-0.008-0.083-0.012-0.135-0.012c-0.31,0-0.504,0.254-0.504,0.635v1.158h-0.46v-1.52
		c0-0.254-0.004-0.464-0.016-0.666h0.4l0.016,0.4h0.016c0.1-0.277,0.33-0.448,0.567-0.448c0.044,0,0.075,0.004,0.115,0.012V21.781z"
		/>
	<path fill="#54711E" d="M38.824,20.979l0.456-0.143v0.54h0.521v0.345H39.28v1.106c0,0.271,0.083,0.401,0.278,0.401
		c0.091,0,0.146-0.012,0.202-0.028l0.016,0.354c-0.079,0.031-0.202,0.052-0.356,0.052c-0.184,0-0.338-0.06-0.434-0.167
		c-0.11-0.119-0.162-0.302-0.162-0.587v-1.131h-0.31v-0.345h0.31V20.979z"/>
</g>
<g>
	<path fill="#54711E" d="M30.929,35.077c-1.771,2.132-4.17,3.632-6.913,4.289c-3.354,0.802-6.822,0.245-9.761-1.556
		c-2.94-1.807-5-4.649-5.804-8.004c-1.656-6.925,2.633-13.907,9.555-15.563c2.904-0.693,5.977-0.356,8.654,0.949
		c0.459,0.223,0.648,0.777,0.426,1.234c-0.227,0.455-0.775,0.647-1.232,0.424c-2.295-1.12-4.928-1.409-7.417-0.813
		c-5.933,1.417-9.609,7.402-8.19,13.339c0.687,2.874,2.454,5.312,4.974,6.858c2.521,1.545,5.492,2.019,8.366,1.332
		c4.636-1.107,7.894-4.998,8.422-9.477c0.073-0.609,0.388-0.945,0.997-0.98c0.61-0.031,0.934,0.301,0.856,1.039
		c-0.199,1.896-0.818,3.736-1.847,5.408C31.689,34.094,31.323,34.604,30.929,35.077L30.929,35.077z"/>
	<path fill="#54711E" d="M26.938,20.758H26.03v1.51c0,1.901-0.88,3.609-2.392,4.539c1.514,0.924,2.392,2.617,2.392,4.521v1.208
		h0.907c0.309,0,0.594,0.214,0.594,0.621c0,0.324-0.252,0.587-0.562,0.587H15.115c-0.312,0-0.56-0.263-0.56-0.587
		c0-0.321,0.218-0.621,0.603-0.621h0.906v-1.208c0-1.902,0.939-3.599,2.449-4.521c-1.51-0.93-2.449-2.635-2.449-4.539V20.76h-0.906
		c-0.31,0-0.596-0.301-0.596-0.625c0-0.323,0.286-0.585,0.596-0.585h0.061h11.76c0.311,0,0.562,0.282,0.562,0.604
		C27.54,20.478,27.246,20.758,26.938,20.758L26.938,20.758z M24.822,20.758h-7.55v1.51c0,1.876,0.996,3.512,2.743,3.97
		c0.073,0.019,0.137,0.051,0.194,0.094c0.001,0,0.002,0.002,0.002,0.002c0.004,0.004,0.008,0.008,0.013,0.01
		c0.004,0.002,0.008,0.006,0.01,0.009c0.001,0.001,0.003,0.003,0.006,0.004c0.085,0.077,0.15,0.179,0.179,0.302
		c0.032,0.133,0.019,0.264-0.03,0.38c0,0,0,0.004-0.001,0.004c-0.002,0.005-0.004,0.012-0.009,0.02
		c-0.001,0.002-0.001,0.004-0.003,0.008c-0.001,0.004-0.003,0.009-0.006,0.015c-0.002,0.004-0.004,0.011-0.009,0.017
		c-0.001,0.002-0.002,0.004-0.002,0.006c-0.009,0.017-0.02,0.031-0.028,0.045l0,0c-0.004,0.007-0.01,0.017-0.016,0.021
		c-0.001,0.002-0.001,0.002-0.001,0.004c-0.005,0.008-0.01,0.016-0.015,0.02c-0.001,0-0.001,0.003-0.003,0.005
		c-0.004,0.005-0.009,0.01-0.014,0.019c0,0-0.001,0.002-0.002,0.002c-0.007,0.006-0.012,0.014-0.019,0.021l0,0
		c-0.014,0.012-0.026,0.024-0.041,0.034c-0.002,0-0.002,0-0.003,0.002c-0.005,0.005-0.012,0.012-0.02,0.016
		c-0.001,0-0.001,0-0.002,0c-0.059,0.043-0.127,0.073-0.2,0.088c-1.736,0.465-2.72,2.081-2.72,3.949v1.209h7.551V31.33
		c0-1.877-1.003-3.497-2.75-3.954c-0.008-0.002-0.019-0.004-0.025-0.008c-0.003,0-0.005,0-0.009-0.002
		c-0.004-0.005-0.011-0.005-0.014-0.007c-0.004-0.002-0.009-0.004-0.015-0.006c-0.002,0-0.004,0-0.006,0
		c-0.073-0.031-0.134-0.074-0.186-0.129c0,0-0.002,0-0.002-0.002c-0.004-0.004-0.007-0.009-0.012-0.016
		c-0.002,0-0.004-0.002-0.007-0.007c-0.004-0.003-0.006-0.005-0.01-0.009c-0.003-0.002-0.006-0.01-0.01-0.014
		c-0.002-0.003-0.004-0.006-0.006-0.007c-0.004-0.007-0.008-0.015-0.015-0.021l0,0c-0.021-0.031-0.038-0.063-0.053-0.098h-0.002
		c-0.003-0.007-0.005-0.016-0.01-0.023c-0.001,0-0.001,0-0.001-0.002c-0.003-0.008-0.006-0.016-0.008-0.023
		c0-0.002,0-0.002-0.003-0.004c-0.001-0.007-0.003-0.016-0.007-0.023c0-0.002,0-0.002,0-0.004c-0.002-0.009-0.005-0.021-0.007-0.027
		c-0.002-0.008-0.003-0.014-0.004-0.021c-0.002-0.001-0.002-0.006-0.002-0.006c-0.002-0.007-0.002-0.017-0.002-0.024
		c0,0-0.002-0.002-0.002-0.004c0-0.009-0.002-0.018-0.002-0.025c0-0.002,0-0.002,0-0.002c-0.03-0.284,0.146-0.556,0.42-0.628
		c1.747-0.459,2.75-2.093,2.75-3.968v-1.51L24.822,20.758L24.822,20.758z M21.842,25.361c-0.325,0.084-0.601,0.282-0.796,0.54
		c-0.059-0.081-0.13-0.155-0.206-0.223l-0.039-0.033l-0.032-0.027l-0.035-0.025c-0.148-0.107-0.312-0.187-0.487-0.232
		c-0.905-0.237-1.577-0.935-1.882-1.885h5.367C23.424,24.424,22.75,25.123,21.842,25.361L21.842,25.361z M20.75,28.758
		c0,0,0.051-0.039,0.053-0.043l0.006-0.004l0.034-0.027l0.004-0.004c0.024-0.025,0.048-0.045,0.069-0.068l0.03-0.029l0.041-0.048
		l0.04-0.052c0,0,0.014-0.022,0.015-0.022l0.083,0.126l0.037,0.021l0.011,0.011c0.103,0.104,0.223,0.188,0.356,0.249
		c0,0,0.04,0.02,0.049,0.021c0.007,0.004,0.044,0.016,0.044,0.016c0.02,0.006,0.04,0.015,0.061,0.02
		c1.011,0.284,1.631,1.123,1.631,2.453v0.258H18.78v-0.258c0-1.32,0.606-2.154,1.604-2.449c0.119-0.025,0.234-0.078,0.341-0.152
		L20.75,28.758L20.75,28.758z"/>
</g>
<g id="g4274_1_" transform="matrix(1.2891752,0,0,1.2891752,575.65756,-72.611309)">
	<g id="g4276_1_" transform="scale(0.1953125,0.1953125)">
		<path id="path4278_1_" inkscape:connector-curvature="0" fill="#54711E" d="M-2145.88,372.809l-19.865-14.439
			c-0.725-0.527-1.687-0.603-2.486-0.192c-0.803,0.401-1.303,1.231-1.303,2.127v28.881c0,0.902,0.5,1.72,1.303,2.135
			c0.337,0.169,0.714,0.256,1.082,0.256c0.496,0,0.993-0.151,1.408-0.458l19.865-14.437c0.628-0.452,0.985-1.173,0.985-1.937
			C-2144.891,373.977-2145.255,373.259-2145.88,372.809L-2145.88,372.809z"/>
	</g>
</g>
<g>
	<defs>
		<path id="SVGID_1_" d="M35.375,21.25l-5.002-3.637c-0.184-0.133-0.426-0.151-0.626-0.048c-0.202,0.102-0.329,0.31-0.329,0.536
			v7.271c0,0.227,0.127,0.434,0.329,0.537c0.085,0.043,0.179,0.064,0.272,0.064c0.125,0,0.25-0.037,0.354-0.114l5.001-3.636
			c0.158-0.113,0.249-0.295,0.249-0.487C35.623,21.544,35.531,21.363,35.375,21.25L35.375,21.25z"/>
	</defs>
	<clipPath id="SVGID_2_">
		<use xlink:href="#SVGID_1_"  overflow="visible"/>
	</clipPath>
	<g clip-path="url(#SVGID_2_)" enable-background="new    ">
		<path fill="#D1DE4D" d="M33.076,21.811c-0.088-0.056-0.238-0.123-0.417-0.123c-0.206,0-0.317,0.119-0.317,0.266
			c0,0.151,0.1,0.227,0.365,0.342c0.361,0.146,0.551,0.345,0.551,0.662c0,0.421-0.32,0.671-0.816,0.671
			c-0.23,0-0.449-0.06-0.596-0.147l0.104-0.341c0.111,0.067,0.313,0.146,0.5,0.146c0.246,0,0.365-0.119,0.365-0.285
			c0-0.167-0.092-0.258-0.354-0.369c-0.389-0.154-0.56-0.373-0.56-0.627c0-0.365,0.298-0.654,0.758-0.654
			c0.214,0,0.401,0.06,0.521,0.127L33.076,21.811z"/>
		<path fill="#D1DE4D" d="M33.798,21.001l0.456-0.143v0.54h0.52v0.345h-0.52v1.106c0,0.271,0.084,0.401,0.277,0.401
			c0.092,0,0.147-0.012,0.203-0.028l0.016,0.354c-0.079,0.031-0.202,0.052-0.357,0.052c-0.182,0-0.337-0.06-0.432-0.167
			c-0.111-0.119-0.163-0.302-0.163-0.587v-1.131h-0.31v-0.345h0.31V21.001z"/>
		<path fill="#D1DE4D" d="M36.702,23.064c0,0.187,0.004,0.377,0.031,0.52h-0.417l-0.031-0.254h-0.012
			c-0.123,0.171-0.338,0.298-0.611,0.298c-0.408,0-0.643-0.302-0.643-0.639c0-0.544,0.473-0.813,1.223-0.813
			c0-0.163,0-0.488-0.441-0.488c-0.193,0-0.393,0.06-0.531,0.15l-0.096-0.305c0.155-0.1,0.413-0.183,0.707-0.183
			c0.643,0,0.821,0.425,0.821,0.889V23.064z M36.254,22.485c-0.361,0-0.777,0.067-0.777,0.456c0,0.242,0.15,0.349,0.32,0.349
			c0.25,0,0.457-0.19,0.457-0.444V22.485z"/>
		<path fill="#D1DE4D" d="M38.38,21.803c-0.04-0.008-0.083-0.012-0.135-0.012c-0.31,0-0.504,0.254-0.504,0.635v1.158h-0.46v-1.52
			c0-0.254-0.004-0.464-0.016-0.666h0.4l0.016,0.4h0.016c0.1-0.277,0.33-0.448,0.567-0.448c0.044,0,0.075,0.004,0.115,0.012V21.803z
			"/>
		<path fill="#D1DE4D" d="M38.828,21.001l0.456-0.143v0.54h0.521v0.345h-0.521v1.106c0,0.271,0.083,0.401,0.278,0.401
			c0.091,0,0.146-0.012,0.202-0.028l0.016,0.354c-0.079,0.031-0.202,0.052-0.356,0.052c-0.184,0-0.338-0.06-0.434-0.167
			c-0.11-0.119-0.162-0.302-0.162-0.587v-1.131h-0.31v-0.345h0.31V21.001z"/>
	</g>
</g>
</svg>
