<?xml version="1.0" encoding="utf-8"?>
<!-- Generator: Adobe Illustrator 16.0.0, SVG Export Plug-In . SVG Version: 6.00 Build 0)  -->
<!DOCTYPE svg PUBLIC "-//W3C//DTD SVG 1.1 Tiny//EN" "http://www.w3.org/Graphics/SVG/1.1/DTD/svg11-tiny.dtd">
<svg version="1.1" baseProfile="tiny" id="图层_1"
	 xmlns="http://www.w3.org/2000/svg" xmlns:xlink="http://www.w3.org/1999/xlink" x="0px" y="0px" width="38px" height="38px"
	 viewBox="0 0 38 38" xml:space="preserve">
<path fill="#FFFFFF" d="M4,4h30v30H4V4z"/>
<g>
	<path fill="#CFD951" d="M31.037,13H6.975C5.314,13,4,14.2,4,15.908v6.183C4,23.799,5.314,25,6.975,25h24.062
		C32.699,25,34,23.799,34,22.091v-6.183C34,14.2,32.699,13,31.037,13z M31,20.999C31,21.551,30.666,22,30.107,22H7.894
		C7.336,22,7,21.551,7,20.999v-3.998C7,16.449,7.336,16,7.894,16h22.213C30.666,16,31,16.449,31,17.001V20.999z M12.33,9
		c-0.562,0-0.688,0.31-0.284,0.691l2.583,2.432c0.417,0.382,1.058,0.382,1.475-0.001l2.582-2.43C19.091,9.311,18.963,9,18.402,9
		H12.33z M14.307,9h2.255C15.366-1,0,0.11,0,0.11v1.886C2,1.997,12.739,2,14.307,9z M34,30.891c0-0.553,0.574-0.664,0.945-0.248
		l2.664,2.834c0.371,0.416,0.438,1.096,0.065,1.512l-2.77,2.842c-0.368,0.408-0.91,0.302-0.91-0.25L34,30.891z"/>
	<path fill="#CFD951" d="M34,32.781v2.576C19,35.357,17.699,23,17.699,23h2.81C20.509,25,23,32.781,34,32.781z"/>
</g>
<path fill="#CFD951" d="M30.829,2.618h-0.622v1.035c0,1.305-0.604,2.48-1.643,3.117c1.037,0.635,1.643,1.801,1.643,3.105v0.826
	h0.622c0.211,0,0.407,0.147,0.407,0.43c0.006,0.216-0.168,0.396-0.383,0.4c-0.002,0-0.002,0-0.002,0h-8.141
	c-0.217-0.005-0.389-0.185-0.385-0.4c0-0.223,0.15-0.43,0.414-0.43h0.621V9.876c0-1.306,0.646-2.471,1.684-3.105
	c-1.036-0.637-1.684-1.811-1.684-3.117V2.618H22.74c-0.215,0-0.409-0.207-0.409-0.428c0-0.223,0.194-0.402,0.409-0.402h8.115
	c0.213,0,0.387,0.193,0.387,0.418C31.242,2.423,31.041,2.618,30.829,2.618z M29.377,2.618h-5.186v1.035
	c0,1.289,0.685,2.412,1.885,2.727c0.051,0.016,0.095,0.035,0.135,0.066l0,0c0.004,0.002,0.006,0.008,0.012,0.008
	c0,0.002,0.004,0.004,0.006,0.004c0,0.004,0.002,0.006,0.004,0.006c0.063,0.055,0.104,0.127,0.125,0.207
	c0.021,0.088,0.015,0.18-0.021,0.263L26.329,6.95l-0.003,0.004c0,0.002,0,0.006-0.002,0.01l-0.006,0.01l-0.002,0.006
	c-0.006,0.012-0.012,0.021-0.021,0.029l-0.011,0.018v0.002c-0.004,0.002-0.006,0.01-0.01,0.012c0,0,0,0.004-0.004,0.004l-0.01,0.013
	l0,0L26.25,7.073c-0.01,0.008-0.02,0.016-0.029,0.023V7.1c-0.006,0.001-0.01,0.006-0.014,0.011h-0.003
	c-0.04,0.029-0.087,0.051-0.138,0.061c-1.188,0.32-1.867,1.43-1.867,2.713v0.828h5.188V9.884c0-1.288-0.689-2.402-1.887-2.717
	c-0.008-0.002-0.012-0.004-0.018-0.006l-0.008-0.002l-0.01-0.002c-0.002-0.004-0.005-0.005-0.01-0.007h-0.006
	c-0.047-0.021-0.09-0.05-0.127-0.087L27.32,7.063L27.313,7.05c0,0-0.002,0-0.004-0.004c-0.002-0.002-0.004-0.006-0.006-0.008
	L27.295,7.03l-0.003-0.004c-0.003-0.006-0.005-0.01-0.013-0.016c-0.012-0.021-0.024-0.041-0.034-0.064h-0.003
	C27.24,6.94,27.24,6.935,27.234,6.928V6.925l-0.006-0.018V6.903c0-0.007-0.002-0.011-0.006-0.017V6.886
	c0-0.008-0.002-0.014-0.005-0.021L27.215,6.85c-0.003,0-0.003-0.003-0.003-0.003l-0.001-0.02L27.21,6.825l-0.001-0.019v0.002
	c-0.021-0.194,0.1-0.378,0.288-0.433c1.198-0.313,1.887-1.438,1.887-2.725V2.616h-0.007V2.618z M27.331,5.775
	c-0.22,0.06-0.412,0.19-0.546,0.374c-0.043-0.057-0.088-0.107-0.143-0.154l-0.027-0.024l-0.021-0.019l-0.023-0.02
	c-0.102-0.074-0.215-0.127-0.336-0.157c-0.621-0.165-1.082-0.644-1.291-1.295h3.688C28.416,5.134,27.955,5.614,27.331,5.775z
	 M26.581,8.111l0.036-0.03l0.006-0.002l0.021-0.021l0.004-0.004c0.017-0.015,0.033-0.028,0.047-0.046l0.021-0.021l0.026-0.029
	l0.027-0.037l0.01-0.016l0.058,0.086l0.026,0.014l0.007,0.007c0.079,0.083,0.174,0.146,0.278,0.188c0.006,0,0.029,0.01,0.029,0.01
	c0.012,0.004,0.025,0.008,0.041,0.014c0.691,0.195,1.12,0.771,1.12,1.686v0.176h-3.112V9.909c0-0.908,0.418-1.479,1.102-1.684
	c0.085-0.02,0.162-0.055,0.234-0.104L26.581,8.111z"/>
</svg>
