<?xml version="1.0" encoding="utf-8"?>
<!-- Generator: Adobe Illustrator 16.0.0, SVG Export Plug-In . SVG Version: 6.00 Build 0)  -->
<!DOCTYPE svg PUBLIC "-//W3C//DTD SVG 1.1//EN" "http://www.w3.org/Graphics/SVG/1.1/DTD/svg11.dtd">
<svg version="1.1"
	 id="svg4156" inkscape:version="0.91 r13725" sodipodi:docname="start-latest.svg" xmlns:cc="http://creativecommons.org/ns#" xmlns:svg="http://www.w3.org/2000/svg" xmlns:sodipodi="http://sodipodi.sourceforge.net/DTD/sodipodi-0.dtd" xmlns:dc="http://purl.org/dc/elements/1.1/" xmlns:rdf="http://www.w3.org/1999/02/22-rdf-syntax-ns#" xmlns:inkscape="http://www.inkscape.org/namespaces/inkscape"
	 xmlns="http://www.w3.org/2000/svg" xmlns:xlink="http://www.w3.org/1999/xlink" x="0px" y="0px" width="45px" height="52px"
	 viewBox="0 0 45 52" enable-background="new 0 0 45 52" xml:space="preserve">
<sodipodi:namedview  id="base" units="px" width="500px" inkscape:pageshadow="2" inkscape:window-y="-9" inkscape:window-height="1019" inkscape:window-x="-9" inkscape:current-layer="layer1-3" inkscape:window-width="1920" inkscape:document-units="px" inkscape:pageopacity="0.0" inkscape:cy="520" inkscape:cx="-56.428571" bordercolor="#666666" borderopacity="1.0" pagecolor="#ffffff" showgrid="false" inkscape:zoom="0.35" inkscape:window-maximized="1">
	</sodipodi:namedview>
<polygon fill="#00733B" points="45,39 22.5,52 0,39 0,13 22.5,0 45,13 "/>
<polygon fill="#11CD6E" points="42.045,37.293 22.5,48.586 2.955,37.293 2.955,14.707 22.5,3.415 42.045,14.707 "/>
<g id="g4274_1_" transform="matrix(1.2891752,0,0,1.2891752,575.65756,-72.611309)">
	<g id="g4276_1_" transform="scale(0.1953125,0.1953125)">
		<path id="path4278_1_" inkscape:connector-curvature="0" fill="#00733B" d="M-2159.551,386.259l-55.08-40.033
			c-2.009-1.462-4.685-1.672-6.898-0.535c-2.224,1.123-3.626,3.413-3.626,5.903v80.068c0,2.49,1.396,4.77,3.626,5.911
			c0.942,0.473,1.978,0.717,3.008,0.717c1.373,0,2.742-0.423,3.894-1.268l55.076-40.025c1.722-1.249,2.73-3.25,2.73-5.372
			C-2156.825,389.498-2157.845,387.51-2159.551,386.259L-2159.551,386.259z"/>
	</g>
</g>
</svg>
