<?xml version="1.0" encoding="utf-8"?>
<!-- Generator: Adobe Illustrator 16.0.0, SVG Export Plug-In . SVG Version: 6.00 Build 0)  -->
<!DOCTYPE svg PUBLIC "-//W3C//DTD SVG 1.1//EN" "http://www.w3.org/Graphics/SVG/1.1/DTD/svg11.dtd">
<svg version="1.1" id="图层_1" xmlns="http://www.w3.org/2000/svg" xmlns:xlink="http://www.w3.org/1999/xlink" x="0px" y="0px"
	 width="100px" height="100px" viewBox="0 0 100 100" enable-background="new 0 0 100 100" xml:space="preserve">
<g>
	<g>
		<g>
			<path fill="#E66676" d="M100,88c0,6.627-5.373,12-12,12H12c-6.627,0-12-5.373-12-12V12C0,5.373,5.373,0,12,0h76
				c6.627,0,12,5.373,12,12V88z"/>
		</g>
	</g>
	<g>
		<path fill="#FFFFFF" d="M24.857,50c0-9.939,2.762-17.301,8.288-22.086c4.615-3.975,10.242-5.963,16.88-5.963
			c7.378,0,13.409,2.418,18.093,7.252c4.683,4.836,7.024,11.516,7.024,20.039c0,6.907-1.035,12.34-3.107,16.299
			s-5.088,7.033-9.047,9.224c-3.959,2.189-8.28,3.284-12.963,3.284c-7.514,0-13.587-2.408-18.219-7.227
			C27.173,66.005,24.857,59.064,24.857,50z M34.207,50c0,6.874,1.499,12.021,4.498,15.439c2.998,3.42,6.772,5.13,11.32,5.13
			c4.515,0,8.271-1.719,11.271-5.155c2.998-3.437,4.497-8.675,4.497-15.717c0-6.638-1.508-11.666-4.522-15.086
			c-3.017-3.42-6.765-5.13-11.245-5.13c-4.548,0-8.322,1.702-11.32,5.104C35.706,37.99,34.207,43.127,34.207,50z"/>
	</g>
</g>
</svg>
