<?xml version="1.0" encoding="utf-8"?>
<!-- Generator: Adobe Illustrator 16.0.0, SVG Export Plug-In . SVG Version: 6.00 Build 0)  -->
<!DOCTYPE svg PUBLIC "-//W3C//DTD SVG 1.1//EN" "http://www.w3.org/Graphics/SVG/1.1/DTD/svg11.dtd">
<svg version="1.1" id="图层_1" xmlns="http://www.w3.org/2000/svg" xmlns:xlink="http://www.w3.org/1999/xlink" x="0px" y="0px"
	 width="200px" height="200px" viewBox="0 0 200 200" enable-background="new 0 0 200 200" xml:space="preserve">
<g id="背景_xA0_图像_1_">
</g>
<g id="圆角矩形_16_副本_1_" enable-background="new    ">
	<g id="圆角矩形_16_副本">
		<g>
			<path fill="#FF3316" d="M152.939,0H47.059C21.069,0,0,21.069,0,47.059v105.88C0,178.932,21.069,200,47.059,200h105.88
				C178.93,200,200,178.932,200,152.939V47.059C200,21.069,178.932,0,152.939,0z M155.457,139.025
				c4.537,4.539,4.537,11.896,0,16.434c-4.537,4.538-11.895,4.538-16.434,0L99.92,116.355l-39.099,39.099
				c-4.545,4.545-11.914,4.545-16.458,0c-4.544-4.545-4.544-11.913,0-16.458l39.099-39.099L44.541,60.974
				c-4.538-4.537-4.538-11.894,0-16.432s11.895-4.538,16.432,0l38.923,38.923l39.101-39.101c4.545-4.545,11.913-4.545,16.458,0
				c4.544,4.544,4.544,11.913,0,16.458l-39.102,39.101L155.457,139.025z"/>
		</g>
	</g>
</g>
</svg>
