<?xml version="1.0" encoding="utf-8"?>
<!-- Generator: Adobe Illustrator 16.0.0, SVG Export Plug-In . SVG Version: 6.00 Build 0)  -->
<!DOCTYPE svg PUBLIC "-//W3C//DTD SVG 1.1//EN" "http://www.w3.org/Graphics/SVG/1.1/DTD/svg11.dtd">
<svg version="1.1" id="图层_1" xmlns="http://www.w3.org/2000/svg" xmlns:xlink="http://www.w3.org/1999/xlink" x="0px" y="0px"
	 width="45px" height="44px" viewBox="0 0 45 44" enable-background="new 0 0 45 44" xml:space="preserve">
<g>
	<g transform="scale(0.1953125, 0.1953125)">
		<path fill="#1F6D84" d="M216.564,137.64l-66.925,25.73c-1.65,0.645-3.32,0.615-4.99,0.755l-10.09-30.3l5.64-2.175
			c1.74,5.845,7.43,8.93,12.71,6.905l47.79-18.385c5.29-2.03,8.15-8.405,6.41-14.25l-12.59-42.287
			c-1.74-5.84-7.43-8.925-12.71-6.902l-47.79,18.375c-5.28,2.032-8.15,8.412-6.41,14.252l-6.95,2.665l-9.787-29.435
			c2.04-2.14,4.48-3.867,7.287-4.957l66.91-25.72c10.56-4.055,21.94,2.12,25.42,13.795l18.895,63.45
			C232.864,120.825,227.124,133.58,216.564,137.64L216.564,137.64z M118.85,1.932l8.36,4.655L108.667,38.32l-8.365-4.65
			L118.85,1.932L118.85,1.932z M80.492,142.585c-3.485-4.73-2.87-11.69,1.38-15.545l12.975-11.78l13.155,16.63l-13.495,12.255
			C90.262,148.015,83.987,147.31,80.492,142.585L80.492,142.585z M153.02,103.155c1.74,5.84-1.13,12.225-6.41,14.25l-15.52,5.97
			l-6.95-20.897l16.18-6.222C145.59,94.222,151.29,97.312,153.02,103.155L153.02,103.155z M83.247,111.492
			c-3.485-4.72-9.76-5.42-14.01-1.555l-38.462,34.937c-4.255,3.86-4.865,10.81-1.375,15.535l25.27,34.21
			c3.485,4.74,9.76,5.435,14.007,1.575l38.465-34.935c4.25-3.855,4.865-10.81,1.375-15.54l0,0l6.07-5.525l18.322,23.165
			c-1.22,3.005-2.99,5.79-5.45,8.025l-53.847,48.905c-8.487,7.725-21.042,6.33-28.012-3.125L7.7,165.82
			c-6.98-9.435-11.6-13.725-3.11-21.435l59.7-58.547c1.51-1.372,3.257-2.112,4.967-2.917l19.005,24.02L83.247,111.492
			L83.247,111.492z M24.155,67.897l41.44-8.88l1.922,10.842L26.06,78.745L24.155,67.897L24.155,67.897z M66.532,5.892L75.062,0
			l5.63,40.38l-8.54,5.887L66.532,5.892L66.532,5.892z"/>
	</g>
</g>
</svg>
