<?xml version="1.0" encoding="UTF-8" standalone="no"?>
<!-- Generator: Adobe Illustrator 16.0.0, SVG Export Plug-In . SVG Version: 6.00 Build 0)  -->

<svg
   xmlns:dc="http://purl.org/dc/elements/1.1/"
   xmlns:cc="http://creativecommons.org/ns#"
   xmlns:rdf="http://www.w3.org/1999/02/22-rdf-syntax-ns#"
   xmlns:svg="http://www.w3.org/2000/svg"
   xmlns="http://www.w3.org/2000/svg"
   xmlns:sodipodi="http://sodipodi.sourceforge.net/DTD/sodipodi-0.dtd"
   xmlns:inkscape="http://www.inkscape.org/namespaces/inkscape"
   version="1.1"
   id="图层_1"
   x="0px"
   y="0px"
   width="45px"
   height="42px"
   viewBox="0 0 45 42"
   enable-background="new 0 0 45 42"
   xml:space="preserve"
   inkscape:version="0.91 r13725"
   sodipodi:docname="remove-link-selected-latest.svg"><metadata
     id="metadata4713"><rdf:RDF><cc:Work
         rdf:about=""><dc:format>image/svg+xml</dc:format><dc:type
           rdf:resource="http://purl.org/dc/dcmitype/StillImage" /><dc:title></dc:title></cc:Work></rdf:RDF></metadata><defs
     id="defs4711" /><sodipodi:namedview
     pagecolor="#ffffff"
     bordercolor="#666666"
     borderopacity="1"
     objecttolerance="10"
     gridtolerance="10"
     guidetolerance="10"
     inkscape:pageopacity="0"
     inkscape:pageshadow="2"
     inkscape:window-width="1920"
     inkscape:window-height="1019"
     id="namedview4709"
     showgrid="false"
     inkscape:zoom="5.6190476"
     inkscape:cx="-4.3728814"
     inkscape:cy="21"
     inkscape:window-x="-9"
     inkscape:window-y="-9"
     inkscape:window-maximized="1"
     inkscape:current-layer="图层_1" /><g
     id="g4703"
     style="fill:#ffffff"><g
       transform="scale(0.1953125, 0.1953125)"
       id="g4705"
       style="fill:#ffffff"><path
         fill="#1F6D84"
         d="M216.559,131.385l-66.92,24.56c-1.65,0.615-3.32,0.585-4.99,0.72l-10.09-28.925l5.64-2.075    c1.74,5.58,7.43,8.525,12.71,6.59l47.79-17.545c5.29-1.94,8.15-8.025,6.41-13.605L194.52,60.74c-1.74-5.575-7.43-8.52-12.71-6.59    l-47.79,17.54c-5.28,1.94-8.15,8.03-6.41,13.605l-6.95,2.545l-9.787-28.1c2.04-2.04,4.48-3.69,7.287-4.73l66.91-24.555    c10.56-3.87,21.94,2.025,25.42,13.17l18.89,60.565C232.859,115.335,227.119,127.51,216.559,131.385L216.559,131.385z     M118.85,1.845l8.36,4.44l-18.542,30.29l-8.365-4.435L118.85,1.845L118.85,1.845z M80.492,136.105    c-3.485-4.515-2.87-11.16,1.38-14.84l12.975-11.245l13.155,15.875l-13.495,11.7C90.262,141.285,83.987,140.615,80.492,136.105    L80.492,136.105z M153.02,98.465c1.74,5.575-1.13,11.67-6.41,13.605l-15.52,5.695l-6.95-19.945l16.18-5.94    C145.59,89.94,151.29,92.89,153.02,98.465L153.02,98.465z M83.247,106.425c-3.485-4.505-9.76-5.175-14.01-1.485l-38.46,33.35    c-4.255,3.685-4.865,10.32-1.375,14.83l25.27,32.655c3.485,4.525,9.76,5.19,14.005,1.505l38.465-33.35    c4.25-3.68,4.865-10.32,1.375-14.835l0,0l6.07-5.27l18.322,22.11c-1.22,2.87-2.99,5.525-5.45,7.66l-53.847,46.685    c-8.485,7.37-21.04,6.04-28.01-2.985l-37.9-49.005c-6.98-9.015-11.6-13.11-3.11-20.47l59.7-55.885    c1.51-1.31,3.255-2.015,4.965-2.785l19.005,22.93L83.247,106.425L83.247,106.425z M24.157,64.81l41.44-8.475l1.92,10.35    l-41.455,8.48L24.157,64.81L24.157,64.81z M66.532,5.625L75.062,0l5.63,38.545l-8.54,5.62L66.532,5.625L66.532,5.625z"
         id="path4707"
         style="fill:#ffffff" /></g></g></svg>