<?xml version="1.0" encoding="utf-8"?>
<!-- Generator: Adobe Illustrator 14.0.0, SVG Export Plug-In  -->
<!DOCTYPE svg PUBLIC "-//W3C//DTD SVG 1.1//EN" "http://www.w3.org/Graphics/SVG/1.1/DTD/svg11.dtd" [
	<!ENTITY ns_flows "http://ns.adobe.com/Flows/1.0/">
	<!ENTITY st0 "fill:#FFFFFF;">
	<!ENTITY st1 "fill:#DB423C;">
]>
<svg version="1.1"
	 xmlns="http://www.w3.org/2000/svg" xmlns:xlink="http://www.w3.org/1999/xlink" xmlns:a="http://ns.adobe.com/AdobeSVGViewerExtensions/3.0/"
	 x="0px" y="0px" width="460px" height="410px" viewBox="-0.005 0 460 410" style="enable-background:new -0.005 0 460 410;"
	 xml:space="preserve">
<defs>
</defs>
<path style="&st1;" d="M148.458,410C66.469,410,0,345.103,0,265.003V145.109C0,64.896,66.469,0.085,148.458,0l163.188,0.085
	c81.933,0,148.345,64.812,148.345,145.024v119.894c0,80.1-66.412,144.997-148.345,144.997H148.458L148.458,410z"/>
<path style="&st0;" d="M442.995,260.568c0,74.18-61.521,134.279-137.459,134.279H154.455c-75.938,0-137.459-60.1-137.459-134.279
	V149.536c0-74.284,61.521-134.306,137.459-134.384l151.082,0.078c75.938,0,137.459,60.022,137.459,134.306V260.568z"/>
<path style="&st1;" d="M310.176,84.714c-22.131,0-40.1,17.963-40.1,40.078c0,18.678,12.808,34.191,30.099,38.675v31.497h-31.512
	c-4.464-17.284-20.002-30.094-38.687-30.094c-18.647,0-34.205,12.81-38.669,30.094h-51.532v51.513
	c-17.253,4.493-30.042,20.024-30.042,38.674c0,22.163,17.912,40.135,40.1,40.135c22.131,0,40.081-17.972,40.081-40.135
	c0-18.649-12.808-34.229-30.061-38.674v-31.469h31.454c4.464,17.255,20.021,30.094,38.669,30.094
	c18.685,0,34.242-12.839,38.687-30.094h51.533v-51.541c17.271-4.437,30.061-19.997,30.061-38.675
	C350.257,102.677,332.308,84.714,310.176,84.714z M175.524,289.145c0,14.147-11.471,25.619-25.616,25.619
	s-25.616-11.472-25.616-25.619S175.524,274.997,175.524,289.145z M228.281,231.51c-14.428,0-26.124-11.708-26.124-26.138
	c0-14.439,11.696-26.138,26.124-26.138C242.728,179.234,242.728,231.51,228.281,231.51z M309.987,153.953
	c-14.145,0-25.615-11.472-25.615-25.619s51.231-14.147,51.231,0S324.133,153.953,309.987,153.953z"/>
</svg>
