<?xml version="1.0" encoding="utf-8"?>
<!-- Generator: Adobe Illustrator 16.0.0, SVG Export Plug-In . SVG Version: 6.00 Build 0)  -->
<!DOCTYPE svg PUBLIC "-//W3C//DTD SVG 1.1//EN" "http://www.w3.org/Graphics/SVG/1.1/DTD/svg11.dtd">
<svg version="1.1"
	 id="svg4156" sodipodi:docname="stage-selected-latest.svg" inkscape:version="0.91 r13725" xmlns:cc="http://creativecommons.org/ns#" xmlns:svg="http://www.w3.org/2000/svg" xmlns:sodipodi="http://sodipodi.sourceforge.net/DTD/sodipodi-0.dtd" xmlns:dc="http://purl.org/dc/elements/1.1/" xmlns:rdf="http://www.w3.org/1999/02/22-rdf-syntax-ns#" xmlns:inkscape="http://www.inkscape.org/namespaces/inkscape"
	 xmlns="http://www.w3.org/2000/svg" xmlns:xlink="http://www.w3.org/1999/xlink" x="0px" y="0px" width="45px" height="52px"
	 viewBox="0 0 45 52" enable-background="new 0 0 45 52" xml:space="preserve">
<g>
	<polygon fill="#84C1BC" points="45.004,39 22.503,52 0.003,39 0.003,13 22.503,0 45.004,13 	"/>
	
		<sodipodi:namedview  id="base" width="500px" units="px" inkscape:pageopacity="0.0" inkscape:document-units="px" inkscape:window-width="1920" inkscape:current-layer="layer1" inkscape:window-x="-9" inkscape:window-height="1019" inkscape:window-y="-9" inkscape:pageshadow="2" inkscape:cy="520" inkscape:zoom="0.35" showgrid="false" pagecolor="#ffffff" borderopacity="1.0" bordercolor="#666666" inkscape:cx="-56.428571" inkscape:window-maximized="1">
		</sodipodi:namedview>
	<g id="g4234" transform="matrix(1.9992339,0,0,1.9992339,44.006356,-487.18642)">
		<g id="g4236" transform="scale(0.1953125,0.1953125)">
			<path id="path4238" inkscape:connector-curvature="0" fill="#FFFFFF" d="M-61.595,1299.295c1.085,0,2.136-0.149,3.141-0.403
				l-4.409-3.624c-1.538-1.258-2.491-3.04-2.695-5.024c-0.194-1.986,0.394-3.924,1.647-5.46c1.418-1.741,3.515-2.737,5.755-2.737
				c1.718,0,3.393,0.602,4.714,1.689l4.687,3.844c0.04-0.403,0.065-0.809,0.065-1.224c0-7.139-5.778-12.939-12.902-12.939
				c-7.128,0-12.905,5.798-12.905,12.939C-74.5,1293.503-68.722,1299.295-61.595,1299.295z M-32.319,1293.653
				c-2.536,0-4.937,0.588-7.088,1.612c-1.356,0.644-2.616,1.463-3.736,2.436l-12.995-10.668c-0.59-0.489-1.303-0.724-2.018-0.724
				c-0.918,0-1.836,0.4-2.461,1.168c-1.115,1.363-0.92,3.38,0.445,4.493l13.092,10.749c-0.685,1.334-1.2,2.762-1.506,4.273
				c-0.165,0.804-0.245,1.637-0.29,2.472l7.858-4.359c1.416-0.787,3.016-1.204,4.632-1.204c3.476,0,6.683,1.898,8.368,4.944
				c2.551,4.623,0.875,10.469-3.736,13.03l-6.868,3.809c1.946,0.798,4.072,1.248,6.302,1.248c9.168,0,16.596-7.448,16.596-16.644
				C-15.722,1301.101-23.15,1293.653-32.319,1293.653z M-31.738,1310.907c-0.97-1.756-2.781-2.745-4.647-2.745
				c-0.87,0-1.756,0.213-2.566,0.663l-17.477,9.704c-1.003-1.115-2.121-2.131-3.334-3.016c-3.606-2.639-8.033-4.215-12.84-4.215
				c-12.051,0-21.818,9.797-21.818,21.882c0,12.09,9.769,21.883,21.818,21.883c12.06,0,21.831-9.794,21.831-21.883
				c0-0.25-0.03-0.485-0.04-0.725c-0.05-1.561-0.265-3.071-0.62-4.527l17.622-9.784
				C-31.243,1316.718-30.318,1313.482-31.738,1310.907L-31.738,1310.907z M-72.571,1351.416c-10.039,0-18.177-8.163-18.177-18.227
				s8.138-18.222,18.177-18.222c10.036,0,18.178,8.158,18.178,18.222S-62.533,1351.416-72.571,1351.416L-72.571,1351.416z
				 M-72.569,1344.554l-9.736-9.739h6.492v-12.987h6.485v12.987h6.491L-72.569,1344.554L-72.569,1344.554z"/>
		</g>
	</g>
</g>
</svg>
