<?xml version="1.0" encoding="utf-8"?>
<!-- Generator: Adobe Illustrator 14.0.0, SVG Export Plug-In  -->
<!DOCTYPE svg PUBLIC "-//W3C//DTD SVG 1.1//EN" "http://www.w3.org/Graphics/SVG/1.1/DTD/svg11.dtd" [
	<!ENTITY ns_flows "http://ns.adobe.com/Flows/1.0/">
	<!ENTITY st0 "fill:#149958;">
	<!ENTITY st1 "opacity:0.8;fill:#FFFFFF;">
]>
<svg version="1.1"
	 xmlns="http://www.w3.org/2000/svg" xmlns:xlink="http://www.w3.org/1999/xlink" xmlns:a="http://ns.adobe.com/AdobeSVGViewerExtensions/3.0/"
	 x="0px" y="0px" width="460px" height="410px" viewBox="0 0 460 410" style="enable-background:new 0 0 460 410;"
	 xml:space="preserve">
<defs>
</defs>
<path style="&st0;" d="M311.57,0.084L148.431,0C66.432,0.084,0,64.897,0,145.109v119.895C0,345.104,66.432,410,148.431,410h163.14
	C393.569,410,460,345.104,460,265.004V145.109C460,64.897,393.569,0.084,311.57,0.084z"/>
<path style="&st1;" d="M205.473,111.286c-51.75,0-93.695,41.961-93.695,93.718c0,51.748,41.945,93.701,93.695,93.701
	c51.749,0,93.695-41.953,93.695-93.701C299.168,153.247,257.222,111.286,205.473,111.286z M192.043,265.399
	c-33.31,0-60.31-26.995-60.31-60.319c0-33.315,27-60.31,60.31-60.31S225.353,265.399,192.043,265.399z"/>
<polygon style="&st1;" points="315.243,244.998 356.2,204.986 315.243,165.002 "/>
</svg>
