<?xml version="1.0" encoding="utf-8"?>
<!-- Generator: Adobe Illustrator 16.0.0, SVG Export Plug-In . SVG Version: 6.00 Build 0)  -->
<!DOCTYPE svg PUBLIC "-//W3C//DTD SVG 1.1//EN" "http://www.w3.org/Graphics/SVG/1.1/DTD/svg11.dtd">
<svg version="1.1"
	 id="svg4156" sodipodi:docname="start-latest.svg" inkscape:version="0.91 r13725" xmlns:cc="http://creativecommons.org/ns#" xmlns:svg="http://www.w3.org/2000/svg" xmlns:sodipodi="http://sodipodi.sourceforge.net/DTD/sodipodi-0.dtd" xmlns:dc="http://purl.org/dc/elements/1.1/" xmlns:rdf="http://www.w3.org/1999/02/22-rdf-syntax-ns#" xmlns:inkscape="http://www.inkscape.org/namespaces/inkscape"
	 xmlns="http://www.w3.org/2000/svg" xmlns:xlink="http://www.w3.org/1999/xlink" x="0px" y="0px" width="45px" height="52px"
	 viewBox="0 0 45 52" enable-background="new 0 0 45 52" xml:space="preserve">
<sodipodi:namedview  id="base" width="500px" units="px" inkscape:pageopacity="0.0" inkscape:document-units="px" inkscape:window-width="1920" inkscape:current-layer="layer1-3" inkscape:window-x="-9" inkscape:window-height="1019" inkscape:window-y="-9" inkscape:pageshadow="2" inkscape:cy="520" inkscape:zoom="0.35" showgrid="false" pagecolor="#ffffff" borderopacity="1.0" bordercolor="#666666" inkscape:cx="-56.428571" inkscape:window-maximized="1">
	</sodipodi:namedview>
<g>
	<g>
		<polygon fill="#1F6E85" points="45,39 22.5,52 0,39 0,13 22.5,0 45,13 		"/>
		<polygon fill="#84C1BC" points="42.045,37.293 22.5,48.586 2.955,37.293 2.955,14.707 22.5,3.415 42.045,14.707 		"/>
	</g>
	<g id="g4274_1_" transform="matrix(1.2891752,0,0,1.2891752,575.65756,-72.611309)">
		<g id="g4276_1_" transform="scale(0.1953125,0.1953125)">
			<path id="path4278_1_" inkscape:connector-curvature="0" fill="#1F6E85" d="M-2159.559,386.261l-55.078-40.033
				c-2.009-1.464-4.685-1.672-6.898-0.537c-2.224,1.123-3.625,3.413-3.625,5.905v80.07c0,2.486,1.396,4.767,3.625,5.907
				c0.944,0.477,1.978,0.718,3.008,0.718c1.373,0,2.742-0.423,3.894-1.268l55.074-40.025c1.722-1.249,2.73-3.25,2.73-5.372
				C-2156.829,389.5-2157.849,387.512-2159.559,386.261L-2159.559,386.261z"/>
		</g>
	</g>
</g>
</svg>
