<?xml version="1.0" encoding="UTF-8" standalone="no"?>
<!-- Generator: Adobe Illustrator 16.0.0, SVG Export Plug-In . SVG Version: 6.00 Build 0)  -->

<svg
   xmlns:dc="http://purl.org/dc/elements/1.1/"
   xmlns:cc="http://creativecommons.org/ns#"
   xmlns:rdf="http://www.w3.org/1999/02/22-rdf-syntax-ns#"
   xmlns:svg="http://www.w3.org/2000/svg"
   xmlns="http://www.w3.org/2000/svg"
   xmlns:sodipodi="http://sodipodi.sourceforge.net/DTD/sodipodi-0.dtd"
   xmlns:inkscape="http://www.inkscape.org/namespaces/inkscape"
   version="1.1"
   id="图层_1"
   x="0px"
   y="0px"
   width="100px"
   height="100px"
   viewBox="0 0 100 100"
   enable-background="new 0 0 100 100"
   xml:space="preserve"
   inkscape:version="0.91 r13725"
   sodipodi:docname="workflow-setting.svg"><metadata
     id="metadata4162"><rdf:RDF><cc:Work
         rdf:about=""><dc:format>image/svg+xml</dc:format><dc:type
           rdf:resource="http://purl.org/dc/dcmitype/StillImage" /><dc:title></dc:title></cc:Work></rdf:RDF></metadata><defs
     id="defs4160"><style
       type="text/css"
       id="style3344"><![CDATA[
@font-face { font-family: ifont; src: url("http://at.alicdn.com/t/font_1442373896_4754455.eot?#iefix") format("embedded-opentype"), url("http://at.alicdn.com/t/font_1442373896_4754455.woff") format("woff"), url("http://at.alicdn.com/t/font_1442373896_4754455.ttf") format("truetype"), url("http://at.alicdn.com/t/font_1442373896_4754455.svg#ifont") format("svg"); }

]]></style><style
       id="style4159"
       type="text/css" /><style
       id="style4142"
       type="text/css" /></defs><sodipodi:namedview
     pagecolor="#ffffff"
     bordercolor="#666666"
     borderopacity="1"
     objecttolerance="10"
     gridtolerance="10"
     guidetolerance="10"
     inkscape:pageopacity="0"
     inkscape:pageshadow="2"
     inkscape:window-width="1366"
     inkscape:window-height="706"
     id="namedview4158"
     showgrid="false"
     inkscape:zoom="3.337544"
     inkscape:cx="28.522885"
     inkscape:cy="42.37631"
     inkscape:window-x="-8"
     inkscape:window-y="-8"
     inkscape:window-maximized="1"
     inkscape:current-layer="图层_1" /><path
     d="M100,94c0,3.313-2.688,6-6,6H6c-3.313,0-6-2.688-6-6V6c0-3.313,2.687-6,6-6h88c3.313,0,6,2.687,6,6V94z"
     id="path4150"
     style="fill:#ffcc00;fill-opacity:1"
     fill="#5BA8B9" /><path
     id="path4144"
     p-id="1901"
     d="m 78.492078,46.130909 c 0,-0.514117 -0.19644,-1.028096 -0.588901,-1.42097 -0.392463,-0.392532 -0.905213,-0.588695 -1.418028,-0.588695 l -3.067389,0 c -1.271333,0 -2.616151,-0.991833 -2.994246,-2.204598 l -1.590586,-3.864153 c -0.597794,-1.117659 -0.351615,-2.766745 0.541896,-3.664772 l 2.176819,-2.173603 c 0.363111,-0.363453 0.5889,-0.865664 0.5889,-1.420902 0,-0.555237 -0.222917,-1.057585 -0.5889,-1.42227 l -3.694535,-3.688378 c -0.363111,-0.363453 -0.864023,-0.587327 -1.418032,-0.587327 -0.553731,0 -1.057584,0.225585 -1.420626,0.587327 l -2.176819,2.176477 c -0.893579,0.896727 -2.548754,1.142975 -3.668127,0.542169 L 55.312295,26.811996 C 54.105346,26.436774 53.10927,25.089357 53.10927,23.819392 l 0,-3.071698 c 0,-0.51268 -0.196437,-1.026797 -0.588967,-1.41926 -0.392463,-0.392532 -0.905213,-0.5889 -1.418028,-0.5889 l -5.217796,0 c -0.515759,0 -1.028096,0.196368 -1.42097,0.5889 -0.392533,0.392463 -0.588559,0.90658 -0.588559,1.41926 l 0,3.071698 c 0,1.269965 -0.987317,2.617724 -2.200424,2.992604 l -3.864152,1.589218 c -1.121902,0.600669 -2.768455,0.3575 -3.662173,-0.541896 L 31.96283,25.684142 c -0.363453,-0.363385 -0.867305,-0.585958 -1.420971,-0.585958 -0.553662,0 -1.054574,0.225584 -1.418027,0.587326 l -3.685436,3.685436 c -0.363384,0.363453 -0.585959,0.864365 -0.588899,1.419397 0,0.553937 0.225583,1.056217 0.588899,1.419602 l 2.174012,2.177913 c 0.899396,0.899737 1.145441,2.547456 0.541828,3.665115 l -1.59086,3.86682 c -0.37488,1.213107 -1.719696,2.204735 -2.990959,2.204735 l -3.070468,-0.003 c -0.51569,0 -1.028509,0.196436 -1.420972,0.588901 -0.392462,0.392532 -0.588899,0.906579 -0.588899,1.420627 l 0,5.216221 c 0,0.514048 0.196437,1.028509 0.588899,1.420972 0.392463,0.391162 0.905214,0.58726 1.420972,0.58726 l 3.070468,0 c 1.271263,0.0031 2.613069,0.9945 2.988292,2.204733 l 1.593459,3.86388 c 0.597796,1.12053 0.354627,2.77461 -0.541829,3.667986 l -2.179828,2.173674 c -0.36311,0.363114 -0.588899,0.865734 -0.588899,1.42227 0,0.553662 0.225789,1.057518 0.588899,1.420974 l 3.694536,3.688374 c 0.363114,0.363108 0.864022,0.587328 1.418031,0.587328 0.553662,0 1.057583,-0.22422 1.420625,-0.587328 l 2.179831,-2.175174 c 0.893373,-0.895086 2.539929,-1.1412 3.655945,-0.534576 l 3.872979,1.58922 c 1.213106,0.376452 2.200424,1.720926 2.200424,2.99253 l 0,3.059861 c 0,0.514122 0.196368,1.0281 0.5889,1.420631 0.392464,0.39117 0.905212,0.587535 1.42056,0.587535 l 5.214855,0 c 0.515756,0 1.028505,-0.196365 1.420968,-0.587535 0.392532,-0.392531 0.588969,-0.906581 0.588969,-1.420631 l 0,-3.059861 c 0,-1.271538 0.996075,-2.616078 2.203298,-2.99253 l 3.867163,-1.58922 c 1.118961,-0.606552 2.771328,-0.36051 3.670725,0.534576 l 2.165117,2.173668 c 0.363453,0.364686 0.864023,0.591846 1.420972,0.591846 0.553731,0.0012 1.057585,-0.22251 1.42063,-0.587328 l 3.694536,-3.691254 c 0.365982,-0.364752 0.588899,-0.867306 0.588899,-1.422546 0,-0.554826 -0.225789,-1.057512 -0.588899,-1.420554 l -2.176819,-2.173674 c -0.89358,-0.893376 -1.13969,-2.547456 -0.541897,-3.667992 l 1.590929,-3.863874 c 0.377753,-1.210234 1.728524,-2.201658 2.994245,-2.201658 l 3.067116,0 c 0.512747,0 1.025565,-0.196095 1.418028,-0.5889 0.392461,-0.392534 0.588901,-0.906582 0.588901,-1.42104 l 0,-5.218001 0,0 0,0 z M 61.26938,48.666733 c 0,7.091509 -5.74676,12.83505 -12.836829,12.83505 -7.093356,0 -12.840117,-5.743469 -12.840117,-12.83505 0,-7.089729 5.746761,-12.83649 12.840117,-12.83649 7.090069,-6.8e-5 12.836829,5.746761 12.836829,12.83649"
     inkscape:connector-curvature="0"
     style="fill:#fff6d5" /></svg>