<?xml version="1.0" encoding="UTF-8" standalone="no"?>
<!-- Generator: Adobe Illustrator 16.0.0, SVG Export Plug-In . SVG Version: 6.00 Build 0)  -->

<svg
   xmlns:dc="http://purl.org/dc/elements/1.1/"
   xmlns:cc="http://creativecommons.org/ns#"
   xmlns:rdf="http://www.w3.org/1999/02/22-rdf-syntax-ns#"
   xmlns:svg="http://www.w3.org/2000/svg"
   xmlns="http://www.w3.org/2000/svg"
   xmlns:sodipodi="http://sodipodi.sourceforge.net/DTD/sodipodi-0.dtd"
   xmlns:inkscape="http://www.inkscape.org/namespaces/inkscape"
   version="1.1"
   id="图层_1"
   x="0px"
   y="0px"
   width="100px"
   height="100px"
   viewBox="0 0 100 100"
   enable-background="new 0 0 100 100"
   xml:space="preserve"
   inkscape:version="0.91 r13725"
   sodipodi:docname="zoomin-bg.svg"><metadata
     id="metadata4162"><rdf:RDF><cc:Work
         rdf:about=""><dc:format>image/svg+xml</dc:format><dc:type
           rdf:resource="http://purl.org/dc/dcmitype/StillImage" /><dc:title /></cc:Work></rdf:RDF></metadata><defs
     id="defs4160"><style
       type="text/css"
       id="style3344"><![CDATA[
@font-face { font-family: ifont; src: url("http://at.alicdn.com/t/font_1442373896_4754455.eot?#iefix") format("embedded-opentype"), url("http://at.alicdn.com/t/font_1442373896_4754455.woff") format("woff"), url("http://at.alicdn.com/t/font_1442373896_4754455.ttf") format("truetype"), url("http://at.alicdn.com/t/font_1442373896_4754455.svg#ifont") format("svg"); }

]]></style></defs><sodipodi:namedview
     pagecolor="#ffffff"
     bordercolor="#666666"
     borderopacity="1"
     objecttolerance="10"
     gridtolerance="10"
     guidetolerance="10"
     inkscape:pageopacity="0"
     inkscape:pageshadow="2"
     inkscape:window-width="1920"
     inkscape:window-height="1018"
     id="namedview4158"
     showgrid="false"
     inkscape:zoom="2.36"
     inkscape:cx="-12.5"
     inkscape:cy="50"
     inkscape:window-x="-8"
     inkscape:window-y="-8"
     inkscape:window-maximized="1"
     inkscape:current-layer="图层_1" /><path
     fill="#5BA8B9"
     d="M100,94c0,3.313-2.688,6-6,6H6c-3.313,0-6-2.688-6-6V6c0-3.313,2.687-6,6-6h88c3.313,0,6,2.687,6,6V94z"
     id="path4150" /><g
     id="g4730"
     transform="matrix(0.88972108,0,0,0.87264624,15.587465,16.657236)"
     style="fill:#ffffff"><g
       transform="translate(0,-12.865499)"
       id="g4137"
       style="fill:#ffffff"><g
         id="g4139"
         style="fill:#ffffff"><rect
           style="fill:#ffffff;fill-opacity:1"
           id="rect4141"
           height="7.7509999"
           width="31.024"
           y="39.309761"
           x="13.433125" /><path
           sodipodi:nodetypes="ccsssscsccsccsssss"
           style="fill:#ffffff;fill-opacity:1"
           inkscape:connector-curvature="0"
           id="path4143"
           d="M 73.280651,77.528829 54.362101,59.535164 c 7.210715,-11.913559 5.574886,-27.40792 -4.157734,-37.443729 -5.545539,-5.718157 -12.931386,-8.86856 -20.799083,-8.86856 -7.866752,0 -15.251653,3.150403 -20.800031,8.86856 C 3.057821,27.808616 0.002,35.425017 0.002,43.536231 c 0,8.108286 3.055821,15.723712 8.603253,21.441869 5.535125,5.708397 12.908666,8.850992 20.761217,8.850992 5.554059,0 10.899852,-1.574225 15.560263,-4.568474 l 18.551568,16.481273 c 1.260952,1.29998 6.973358,6.175171 8.753081,6.175171 1.779723,0 4.554369,-3.740165 5.817215,-5.040145 2.60237,-2.685845 -2.170308,-6.669074 -4.767946,-9.348088 z m -44.0647,-14.422623 c -10.589347,0 -19.20396,-8.883199 -19.20396,-19.795422 0,-10.917102 8.615559,-19.799326 19.20396,-19.799326 10.588401,0 19.202067,8.8832 19.202067,19.799326 0,10.913199 -8.613666,19.795422 -19.202067,19.795422 z" /><rect
           transform="matrix(0.01038505,0.99994607,-0.99994607,0.01038505,0,0)"
           style="fill:#ffffff;fill-opacity:1"
           id="rect4141-2"
           height="7.7509999"
           width="31.024"
           y="-32.114628"
           x="27.752966" /></g></g><g
       transform="translate(0,-12.865499)"
       id="g4145"
       style="fill:#ffffff" /><g
       transform="translate(0,-12.865499)"
       id="g4147"
       style="fill:#ffffff" /><g
       transform="translate(0,-12.865499)"
       id="g4149"
       style="fill:#ffffff" /><g
       transform="translate(0,-12.865499)"
       id="g4151"
       style="fill:#ffffff" /><g
       transform="translate(0,-12.865499)"
       id="g4153"
       style="fill:#ffffff" /><g
       transform="translate(0,-12.865499)"
       id="g4155"
       style="fill:#ffffff" /><g
       transform="translate(0,-12.865499)"
       id="g4157"
       style="fill:#ffffff" /><g
       transform="translate(0,-12.865499)"
       id="g4159"
       style="fill:#ffffff" /><g
       transform="translate(0,-12.865499)"
       id="g4161"
       style="fill:#ffffff" /><g
       transform="translate(0,-12.865499)"
       id="g4163"
       style="fill:#ffffff" /><g
       transform="translate(0,-12.865499)"
       id="g4165"
       style="fill:#ffffff" /><g
       transform="translate(0,-12.865499)"
       id="g4167"
       style="fill:#ffffff" /><g
       transform="translate(0,-12.865499)"
       id="g4169"
       style="fill:#ffffff" /><g
       transform="translate(0,-12.865499)"
       id="g4171"
       style="fill:#ffffff" /><g
       transform="translate(0,-12.865499)"
       id="g4173"
       style="fill:#ffffff" /></g></svg>