<?xml version="1.0" encoding="UTF-8" standalone="no"?>
<!-- Generator: Adobe Illustrator 16.0.0, SVG Export Plug-In . SVG Version: 6.00 Build 0)  -->

<svg
   xmlns:dc="http://purl.org/dc/elements/1.1/"
   xmlns:cc="http://creativecommons.org/ns#"
   xmlns:rdf="http://www.w3.org/1999/02/22-rdf-syntax-ns#"
   xmlns:svg="http://www.w3.org/2000/svg"
   xmlns="http://www.w3.org/2000/svg"
   xmlns:sodipodi="http://sodipodi.sourceforge.net/DTD/sodipodi-0.dtd"
   xmlns:inkscape="http://www.inkscape.org/namespaces/inkscape"
   version="1.1"
   id="图层_1"
   x="0px"
   y="0px"
   width="100px"
   height="100px"
   viewBox="0 0 100 100"
   enable-background="new 0 0 100 100"
   xml:space="preserve"
   inkscape:version="0.91 r13725"
   sodipodi:docname="zoomin-selected.svg"><metadata
     id="metadata4162"><rdf:RDF><cc:Work
         rdf:about=""><dc:format>image/svg+xml</dc:format><dc:type
           rdf:resource="http://purl.org/dc/dcmitype/StillImage" /><dc:title></dc:title></cc:Work></rdf:RDF></metadata><defs
     id="defs4160"><style
       type="text/css"
       id="style3344"><![CDATA[
@font-face { font-family: ifont; src: url("http://at.alicdn.com/t/font_1442373896_4754455.eot?#iefix") format("embedded-opentype"), url("http://at.alicdn.com/t/font_1442373896_4754455.woff") format("woff"), url("http://at.alicdn.com/t/font_1442373896_4754455.ttf") format("truetype"), url("http://at.alicdn.com/t/font_1442373896_4754455.svg#ifont") format("svg"); }

]]></style><style
       id="style4159"
       type="text/css" /></defs><sodipodi:namedview
     pagecolor="#ffffff"
     bordercolor="#666666"
     borderopacity="1"
     objecttolerance="10"
     gridtolerance="10"
     guidetolerance="10"
     inkscape:pageopacity="0"
     inkscape:pageshadow="2"
     inkscape:window-width="1366"
     inkscape:window-height="706"
     id="namedview4158"
     showgrid="false"
     inkscape:zoom="3.337544"
     inkscape:cx="49.604168"
     inkscape:cy="51.964199"
     inkscape:window-x="-8"
     inkscape:window-y="-8"
     inkscape:window-maximized="1"
     inkscape:current-layer="图层_1" /><path
     fill="#5BA8B9"
     d="M100,94c0,3.313-2.688,6-6,6H6c-3.313,0-6-2.688-6-6V6c0-3.313,2.687-6,6-6h88c3.313,0,6,2.687,6,6V94z"
     id="path4150"
     style="fill:#5d8fc2;fill-opacity:1" /><g
     id="g4170"
     transform="matrix(0.07341402,0,0,0.07341402,12.956156,12.966728)"
     style="fill:#000080"><path
       id="path4161"
       p-id="4094"
       d="M 964.84267,885.93067 829.03467,750.16533 C 888.21333,674.21867 923.84,579.072 923.84,475.56267 c 0,-247.04 -200.98133,-448.000003 -448,-448.000003 -247.04,0 -448,200.960003 -448,448.000003 0,247.01866 200.96,448 448,448 103.36,0 198.4,-35.52 274.26133,-94.57067 l 135.82934,135.82933 c 21.93066,21.90934 57.36533,22.016 79.14666,0.256 21.78134,-21.80266 21.65334,-57.19466 -0.23466,-79.14666 z m -851.66934,-410.368 c 0,-199.97867 162.688,-362.66667 362.66667,-362.66667 199.97867,0 362.66667,162.688 362.66667,362.66667 0,199.97866 -162.688,362.66666 -362.66667,362.66666 -199.97867,0 -362.66667,-162.688 -362.66667,-362.66666 z"
       inkscape:connector-curvature="0"
       style="fill:#000080" /><path
       id="path4163"
       p-id="4095"
       d="m 626.79467,432.896 -108.288,0 0,-108.30933 c 0,-22.656 -19.11467,-41.024 -42.66667,-41.024 -23.57333,0 -42.66667,18.34666 -42.66667,41.024 l 0,108.30933 -108.30933,0 c -22.656,0 -41.024,19.11467 -41.024,42.688 0,23.57333 18.34667,42.66667 41.024,42.66667 l 108.30933,0 0,108.288 c 0,22.656 19.09334,41.04533 42.66667,41.04533 23.552,0 42.66667,-18.368 42.66667,-41.04533 l 0,-108.288 108.288,0 c 22.656,0 41.04533,-19.09334 41.04533,-42.66667 0,-23.57333 -18.38933,-42.688 -41.04533,-42.688 z"
       inkscape:connector-curvature="0"
       style="fill:#000080" /></g></svg>