<?xml version="1.0" encoding="utf-8"?>
<!-- Generator: Adobe Illustrator 16.0.0, SVG Export Plug-In . SVG Version: 6.00 Build 0)  -->
<!DOCTYPE svg PUBLIC "-//W3C//DTD SVG 1.1//EN" "http://www.w3.org/Graphics/SVG/1.1/DTD/svg11.dtd">
<svg version="1.1"
	 id="svg4156" xmlns:cc="http://creativecommons.org/ns#" xmlns:svg="http://www.w3.org/2000/svg" xmlns:sodipodi="http://sodipodi.sourceforge.net/DTD/sodipodi-0.dtd" xmlns:dc="http://purl.org/dc/elements/1.1/" xmlns:rdf="http://www.w3.org/1999/02/22-rdf-syntax-ns#" xmlns:inkscape="http://www.inkscape.org/namespaces/inkscape" sodipodi:docname="stage-selected-latest.svg" inkscape:version="0.91 r13725"
	 xmlns="http://www.w3.org/2000/svg" xmlns:xlink="http://www.w3.org/1999/xlink" x="0px" y="0px" width="45px" height="52px"
	 viewBox="0 0 45 52" enable-background="new 0 0 45 52" xml:space="preserve">
<g>
	
		<sodipodi:namedview  id="base" units="px" width="500px" inkscape:cy="520" inkscape:zoom="0.35" showgrid="false" pagecolor="#ffffff" borderopacity="1.0" bordercolor="#666666" inkscape:cx="-56.428571" inkscape:window-maximized="1" inkscape:pageopacity="0.0" inkscape:document-units="px" inkscape:window-width="1920" inkscape:current-layer="layer1" inkscape:window-x="-9" inkscape:window-height="1019" inkscape:window-y="-9" inkscape:pageshadow="2">
		</sodipodi:namedview>
	<polygon fill="#ADD04E" points="45.001,39 22.5,52 0,39 0,13 22.5,0 45.001,13 	"/>
	<g id="g4234" transform="matrix(1.9992339,0,0,1.9992339,44.006356,-487.18642)">
		<g id="g4236" transform="scale(0.1953125,0.1953125)">
			<path id="path4238" inkscape:connector-curvature="0" fill="#006C37" d="M-61.602,1299.285c1.085,0,2.136-0.15,3.141-0.405
				l-4.409-3.625c-1.538-1.258-2.491-3.039-2.694-5.022c-0.195-1.987,0.393-3.923,1.646-5.461c1.418-1.742,3.516-2.736,5.755-2.736
				c1.718,0,3.394,0.599,4.714,1.687l4.687,3.844c0.04-0.403,0.065-0.808,0.065-1.223c0-7.139-5.777-12.94-12.901-12.94
				c-7.129,0-12.905,5.797-12.905,12.94C-74.507,1293.493-68.73,1299.285-61.602,1299.285z M-32.326,1293.643
				c-2.536,0-4.937,0.588-7.088,1.613c-1.356,0.643-2.616,1.463-3.736,2.436l-12.995-10.669c-0.59-0.49-1.303-0.723-2.018-0.723
				c-0.918,0-1.836,0.398-2.461,1.168c-1.114,1.363-0.919,3.379,0.445,4.492l13.092,10.749c-0.685,1.333-1.2,2.761-1.506,4.274
				c-0.165,0.803-0.245,1.636-0.29,2.471l7.858-4.359c1.416-0.788,3.016-1.203,4.632-1.203c3.476,0,6.683,1.898,8.368,4.942
				c2.551,4.622,0.873,10.468-3.736,13.029l-6.868,3.812c1.946,0.793,4.072,1.238,6.3,1.238c9.168,0,16.596-7.448,16.596-16.636
				C-15.73,1301.091-23.158,1293.643-32.326,1293.643z M-31.746,1310.897c-0.97-1.758-2.781-2.746-4.647-2.746
				c-0.87,0-1.756,0.215-2.566,0.663l-17.477,9.695c-1.003-1.103-2.122-2.131-3.335-3.009c-3.605-2.637-8.032-4.214-12.84-4.214
				c-12.052,0-21.817,9.789-21.817,21.881c0,12.09,9.769,21.876,21.817,21.876c12.061,0,21.83-9.794,21.83-21.876
				c0-0.25-0.03-0.485-0.04-0.725c-0.048-1.561-0.263-3.071-0.618-4.527l17.622-9.789
				C-31.251,1316.698-30.325,1313.469-31.746,1310.897L-31.746,1310.897z M-72.579,1351.396c-10.039,0-18.177-8.163-18.177-18.227
				c0-10.064,8.138-18.214,18.177-18.214c10.036,0,18.179,8.156,18.179,18.214C-54.4,1343.233-62.54,1351.396-72.579,1351.396
				L-72.579,1351.396z"/>
		</g>
		<g>
			<g>
				<path fill="#006C37" d="M-14.349,258.372c-0.023,0.241,0.155,0.455,0.396,0.478c0.241,0.023,0.456-0.155,0.478-0.396
					c0.022-0.241-0.155-0.455-0.397-0.478C-14.113,257.953-14.327,258.131-14.349,258.372z"/>
				<path fill="#006C37" d="M-14.537,262.763c-0.011,0.121,0.077,0.228,0.198,0.239c0.121,0.01,0.228-0.078,0.239-0.199
					c0.011-0.121-0.077-0.227-0.198-0.239C-14.419,262.554-14.526,262.642-14.537,262.763z"/>
				<path fill="#006C37" d="M-15.398,258.77c0.093,0.202,0.331,0.291,0.534,0.198c0.202-0.093,0.29-0.331,0.197-0.533l0,0
					c-0.093-0.202-0.332-0.291-0.533-0.198C-15.403,258.331-15.492,258.569-15.398,258.77z"/>
				<path fill="#006C37" d="M-13.364,262.669c0.042,0.093,0.15,0.133,0.242,0.09c0.092-0.042,0.132-0.15,0.09-0.241
					c-0.042-0.093-0.151-0.132-0.243-0.091C-13.366,262.47-13.407,262.578-13.364,262.669z"/>
				<path fill="#006C37" d="M-16.119,259.63c0.165,0.117,0.393,0.078,0.509-0.087c0.117-0.166,0.078-0.394-0.087-0.51l0,0
					c-0.165-0.116-0.393-0.078-0.51,0.087C-16.323,259.284-16.284,259.513-16.119,259.63z"/>
				<path fill="#006C37" d="M-12.409,261.986c0.065,0.046,0.157,0.031,0.204-0.035c0.046-0.066,0.03-0.157-0.035-0.203l0,0
					c-0.067-0.047-0.158-0.032-0.205,0.034C-12.491,261.848-12.475,261.939-12.409,261.986z"/>
				<path fill="#006C37" d="M-16.629,260.364c-0.017,0.182,0.116,0.341,0.297,0.359c0.181,0.016,0.342-0.116,0.359-0.298
					c0.016-0.181-0.116-0.341-0.298-0.359C-16.451,260.05-16.612,260.184-16.629,260.364z"/>
				<path fill="#006C37" d="M-12.04,260.792c-0.006,0.06,0.039,0.113,0.099,0.119c0.06,0.005,0.114-0.04,0.119-0.1
					c0.006-0.06-0.039-0.114-0.099-0.119C-11.981,260.686-12.034,260.732-12.04,260.792z"/>
				<path fill="#006C37" d="M-16.376,261.638c0.067,0.147,0.241,0.211,0.388,0.144c0.147-0.067,0.211-0.241,0.144-0.388
					c-0.068-0.146-0.242-0.211-0.389-0.144C-16.38,261.317-16.445,261.491-16.376,261.638z"/>
				<path fill="#006C37" d="M-11.97,260.082c0.016,0.037,0.06,0.053,0.097,0.036c0.036-0.018,0.053-0.061,0.036-0.097
					c-0.017-0.037-0.061-0.053-0.098-0.037C-11.971,260.002-11.987,260.045-11.97,260.082z"/>
				<path fill="#006C37" d="M-15.531,262.599c0.115,0.082,0.275,0.054,0.357-0.062c0.082-0.115,0.054-0.275-0.061-0.357l0,0
					c-0.116-0.081-0.275-0.054-0.357,0.061C-15.674,262.358-15.647,262.518-15.531,262.599z"/>
			</g>
			<path fill="#006C37" d="M-14.581,260.335c-0.027,0.042,0.039,0.24,0.039,0.24s0.129,0.429,0.152,0.52
				c0.024,0.09,0.062,0.17,0.079,0.245c0.015-0.081,0.498-1.524,0.498-1.524h0.225c0,0,0.51,1.452,0.524,1.524
				c0.015-0.075,0.033-0.153,0.053-0.236c0.019-0.083,0.044-0.175,0.073-0.275l0.275-0.964c0.002-0.012,0.006-0.025,0.01-0.041
				c0.004-0.016,0.008-0.03,0.011-0.046c0.003-0.015,0.006-0.029,0.009-0.042c0.002-0.013,0.003-0.024,0.003-0.033
				c0-0.054-0.017-0.093-0.051-0.117c-0.034-0.024-0.086-0.036-0.155-0.036h-0.073v-0.131h0.762v0.131h-0.059
				c-0.031,0-0.057,0.003-0.08,0.009c-0.023,0.006-0.043,0.018-0.062,0.035c-0.018,0.017-0.035,0.042-0.05,0.073
				c-0.015,0.032-0.031,0.074-0.046,0.125l-0.528,1.856h-0.281l-0.509-1.372l-0.477,1.372h-0.288l-0.383-1.179
				c-0.011-0.033-0.022-0.06-0.035-0.081c-0.012-0.021-0.027-0.038-0.044-0.05c-0.018-0.013-0.038-0.021-0.062-0.027
				c-0.023-0.004-0.079-0.006-0.079-0.006l-0.003-0.131h0.716v0.131C-14.413,260.305-14.554,260.294-14.581,260.335z"/>
		</g>
	</g>
</g>
</svg>
