<?xml version="1.0" encoding="utf-8"?>
<!-- Generator: Adobe Illustrator 16.0.0, SVG Export Plug-In . SVG Version: 6.00 Build 0)  -->
<!DOCTYPE svg PUBLIC "-//W3C//DTD SVG 1.1//EN" "http://www.w3.org/Graphics/SVG/1.1/DTD/svg11.dtd">
<svg version="1.1"
	 id="svg4156" xmlns:cc="http://creativecommons.org/ns#" xmlns:svg="http://www.w3.org/2000/svg" xmlns:sodipodi="http://sodipodi.sourceforge.net/DTD/sodipodi-0.dtd" xmlns:dc="http://purl.org/dc/elements/1.1/" xmlns:rdf="http://www.w3.org/1999/02/22-rdf-syntax-ns#" xmlns:inkscape="http://www.inkscape.org/namespaces/inkscape" sodipodi:docname="start-latest.svg" inkscape:version="0.91 r13725"
	 xmlns="http://www.w3.org/2000/svg" xmlns:xlink="http://www.w3.org/1999/xlink" x="0px" y="0px" width="45px" height="52px"
	 viewBox="0 0 45 52" enable-background="new 0 0 45 52" xml:space="preserve">
<sodipodi:namedview  id="base" units="px" width="500px" inkscape:cy="520" inkscape:zoom="0.35" showgrid="false" pagecolor="#ffffff" borderopacity="1.0" bordercolor="#666666" inkscape:cx="-56.428571" inkscape:window-maximized="1" inkscape:pageopacity="0.0" inkscape:document-units="px" inkscape:window-width="1920" inkscape:current-layer="layer1-3" inkscape:window-x="-9" inkscape:window-height="1019" inkscape:window-y="-9" inkscape:pageshadow="2">
	</sodipodi:namedview>
<polygon fill="#87AF25" points="45,39 22.5,52 0,39 0,13 22.5,0 45,13 "/>
<polygon fill="#D1DE4D" points="42.045,37.293 22.5,48.586 2.955,37.293 2.955,14.707 22.5,3.415 42.045,14.707 "/>
<g>
	<path fill="#54711E" d="M29.859,32.744c-0.111,0.119-0.223,0.242-0.34,0.357c-3.914,3.867-10.251,3.826-14.117-0.086
		c-1.509-1.529-2.481-3.504-2.779-5.613l2.847,0.018l-3.968-5.825l-4.038,5.777l3.016,0.021c0.309,2.678,1.511,5.188,3.414,7.112
		c4.69,4.75,12.367,4.798,17.115,0.104c0.143-0.141,0.279-0.284,0.416-0.428c0.395-0.433,0.367-1.104-0.064-1.504
		C30.926,32.281,30.248,32.334,29.859,32.744z"/>
	<path fill="#54711E" d="M31.115,17.494c-4.691-4.75-12.37-4.796-17.118-0.103c-0.346,0.34-0.67,0.706-0.979,1.083
		c-0.362,0.457-0.285,1.128,0.176,1.492c0.458,0.366,1.127,0.288,1.488-0.174c0.251-0.309,0.521-0.609,0.808-0.893
		c3.914-3.869,10.25-3.828,14.115,0.085c1.799,1.82,2.811,4.202,2.879,6.748l-2.949-0.018l3.965,5.825l4.035-5.778l-2.93-0.015
		C34.541,22.637,33.307,19.712,31.115,17.494z"/>
</g>
<path fill="#54711E" d="M26.031,28.78c0,0.416-0.338,0.753-0.754,0.753h-5.555c-0.416,0-0.753-0.337-0.753-0.753V23.22
	c0-0.417,0.337-0.753,0.753-0.753h5.555c0.416,0,0.754,0.338,0.754,0.753V28.78L26.031,28.78z"/>
</svg>
