<?xml version="1.0" encoding="utf-8"?>
<!-- Generator: Adobe Illustrator 16.0.0, SVG Export Plug-In . SVG Version: 6.00 Build 0)  -->
<!DOCTYPE svg PUBLIC "-//W3C//DTD SVG 1.1//EN" "http://www.w3.org/Graphics/SVG/1.1/DTD/svg11.dtd">
<svg version="1.1"
	 id="svg4156" xmlns:cc="http://creativecommons.org/ns#" xmlns:svg="http://www.w3.org/2000/svg" xmlns:sodipodi="http://sodipodi.sourceforge.net/DTD/sodipodi-0.dtd" xmlns:dc="http://purl.org/dc/elements/1.1/" xmlns:rdf="http://www.w3.org/1999/02/22-rdf-syntax-ns#" xmlns:inkscape="http://www.inkscape.org/namespaces/inkscape" sodipodi:docname="stage-selected-latest.svg" inkscape:version="0.91 r13725"
	 xmlns="http://www.w3.org/2000/svg" xmlns:xlink="http://www.w3.org/1999/xlink" x="0px" y="0px" width="45px" height="52px"
	 viewBox="0 0 45 52" enable-background="new 0 0 45 52" xml:space="preserve">
<g>
	
		<sodipodi:namedview  id="base" units="px" width="500px" inkscape:cy="520" inkscape:zoom="0.35" showgrid="false" pagecolor="#ffffff" borderopacity="1.0" bordercolor="#666666" inkscape:cx="-56.428571" inkscape:window-maximized="1" inkscape:pageopacity="0.0" inkscape:document-units="px" inkscape:window-width="1920" inkscape:current-layer="layer1" inkscape:window-x="-9" inkscape:window-height="1019" inkscape:window-y="-9" inkscape:pageshadow="2">
		</sodipodi:namedview>
	<polygon fill="#D1DE4D" points="45.001,39 22.5,52 0,39 0,13 22.5,0 45.001,13 	"/>
	<g id="g4236" transform="scale(0.1953125,0.1953125)">
		<path id="path4238" inkscape:connector-curvature="0" fill="#FFFFFF" d="M102.155,103.187c2.17,0,4.27-0.3,6.28-0.81L99.62,95.13
			c-3.075-2.515-4.98-6.075-5.385-10.04c-0.39-3.972,0.785-7.842,3.29-10.917c2.835-3.482,7.03-5.47,11.505-5.47
			c3.435,0,6.785,1.198,9.425,3.372l9.37,7.685c0.08-0.805,0.13-1.615,0.13-2.445c0-14.272-11.55-25.87-25.792-25.87
			c-14.252,0-25.8,11.59-25.8,25.87C76.355,91.607,87.905,103.187,102.155,103.187z M160.685,91.907c-5.07,0-9.87,1.175-14.17,3.225
			c-2.71,1.285-5.23,2.925-7.47,4.87l-25.98-21.33c-1.18-0.98-2.605-1.445-4.035-1.445c-1.835,0-3.67,0.795-4.92,2.335
			c-2.227,2.725-1.837,6.755,0.89,8.98l26.175,21.49c-1.37,2.665-2.4,5.52-3.01,8.545c-0.33,1.605-0.49,3.27-0.58,4.94l15.71-8.715
			c2.83-1.575,6.03-2.405,9.26-2.405c6.95,0,13.36,3.795,16.73,9.88c5.1,9.24,1.745,20.927-7.47,26.047l-13.73,7.62
			c3.89,1.585,8.14,2.475,12.595,2.475c18.33,0,33.18-14.89,33.18-33.26C193.865,106.797,179.015,91.907,160.685,91.907z
			 M161.845,126.402c-1.94-3.515-5.56-5.49-9.29-5.49c-1.74,0-3.51,0.43-5.13,1.325l-34.94,19.382
			c-2.005-2.205-4.242-4.26-6.667-6.015c-7.207-5.272-16.057-8.425-25.67-8.425c-24.095,0-43.617,19.57-43.617,43.745
			c0,24.17,19.53,43.735,43.617,43.735c24.112,0,43.642-19.58,43.642-43.735c0-0.5-0.06-0.97-0.08-1.45
			c-0.095-3.12-0.525-6.14-1.235-9.05l35.23-19.57C162.835,138,164.685,131.545,161.845,126.402L161.845,126.402z M80.21,207.369
			c-20.07,0-36.34-16.32-36.34-36.44s16.27-36.415,36.34-36.415c20.065,0,36.345,16.305,36.345,36.415
			C116.555,191.05,100.28,207.369,80.21,207.369L80.21,207.369z"/>
	</g>
	<g>
		<path fill="#54711E" d="M18.729,35.86c-0.044,0.048-0.089,0.097-0.136,0.143c-1.563,1.545-4.093,1.528-5.637-0.034
			c-0.603-0.61-0.991-1.399-1.11-2.241l1.137,0.007l-1.584-2.326l-1.612,2.307l1.204,0.008c0.124,1.069,0.604,2.072,1.363,2.841
			c1.873,1.896,4.939,1.915,6.835,0.042c0.057-0.057,0.111-0.114,0.166-0.171c0.157-0.173,0.146-0.441-0.026-0.601
			C19.155,35.676,18.884,35.696,18.729,35.86z"/>
		<path fill="#54711E" d="M19.23,29.771c-1.873-1.896-4.939-1.915-6.835-0.041c-0.138,0.136-0.268,0.282-0.391,0.433
			c-0.145,0.183-0.114,0.45,0.07,0.596c0.183,0.146,0.45,0.115,0.594-0.069c0.1-0.123,0.208-0.243,0.322-0.356
			c1.563-1.545,4.093-1.528,5.636,0.034c0.719,0.727,1.123,1.678,1.149,2.694l-1.177-0.007l1.583,2.326l1.611-2.308l-1.17-0.006
			C20.598,31.824,20.105,30.656,19.23,29.771z"/>
	</g>
	<polygon fill="#54711E" points="15.753,35.011 14.118,33.375 15.209,33.375 15.209,31.194 16.297,31.194 16.297,33.375 
		17.387,33.375 15.753,35.011 	"/>
</g>
</svg>
