<?xml version="1.0" encoding="utf-8"?>
<!-- Generator: Adobe Illustrator 16.0.0, SVG Export Plug-In . SVG Version: 6.00 Build 0)  -->
<!DOCTYPE svg PUBLIC "-//W3C//DTD SVG 1.1//EN" "http://www.w3.org/Graphics/SVG/1.1/DTD/svg11.dtd">
<svg version="1.1"
	 id="svg4156" xmlns:cc="http://creativecommons.org/ns#" xmlns:svg="http://www.w3.org/2000/svg" xmlns:sodipodi="http://sodipodi.sourceforge.net/DTD/sodipodi-0.dtd" xmlns:dc="http://purl.org/dc/elements/1.1/" xmlns:rdf="http://www.w3.org/1999/02/22-rdf-syntax-ns#" xmlns:inkscape="http://www.inkscape.org/namespaces/inkscape" sodipodi:docname="start-latest.svg" inkscape:version="0.91 r13725"
	 xmlns="http://www.w3.org/2000/svg" xmlns:xlink="http://www.w3.org/1999/xlink" x="0px" y="0px" width="45px" height="52px"
	 viewBox="0 0 45 52" enable-background="new 0 0 45 52" xml:space="preserve">
<sodipodi:namedview  id="base" units="px" width="500px" inkscape:cy="520" inkscape:zoom="0.35" showgrid="false" pagecolor="#ffffff" borderopacity="1.0" bordercolor="#666666" inkscape:cx="-56.428571" inkscape:window-maximized="1" inkscape:pageopacity="0.0" inkscape:document-units="px" inkscape:window-width="1920" inkscape:current-layer="layer1-3" inkscape:window-x="-9" inkscape:window-height="1019" inkscape:window-y="-9" inkscape:pageshadow="2">
	</sodipodi:namedview>
<polygon fill="#92B952" points="45,39 22.5,52 0,39 0,13 22.5,0 45,13 "/>
<polygon fill="#D1DE4D" points="42.045,37.293 22.5,48.586 2.955,37.293 2.955,14.707 22.5,3.415 42.045,14.707 "/>
<g>
	<path fill="#87AF25" d="M20.346,14.591c-0.119,1.28,0.822,2.414,2.104,2.533c1.276,0.119,2.414-0.821,2.53-2.101
		c0.119-1.28-0.819-2.415-2.104-2.533C21.599,12.371,20.465,13.312,20.346,14.591z"/>
	<path fill="#87AF25" d="M19.35,37.872c-0.059,0.64,0.41,1.206,1.051,1.267c0.641,0.059,1.207-0.412,1.267-1.051
		c0.06-0.643-0.41-1.207-1.052-1.268C19.976,36.762,19.41,37.23,19.35,37.872z"/>
	<path fill="#87AF25" d="M14.783,16.705c0.494,1.07,1.76,1.539,2.829,1.047c1.071-0.492,1.54-1.758,1.048-2.83l0,0
		c-0.492-1.069-1.76-1.539-2.829-1.047C14.762,14.367,14.291,15.634,14.783,16.705z"/>
	<path fill="#87AF25" d="M25.568,37.377c0.223,0.486,0.799,0.701,1.283,0.475c0.487-0.221,0.7-0.797,0.477-1.283
		c-0.223-0.485-0.801-0.698-1.285-0.479C25.559,36.314,25.344,36.889,25.568,37.377z"/>
	<path fill="#87AF25" d="M10.965,21.255c0.873,0.619,2.084,0.413,2.703-0.46c0.619-0.874,0.412-2.086-0.461-2.704l0,0
		c-0.873-0.619-2.086-0.413-2.703,0.461C9.885,19.426,10.09,20.637,10.965,21.255z"/>
	<path fill="#87AF25" d="M30.637,33.748c0.348,0.248,0.834,0.164,1.084-0.188c0.244-0.351,0.16-0.832-0.188-1.078l0,0
		c-0.352-0.248-0.834-0.166-1.084,0.184C30.203,33.018,30.287,33.5,30.637,33.748z"/>
	<path fill="#87AF25" d="M8.262,25.154c-0.09,0.961,0.617,1.81,1.576,1.901c0.961,0.088,1.811-0.618,1.899-1.577
		c0.089-0.961-0.616-1.812-1.577-1.901C9.2,23.488,8.352,24.193,8.262,25.154z"/>
	<path fill="#87AF25" d="M32.592,27.418c-0.031,0.318,0.205,0.604,0.527,0.632c0.32,0.029,0.604-0.206,0.631-0.524
		c0.031-0.317-0.203-0.604-0.525-0.633C32.904,26.861,32.621,27.098,32.592,27.418z"/>
	<path fill="#87AF25" d="M9.598,31.902c0.357,0.779,1.277,1.121,2.057,0.763c0.778-0.356,1.119-1.278,0.762-2.058
		c-0.358-0.777-1.279-1.119-2.058-0.762C9.579,30.206,9.238,31.125,9.598,31.902z"/>
	<path fill="#87AF25" d="M32.961,23.658c0.088,0.195,0.316,0.279,0.516,0.189c0.193-0.089,0.279-0.32,0.189-0.515
		c-0.09-0.192-0.32-0.278-0.518-0.19C32.955,23.232,32.871,23.463,32.961,23.658z"/>
	<path fill="#87AF25" d="M14.08,37.001c0.611,0.435,1.459,0.287,1.893-0.323c0.434-0.611,0.289-1.459-0.323-1.893l0,0
		c-0.611-0.432-1.458-0.287-1.892,0.322C13.324,35.721,13.469,36.568,14.08,37.001z"/>
</g>
<path fill="#54711E" d="M19.121,25c-0.141,0.219,0.207,1.275,0.207,1.275s0.686,2.272,0.809,2.756
	c0.125,0.482,0.326,0.904,0.418,1.303c0.08-0.43,2.643-8.08,2.643-8.08h1.196c0,0,2.705,7.697,2.777,8.08
	c0.082-0.398,0.176-0.816,0.279-1.256s0.232-0.926,0.385-1.459l1.455-5.109c0.018-0.064,0.035-0.138,0.059-0.218
	c0.021-0.081,0.037-0.162,0.058-0.243c0.016-0.08,0.03-0.156,0.045-0.227c0.012-0.07,0.021-0.129,0.021-0.178
	c0-0.287-0.091-0.492-0.271-0.619c-0.181-0.127-0.453-0.189-0.82-0.189H28v-0.695h4.041v0.695h-0.314
	c-0.162,0-0.305,0.016-0.426,0.048c-0.121,0.032-0.229,0.095-0.326,0.187c-0.098,0.091-0.186,0.221-0.268,0.388
	c-0.08,0.167-0.162,0.388-0.242,0.663l-2.797,9.837H26.18l-2.699-7.271l-2.526,7.271h-1.529l-2.031-6.25
	c-0.053-0.173-0.113-0.315-0.182-0.429c-0.066-0.113-0.146-0.202-0.238-0.268c-0.092-0.064-0.199-0.109-0.324-0.138
	c-0.123-0.026-0.416-0.04-0.416-0.04l-0.016-0.695h3.797v0.695C20.012,24.836,19.262,24.781,19.121,25z"/>
</svg>
