<?xml version="1.0" encoding="utf-8"?>
<!-- Generator: Adobe Illustrator 16.0.0, SVG Export Plug-In . SVG Version: 6.00 Build 0)  -->
<!DOCTYPE svg PUBLIC "-//W3C//DTD SVG 1.1//EN" "http://www.w3.org/Graphics/SVG/1.1/DTD/svg11.dtd">
<svg version="1.1"
	 id="svg4156" xmlns:cc="http://creativecommons.org/ns#" xmlns:svg="http://www.w3.org/2000/svg" xmlns:sodipodi="http://sodipodi.sourceforge.net/DTD/sodipodi-0.dtd" xmlns:dc="http://purl.org/dc/elements/1.1/" xmlns:rdf="http://www.w3.org/1999/02/22-rdf-syntax-ns#" xmlns:inkscape="http://www.inkscape.org/namespaces/inkscape" sodipodi:docname="start-latest.svg" inkscape:version="0.91 r13725"
	 xmlns="http://www.w3.org/2000/svg" xmlns:xlink="http://www.w3.org/1999/xlink" x="0px" y="0px" width="45px" height="52px"
	 viewBox="0 0 45 52" enable-background="new 0 0 45 52" xml:space="preserve">
<sodipodi:namedview  id="base" units="px" width="500px" inkscape:cy="520" inkscape:zoom="0.35" showgrid="false" pagecolor="#ffffff" borderopacity="1.0" bordercolor="#666666" inkscape:cx="-56.428571" inkscape:window-maximized="1" inkscape:pageopacity="0.0" inkscape:document-units="px" inkscape:window-width="1920" inkscape:current-layer="layer1-3" inkscape:window-x="-9" inkscape:window-height="1019" inkscape:window-y="-9" inkscape:pageshadow="2">
	</sodipodi:namedview>
<polygon fill="#92B952" points="45,39 22.5,52 0,39 0,13 22.5,0 45,13 "/>
<polygon fill="#ADD04E" points="42.045,37.293 22.5,48.586 2.955,37.293 2.955,14.707 22.5,3.415 42.045,14.707 "/>
<g>
	<path fill="#FFFFFF" d="M20.346,14.591c-0.119,1.28,0.822,2.414,2.103,2.533c1.278,0.119,2.414-0.821,2.532-2.101
		c0.119-1.28-0.821-2.415-2.104-2.533C21.599,12.371,20.465,13.312,20.346,14.591z"/>
	<path fill="#FFFFFF" d="M19.35,37.872c-0.059,0.64,0.41,1.206,1.051,1.267c0.641,0.059,1.207-0.412,1.267-1.051
		c0.06-0.643-0.41-1.207-1.052-1.268C19.976,36.762,19.41,37.23,19.35,37.872z"/>
	<path fill="#FFFFFF" d="M14.783,16.705c0.494,1.07,1.76,1.539,2.829,1.047c1.071-0.492,1.54-1.758,1.048-2.83l0,0
		c-0.492-1.069-1.76-1.539-2.829-1.047C14.762,14.367,14.291,15.634,14.783,16.705z"/>
	<path fill="#FFFFFF" d="M25.568,37.377c0.223,0.486,0.799,0.701,1.283,0.475c0.489-0.221,0.702-0.797,0.477-1.283
		c-0.223-0.487-0.801-0.7-1.285-0.479C25.559,36.314,25.344,36.889,25.568,37.377z"/>
	<path fill="#FFFFFF" d="M10.965,21.255c0.873,0.619,2.084,0.413,2.703-0.46c0.619-0.874,0.412-2.086-0.461-2.704l0,0
		c-0.873-0.619-2.086-0.413-2.703,0.461C9.885,19.426,10.09,20.637,10.965,21.255z"/>
	<path fill="#FFFFFF" d="M30.637,33.748c0.348,0.248,0.834,0.164,1.084-0.188c0.244-0.349,0.16-0.832-0.188-1.078l0,0
		c-0.352-0.248-0.834-0.166-1.084,0.184C30.203,33.018,30.287,33.5,30.637,33.748z"/>
	<path fill="#FFFFFF" d="M8.262,25.155c-0.09,0.96,0.617,1.809,1.576,1.9c0.961,0.088,1.811-0.617,1.899-1.577
		c0.089-0.96-0.616-1.811-1.577-1.901C9.2,23.488,8.352,24.194,8.262,25.155z"/>
	<path fill="#FFFFFF" d="M32.592,27.418c-0.031,0.318,0.205,0.604,0.527,0.632c0.32,0.029,0.604-0.206,0.631-0.524
		c0.031-0.319-0.203-0.604-0.525-0.633C32.904,26.861,32.621,27.098,32.592,27.418z"/>
	<path fill="#FFFFFF" d="M9.598,31.902c0.357,0.779,1.277,1.121,2.057,0.763c0.778-0.356,1.119-1.278,0.762-2.058
		c-0.358-0.777-1.279-1.119-2.058-0.762C9.579,30.206,9.238,31.125,9.598,31.902z"/>
	<path fill="#FFFFFF" d="M32.961,23.658c0.088,0.195,0.316,0.28,0.516,0.19c0.193-0.089,0.279-0.32,0.189-0.515
		c-0.09-0.193-0.32-0.279-0.518-0.19C32.955,23.233,32.871,23.463,32.961,23.658z"/>
	<path fill="#FFFFFF" d="M14.08,37.001c0.611,0.435,1.459,0.287,1.893-0.323c0.434-0.611,0.289-1.459-0.323-1.893l0,0
		c-0.611-0.432-1.458-0.287-1.892,0.322C13.324,35.721,13.469,36.568,14.08,37.001z"/>
</g>
<path fill="#FFFFFF" d="M19.121,25c-0.141,0.219,0.207,1.275,0.207,1.275s0.686,2.273,0.809,2.756
	c0.125,0.482,0.326,0.904,0.418,1.303c0.08-0.43,2.643-8.08,2.643-8.08h1.196c0,0,2.705,7.697,2.779,8.08
	c0.082-0.398,0.174-0.816,0.279-1.256s0.234-0.926,0.385-1.459l1.455-5.109c0.016-0.065,0.035-0.138,0.057-0.218
	c0.021-0.081,0.039-0.162,0.058-0.243c0.016-0.081,0.03-0.156,0.045-0.227c0.012-0.07,0.021-0.129,0.021-0.178
	c0-0.286-0.091-0.492-0.271-0.618c-0.18-0.127-0.453-0.19-0.82-0.19H28v-0.695h4.041v0.695h-0.314c-0.162,0-0.305,0.016-0.426,0.048
	c-0.121,0.032-0.229,0.094-0.326,0.186c-0.098,0.091-0.186,0.221-0.268,0.388c-0.08,0.167-0.162,0.388-0.242,0.663l-2.797,9.837
	H26.18l-2.699-7.271l-2.528,7.271h-1.529l-2.031-6.25c-0.053-0.173-0.113-0.315-0.182-0.429c-0.066-0.113-0.146-0.202-0.238-0.267
	c-0.092-0.065-0.199-0.11-0.324-0.138c-0.123-0.027-0.416-0.04-0.416-0.04l-0.016-0.695h3.797v0.695
	C20.012,24.836,19.262,24.781,19.121,25z"/>
<g>
	<path fill="#FFFFFF" d="M30.251,18.967c-0.435,0-0.787-0.352-0.787-0.787c0-0.435,0.353-0.787,0.787-0.787
		c0.437,0,0.787,0.352,0.787,0.787C31.044,18.609,30.688,18.967,30.251,18.967z"/>
	<path fill="#FFFFFF" d="M32.324,14.268c-0.107,0.225-0.318,0.484-0.641,0.797c-0.356,0.342-0.504,0.503-0.566,0.582
		c-0.073,0.093-0.133,0.201-0.167,0.332c-0.038,0.138-0.06,0.338-0.054,0.587l0.006,0.293h-1.354V16.57
		c0-0.356,0.029-0.641,0.088-0.86c0.063-0.229,0.155-0.435,0.283-0.605c0.117-0.161,0.313-0.382,0.597-0.68
		c0.322-0.332,0.449-0.493,0.493-0.572c0.029-0.049,0.079-0.162,0.079-0.426c0-0.181-0.064-0.337-0.195-0.484
		c-0.127-0.136-0.317-0.2-0.582-0.2c-0.776,0-0.886,0.558-0.886,1.105v0.289h-1.358l0.011-0.293c0.015-0.46,0.067-0.807,0.17-1.063
		c0.103-0.259,0.274-0.494,0.5-0.699c0.22-0.2,0.474-0.347,0.743-0.439c0.268-0.093,0.552-0.137,0.846-0.137
		c0.602,0,1.114,0.181,1.525,0.543l0,0c0.414,0.372,0.631,0.865,0.631,1.472C32.491,13.784,32.438,14.038,32.324,14.268z"/>
</g>
</svg>
