<?xml version="1.0" encoding="utf-8"?>
<!-- Generator: Adobe Illustrator 16.0.0, SVG Export Plug-In . SVG Version: 6.00 Build 0)  -->
<!DOCTYPE svg PUBLIC "-//W3C//DTD SVG 1.1//EN" "http://www.w3.org/Graphics/SVG/1.1/DTD/svg11.dtd">
<svg version="1.1"
	 id="svg4156" xmlns:cc="http://creativecommons.org/ns#" xmlns:svg="http://www.w3.org/2000/svg" xmlns:sodipodi="http://sodipodi.sourceforge.net/DTD/sodipodi-0.dtd" xmlns:dc="http://purl.org/dc/elements/1.1/" xmlns:rdf="http://www.w3.org/1999/02/22-rdf-syntax-ns#" xmlns:inkscape="http://www.inkscape.org/namespaces/inkscape" sodipodi:docname="start-latest.svg" inkscape:version="0.91 r13725"
	 xmlns="http://www.w3.org/2000/svg" xmlns:xlink="http://www.w3.org/1999/xlink" x="0px" y="0px" width="45px" height="52px"
	 viewBox="0 0 45 52" enable-background="new 0 0 45 52" xml:space="preserve">
<sodipodi:namedview  id="base" units="px" width="500px" inkscape:cy="520" inkscape:zoom="0.35" showgrid="false" pagecolor="#ffffff" borderopacity="1.0" bordercolor="#666666" inkscape:cx="-56.428571" inkscape:window-maximized="1" inkscape:pageopacity="0.0" inkscape:document-units="px" inkscape:window-width="1920" inkscape:current-layer="layer1-3" inkscape:window-x="-9" inkscape:window-height="1019" inkscape:window-y="-9" inkscape:pageshadow="2">
	</sodipodi:namedview>
<polygon fill="#87AF25" points="45,39 22.5,52 0,39 0,13 22.5,0 45,13 "/>
<polygon fill="#D1DE4D" points="42.045,37.293 22.5,48.586 2.955,37.293 2.955,14.707 22.5,3.415 42.045,14.707 "/>
<g id="g4274_1_" transform="matrix(1.2891752,0,0,1.2891752,575.65756,-72.611309)">
	<g id="g4276_1_" transform="scale(0.1953125,0.1953125)">
		<path id="path4278_1_" inkscape:connector-curvature="0" fill="#54711E" d="M-2181.798,389.744l-19.462-14.149
			c-0.708-0.516-1.656-0.591-2.436-0.188c-0.785,0.396-1.284,1.206-1.284,2.087v28.287c0,0.888,0.492,1.691,1.284,2.09
			c0.332,0.171,0.698,0.252,1.063,0.252c0.485,0,0.968-0.147,1.373-0.442l19.462-14.145c0.613-0.442,0.966-1.15,0.966-1.898
			C-2180.832,390.887-2181.197,390.185-2181.798,389.744L-2181.798,389.744z"/>
	</g>
</g>
<g>
	<path fill="#87AF25" d="M29.86,32.744c-0.111,0.12-0.223,0.242-0.34,0.357c-3.915,3.868-10.251,3.827-14.117-0.086
		c-1.509-1.528-2.481-3.504-2.779-5.612l2.847,0.017l-3.968-5.825l-4.038,5.777l3.016,0.02c0.309,2.678,1.511,5.189,3.414,7.113
		c4.69,4.75,12.368,4.797,17.116,0.105c0.142-0.142,0.279-0.285,0.416-0.428c0.393-0.433,0.367-1.105-0.066-1.504
		C30.926,32.282,30.249,32.334,29.86,32.744z"/>
	<path fill="#87AF25" d="M31.115,17.494c-4.691-4.75-12.369-4.796-17.117-0.103c-0.346,0.34-0.67,0.706-0.979,1.083
		c-0.362,0.457-0.285,1.128,0.176,1.492c0.458,0.366,1.127,0.288,1.488-0.174c0.251-0.309,0.521-0.609,0.808-0.893
		c3.914-3.869,10.249-3.828,14.114,0.085c1.8,1.82,2.812,4.202,2.879,6.748l-2.949-0.018l3.965,5.825l4.036-5.778l-2.931-0.015
		C34.542,22.637,33.307,19.712,31.115,17.494z"/>
</g>
</svg>
