<?xml version="1.0" standalone="no"?><!DOCTYPE svg PUBLIC "-//W3C//DTD SVG 1.1//EN" "http://www.w3.org/Graphics/SVG/1.1/DTD/svg11.dtd"><svg t="1487607128574" class="icon" style="" viewBox="0 0 1024 1024" version="1.1" xmlns="http://www.w3.org/2000/svg" p-id="2051" xmlns:xlink="http://www.w3.org/1999/xlink" width="200" height="200"><defs><style type="text/css"></style></defs><path d="M964.842667 885.930667l-135.808-135.765333c59.178667-75.946667 94.805333-171.093333 94.805333-274.602667 0-247.04-200.981333-448-448-448-247.04 0-448 200.96-448 448 0 247.018667 200.96 448 448 448 103.36 0 198.4-35.52 274.261333-94.570667l135.829333 135.829333c21.930667 21.909333 57.365333 22.016 79.146667 0.256C986.858667 943.274667 986.730667 907.882667 964.842667 885.930667zM113.173333 475.562667c0-199.978667 162.688-362.666667 362.666667-362.666667s362.666667 162.688 362.666667 362.666667-162.688 362.666667-362.666667 362.666667S113.173333 675.541333 113.173333 475.562667z" p-id="2052"></path><path d="M626.794667 432.896l-108.288 0 0-108.309333c0-22.656-19.114667-41.024-42.666667-41.024-23.573333 0-42.666667 18.346667-42.666667 41.024l0 108.309333-108.309333 0c-22.656 0-41.024 19.114667-41.024 42.688s18.346667 42.666667 41.024 42.666667l108.309333 0 0 108.288c0 22.656 19.093333 41.045333 42.666667 41.045333 23.552 0 42.666667-18.368 42.666667-41.045333l0-108.288 108.288 0c22.656 0 41.045333-19.093333 41.045333-42.666667S649.450667 432.896 626.794667 432.896z" p-id="2053"></path></svg>