<?xml version="1.0" encoding="utf-8"?>
<!-- Generator: Adobe Illustrator 21.0.0, SVG Export Plug-In . SVG Version: 6.00 Build 0)  -->
<svg version="1.1" id="图层_1" xmlns="http://www.w3.org/2000/svg" xmlns:xlink="http://www.w3.org/1999/xlink" x="0px" y="0px"
	 viewBox="0 0 200 200" style="enable-background:new 0 0 200 200;" xml:space="preserve">
<style type="text/css">
	.st0{fill:#A5A5A5;}
</style>
<path class="st0" d="M104.5,16c-50.2,0-90.9,40.7-90.9,90.9s40.7,90.9,90.9,90.9c50.2,0,90.9-40.7,90.9-90.9S154.8,16,104.5,16
	L104.5,16z M166.3,160.4c-32.7-51-91.3-51-123.5,0c-12.5-14.4-20.1-33.1-20.1-53.6c0-45.2,36.6-81.8,81.8-81.8s81.8,36.6,81.8,81.8
	C186.4,127.4,178.8,146.1,166.3,160.4L166.3,160.4z"/>
<path d="M105.2,118.7"/>
<path class="st0" d="M75.2,86.7c0,16.2,13.1,29.3,29.3,29.3s29.3-13.1,29.3-29.3s-13.1-29.3-29.3-29.3S75.2,70.5,75.2,86.7z"/>
</svg>
