<?xml version="1.0" standalone="no"?><!DOCTYPE svg PUBLIC "-//W3C//DTD SVG 1.1//EN" "http://www.w3.org/Graphics/SVG/1.1/DTD/svg11.dtd"><svg t="1484459231671" class="icon" style="" viewBox="0 0 1024 1024" version="1.1" xmlns="http://www.w3.org/2000/svg" p-id="4241" xmlns:xlink="http://www.w3.org/1999/xlink" width="200" height="200"><defs><style type="text/css"></style></defs><path d="M513.663384 64.438615c-247.650333 0-447.561385 199.911052-447.561385 447.561385 0 246.655679 199.911052 447.561385 447.561385 447.561385 247.650333 0 447.561385-200.905706 447.561385-447.561385C961.22477 264.349667 761.313717 64.438615 513.663384 64.438615L513.663384 64.438615zM513.663384 608.475262c53.707203 0 96.474238-43.762713 96.474238-96.475262 0-53.708226-43.762713-97.469915-96.474238-97.469915-52.712549 0-96.474238 43.76169-96.474238 97.469915C417.188122 565.708226 459.956182 608.475262 513.663384 608.475262L513.663384 608.475262zM794.13524 456.30349c6.962575 1.988284 10.940167 7.957229 10.940167 13.924127l0 84.538395c0 5.968945-4.973268 12.93152-10.940167 13.924127l-68.62496 10.942213c-3.979638 12.927427-8.950859 22.874987-14.919804 33.815153 12.93152 18.897396 26.854625 35.803437 39.784098 53.707203 4.973268 6.959505 5.966898 11.93175 0.995677 16.906042-9.946536 11.935843-60.669778 68.62496-72.605621 68.62496-3.977591 0-7.956206-0.991584-10.939143-3.977591l-52.713572-40.778752c-10.939143 5.967922-22.874987 10.942213-33.815153 14.919804-2.983961 21.87931-5.967922 46.746674-10.94119 68.62496-1.988284 6.961552-5.966898 10.942213-13.924127 10.942213L471.891002 802.416346c-7.955182 0-12.929474-4.974291-13.924127-10.942213l-9.94449-68.62496c-10.940167-3.977591-22.874987-8.951883-33.8172-13.924127l-54.701856 39.783075c-5.966898 4.972245-12.928451 3.977591-17.901719-0.995677-20.886703-18.895349-46.746674-41.769312-62.659085-64.646346-3.978614-4.972245-3.978614-10.940167 0-16.908088 12.930497-18.899442 27.848255-35.805484 39.783075-52.712549-5.966898-12.929474-11.935843-24.865317-14.917758-35.805484l-68.627007-11.933797c-6.962575-0.995677-10.940167-6.963599-10.940167-13.924127l0-83.545788c0-6.961552 4.973268-13.924127 10.940167-14.919804l68.627007-10.940167c3.977591-12.928451 8.950859-22.874987 14.917758-34.81083-12.928451-17.902742-26.853601-34.81083-39.783075-52.712549-5.966898-6.962575-6.962575-10.940167-0.99363-17.902742 9.94449-12.928451 59.675124-68.625984 72.603575-68.625984 2.983961 0 6.962575 1.989307 10.940167 4.973268l52.712549 39.782052c10.94119-5.966898 22.874987-10.940167 33.8172-14.917758 2.982938-21.881356 5.966898-46.746674 10.939143-68.625984 1.989307-6.962575 6.962575-10.940167 13.924127-10.940167l84.538395 0c7.956206 0 12.929474 4.971222 13.924127 11.933797l10.939143 68.625984c10.940167 3.979638 22.874987 8.952906 33.816177 13.924127l54.701856-39.782052c5.967922-4.973268 12.930497-4.973268 17.902742 0.99363 20.886703 17.903765 47.739281 41.772382 62.659085 63.654762 3.978614 5.966898 3.978614 11.933797 0 16.907065-12.930497 18.897396-26.854625 35.805484-39.784098 52.712549 5.966898 12.930497 11.935843 25.859971 14.917758 36.799114L794.13524 456.30349z" p-id="4242"></path></svg>