<?xml version="1.0" encoding="utf-8"?>
<!-- Generator: Adobe Illustrator 21.0.0, SVG Export Plug-In . SVG Version: 6.00 Build 0)  -->
<svg version="1.1" id="图层_1" xmlns="http://www.w3.org/2000/svg" xmlns:xlink="http://www.w3.org/1999/xlink" x="0px" y="0px"
	 viewBox="0 0 200 200" style="enable-background:new 0 0 200 200;" xml:space="preserve">
<g>
	<path d="M0,100C0,44.8,44.8,0,100,0s100,44.8,100,100s-44.8,100-100,100S0,155.2,0,100z M185.7,100c0-47.3-38.4-85.7-85.7-85.7
		S14.3,52.7,14.3,100s38.4,85.7,85.7,85.7S185.7,147.3,185.7,100z"/>
	<path d="M89.7,110L72.1,92.3c-1.6-1.7-4.3-1.7-6,0c0,0,0,0,0,0l-8.8,8.8c-1.6,1.7-1.6,4.3,0,6l27.3,27.3c2.8,2.8,7.2,2.8,10,0.1
		l3.8-3.8l44.4-44.4c1.6-1.7,1.5-4.2-0.1-5.8l-8.8-8.8c-1.6-1.6-4.2-1.7-5.8-0.1L89.7,110z"/>
</g>
</svg>
