<?xml version="1.0" encoding="utf-8"?>
<!-- Generator: Adobe Illustrator 21.0.0, SVG Export Plug-In . SVG Version: 6.00 Build 0)  -->
<svg version="1.1" id="图层_1" xmlns="http://www.w3.org/2000/svg" xmlns:xlink="http://www.w3.org/1999/xlink" x="0px" y="0px"
	 viewBox="0 0 200 200" style="enable-background:new 0 0 200 200;" xml:space="preserve">
<style type="text/css">
	.st0{fill:#326DE6;}
	.st1{fill:#FFFFFF;}
</style>
<g>
	<path class="st0" d="M88.7,85.7c2.1,0,3.9-1.6,3.9-3.7l1.1-22.9l-4.6,0.9c-8,1.8-15.3,5.9-21.3,11.7l19,13.5
		C87.6,85.5,88,85.7,88.7,85.7z"/>
	<path class="st0" d="M78.7,100.6c1.4-1.6,1.1-3.9-0.5-5.3L61.3,80.2c-5,8.5-7.3,18.3-6.6,27.9l22.2-6.4
		C77.8,101.5,78.2,101.2,78.7,100.6z"/>
	<path class="st0" d="M80,115l-22.6,3.9C60.6,128,67,136,75,141.3l8.7-21c0.5-0.7,0.5-1.6,0.2-2.3C83.7,116.1,81.9,115,80,115z"/>
	<path class="st0" d="M106.8,84.1c1.1,1.6,3.4,1.8,5,0.9l18.8-13.3c-6.9-6.9-15.8-11.2-25.8-12.4l1.4,23.1
		C106.1,83.2,106.3,83.6,106.8,84.1z"/>
	<polygon class="st0" points="93.3,108.6 99.5,111.5 105.7,108.6 107.3,101.9 102.9,96.4 96.1,96.4 91.7,101.9 	"/>
	<path class="st0" d="M137.4,80.2l-17.2,15.6c-0.5,0.5-0.7,0.9-0.9,1.6c-0.5,2.1,0.7,4.1,2.7,4.6l21.7,6.2c0.5-4.8,0.2-9.6-0.9-14.4
		C141.8,88.9,140,84.3,137.4,80.2z"/>
	<path class="st0" d="M199.9,121.1l-17.4-74.8c-1.1-3.7-3.9-6.6-7.3-8.5L105.4,4.5c-1.8-0.9-3.9-1.1-5.7-1.1s-3.9,0-5.7,0.5
		L24.2,37.4c-3.4,1.6-5.9,4.6-6.9,8.5L0.2,121.1c-0.7,3.9,0.2,7.8,2.5,11L51,191.8c2.7,2.7,6.6,4.6,10.5,4.8h76.8
		c4.1,0.5,8-1.4,10.5-4.8l48.3-59.7C199.4,128.9,200.3,125,199.9,121.1z M171.3,123.7c-0.5,0-0.7,0-1.1-0.2
		c-0.2-0.2-0.2-0.2-0.5-0.2c-0.5,0-0.7-0.2-0.9-0.2c-0.9-0.2-1.6-0.7-2.5-1.1c-0.5,0-0.9-0.2-1.4-0.5h-0.2c-2.3-0.9-4.8-1.6-7.3-2.1
		h-0.2c-0.7,0-1.4,0.2-1.8,0.7c0,0,0,0.2-0.2,0.2l-1.8-0.2c-4.1,13-13,24-24.7,31.1l0.7,1.8c0,0-0.2,0-0.2,0.2
		c-0.5,0.7-0.5,1.6-0.2,2.3c0.9,2.3,2.1,4.6,3.7,6.6v0.5c0.5,0.5,0.7,0.7,0.9,1.1c0.7,0.7,1.1,1.4,1.6,2.3c0.2,0.2,0.5,0.5,0.5,0.7
		c0,0,0.2,0,0.2,0.2c0.5,1.1,0.5,2.3,0.2,3.4s-1.1,2.1-2.1,2.5c-0.7,0.2-1.1,0.5-1.8,0.5c-1.8,0-3.4-1.1-4.3-2.7
		c-0.2,0-0.2-0.2-0.2-0.2c-0.2-0.2-0.2-0.5-0.5-0.7c-0.5-0.7-0.7-1.6-0.9-2.5l-0.5-1.4v-0.2c-0.7-2.5-1.8-4.8-3-7.1
		c-0.5-0.7-1.1-1.1-1.8-1.4c0-0.2,0-0.2-0.2-0.2l-0.9-1.6c-2.3,0.7-4.8,1.6-7.3,2.1c-4.1,1.1-8.2,1.6-12.4,1.6
		c-6.9,0-13.5-1.1-19.9-3.7l-0.9,1.8c0,0.2,0,0.2-0.2,0.2c-0.7,0.2-1.4,0.7-1.8,1.4c-1.1,2.3-2.3,4.6-3,7.1l-0.5,1.4
		c-0.2,0.9-0.7,1.6-0.9,2.5c-0.2,0.2-0.5,0.5-0.5,0.7c-0.2,0-0.2,0.2-0.2,0.2c-0.9,1.6-2.5,2.7-4.3,2.7c-0.5,0-1.1-0.2-1.6-0.5
		c-2.1-1.1-3-3.9-1.8-6.2c0.2,0,0.2-0.2,0.2-0.2c0.2-0.2,0.2-0.5,0.5-0.7c0.7-0.9,1.1-1.8,1.6-2.3c0.5-0.5,0.7-0.7,0.9-1.1v-0.2
		c1.4-2.1,2.7-4.3,3.7-6.6c0.2-0.7,0.2-1.6-0.2-2.3c0,0-0.2,0-0.2-0.2l1.1-1.6c-2.3-1.1-4.1-2.5-6.2-4.1
		c-8.9-6.9-15.3-16.2-18.8-26.8l-2.1,0.2c0,0,0-0.2-0.2-0.2c-0.5-0.5-1.1-0.7-1.8-0.7h-0.2c-2.7,0.5-5,1.1-7.5,2.1h-0.2
		c-0.5,0-0.9,0.2-1.4,0.5c-0.7,0.2-1.6,0.7-2.5,0.9c-0.2,0-0.9-0.2-0.9,0s0,0.2-0.2,0.2c-0.5,0.2-0.7,0.2-1.1,0.2
		c-2.1,0.2-4.1-1.1-4.6-3.2c-0.5-2.5,1.1-4.8,3.7-5.3c0.2-0.2,0.2-0.2,0.5-0.2c0.5,0,0.7-0.2,0.9-0.2c0.9,0,1.8-0.2,2.7-0.2
		c0.5-0.2,0.9-0.2,1.4-0.2c2.7-0.2,5.3-0.7,7.8-1.4c0.7-0.5,1.4-0.9,1.6-1.6c0,0,0.2,0,0.2-0.2l1.8-0.5c-2.1-13,0.9-26.3,8-37.5
		c0.2-0.5,0.5-0.7,0.7-1.1L52,70.6c0,0.1,0,0.1,0,0.2v-0.2l0,0c0.1-0.7-0.3-1.5-0.7-1.9c-1.8-1.8-4.1-3.2-6.4-4.6
		c-0.5-0.2-0.9-0.5-1.4-0.7c-0.9-0.5-1.8-0.9-2.5-1.4c-0.2,0-0.7-0.5-0.7-0.5s0-0.2-0.2-0.2c-1.8-1.6-2.3-4.3-0.9-6.4
		c0.7-1.1,1.8-1.6,3.2-1.6c1.1,0,2.3,0.5,3.2,1.1c0,0,0,0,0.2,0.2s0.5,0.2,0.7,0.5c0.7,0.7,1.1,1.4,1.8,2.1c0.2,0.2,0.7,0.5,0.9,0.9
		c1.6,1.8,3.7,3.7,5.7,5.3c0.5,0.2,0.9,0.5,1.4,0.5c0.5,0,0.7-0.2,0.9-0.2h0.2l1.4,0.9c7.5-8,17.4-13.7,28.1-16
		c2.7-0.5,5.3-0.9,7.8-1.1l0.2-1.8v-0.5c0.7-0.5,0.9-1.1,1.1-1.8c0-2.7,0-5.3-0.5-7.8v-0.2c0-0.5,0-0.9-0.2-1.4
		c-0.2-0.9-0.5-1.8-0.5-2.7v-1.1c0-1.1,0.5-2.3,1.4-3.2c1.1-1.1,2.5-1.8,3.9-1.6c2.3,0.2,4.1,2.5,3.9,4.8v1.4
		c-0.2,0.9-0.2,1.8-0.5,2.7c0,0.5-0.2,0.9-0.2,1.4v0.2c-0.5,2.7-0.5,5.3-0.5,7.8c0.2,0.7,0.5,1.4,1.1,1.8v-0.2l0.2,1.8
		c10.7,1.1,21.3,5.3,29.7,11.9c1.8,1.8,3.9,3.7,5.7,5.5l1.8-1.1h0.2c0.2,0.2,0.7,0.2,0.9,0.2c0.5,0,0.9-0.2,1.4-0.5
		c2.1-1.4,4.1-3.2,5.7-5c0.2-0.2,0.7-0.5,0.9-0.9c0.5-0.7,1.1-1.4,1.8-2.1c0.2,0,0.5-0.2,0.7-0.5l0.2-0.2c0.9-0.7,2.1-1.1,3.2-1.1
		s2.5,0.7,3.2,1.6c1.6,2.1,1.1,4.8-0.9,6.4c0,0.2,0.2,0.2,0,0.5s-0.5,0.2-0.7,0.5c-0.9,0.5-1.6,0.9-2.5,1.4
		c-0.5,0.2-0.9,0.5-1.4,0.7c-2.3,1.4-4.3,2.7-6.4,4.6c-0.5,0.5-0.7,1.4-0.7,2.1V71l-1.4,1.4c3.7,5.7,6.4,12.1,8,18.8
		c1.4,6.6,1.8,13.5,0.9,20.1l1.8,0.5h0c0.1,0,0.1,0,0.1,0c0,0,0,0-0.1,0c0.2,0.7,0.9,1.4,1.6,1.6c2.5,0.7,5.3,1.1,7.8,1.4h0.2
		c0.5,0.2,0.9,0.2,1.4,0.2c0.9,0,1.8,0,2.7,0.2c0.5,0,0.9,0,0.9,0.2s0.2,0.2,0.5,0.2c2.1,0.5,3.9,2.3,4.1,4.8
		C175.2,122.3,173.4,123.7,171.3,123.7z"/>
	<path class="st0" d="M100.9,124.8c-1.6-0.9-3.4-0.5-4.6,0.9l-11.2,20.4c4.6,1.4,9.6,2.3,14.4,2.3c3.4,0,6.6-0.5,9.8-1.1
		c1.6-0.5,3-0.7,4.3-0.9l-11-19.9C102,125.7,101.5,125.3,100.9,124.8z"/>
	<path class="st0" d="M116.6,115.2c-1.6,0.7-2.5,2.5-2.1,4.3l8.9,21.5c5.5-3.4,10.3-8.2,13.7-13.7c1.8-2.5,3.2-5.5,4.3-8.7
		l-22.9-3.9C118,114.7,117.3,115,116.6,115.2z"/>
	<path class="st1" d="M51.9,70.8c0-0.1,0-0.1,0-0.2l0,0V70.8z"/>
</g>
</svg>
