<?xml version="1.0" encoding="utf-8"?>
<!-- Generator: Adobe Illustrator 21.0.0, SVG Export Plug-In . SVG Version: 6.00 Build 0)  -->
<svg version="1.1" id="图层_1" xmlns="http://www.w3.org/2000/svg" xmlns:xlink="http://www.w3.org/1999/xlink" x="0px" y="0px"
	 viewBox="0 0 200 200" style="enable-background:new 0 0 200 200;" xml:space="preserve">
<path d="M29.2,129.2h41.7v41.7H29.2V129.2z M147.1,80.4l-23.3-23.3c-1.7-1.7-1.7-4.2,0-5.8l23.3-23.3c1.7-1.7,4.2-1.7,5.8,0
	l23.3,23.3c1.7,1.7,1.7,4.2,0,5.8l-23.3,23.3C151.3,82.1,148.8,82.1,147.1,80.4z"/>
<path d="M25,54.2c0,13.8,11.2,25,25,25s25-11.2,25-25s-11.2-25-25-25S25,40.4,25,54.2z"/>
<path d="M125,150c0,13.8,11.2,25,25,25s25-11.2,25-25s-11.2-25-25-25S125,136.2,125,150z"/>
<path d="M45.8,100h8.3v20.8h-8.3V100z"/>
<path d="M50,87.5l-12.5,16.7h25L50,87.5z"/>
<path d="M83.3,50h20.8v8.3H83.3V50z"/>
<path d="M116.7,54.2L100,41.7v25L116.7,54.2z"/>
<path d="M145.8,87.5h8.3v20.8h-8.3V87.5z"/>
<path d="M150,120.8l12.5-16.7h-25L150,120.8z"/>
</svg>
