<?xml version="1.0" standalone="no"?><!DOCTYPE svg PUBLIC "-//W3C//DTD SVG 1.1//EN" "http://www.w3.org/Graphics/SVG/1.1/DTD/svg11.dtd"><svg t="1487928076279" class="icon" style="" viewBox="0 0 1024 1024" version="1.1" xmlns="http://www.w3.org/2000/svg" p-id="9755" xmlns:xlink="http://www.w3.org/1999/xlink" width="200" height="200"><defs><style type="text/css"></style></defs><path d="M256 576 128 576 128 896 896 896 896 576 768 576 768 768 256 768 256 576Z" p-id="9756"></path><path d="M185.112647 823.009062C184.41692 822.835194 183.722076 822.658906 183.028124 822.480211 183.72406 822.289478 184.418904 822.096013 185.112648 821.899821L185.112648 823.009062ZM603.471851 448C580.842871 289.827012 474.917947 160 320 160 271.409764 160 220.641254 171.54418 172.630136 192.181498 329.190332 196.738223 406.383568 286.964957 415.15396 448L603.471851 448Z" p-id="9757"></path><path d="M736 448 512 640 288 448Z" p-id="9758"></path></svg>