<?xml version="1.0" standalone="no"?><!DOCTYPE svg PUBLIC "-//W3C//DTD SVG 1.1//EN" "http://www.w3.org/Graphics/SVG/1.1/DTD/svg11.dtd"><svg t="1487673628294" class="icon" style="" viewBox="0 0 1024 1024" version="1.1" xmlns="http://www.w3.org/2000/svg" p-id="3270" xmlns:xlink="http://www.w3.org/1999/xlink" width="200" height="200"><defs><style type="text/css"></style></defs><path d="M182.784 122.486h0.435-0.435m55.398 645.642h166.18V657.336h-166.18v110.792M792.105 67.103h-55.383v166.18h55.383V67.103m-498.54 0h-55.383v166.18h55.389l-0.006-166.18m-55.383 534.845h166.18V491.167h-166.18v110.781m608.876-479.462l0.44 0.005v-0.005h-0.44m-165.74 479.462h110.787V491.167H681.318v110.781m166.18-479.457v83.092c0 45.88-37.212 83.093-83.092 83.093s-83.088-37.207-83.088-83.093v-83.097H348.964v83.097c0 45.88-37.207 83.093-83.093 83.093-45.895 0-83.092-37.207-83.092-83.093v-83.092c-61.23 0.235-110.782 49.935-110.782 111.217V841.65c0 61.415 49.787 111.734 111.222 111.734h663.839c61.42 0 111.222-49.797 111.222-111.217v-608.46c0.005-61.282-49.562-110.976-110.782-111.217m54.723 721.034c0 30.587-24.812 55.383-55.388 55.383h-664.73c-30.587 0-55.383-24.79-55.383-55.383V437.31c0-30.586 24.796-55.393 55.383-55.393h664.73c30.587 0 55.388 24.807 55.388 55.393v406.216M459.75 601.948h166.174V491.167H459.75v110.781m0 166.18h166.175V657.336H459.75v110.792m221.568 0h110.787V657.336H681.318v110.792m0 0z" p-id="3271"></path></svg>