<?xml version="1.0" encoding="utf-8"?>
<!-- Generator: Adobe Illustrator 21.0.0, SVG Export Plug-In . SVG Version: 6.00 Build 0)  -->
<svg version="1.1" id="图层_1" xmlns="http://www.w3.org/2000/svg" xmlns:xlink="http://www.w3.org/1999/xlink" x="0px" y="0px"
	 viewBox="0 0 200 200" style="enable-background:new 0 0 200 200;" xml:space="preserve">
<style type="text/css">
	.st0{fill:none;}
	.st1{fill:#FFFFFF;}
</style>
<g>
	<path d="M83.8,0C111.5,0,134,21.2,134,47.3c0,26.1-22.5,47.3-50.3,47.3S33.5,73.3,33.5,47.3C33.5,21.2,56,0,83.8,0z M83.8,0
		C111.5,0,134,21.2,134,47.3c0,26.1-22.5,47.3-50.3,47.3S33.5,73.3,33.5,47.3C33.5,21.2,56,0,83.8,0z M64.9,110.3h41.9
		c35.9,0,64.9,27.3,64.9,61v3.9c0,13.3-29.1,13.8-64.9,13.8H64.9C29.1,189,0,189,0,175.2v-3.9C0,137.6,29.1,110.3,64.9,110.3z"/>
	<g>
		<polygon class="st0" points="158.9,124 150,157.1 168.3,157.1 159.3,124 		"/>
		<path d="M171.1,90.1h-11.9l-0.1,0.1v-0.1h-11.9L115.8,197h23.5l5.5-20.8h28.6L179,197h21v-8.5L171.1,90.1z M150,157.1l8.9-33.2
			h0.4l9,33.2H150z"/>
	</g>
	<path class="st1" d="M200,200h-23.3l-5.6-20.8h-24l-5.5,20.8h-29.8l33.1-112.9h28.4l26.7,90.7L200,200z M156.1,93.2h-6.7
		l-29.6,100.8H137l5.5-20.8h33.2l5.6,20.8h17.2L168.9,93.2h-8.4 M172.2,160.2h-26.1l10.5-39.2h5L172.2,160.2z M153.9,154.1h10.4
		l-5.2-19.3L153.9,154.1z"/>
</g>
</svg>
