<?xml version="1.0" standalone="no"?><!DOCTYPE svg PUBLIC "-//W3C//DTD SVG 1.1//EN" "http://www.w3.org/Graphics/SVG/1.1/DTD/svg11.dtd"><svg t="1487662719442" class="icon" style="" viewBox="0 0 1025 1024" version="1.1" xmlns="http://www.w3.org/2000/svg" p-id="2582" xmlns:xlink="http://www.w3.org/1999/xlink" width="200.1953125" height="200"><defs><style type="text/css"></style></defs><path d="M993.88247 60.235294l-240.941176 0c-15.751529 0-30.117647-14.366118-30.117647-30.117647s15.932235-30.117647 31.713882-30.117647l240.941176 0C1011.230234 0 1024.000117 14.366118 1024.000117 30.117647S1009.633999 60.235294 993.88247 60.235294z" p-id="2583"></path><path d="M993.88247 331.294118c-15.751529 0-30.117647-14.366118-30.117647-30.117647L963.764823 30.117647c0-15.751529 15.932235-30.117647 31.713882-30.117647S1024.000117 12.769882 1024.000117 28.521412l0 272.022588C1024.000117 316.325647 1009.633999 331.294118 993.88247 331.294118z" p-id="2584"></path><path d="M993.88247 0c7.228235 0 14.456471 2.590118 20.269176 7.830588 12.318118 11.203765 13.191529 30.238118 2.017882 42.556235l-301.176471 331.294118c-11.173647 12.288-30.238118 13.191529-42.556235 2.017882-12.318118-11.203765-13.191529-30.238118-2.017882-42.556235l301.176471-331.294118C977.528587 3.312941 985.720587 0 993.88247 0z" p-id="2585"></path><path d="M30.117764 60.235294l240.941176 0c15.751529 0 30.117647-14.366118 30.117647-30.117647S285.214234 0 269.462705 0l-240.941176 0C12.769999 0 0.000117 14.366118 0.000117 30.117647S14.366234 60.235294 30.117764 60.235294z" p-id="2586"></path><path d="M30.117764 331.294118c15.751529 0 30.117647-14.366118 30.117647-30.117647L60.235411 30.117647c0-15.751529-15.962353-30.117647-31.713882-30.117647S0.000117 12.769882 0.000117 28.521412l0 272.022588C0.000117 316.325647 14.366234 331.294118 30.117764 331.294118z" p-id="2587"></path><path d="M30.117764 0c-7.228235 0-14.456471 2.590118-20.239059 7.830588C-2.46953 19.034353-3.342942 38.068706 7.830705 50.386824l301.176471 331.294118c11.173647 12.288 30.208 13.191529 42.556235 2.017882 12.318118-11.203765 13.191529-30.238118 2.017882-42.556235l-301.176471-331.294118C46.441528 3.312941 38.279646 0 30.117764 0z" p-id="2588"></path><path d="M993.88247 963.764706l-240.941176 0c-15.751529 0-30.117647 14.366118-30.117647 30.117647s15.932235 30.117647 31.713882 30.117647l240.941176 0C1011.230234 1024 1024.000117 1009.633882 1024.000117 993.882353S1009.633999 963.764706 993.88247 963.764706z" p-id="2589"></path><path d="M993.88247 692.705882c-15.751529 0-30.117647 14.366118-30.117647 30.117647l0 271.058824c0 15.751529 15.932235 30.117647 31.713882 30.117647S1024.000117 1011.230118 1024.000117 995.478588l0-272.022588C1024.000117 707.674353 1009.633999 692.705882 993.88247 692.705882z" p-id="2590"></path><path d="M993.88247 1024c7.228235 0 14.456471-2.590118 20.269176-7.830588 12.318118-11.203765 13.191529-30.238118 2.017882-42.556235l-301.176471-331.294118c-11.173647-12.288-30.238118-13.191529-42.556235-2.017882-12.318118 11.203765-13.191529 30.238118-2.017882 42.556235l301.176471 331.294118C977.528587 1020.687059 985.720587 1024 993.88247 1024z" p-id="2591"></path><path d="M30.117764 963.764706l240.941176 0c15.751529 0 30.117647 14.366118 30.117647 30.117647s-15.962353 30.117647-31.713882 30.117647l-240.941176 0C12.769999 1024 0.000117 1009.633882 0.000117 993.882353S14.366234 963.764706 30.117764 963.764706z" p-id="2592"></path><path d="M30.117764 692.705882c15.751529 0 30.117647 14.366118 30.117647 30.117647l0 271.058824c0 15.751529-15.962353 30.117647-31.713882 30.117647S0.000117 1011.230118 0.000117 995.478588l0-272.022588C0.000117 707.674353 14.366234 692.705882 30.117764 692.705882z" p-id="2593"></path><path d="M30.117764 1024c-7.228235 0-14.456471-2.590118-20.239059-7.830588-12.318118-11.203765-13.191529-30.238118-2.017882-42.556235l301.176471-331.294118c11.173647-12.288 30.208-13.191529 42.556235-2.017882 12.318118 11.203765 13.191529 30.238118 2.017882 42.556235l-301.176471 331.294118C46.441528 1020.687059 38.279646 1024 30.117764 1024z" p-id="2594"></path></svg>