<?xml version="1.0" standalone="no"?><!DOCTYPE svg PUBLIC "-//W3C//DTD SVG 1.1//EN" "http://www.w3.org/Graphics/SVG/1.1/DTD/svg11.dtd"><svg t="1482131590423" class="icon" style="" viewBox="0 0 1463 1024" version="1.1" xmlns="http://www.w3.org/2000/svg" p-id="1173" xmlns:xlink="http://www.w3.org/1999/xlink" width="285.7421875" height="200"><defs><style type="text/css"></style></defs><path d="M672.209627 112.479188C669.004946 114.043041 665.991461 116.133976 663.333157 118.817353L46.639543 741.658902C33.907273 754.518177 33.907273 775.366597 46.639543 788.225872L144.618203 887.181049C157.350619 900.040324 177.993289 900.040324 190.725559 887.181049L686.386907 386.581051 1182.04811 887.182497C1194.780379 900.041772 1215.424512 900.041772 1228.156928 887.182497L1326.135589 788.227321C1338.867858 775.368046 1338.866542 754.51964 1326.134126 741.66035L807.423561 217.778322C807.422098 217.776874 807.420635 217.776874 807.420635 217.775426L709.441975 118.82025C708.645449 118.015824 707.818789 117.263667 706.964773 116.559419 697.011493 108.35829 683.392146 107.020961 672.209627 112.479188L672.209627 112.479188Z" p-id="1174"></path></svg>