<?xml version="1.0" standalone="no"?><!DOCTYPE svg PUBLIC "-//W3C//DTD SVG 1.1//EN" "http://www.w3.org/Graphics/SVG/1.1/DTD/svg11.dtd"><svg t="1486307325269" class="icon" style="" viewBox="0 0 1024 1024" version="1.1" xmlns="http://www.w3.org/2000/svg" p-id="4248" xmlns:xlink="http://www.w3.org/1999/xlink" width="200" height="200"><defs><style type="text/css"></style></defs><path d="M180.8 784.288 180.8 784.288c-3.2 12.8-16 19.2-28.8 16s-19.2-16-16-32l35.2-214.4c0-3.2 3.2-6.4 3.2-6.4l124.8-214.4 0 0c16-28.8 44.8-38.4 70.4-35.2 9.6 0 19.2 6.4 25.6 9.6l3.2 0c6.4 3.2 12.8 9.6 19.2 16 16-12.8 32-16 51.2-12.8 9.6 0 19.2 6.4 25.6 9.6 9.6 3.2 16 12.8 22.4 19.2 3.2 3.2 6.4 6.4 6.4 12.8 9.6-3.2 19.2-3.2 28.8-3.2s19.2 3.2 25.6 9.6l3.2 0c6.4 3.2 9.6 6.4 16 12.8l48-83.2c16-28.8 44.8-38.4 67.2-35.2 9.6 3.2 19.2 3.2 25.6 9.6l3.2 0c6.4 6.4 12.8 12.8 19.2 19.2 16 19.2 22.4 48 3.2 76.8l-108.8 188.8c6.4 3.2 12.8 6.4 19.2 9.6l0 0 0 0c9.6 6.4 16 12.8 22.4 19.2 16 19.2 22.4 48 3.2 76.8l0 0-60.8 105.6c-32 54.4-35.2 57.6-86.4 76.8l-3.2 0-9.6 3.2-172.8 64c-12.8 6.4-25.6 0-32-12.8s0-25.6 12.8-32l172.8-64 9.6-3.2 0 0c38.4-16 41.6-16 64-57.6l0 0 60.8-105.6 0 0c6.4-9.6 3.2-16 0-22.4-3.2-3.2-3.2-6.4-6.4-6.4-3.2 0-6.4-3.2-9.6-3.2-6.4 0-16 0-19.2 9.6l0 0 0 0-51.2 92.8c-6.4 12.8-22.4 16-32 9.6-12.8-6.4-16-22.4-9.6-32l54.4-92.8 140.8-246.4c6.4-9.6 3.2-16 0-22.4-3.2-3.2-3.2-3.2-6.4-6.4l0 0c-3.2 0-6.4-3.2-9.6-3.2-6.4-3.2-16 3.2-19.2 9.6l-80 140.8-35.2 64c-6.4 12.8-22.4 16-32 9.6-12.8-6.4-16-22.4-9.6-32l35.2-64c6.4-9.6 3.2-16 0-22.4-3.2-3.2-3.2-6.4-6.4-6.4l0 0c-3.2-3.2-6.4-3.2-9.6-3.2-6.4 0-16 3.2-19.2 12.8l-3.2 6.4 0 3.2 0 0-32 54.4c-6.4 12.8-22.4 16-32 9.6-12.8-6.4-16-22.4-9.6-35.2l32-54.4 0-3.2c6.4-9.6 3.2-16 0-22.4-3.2-3.2-6.4-3.2-6.4-6.4-3.2-3.2-6.4-3.2-9.6-3.2-6.4 0-16 3.2-19.2 9.6l-16 28.8 0 3.2-12.8 22.4c-6.4 12.8-22.4 16-32 9.6-12.8-6.4-16-22.4-9.6-32l12.8-22.4c6.4-9.6 3.2-16 0-22.4-3.2-3.2-6.4-3.2-6.4-6.4l0 0c-22.4-3.2-25.6-3.2-28.8-3.2-6.4 0-16 3.2-19.2 9.6l-121.6 214.4L180.8 784.288 180.8 784.288zM836.8 413.088 836.8 413.088c-9.6 9.6-25.6 9.6-35.2 0s-9.6-25.6 3.2-35.2c9.6-9.6 16-16 22.4-28.8l0 0c12.8-22.4 16-48 16-70.4-3.2-25.6-12.8-48-28.8-67.2-9.6-9.6-19.2-16-28.8-22.4s-22.4-9.6-32-12.8c-25.6-6.4-51.2-3.2-73.6 9.6-22.4 9.6-41.6 25.6-54.4 48l0 0 0 0c-6.4 9.6-9.6 22.4-12.8 32-3.2 12.8-19.2 19.2-32 19.2-12.8-3.2-19.2-19.2-19.2-32 3.2-16 9.6-32 19.2-48 16-32 44.8-54.4 76.8-70.4s67.2-19.2 102.4-12.8c16 3.2 32 9.6 48 19.2s28.8 19.2 38.4 32c25.6 25.6 38.4 60.8 41.6 96s-3.2 67.2-19.2 99.2l0 0C859.2 387.488 849.6 400.288 836.8 413.088L836.8 413.088z" p-id="4249"></path></svg>