<?xml version="1.0" standalone="no"?><!DOCTYPE svg PUBLIC "-//W3C//DTD SVG 1.1//EN" "http://www.w3.org/Graphics/SVG/1.1/DTD/svg11.dtd"><svg t="1487595984651" class="icon" style="" viewBox="0 0 1024 1024" version="1.1" xmlns="http://www.w3.org/2000/svg" p-id="2777" xmlns:xlink="http://www.w3.org/1999/xlink" width="200" height="200"><defs><style type="text/css"></style></defs><path d="M399.763265 329.699024c0-13.646811 2.916423-27.288506 8.526187-39.897685 5.617951-12.608156 13.920034-24.173562 24.294312-33.82641 10.368138-9.647731 22.798239-17.378809 36.348859-22.597671 13.555737-5.227048 28.217668-7.937786 42.88267-7.937786 14.671141 0 29.332049 2.710738 42.881646 7.937786 13.550621 5.219885 25.980721 12.950963 36.349883 22.597671 10.374278 9.652847 18.676361 21.218254 24.292266 33.82641 5.610788 12.608156 8.531304 26.249851 8.531304 39.897685 0 13.649881-2.920516 27.2926-8.531304 39.900755-5.615904 12.608156-13.919011 24.172539-24.292266 33.82641-10.370185 9.646708-22.799262 17.377786-36.349883 22.598694-13.549597 5.221932-28.210505 7.936763-42.881646 7.936763-14.665001 0-29.326932-2.715855-42.88267-7.936763-13.550621-5.220908-25.980721-12.951987-36.348859-22.598694-10.375302-9.653871-18.676361-21.218254-24.294312-33.82641C402.679687 356.991624 399.763265 343.348905 399.763265 329.699024L399.763265 329.699024zM50.162981 537.13547l0 0.947582L50.162981 537.13547zM511.765151 60.551074c-172.436304 0-312.236304 130.077567-312.236304 290.527886 0 160.446225 312.236304 484.210074 312.236304 484.210074s312.237327-323.763848 312.237327-484.210074C824.002478 190.628642 684.201455 60.551074 511.765151 60.551074L511.765151 60.551074 511.765151 60.551074zM511.765151 472.130967c-86.218664 0-156.116617-65.036225-156.116617-145.262408 0-80.248695 69.89693-145.266501 156.116617-145.266501 86.240153 0 156.141176 65.017806 156.141176 145.266501C667.906328 407.094742 598.006328 472.130967 511.765151 472.130967L511.765151 472.130967 511.765151 472.130967zM603.369475 782.833335 576.073806 817.22461c158.095691 4.865821 277.664927 27.428699 277.664927 54.526871 0 30.65416-152.936181 55.505152-341.593935 55.505152-261.470083 0-341.599052-24.850991-341.599052-55.505152 0-25.947975 109.595071-47.730071 257.671571-53.809533l-27.125801-34.17331c-192.58111 9.968026-334.923002 45.24753-334.923002 87.236853 0 49.734728 104.624872 90.055039 446.047916 90.055039 246.347664 0 446.050985-40.320311 446.050985-90.055039C958.266391 827.577399 806.001499 791.33087 603.369475 782.833335L603.369475 782.833335zM603.369475 782.833335" p-id="2778"></path></svg>