<?xml version="1.0" encoding="utf-8"?>
<!-- Generator: Adobe Illustrator 21.0.0, SVG Export Plug-In . SVG Version: 6.00 Build 0)  -->
<svg version="1.1" id="图层_1" xmlns="http://www.w3.org/2000/svg" xmlns:xlink="http://www.w3.org/1999/xlink" x="0px" y="0px"
	 viewBox="0 0 200 200" style="enable-background:new 0 0 200 200;" xml:space="preserve">
<style type="text/css">
	.st0{fill:#76A8CB;}
	.st1{fill:#999999;}
	.st2{fill:#FFFFFF;}
</style>
<g>
	<circle class="st0" cx="100" cy="100" r="93.3"/>
	<path class="st1" d="M100,200C44.9,200,0,155.1,0,100S44.9,0,100,0s100,44.9,100,100S155.1,200,100,200z M100,13.3
		c-47.8,0-86.7,38.9-86.7,86.7s38.9,86.7,86.7,86.7s86.7-38.9,86.7-86.7S147.8,13.3,100,13.3z"/>
	<g>
		<path class="st2" d="M98.4,44.9l49.8,49.6c2.7,2.7,2.7,7.1,0,9.9l-2.9,2.9c-2.7,2.7-7.1,2.7-9.8,0L85.7,57.7
			c-2.7-2.7-2.7-7.1,0-9.9l2.9-2.9C91.3,42.2,95.7,42.2,98.4,44.9z"/>
		<path class="st2" d="M150.3,102.1l-54,53.9c-1.5,1.5-4,1.5-5.5,0l-7.2-7.2c-1.5-1.5-1.5-4,0-5.6l54.1-53.9c1.5-1.5,4-1.5,5.5,0
			l7.2,7.2C151.9,98.1,151.9,100.6,150.3,102.1z"/>
		<path class="st2" d="M87.5,90.4c5,0,9,4,9,9s-4,9-9,9s-9-4-9-9C78.4,94.4,82.5,90.4,87.5,90.4z"/>
		<path class="st2" d="M57.4,90.4c5,0,9,4,9,9s-4,9-9,9s-9-4-9-9C48.3,94.4,52.4,90.4,57.4,90.4z"/>
	</g>
</g>
</svg>
