<?xml version="1.0" encoding="utf-8"?>
<!-- Generator: Adobe Illustrator 21.0.0, SVG Export Plug-In . SVG Version: 6.00 Build 0)  -->
<svg version="1.1" id="图层_1" xmlns="http://www.w3.org/2000/svg" xmlns:xlink="http://www.w3.org/1999/xlink" x="0px" y="0px"
	 viewBox="0 0 200 200" style="enable-background:new 0 0 200 200;" xml:space="preserve">
<path d="M175.4,57.1c0-15.9-12.7-28.6-28.6-28.6c-15.7,0-28.5,12.7-28.5,28.4c0,10.2,5.4,19.7,14.3,24.7V86c-0.3,7.4-3.3,14-9,19.7
	c-5.7,5.7-12.3,8.7-19.7,9C92,115,82.7,117,75.3,121.1v-68c13.6-7.8,18.3-25.3,10.5-38.9C80.7,5.4,71.2,0,61,0
	C45.1,0,32.6,12.7,32.6,28.6c0.1,10.1,5.5,19.5,14.3,24.6v93.7c-8.4,5-14.3,14.1-14.3,24.6c0,15.9,12.7,28.6,28.6,28.6
	s28.6-12.7,28.6-28.6c0-7.6-2.9-14.3-7.6-19.4c1.3-0.9,6.9-5.9,8.4-6.7c3.6-1.6,8-2.4,13.4-2.4c15-0.7,27.9-6.4,39.3-17.9
	s17.1-28.3,17.9-43.1h-0.3C169.6,76.7,175.4,67.6,175.4,57.1z M61.1,11.4c9.4,0,17.1,7.9,17.1,17.1s-7.9,17.1-17.1,17.1
	S44,37.9,44,28.6S51.9,11.4,61.1,11.4z M61.1,188.7c-9.4,0-17.1-7.9-17.1-17.1s7.9-17.1,17.1-17.1s17.1,7.9,17.1,17.1
	S70.4,188.7,61.1,188.7z M146.9,74.4c-9.4,0-17.1-7.9-17.1-17.1c0-9.3,7.9-17.1,17.1-17.1S164,48,164,57.3S156.1,74.4,146.9,74.4z"
	/>
</svg>
