<?xml version="1.0" standalone="no"?><!DOCTYPE svg PUBLIC "-//W3C//DTD SVG 1.1//EN" "http://www.w3.org/Graphics/SVG/1.1/DTD/svg11.dtd"><svg t="1487580248243" class="icon" style="" viewBox="0 0 1024 1024" version="1.1" xmlns="http://www.w3.org/2000/svg" p-id="1131" xmlns:xlink="http://www.w3.org/1999/xlink" width="200" height="200"><defs><style type="text/css"></style></defs><path d="M887.466667 273.066667c75.400533 0 136.533333-61.1328 136.533333-136.533333 0-75.400533-61.1328-136.533333-136.533333-136.533333s-136.533333 61.1328-136.533333 136.533333c0 24.064 6.7584 46.353067 17.681067 65.979733l-131.3792 109.499733c-33.041067-19.933867-71.645867-31.607467-113.0496-31.607467-113.7664 0-207.291733 86.596267-218.3168 197.495467L198.519467 477.9008C184.4224 438.203733 146.909867 409.6 102.4 409.6c-56.558933 0-102.4 45.841067-102.4 102.4s45.841067 102.4 102.4 102.4c44.509867 0 82.0224-28.5696 96.119467-68.266667l111.240533 0c21.265067 98.9184 109.1584 173.090133 214.4256 173.090133 40.448 0 78.199467-11.127467 110.762667-30.208l78.574933 114.2784c-18.363733 23.2448-29.764267 52.224-29.764267 84.1728 0 75.400533 61.1328 136.533333 136.533333 136.533333s136.533333-61.1328 136.533333-136.533333c0-75.400533-61.1328-136.533333-136.533333-136.533333-18.670933 0-36.4544 3.7888-52.6336 10.581333l-79.701333-115.950933c34.542933-38.775467 55.7056-89.736533 55.7056-145.749333 0-54.749867-20.1728-104.686933-53.3504-143.121067l125.371733-104.482133C836.539733 265.216 861.013333 273.066667 887.466667 273.066667z" p-id="1132"></path></svg>