<?xml version="1.0" standalone="no"?><!DOCTYPE svg PUBLIC "-//W3C//DTD SVG 1.1//EN" "http://www.w3.org/Graphics/SVG/1.1/DTD/svg11.dtd"><svg t="1482061706319" class="icon" style="" viewBox="0 0 1024 1024" version="1.1" xmlns="http://www.w3.org/2000/svg" p-id="4538" xmlns:xlink="http://www.w3.org/1999/xlink" width="200" height="200"><defs><style type="text/css"></style></defs><path d="M333.641823 391.931391 288.12721 437.447027 473.988268 623.25999 896.656707 200.589504 851.190189 155.074891 473.987245 532.325931Z" p-id="4539"></path><path d="M833.616952 415.477666l0 385.991098c0 17.771759-14.366196 32.137954-32.137954 32.137954L222.518956 833.606719c-17.771759 0-32.137954-14.366196-32.137954-32.137954L190.381002 222.508723c0-17.771759 14.366196-32.137954 32.137954-32.137954l385.991098 0 0-64.321958L190.382025 126.048811c-35.542494 0-64.321958 28.779464-64.321958 64.321958l0 643.23595c0 35.542494 28.779464 64.321958 64.321958 64.321958l643.23595 0c35.542494 0 64.321958-28.779464 64.320934-64.322981L897.938909 415.477666 833.616952 415.477666z" p-id="4540"></path></svg>