<?xml version="1.0" standalone="no"?><!DOCTYPE svg PUBLIC "-//W3C//DTD SVG 1.1//EN" "http://www.w3.org/Graphics/SVG/1.1/DTD/svg11.dtd"><svg t="1487969179985" class="icon" style="" viewBox="0 0 1024 1024" version="1.1" xmlns="http://www.w3.org/2000/svg" p-id="2056" xmlns:xlink="http://www.w3.org/1999/xlink" width="200" height="200"><defs><style type="text/css"></style></defs><path d="M192 256c-35.3 0-64 28.7-64 64l0 576c0 35.3 28.7 64 64 64l448 0c35.3 0 64-28.7 64-64L704 448 512 256 192 256zM640 896 192 896 192 320l256 0 0 192 192 0L640 896zM512 448 512 346.5 613.5 448 512 448z" p-id="2057"></path><path d="M256 576l320 0 0 64-320 0 0-64Z" p-id="2058"></path><path d="M256 704l320 0 0 64-320 0 0-64Z" p-id="2059"></path><path d="M704 64 384 64c-35.3 0-64 28.7-64 64l0 64 64 0L384 128l256 0 0 64 0 128 192 0 0 384-64 0 0 64 64 0c35.3 0 64-28.7 64-64L896 256 704 64zM704 256 704 154.5 805.5 256 704 256z" p-id="2060"></path></svg>