<?xml version="1.0" encoding="utf-8"?>
<!-- Generator: Adobe Illustrator 21.0.0, SVG Export Plug-In . SVG Version: 6.00 Build 0)  -->
<svg version="1.1" id="图层_1" xmlns="http://www.w3.org/2000/svg" xmlns:xlink="http://www.w3.org/1999/xlink" x="0px" y="0px"
	 viewBox="0 0 200 200" style="enable-background:new 0 0 200 200;" xml:space="preserve">
<style type="text/css">
	.st0{fill:#FFFFFF;}
	.st1{fill:#D1D1D1;}
	.st2{fill:#76A8CB;}
</style>
<g>
	<circle class="st0" cx="100" cy="100" r="100"/>
	<path class="st1" d="M100,14.3c47.3,0,85.7,38.5,85.7,85.7s-38.5,85.7-85.7,85.7S14.3,147.3,14.3,100S52.7,14.3,100,14.3 M100,0
		C44.8,0,0,44.8,0,100s44.8,100,100,100c55.2,0,100-44.8,100-100S155.2,0,100,0L100,0z"/>
</g>
<g>
	<g>
		<circle class="st2" cx="100" cy="100" r="71.4"/>
	</g>
	<path class="st0" d="M131,92.9h-23.8V69c0-2.6-2.1-4.8-4.8-4.8h-4.8c-2.6,0-4.8,2.1-4.8,4.8v23.8l-23.8,0c-2.6,0-4.8,2.1-4.8,4.8
		v4.8c0,2.6,2.1,4.8,4.8,4.8h23.8V131c0,2.6,2.1,4.8,4.8,4.8h4.8c2.6,0,4.8-2.1,4.8-4.8v-23.8H131c2.6,0,4.8-2.1,4.8-4.8v-4.8
		C135.7,95,133.6,92.9,131,92.9z"/>
</g>
</svg>
