<?xml version="1.0" encoding="utf-8"?>
<!-- Generator: Adobe Illustrator 21.0.0, SVG Export Plug-In . SVG Version: 6.00 Build 0)  -->
<svg version="1.1" id="图层_1" xmlns="http://www.w3.org/2000/svg" xmlns:xlink="http://www.w3.org/1999/xlink" x="0px" y="0px"
	 viewBox="0 0 200 200" style="enable-background:new 0 0 200 200;" xml:space="preserve">
<style type="text/css">
	.st0{fill:#29ABE2;}
	.st1{fill:#D1D1D1;}
	.st2{fill:#FFFFFF;}
</style>
<g>
	<circle class="st0" cx="100" cy="100" r="100"/>
	<path class="st1" d="M100,14.3c47.3,0,85.7,38.5,85.7,85.7s-38.5,85.7-85.7,85.7c-47.3,0-85.7-38.5-85.7-85.7S52.7,14.3,100,14.3
		 M100,0C44.8,0,0,44.8,0,100s44.8,100,100,100c55.2,0,100-44.8,100-100S155.2,0,100,0L100,0z"/>
</g>
<g>
	<path class="st2" d="M141.3,98.9l-37.2,37.3c-2,2-5.4,2-7.4,0l-2.2-2.2c-2-2-2-5.3,0-7.4l37.2-37.3c2-2,5.4-2,7.4,0l2.2,2.2
		C143.4,93.5,143.4,96.8,141.3,98.9z"/>
	<path class="st2" d="M98.4,137.8L58,97.3c-1.1-1.1-1.1-3,0-4.1l5.4-5.4c1.1-1.2,3-1.2,4.2,0l40.4,40.6c1.1,1.1,1.1,3,0,4.1
		l-5.4,5.4C101.4,139,99.5,139,98.4,137.8z"/>
	<path class="st2" d="M107.2,90.7c0,3.7-3,6.8-6.7,6.8c-3.7,0-6.7-3-6.7-6.8c0-3.7,3-6.8,6.7-6.8C104.2,83.9,107.2,86.9,107.2,90.7z
		"/>
	<path class="st2" d="M107.2,68.1c0,3.7-3,6.8-6.7,6.8c-3.7,0-6.7-3-6.7-6.8c0-3.7,3-6.8,6.7-6.8C104.2,61.3,107.2,64.4,107.2,68.1z
		"/>
</g>
</svg>
