<?xml version="1.0" encoding="utf-8"?>
<!-- Generator: Adobe Illustrator 21.0.0, SVG Export Plug-In . SVG Version: 6.00 Build 0)  -->
<svg version="1.1" id="图层_1" xmlns="http://www.w3.org/2000/svg" xmlns:xlink="http://www.w3.org/1999/xlink" x="0px" y="0px"
	 viewBox="0 0 200 200" style="enable-background:new 0 0 200 200;" xml:space="preserve">
<style type="text/css">
	.st0{fill:none;}
	.st1{fill:#FFFFFF;}
</style>
<g>
	<path d="M84,0c27.8,0,50.4,21.3,50.4,47.5C134.4,73.7,111.9,95,84,95S33.6,73.7,33.6,47.5C33.6,21.3,56.2,0,84,0z M84,0
		c27.8,0,50.4,21.3,50.4,47.5C134.4,73.7,111.9,95,84,95S33.6,73.7,33.6,47.5C33.6,21.3,56.2,0,84,0z M65.1,110.9h42
		c36,0,65.1,27.5,65.1,61.4v4c0,13.4-29.2,13.9-65.1,13.9h-42c-36,0-65.1,0-65.1-13.9v-4C0,138.3,29.2,110.9,65.1,110.9z"/>
	<g>
		<path class="st0" d="M175.8,118.5c0-4-0.8-6.9-2.5-8.4c-1.8-1.6-4.7-2.5-8.7-2.5c-3.1,0-5.4,0.8-7.1,2.3c-1.6,1.5-2.3,3.3-2.3,5.5
			c0,2,0.7,3.5,2.2,4.6c1.5,1.2,4.9,3.3,12.7,6.8c11.8,4,21,9,27.3,14.8c1,0.9,1.8,1.8,2.7,2.8v-21.9h-20.2L175.8,118.5z"/>
		<path d="M191.9,147.7c-5.4-5.1-13.7-9.5-24.5-13.1l-0.3-0.1c-7.1-3.1-11.9-5.7-14.7-7.9c-3.4-2.7-5.2-6.5-5.2-11
			c0-4.5,1.6-8.4,4.8-11.4c3.2-3,7.4-4.6,12.6-4.6c6.1,0,10.9,1.6,14.2,4.6c2.6,2.5,4.2,5.9,4.8,10.3h14.5
			c-0.5-7.9-3.3-13.9-8.5-18.4c-6.1-5.3-14.4-7.9-24.6-7.9c-9.8,0-17.6,2.5-23.8,7.7c-6,5-8.9,11.4-8.9,19.5
			c0,8.3,2.4,14.5,7.5,18.8c5.6,4.7,14.3,9.3,26.1,13.6l0.1,0c6.6,2.6,11.1,5.1,13.8,7.5c3.2,2.9,4.8,7,4.8,12.1
			c0,4.6-1.7,8.5-4.9,11.4c-3.1,2.8-7.6,4.3-13.4,4.3c-6.9,0-12.2-1.8-15.8-5.2c-3-2.9-4.7-7.1-5.3-12.7h-14.6
			c0.5,9.6,3.6,16.6,9.6,21.2c7,5.4,15.7,8.1,26,8.1c10.2,0,18.4-2.5,24.5-7.4c5.8-4.8,8.7-11.2,8.7-19.8
			C199.4,158.8,197,152.4,191.9,147.7z"/>
		<path class="st1" d="M179.8,118.5c0-5.2-1.3-9.1-3.8-11.4c-2.5-2.4-6.4-3.6-11.5-3.6c-4.2,0-7.4,1.1-9.8,3.4
			c-2.4,2.3-3.6,5.1-3.6,8.5c0,3.3,1.2,5.9,3.7,7.8c2.5,2,7.1,4.4,13.8,7.4c11.4,3.8,20.1,8.5,26,14c2.2,2.1,4,4.4,5.4,7.1v-7.2
			c-0.8-1-1.7-1.9-2.7-2.8c-6.2-5.8-15.4-10.8-27.3-14.8c-7.8-3.4-11.3-5.6-12.7-6.8c-1.5-1.2-2.2-2.6-2.2-4.6c0-2.2,0.7-4,2.3-5.5
			c1.6-1.6,4-2.3,7.1-2.3c4,0,7,0.8,8.7,2.5c1.7,1.6,2.5,4.4,2.5,8.4l4,4.1H200v-4.1H179.8z"/>
		<path class="st1" d="M193.3,190.3c-6.8,5.5-15.8,8.3-27,8.3c-11.2,0-20.6-3-28.4-8.9c-7.8-5.9-11.5-15.3-11.3-28l0.1-0.5h22.3
			c0,6.5,1.4,11.1,4.2,13.8c2.8,2.7,7.2,4.1,13,4.1c4.8,0,8.4-1.1,10.7-3.2c2.3-2.1,3.5-4.9,3.5-8.4c0-4-1.2-7-3.5-9.1
			c-2.3-2.1-6.5-4.4-12.5-6.8c-12.2-4.5-21.3-9.3-27.3-14.3c-5.9-5.1-8.9-12.4-8.9-21.9c0-9.3,3.5-16.9,10.4-22.6
			c6.9-5.8,15.7-8.6,26.4-8.6c11.3,0,20.3,3,27.2,8.9c3.5,3,6.1,6.7,7.8,11.1v-8.5c-1.5-2.1-3.2-3.9-5.2-5.7
			c-7.6-6.6-17.6-9.9-29.8-9.9c-11.6,0-21.3,3.2-28.9,9.6c-7.9,6.5-11.8,15.2-11.8,25.8c0,10.7,3.5,19.2,10.3,25
			c6.4,5.4,15.7,10.3,28.5,15c6.9,2.7,9.9,4.8,11.3,6c1.4,1.3,2.1,3.3,2.1,6.1c0,2.3-0.7,4-2.2,5.4c-1.6,1.4-4.3,2.2-8,2.2
			c-4.7,0-8.2-1-10.2-3c-2-1.9-3-5.6-3-10.9l-4-4.1h-22.3l-3.8,2.9l-0.1,0.5l-0.2,1.1c-0.3,14.1,4.1,24.6,12.9,31.3
			c4.1,3.1,8.6,5.5,13.5,7.1h34.8c4.5-1.5,8.5-3.7,12-6.6c1.6-1.3,3-2.7,4.2-4.1v-7.1C198.3,185.3,196.1,188,193.3,190.3z"/>
		<path class="st1" d="M194.6,144.7c-5.9-5.5-14.5-10.2-26-14c-6.7-3-11.3-5.4-13.8-7.4c-2.5-2-3.7-4.6-3.7-7.8
			c0-3.4,1.2-6.2,3.6-8.5c2.4-2.3,5.7-3.4,9.8-3.4c5.1,0,8.9,1.2,11.5,3.6c2.5,2.4,3.8,6.2,3.8,11.4H200V104
			c-1.7-4.3-4.2-8-7.8-11.1c-6.9-5.9-15.9-8.9-27.2-8.9c-10.7,0-19.5,2.9-26.4,8.6c-6.9,5.8-10.4,13.3-10.4,22.6
			c0,9.5,3,16.8,8.9,21.9c5.9,5.1,15,9.9,27.3,14.3c6.1,2.4,10.2,4.7,12.5,6.8c2.3,2.1,3.5,5.2,3.5,9.1c0,3.5-1.2,6.3-3.5,8.4
			c-2.4,2.1-5.9,3.2-10.7,3.2c-5.8,0-10.2-1.4-13-4.1c-2.8-2.7-4.2-7.3-4.2-13.8h-22.3l-0.1,0.5c-0.2,12.7,3.5,22.1,11.3,28
			c7.8,5.9,17.2,8.9,28.4,8.9c11.2,0,20.2-2.8,27-8.3c2.8-2.3,5.1-5,6.7-8.1v-30.4C198.6,149.1,196.8,146.8,194.6,144.7z
			 M190.7,187.1c-6,4.9-14.2,7.4-24.5,7.4c-10.2,0-18.9-2.7-26-8.1c-6-4.6-9.2-11.6-9.6-21.2h14.6c0.6,5.6,2.3,9.8,5.3,12.7
			c3.6,3.5,8.9,5.2,15.8,5.2c5.8,0,10.3-1.4,13.4-4.3c3.2-2.9,4.9-6.8,4.9-11.4c0-5.2-1.6-9.2-4.8-12.1c-2.7-2.5-7.2-4.9-13.8-7.5
			l-0.1,0c-11.7-4.3-20.5-8.9-26.1-13.6c-5-4.3-7.5-10.4-7.5-18.8c0-8.1,2.9-14.5,8.9-19.5c6.2-5.2,14-7.7,23.8-7.7
			c10.2,0,18.5,2.7,24.6,7.9c5.2,4.5,8,10.6,8.5,18.4h-14.5c-0.6-4.4-2.2-7.9-4.8-10.3c-3.3-3.1-8.1-4.6-14.2-4.6
			c-5.2,0-9.4,1.5-12.6,4.6c-3.2,3.1-4.8,6.9-4.8,11.4c0,4.5,1.8,8.3,5.2,11c2.8,2.2,7.6,4.8,14.7,7.9l0.3,0.1
			c10.8,3.6,19.1,8,24.5,13.1c5.1,4.7,7.5,11.2,7.5,19.6C199.4,175.9,196.6,182.4,190.7,187.1z"/>
	</g>
</g>
</svg>
