<?xml version="1.0" standalone="no"?><!DOCTYPE svg PUBLIC "-//W3C//DTD SVG 1.1//EN" "http://www.w3.org/Graphics/SVG/1.1/DTD/svg11.dtd"><svg t="1486183520121" class="icon" style="" viewBox="0 0 1024 1024" version="1.1" xmlns="http://www.w3.org/2000/svg" p-id="3709" xmlns:xlink="http://www.w3.org/1999/xlink" width="200" height="200"><defs><style type="text/css"></style></defs><path d="M455.769836 328.263325c-12.590759-17.853623-37.20946-22.100344-54.977126-9.361205-17.767666 12.71151-21.938662 37.553291-9.31004 55.460126l75.138304 106.701161c-0.823761 3.929496-1.294482 8.043187-1.294482 12.236696 0 32.489972 26.082028 58.809407 58.297754 58.809407 16.957207 0 32.084743-7.384178 42.739407-19.039635l84.551698 0c21.781072 0 39.418778-17.828041 39.418778-39.768749 0-21.968337-17.636682-39.768749-39.418778-39.768749l-84.565001 0c-9.04705-9.915837-21.36254-16.508999-35.261085-18.302855L455.769836 328.263325z" p-id="3710"></path><path d="M801.528628 366.583073c10.368138 22.679535 18.029632 46.836725 22.644743 72.101131 1.477654 8.123005 8.838296 13.712303 17.009396 12.974499l73.464175-6.80294c4.367471-0.396019 8.379854-2.63706 11.073196-6.144954s3.792373-8.017604 3.086291-12.368702c-7.073092-42.959418-20.736277-83.625606-39.929408-120.968096-2.169409-4.245697-6.105045-7.278777-10.733459-8.281617-4.627391-1.001817-9.452279 0.106424-13.164834 3.086291l-58.926064 47.206138C800.352849 351.972307 798.469965 359.88451 801.528628 366.583073z" p-id="3711"></path><path d="M746.683509 721.654974c-6.000668-4.140297-14.002922-3.612271-19.455097 1.239224-47.406706 42.459021-108.005876 70.176292-174.775582 76.004021l0-35.733852c0-14.662955-11.753695-26.503631-26.279526-26.503631s-26.291806 11.840676-26.291806 26.503631l0 35.70827c-146.300041-12.738116-263.092024-130.515542-275.721669-278.093692l35.417651 0c14.512529 0 26.278503-11.840676 26.278503-26.503631 0-14.661931-11.766998-26.502607-26.278503-26.502607l-35.522028 0c11.858072-138.611941 115.758444-250.851235 249.598708-274.532587 7.557116-1.344624 13.074783-7.938809 13.074783-15.691377L486.728942 102.229313c0-4.615111-1.987261-8.992815-5.452175-12.025894-3.451612-3.032056-8.040117-4.40431-12.590759-3.770883-198.388373 28.164456-351.015515 200.005196-351.015515 407.842779 0 227.53725 182.882214 412.010705 408.502811 412.010705 110.830201 0 211.082486-44.779879 284.652062-117.065206 3.38612-3.349281 5.124717-8.043187 4.718465-12.790304-0.405229-4.773723-2.902096-9.124821-6.798846-11.815093L746.683509 721.654974z" p-id="3712"></path><path d="M578.70575 193.21249c10.328229 1.819438 20.47431 4.166903 30.397311 7.014764 7.609305 2.162246 15.58393-1.635243 18.761296-8.91402l29.979802-68.171636c1.829671-4.140297 1.804089-8.887414-0.053212-13.026688-1.829671-4.114714-5.347798-7.305383-9.635451-8.676613-20.827351-6.67298-42.34748-11.761881-64.46829-14.953573-4.549619-0.659009-9.152451 0.712221-12.630668 3.745301-3.451612 3.03308-5.451152 7.40976-5.451152 12.051477l0 75.213006C565.606407 185.274704 571.136354 191.894472 578.70575 193.21249z" p-id="3713"></path><path d="M741.441111 279.369755c5.674233 5.827729 14.760169 6.382361 21.101597 1.292436l57.892525-46.388517c3.477194-2.768043 5.634324-6.909363 5.948479-11.392468 0.300852-4.483104-1.281179-8.860808-4.327562-12.130272-21.062711-22.311145-44.582381-42.222637-70.143547-59.337433-3.869121-2.610454-8.707312-3.348258-13.178137-2.030239-4.485151 1.319042-8.15882 4.562922-10.041704 8.860808l-30.253024 68.805062c-3.0208 6.882757-0.889253 14.95255 5.1503 19.35686C717.096656 256.320806 729.738581 267.370467 741.441111 279.369755z" p-id="3714"></path><path d="M927.067832 529.535375c-3.333932-3.429099-8.014534-5.195326-12.772908-4.747117l-75.05951 6.961552c-7.16519 0.633427-12.95608 6.066159-14.146185 13.21293-5.635347 33.809013-16.774035 65.639976-32.450063 94.701872-3.870144 7.173376-1.7519 16.139585 4.941546 20.754696l60.912301 42.195008c3.66139 2.53166 8.197706 3.40147 12.512988 2.399653 4.314259-1.001817 8.014534-3.797489 10.211573-7.700379 26.305109-46.678112 43.785226-98.999758 50.244334-154.777109C932.009378 537.736151 930.388461 532.990057 927.067832 529.535375z" p-id="3715"></path></svg>