<?xml version="1.0" encoding="utf-8"?>
<!-- Generator: Adobe Illustrator 21.0.0, SVG Export Plug-In . SVG Version: 6.00 Build 0)  -->
<svg version="1.1" id="图层_1" xmlns="http://www.w3.org/2000/svg" xmlns:xlink="http://www.w3.org/1999/xlink" x="0px" y="0px"
	 viewBox="0 0 200 200" style="enable-background:new 0 0 200 200;" xml:space="preserve">
<style type="text/css">
	.st0{fill:#29ABE2;}
	.st1{fill:#D1D1D1;}
	.st2{fill:#FFFFFF;}
</style>
<g>
	<circle class="st0" cx="100" cy="100" r="100"/>
	<path class="st1" d="M14.3,100c0-47.3,38.5-85.7,85.7-85.7s85.7,38.5,85.7,85.7c0,47.3-38.5,85.7-85.7,85.7S14.3,147.3,14.3,100
		 M0,100c0,55.2,44.8,100,100,100s100-44.8,100-100C200,44.8,155.2,0,100,0S0,44.8,0,100L0,100z"/>
</g>
<g>
	<path class="st2" d="M98.9,58.7l37.3,37.2c2,2,2,5.4,0,7.4l-2.2,2.2c-2,2-5.3,2-7.4,0L89.3,68.2c-2-2-2-5.4,0-7.4l2.2-2.2
		C93.5,56.6,96.8,56.6,98.9,58.7z"/>
	<path class="st2" d="M137.8,101.6L97.3,142c-1.1,1.1-3,1.1-4.1,0l-5.4-5.4c-1.2-1.1-1.2-3,0-4.2l40.6-40.4c1.1-1.1,3-1.1,4.1,0
		l5.4,5.4C139,98.6,139,100.5,137.8,101.6z"/>
	<path class="st2" d="M90.7,92.8c3.7,0,6.8,3,6.8,6.7c0,3.7-3,6.7-6.8,6.7c-3.7,0-6.8-3-6.8-6.7C83.9,95.8,86.9,92.8,90.7,92.8z"/>
	<path class="st2" d="M68.1,92.8c3.7,0,6.8,3,6.8,6.7c0,3.7-3,6.7-6.8,6.7c-3.7,0-6.8-3-6.8-6.7C61.3,95.8,64.4,92.8,68.1,92.8z"/>
</g>
</svg>
