<?xml version="1.0" encoding="utf-8"?>
<!-- Generator: Adobe Illustrator 16.0.0, SVG Export Plug-In . SVG Version: 6.00 Build 0)  -->
<!DOCTYPE svg PUBLIC "-//W3C//DTD SVG 1.1//EN" "http://www.w3.org/Graphics/SVG/1.1/DTD/svg11.dtd">
<svg version="1.1"
	 id="svg4156" sodipodi:docname="add-stage-latest.svg" inkscape:version="0.91 r13725" xmlns:cc="http://creativecommons.org/ns#" xmlns:svg="http://www.w3.org/2000/svg" xmlns:sodipodi="http://sodipodi.sourceforge.net/DTD/sodipodi-0.dtd" xmlns:dc="http://purl.org/dc/elements/1.1/" xmlns:rdf="http://www.w3.org/1999/02/22-rdf-syntax-ns#" xmlns:inkscape="http://www.inkscape.org/namespaces/inkscape"
	 xmlns="http://www.w3.org/2000/svg" xmlns:xlink="http://www.w3.org/1999/xlink" x="0px" y="0px" width="45px" height="52px"
	 viewBox="0 0 45 52" enable-background="new 0 0 45 52" xml:space="preserve">
<sodipodi:namedview  id="base" width="500px" units="px" inkscape:pageopacity="0.0" inkscape:document-units="px" inkscape:window-width="1920" inkscape:current-layer="layer1-3" inkscape:window-x="-9" inkscape:window-height="1019" inkscape:window-y="-9" inkscape:pageshadow="2" inkscape:cy="520" inkscape:zoom="0.35" showgrid="false" pagecolor="#ffffff" borderopacity="1.0" bordercolor="#666666" inkscape:cx="-56.428571" inkscape:window-maximized="1">
	</sodipodi:namedview>
<g>
	<polygon fill="#84C1BC" points="45,39 22.5,52 0,39 0,13 22.5,0 45,13 	"/>
	<g id="g5768" transform="matrix(0.80929294,0,0,0.80929294,563.60952,-85.192727)">
		<g id="g5770" transform="scale(0.1953125,0.1953125)">
			<path id="path5772" inkscape:connector-curvature="0" fill="#1F6C83" d="M-3361.593,710.911h-54.751v54.776
				c0,2.867-2.323,5.19-5.183,5.19h-4.547c-2.854,0-5.177-2.323-5.177-5.19v-54.776h-54.751c-2.851,0-5.174-2.323-5.174-5.193
				v-4.544c0-2.86,2.323-5.187,5.174-5.187h54.751v-54.782c0-2.87,2.323-5.202,5.177-5.202h4.547c2.86,0,5.183,2.332,5.183,5.202
				v54.782h54.751c2.867,0,5.19,2.326,5.19,5.187v4.544C-3356.404,708.588-3358.727,710.911-3361.593,710.911L-3361.593,710.911z"/>
		</g>
	</g>
</g>
</svg>
