<?xml version="1.0" encoding="UTF-8" standalone="no"?>
<!-- Generator: Adobe Illustrator 16.0.0, SVG Export Plug-In . SVG Version: 6.00 Build 0)  -->

<svg
   xmlns:dc="http://purl.org/dc/elements/1.1/"
   xmlns:cc="http://creativecommons.org/ns#"
   xmlns:rdf="http://www.w3.org/1999/02/22-rdf-syntax-ns#"
   xmlns:svg="http://www.w3.org/2000/svg"
   xmlns="http://www.w3.org/2000/svg"
   xmlns:sodipodi="http://sodipodi.sourceforge.net/DTD/sodipodi-0.dtd"
   xmlns:inkscape="http://www.inkscape.org/namespaces/inkscape"
   version="1.1"
   id="图层_1"
   x="0px"
   y="0px"
   width="45px"
   height="42px"
   viewBox="0 0 45 42"
   enable-background="new 0 0 45 42"
   xml:space="preserve"
   inkscape:version="0.91 r13725"
   sodipodi:docname="delete-selected-latest.svg"><metadata
     id="metadata4160"><rdf:RDF><cc:Work
         rdf:about=""><dc:format>image/svg+xml</dc:format><dc:type
           rdf:resource="http://purl.org/dc/dcmitype/StillImage" /><dc:title></dc:title></cc:Work></rdf:RDF></metadata><defs
     id="defs4158" /><sodipodi:namedview
     pagecolor="#ffffff"
     bordercolor="#666666"
     borderopacity="1"
     objecttolerance="10"
     gridtolerance="10"
     guidetolerance="10"
     inkscape:pageopacity="0"
     inkscape:pageshadow="2"
     inkscape:window-width="1920"
     inkscape:window-height="1019"
     id="namedview4156"
     showgrid="false"
     inkscape:zoom="5.6190476"
     inkscape:cx="22.5"
     inkscape:cy="21"
     inkscape:window-x="-9"
     inkscape:window-y="-9"
     inkscape:window-maximized="1"
     inkscape:current-layer="图层_1" /><g
     id="g4150"
     style="fill:#ffffff"><g
       transform="scale(0.1953125, 0.1953125)"
       id="g4152"
       style="fill:#ffffff"><path
         fill="#1F6D84"
         d="M230.389,61.212c0.43-31.56-19.07-30.665-54.11-30.55c0.13-10.61,1.44-23.205-5.51-27.755    c-5.69-3.73-17.66-2.805-27.54-2.805c-19.22,0-38.447,0-57.667,0c-11.63,0-21.83-0.48-27.54,4.49    c-5.855,5.085-5.005,15.46-4.865,25.785c-35.555-0.305-53.84-0.445-53.135,30.555c5.94,0.09,11.88,0.19,17.82,0.28    c0,34.01,0,68.022,0,102.027c0,19.125-1.63,36.01,10.69,44.29c16.22,10.895,72.18,6.725,101.737,6.725    c23.96,0.005,56.61,3.16,70.63-5.885c12.47-8.04,10.7-24.745,10.7-43.725c0-34.475,0-68.957,0-103.432    C217.859,61.212,224.129,61.212,230.389,61.212z M54.457,194.91c-9.555-1.98-6.16-22.13-6.16-32.23c0-34.01,0-68.027,0-102.027    c6.265,0,12.53,0,18.795,0c0,34.66,0,69.327,0,103.987C67.092,176.1,71.697,198.489,54.457,194.91z M116.017,194.91    c-14.685,1.12-10.695-19.53-10.69-31.11c0-34.38,0-68.767,0-103.147c6.37,0,12.742,0,19.112,0c0,34.1,0,68.207,0,102.307    C124.44,174.355,128.535,193.96,116.017,194.91z M158.785,30.937c-29.375,0-58.752,0-88.127,0c0-5.14,0-10.28,0-15.415    c29.375,0,58.752,0,88.127,0C158.785,20.657,158.785,25.797,158.785,30.937z M174.34,194.35c-15.25,1.7-11.02-19.35-11.02-30.83    c0-34.29,0-68.582,0-102.867c6.375,0,12.745,0,19.12,0c0,33.91,0,67.827,0,101.747C182.44,173.855,186.55,192.995,174.34,194.35z"
         id="path4154"
         style="fill:#ffffff" /></g></g></svg>