<?xml version="1.0" encoding="utf-8"?>
<!-- Generator: Adobe Illustrator 16.0.0, SVG Export Plug-In . SVG Version: 6.00 Build 0)  -->
<!DOCTYPE svg PUBLIC "-//W3C//DTD SVG 1.1//EN" "http://www.w3.org/Graphics/SVG/1.1/DTD/svg11.dtd">
<svg version="1.1"
	 id="svg4156" xmlns:cc="http://creativecommons.org/ns#" xmlns:svg="http://www.w3.org/2000/svg" xmlns:sodipodi="http://sodipodi.sourceforge.net/DTD/sodipodi-0.dtd" xmlns:dc="http://purl.org/dc/elements/1.1/" xmlns:rdf="http://www.w3.org/1999/02/22-rdf-syntax-ns#" xmlns:inkscape="http://www.inkscape.org/namespaces/inkscape" inkscape:version="0.91 r13725" sodipodi:docname="stage-selected-latest.svg"
	 xmlns="http://www.w3.org/2000/svg" xmlns:xlink="http://www.w3.org/1999/xlink" x="0px" y="0px" width="45px" height="52px"
	 viewBox="0 0 45 52" enable-background="new 0 0 45 52" xml:space="preserve">
<g>
	
		<sodipodi:namedview  id="base" width="500px" units="px" inkscape:cx="-56.428571" bordercolor="#666666" borderopacity="1.0" pagecolor="#ffffff" showgrid="false" inkscape:zoom="0.35" inkscape:cy="520" inkscape:window-maximized="1" inkscape:pageshadow="2" inkscape:window-y="-9" inkscape:window-height="1019" inkscape:window-x="-9" inkscape:current-layer="layer1" inkscape:window-width="1920" inkscape:document-units="px" inkscape:pageopacity="0.0">
		</sodipodi:namedview>
	<polygon fill="#ADD04E" points="45.001,39 22.5,52 0,39 0,13 22.5,0 45.001,13 	"/>
	<g id="g4234" transform="matrix(1.9992339,0,0,1.9992339,44.006356,-487.18642)">
		<g id="g4236" transform="scale(0.1953125,0.1953125)">
			<path id="path4238" inkscape:connector-curvature="0" fill="#FFFFFF" d="M-61.602,1299.281c1.085,0,2.136-0.15,3.141-0.405
				l-4.409-3.625c-1.538-1.258-2.491-3.039-2.694-5.022c-0.195-1.987,0.393-3.923,1.646-5.461c1.418-1.742,3.516-2.736,5.755-2.736
				c1.718,0,3.394,0.599,4.714,1.687l4.687,3.844c0.04-0.403,0.065-0.808,0.065-1.223c0-7.139-5.777-12.94-12.9-12.94
				c-7.13,0-12.905,5.797-12.905,12.94C-74.507,1293.489-68.73,1299.281-61.602,1299.281z M-32.326,1293.639
				c-2.536,0-4.937,0.588-7.088,1.613c-1.356,0.643-2.616,1.463-3.736,2.436l-12.995-10.669c-0.59-0.489-1.303-0.723-2.018-0.723
				c-0.918,0-1.836,0.398-2.461,1.168c-1.113,1.363-0.918,3.379,0.445,4.492l13.092,10.749c-0.685,1.333-1.2,2.761-1.506,4.274
				c-0.165,0.803-0.245,1.636-0.29,2.471l7.858-4.359c1.416-0.788,3.016-1.203,4.632-1.203c3.476,0,6.683,1.898,8.368,4.942
				c2.551,4.623,0.873,10.469-3.736,13.03l-6.868,3.811c1.946,0.793,4.072,1.238,6.3,1.238c9.168,0,16.596-7.448,16.596-16.636
				C-15.73,1301.087-23.158,1293.639-32.326,1293.639z M-31.746,1310.893c-0.97-1.758-2.781-2.746-4.647-2.746
				c-0.87,0-1.756,0.215-2.566,0.663l-17.477,9.694c-1.003-1.1-2.123-2.131-3.336-3.007c-3.604-2.637-8.031-4.214-12.84-4.214
				c-12.052,0-21.816,9.787-21.816,21.882c0,12.09,9.769,21.873,21.816,21.873c12.062,0,21.831-9.794,21.831-21.873
				c0-0.25-0.03-0.485-0.04-0.725c-0.048-1.561-0.263-3.071-0.618-4.527l17.622-9.789
				C-31.251,1316.693-30.325,1313.466-31.746,1310.893L-31.746,1310.893z M-72.579,1351.391c-10.039,0-18.177-8.163-18.177-18.227
				s8.138-18.213,18.177-18.213c10.036,0,18.179,8.154,18.179,18.213C-54.4,1343.228-62.54,1351.391-72.579,1351.391
				L-72.579,1351.391z"/>
		</g>
	</g>
</g>
<g>
	<path fill="#FFFFFF" d="M18.75,30.559h-0.494v0.823c0,1.036-0.48,1.971-1.306,2.478c0.826,0.504,1.306,1.43,1.306,2.468v0.656
		h0.494c0.168,0,0.324,0.118,0.324,0.341c0,0.177-0.137,0.319-0.306,0.319h-6.47c-0.169,0-0.306-0.143-0.306-0.319
		c0-0.176,0.12-0.341,0.329-0.341h0.495v-0.656c0-1.038,0.513-1.964,1.337-2.468c-0.824-0.507-1.337-1.439-1.337-2.478v-0.823
		h-0.495c-0.169,0-0.325-0.165-0.325-0.341s0.156-0.319,0.325-0.319h0.033h6.418c0.169,0,0.307,0.154,0.307,0.331
		C19.079,30.405,18.919,30.559,18.75,30.559L18.75,30.559z M17.596,30.559h-4.12v0.823c0,1.024,0.543,1.917,1.497,2.166
		c0.04,0.012,0.075,0.028,0.107,0.053c0,0,0,0.001,0,0.001c0.003,0.002,0.004,0.005,0.008,0.005
		c0.001,0.002,0.004,0.004,0.006,0.004c0,0.003,0.001,0.004,0.002,0.004c0.047,0.043,0.083,0.098,0.1,0.165
		c0.017,0.072,0.01,0.145-0.017,0.208l0,0c-0.002,0.004-0.003,0.008-0.006,0.012c0,0.001,0,0.002-0.002,0.004
		c0,0.003-0.001,0.005-0.002,0.007c-0.002,0.004-0.003,0.005-0.005,0.009c0,0.001-0.001,0.003-0.001,0.004
		c-0.005,0.009-0.01,0.018-0.016,0.024l0,0c-0.002,0.003-0.004,0.008-0.007,0.013c0,0,0,0,0,0.002
		c-0.004,0.002-0.006,0.007-0.009,0.009c0,0,0,0.002-0.002,0.003c-0.002,0.003-0.004,0.004-0.008,0.009c0,0,0,0-0.001,0
		c-0.003,0.005-0.006,0.008-0.01,0.013l0,0c-0.007,0.006-0.014,0.013-0.023,0.019c0,0,0,0.002,0,0.002
		c-0.004,0.001-0.007,0.005-0.011,0.009c0,0,0,0-0.002,0c-0.031,0.023-0.068,0.038-0.108,0.047
		c-0.946,0.255-1.484,1.137-1.484,2.156v0.659h4.121v-0.659c0-1.024-0.547-1.909-1.499-2.159c-0.004-0.001-0.011-0.003-0.014-0.005
		c-0.003,0-0.004,0-0.006-0.001c-0.002-0.001-0.004-0.001-0.007-0.001c-0.002-0.003-0.004-0.004-0.008-0.005
		c-0.001,0-0.003,0-0.003,0c-0.04-0.017-0.073-0.041-0.101-0.069l-0.002-0.001c-0.002-0.004-0.004-0.006-0.006-0.009
		c-0.001,0-0.003-0.001-0.004-0.004c-0.001-0.001-0.003-0.003-0.004-0.005c-0.002-0.001-0.003-0.005-0.006-0.007
		c-0.001-0.002-0.001-0.002-0.003-0.003c-0.002-0.004-0.004-0.009-0.009-0.012l0,0c-0.01-0.016-0.019-0.033-0.028-0.052h-0.002
		c-0.001-0.004-0.002-0.009-0.005-0.014V33.98c-0.002-0.005-0.004-0.008-0.006-0.013c0-0.002,0-0.002,0-0.003
		c0-0.005-0.001-0.008-0.004-0.013c0-0.001,0-0.001,0-0.001c-0.001-0.006-0.002-0.011-0.004-0.016
		c-0.001-0.003-0.001-0.008-0.002-0.012c-0.002,0-0.002-0.002-0.002-0.002c-0.001-0.004-0.001-0.008-0.001-0.015
		c0,0-0.001-0.001-0.001-0.002c0-0.004-0.001-0.009-0.001-0.014V33.89c-0.016-0.154,0.08-0.303,0.229-0.343
		c0.953-0.249,1.5-1.143,1.5-2.165v-0.823H17.596z M15.97,33.069c-0.177,0.046-0.328,0.154-0.434,0.296
		c-0.033-0.045-0.07-0.085-0.112-0.123l-0.022-0.019l-0.017-0.015l-0.02-0.014c-0.081-0.059-0.169-0.102-0.267-0.126
		c-0.493-0.13-0.86-0.512-1.025-1.029h2.93C16.832,32.558,16.466,32.94,15.97,33.069L15.97,33.069z M15.374,34.925
		c0,0,0.027-0.022,0.029-0.025l0.004-0.001l0.018-0.016l0.003-0.003c0.013-0.012,0.026-0.022,0.037-0.036l0.017-0.017l0.021-0.025
		l0.022-0.028c0,0,0.008-0.013,0.008-0.013l0.045,0.069l0.02,0.011l0.006,0.005c0.057,0.058,0.123,0.104,0.194,0.135
		c0,0,0.021,0.012,0.028,0.014c0.004,0,0.023,0.009,0.023,0.009c0.01,0.003,0.021,0.005,0.033,0.01
		c0.55,0.155,0.89,0.613,0.89,1.339v0.14h-2.475v-0.14c0-0.721,0.332-1.176,0.875-1.337c0.066-0.016,0.129-0.044,0.187-0.083
		L15.374,34.925L15.374,34.925z"/>
</g>
</svg>
