<?xml version="1.0" encoding="utf-8"?>
<!-- Generator: Adobe Illustrator 16.0.0, SVG Export Plug-In . SVG Version: 6.00 Build 0)  -->
<!DOCTYPE svg PUBLIC "-//W3C//DTD SVG 1.1//EN" "http://www.w3.org/Graphics/SVG/1.1/DTD/svg11.dtd">
<svg version="1.1"
	 id="svg4156" inkscape:version="0.91 r13725" sodipodi:docname="stage-selected-latest.svg" xmlns:cc="http://creativecommons.org/ns#" xmlns:svg="http://www.w3.org/2000/svg" xmlns:sodipodi="http://sodipodi.sourceforge.net/DTD/sodipodi-0.dtd" xmlns:dc="http://purl.org/dc/elements/1.1/" xmlns:rdf="http://www.w3.org/1999/02/22-rdf-syntax-ns#" xmlns:inkscape="http://www.inkscape.org/namespaces/inkscape"
	 xmlns="http://www.w3.org/2000/svg" xmlns:xlink="http://www.w3.org/1999/xlink" x="0px" y="0px" width="45px" height="52px"
	 viewBox="0 0 45 52" enable-background="new 0 0 45 52" xml:space="preserve">
<g>
	
		<sodipodi:namedview  id="base" units="px" width="500px" inkscape:pageshadow="2" inkscape:window-y="-9" inkscape:window-height="1019" inkscape:window-x="-9" inkscape:current-layer="layer1" inkscape:window-width="1920" inkscape:document-units="px" inkscape:pageopacity="0.0" inkscape:cy="520" inkscape:cx="-56.428571" bordercolor="#666666" borderopacity="1.0" pagecolor="#ffffff" showgrid="false" inkscape:zoom="0.35" inkscape:window-maximized="1">
		</sodipodi:namedview>
	<polygon fill="#EB4F38" points="45.001,39 22.5,52 0,39 0,13 22.5,0 45.001,13 	"/>
	<g id="g4234" transform="matrix(1.9992339,0,0,1.9992339,44.006356,-487.18642)">
		<g id="g4236" transform="scale(0.1953125,0.1953125)">
			<path id="path4238" inkscape:connector-curvature="0" fill="#871302" d="M-61.602,1299.284c1.085,0,2.136-0.149,3.141-0.404
				l-4.409-3.625c-1.538-1.258-2.491-3.039-2.694-5.022c-0.195-1.987,0.393-3.924,1.646-5.462c1.418-1.741,3.516-2.735,5.755-2.735
				c1.718,0,3.395,0.599,4.714,1.687l4.687,3.844c0.04-0.403,0.065-0.808,0.065-1.223c0-7.139-5.776-12.94-12.901-12.94
				c-7.129,0-12.905,5.797-12.905,12.94C-74.507,1293.493-68.73,1299.284-61.602,1299.284z M-32.326,1293.643
				c-2.536,0-4.937,0.588-7.088,1.613c-1.358,0.643-2.616,1.463-3.736,2.436l-12.995-10.669c-0.59-0.49-1.303-0.723-2.018-0.723
				c-0.918,0-1.836,0.398-2.461,1.168c-1.114,1.363-0.919,3.379,0.445,4.492l13.092,10.749c-0.685,1.333-1.2,2.761-1.508,4.274
				c-0.163,0.803-0.243,1.636-0.288,2.471l7.858-4.359c1.416-0.788,3.014-1.203,4.632-1.203c3.474,0,6.683,1.897,8.368,4.942
				c2.551,4.622,0.873,10.468-3.736,13.029l-6.868,3.811c1.946,0.793,4.072,1.238,6.3,1.238c9.168,0,16.596-7.448,16.596-16.636
				C-15.73,1301.091-23.158,1293.643-32.326,1293.643z M-31.746,1310.897c-0.97-1.758-2.781-2.746-4.647-2.746
				c-0.87,0-1.758,0.215-2.566,0.663l-17.478,9.695c-1.003-1.103-2.121-2.131-3.334-3.009c-3.605-2.637-8.033-4.214-12.84-4.214
				c-12.052,0-21.817,9.789-21.817,21.881c0,12.09,9.769,21.876,21.817,21.876c12.061,0,21.83-9.794,21.83-21.876
				c0-0.25-0.03-0.485-0.04-0.725c-0.05-1.561-0.265-3.071-0.618-4.527l17.622-9.789
				C-31.251,1316.698-30.325,1313.469-31.746,1310.897L-31.746,1310.897z M-72.579,1351.396c-10.039,0-18.177-8.163-18.177-18.227
				s8.138-18.214,18.177-18.214c10.036,0,18.179,8.156,18.179,18.214C-54.399,1343.233-62.54,1351.396-72.579,1351.396
				L-72.579,1351.396z"/>
		</g>
		<path fill="#871302" d="M-13.01,261.787c0,0.275-0.224,0.5-0.5,0.5h-1.844c-0.276,0-0.5-0.224-0.5-0.5v-1.188
			c0-0.276,0.224-0.5,0.5-0.5h1.844c0.276,0,0.5,0.224,0.5,0.5V261.787z"/>
		<path fill="#871302" d="M-12.629,259.181h-2.093c-0.268,0-0.483,0.191-0.542,0.441h2.309c0.244,0,0.443,0.237,0.443,0.531v1.489
			c0.256-0.055,0.452-0.272,0.452-0.544v-1.349C-12.061,259.435-12.316,259.181-12.629,259.181z"/>
	</g>
</g>
</svg>
