<?xml version="1.0" encoding="utf-8"?>
<!-- Generator: Adobe Illustrator 16.0.0, SVG Export Plug-In . SVG Version: 6.00 Build 0)  -->
<!DOCTYPE svg PUBLIC "-//W3C//DTD SVG 1.1 Tiny//EN" "http://www.w3.org/Graphics/SVG/1.1/DTD/svg11-tiny.dtd">
<svg version="1.1" baseProfile="tiny"
	 id="svg4156" xmlns:svg="http://www.w3.org/2000/svg" xmlns:inkscape="http://www.inkscape.org/namespaces/inkscape" xmlns:rdf="http://www.w3.org/1999/02/22-rdf-syntax-ns#" xmlns:cc="http://creativecommons.org/ns#" xmlns:sodipodi="http://sodipodi.sourceforge.net/DTD/sodipodi-0.dtd" xmlns:dc="http://purl.org/dc/elements/1.1/" sodipodi:docname="stage-selected-latest.svg" inkscape:version="0.91 r13725"
	 xmlns="http://www.w3.org/2000/svg" xmlns:xlink="http://www.w3.org/1999/xlink" x="0px" y="0px" width="45px" height="52px"
	 viewBox="0 0 45 52" xml:space="preserve">
<g>
	
		<sodipodi:namedview  id="base" units="px" width="500px" pagecolor="#ffffff" borderopacity="1.0" bordercolor="#666666" inkscape:cx="-56.428571" inkscape:cy="520" showgrid="false" inkscape:zoom="0.35" inkscape:window-width="1920" inkscape:document-units="px" inkscape:pageopacity="0.0" inkscape:pageshadow="2" inkscape:current-layer="layer1" inkscape:window-y="-9" inkscape:window-x="-9" inkscape:window-height="1019" inkscape:window-maximized="1">
		</sodipodi:namedview>
	<polygon fill="#D1DE4D" points="45.001,39 22.5,52 0,39 0,13 22.5,0 45.001,13 	"/>
	<g id="g4236" transform="scale(0.1953125,0.1953125)">
		<path id="path4238" inkscape:connector-curvature="0" fill="#FFFFFF" d="M102.155,103.187c2.17,0,4.27-0.3,6.28-0.81L99.62,95.13
			c-3.075-2.515-4.98-6.075-5.385-10.04c-0.39-3.972,0.785-7.842,3.29-10.917c2.835-3.482,7.03-5.47,11.505-5.47
			c3.435,0,6.785,1.198,9.425,3.372l9.37,7.685c0.08-0.805,0.13-1.615,0.13-2.445c0-14.272-11.55-25.87-25.792-25.87
			c-14.252,0-25.8,11.59-25.8,25.87C76.355,91.607,87.905,103.187,102.155,103.187z M160.685,91.907c-5.07,0-9.87,1.175-14.17,3.225
			c-2.71,1.285-5.23,2.925-7.47,4.87l-25.98-21.33c-1.18-0.98-2.605-1.445-4.035-1.445c-1.835,0-3.67,0.795-4.92,2.335
			c-2.227,2.725-1.837,6.755,0.89,8.98l26.175,21.49c-1.37,2.665-2.4,5.52-3.01,8.545c-0.33,1.605-0.49,3.27-0.58,4.94l15.71-8.715
			c2.83-1.575,6.03-2.405,9.26-2.405c6.95,0,13.36,3.795,16.73,9.88c5.1,9.24,1.745,20.927-7.47,26.047l-13.73,7.62
			c3.89,1.585,8.14,2.475,12.595,2.475c18.33,0,33.18-14.89,33.18-33.26C193.865,106.797,179.015,91.907,160.685,91.907z
			 M161.845,126.402c-1.94-3.515-5.56-5.49-9.29-5.49c-1.74,0-3.51,0.43-5.13,1.325l-34.94,19.382
			c-2.005-2.205-4.242-4.26-6.667-6.015c-7.207-5.272-16.057-8.425-25.67-8.425c-24.095,0-43.617,19.57-43.617,43.745
			c0,24.17,19.53,43.735,43.617,43.735c24.112,0,43.642-19.58,43.642-43.735c0-0.5-0.06-0.97-0.08-1.45
			c-0.095-3.12-0.525-6.14-1.235-9.05l35.23-19.57C162.835,138,164.685,131.545,161.845,126.402L161.845,126.402z M80.21,207.369
			c-20.07,0-36.34-16.32-36.34-36.44s16.27-36.415,36.34-36.415c20.065,0,36.345,16.305,36.345,36.415
			C116.555,191.05,100.28,207.369,80.21,207.369L80.21,207.369z"/>
	</g>
	<polygon fill="#D1DE4D" points="15.753,35.012 14.118,33.375 15.209,33.375 15.209,31.193 16.297,31.193 16.297,33.375 
		17.387,33.375 	"/>
</g>
<g>
	<path fill="#FFFFFF" d="M18.013,28.106c-0.516-0.228-1.115,0.008-1.34,0.522c-0.226,0.515,0.01,1.112,0.523,1.338
		c0.515,0.226,1.114-0.009,1.34-0.522C18.76,28.93,18.525,28.329,18.013,28.106z"/>
	<path fill="#FFFFFF" d="M13.732,37.877c-0.257-0.111-0.557,0.004-0.669,0.264c-0.111,0.256,0.004,0.557,0.263,0.668
		c0.257,0.112,0.556-0.004,0.67-0.263C14.107,38.289,13.988,37.99,13.732,37.877z"/>
	<path fill="#FFFFFF" d="M20.411,30.123c-0.304-0.414-0.888-0.502-1.301-0.197l0,0c-0.414,0.305-0.504,0.889-0.198,1.303
		c0.304,0.414,0.888,0.502,1.302,0.197C20.626,31.121,20.715,30.538,20.411,30.123z"/>
	<path fill="#FFFFFF" d="M11.814,36.451c-0.14-0.188-0.405-0.227-0.594-0.088c-0.187,0.138-0.228,0.402-0.088,0.59
		c0.137,0.189,0.403,0.229,0.59,0.09C11.912,36.904,11.95,36.641,11.814,36.451z"/>
	<path fill="#FFFFFF" d="M21.458,33.037c-0.052-0.465-0.472-0.801-0.937-0.748l0,0c-0.464,0.051-0.799,0.471-0.747,0.936
		c0.052,0.465,0.472,0.799,0.935,0.748C21.175,33.921,21.509,33.5,21.458,33.037z"/>
	<path fill="#FFFFFF" d="M20.526,35.029c-0.385-0.17-0.835,0.006-1.004,0.393c-0.169,0.385,0.006,0.835,0.393,1.004
		c0.386,0.168,0.835-0.007,1.004-0.395C21.087,35.647,20.912,35.197,20.526,35.029z"/>
	<path fill="#FFFFFF" d="M19.126,37.382c-0.222-0.302-0.647-0.366-0.948-0.144c-0.3,0.222-0.366,0.646-0.144,0.945
		c0.222,0.303,0.646,0.365,0.947,0.145C19.284,38.107,19.348,37.684,19.126,37.382z"/>
	<path fill="#FFFFFF" d="M16.715,38.673c-0.039-0.323-0.331-0.56-0.655-0.522l0,0c-0.326,0.037-0.56,0.33-0.524,0.654
		c0.038,0.325,0.33,0.563,0.655,0.522C16.515,39.292,16.751,38.999,16.715,38.673z"/>
</g>
<g>
	<path fill="#FFFFFF" d="M15.675,33.398c0.588,0.178,0.918,0.635,1.104,1.32c0.237,0.848,0.434,1.516,0.588,1.762h-1.238
		c-0.113-0.187-0.299-0.754-0.495-1.55c-0.216-0.864-0.598-1.194-1.434-1.194h-0.722v2.744h-1.186v-6.395
		c0.505-0.076,1.207-0.135,1.918-0.135c1.032,0,1.753,0.152,2.249,0.517c0.413,0.296,0.629,0.745,0.629,1.271
		c0,0.83-0.619,1.396-1.413,1.643V33.398z M14.283,33c0.99,0,1.609-0.466,1.609-1.16c0-0.838-0.722-1.127-1.579-1.127
		c-0.402,0-0.691,0.025-0.835,0.06V33H14.283z"/>
</g>
</svg>
