<?xml version="1.0" encoding="utf-8"?>
<!-- Generator: Adobe Illustrator 16.0.0, SVG Export Plug-In . SVG Version: 6.00 Build 0)  -->
<!DOCTYPE svg PUBLIC "-//W3C//DTD SVG 1.1//EN" "http://www.w3.org/Graphics/SVG/1.1/DTD/svg11.dtd">
<svg version="1.1"
	 id="svg4156" xmlns:svg="http://www.w3.org/2000/svg" xmlns:inkscape="http://www.inkscape.org/namespaces/inkscape" xmlns:rdf="http://www.w3.org/1999/02/22-rdf-syntax-ns#" xmlns:cc="http://creativecommons.org/ns#" xmlns:sodipodi="http://sodipodi.sourceforge.net/DTD/sodipodi-0.dtd" xmlns:dc="http://purl.org/dc/elements/1.1/" sodipodi:docname="start-latest.svg" inkscape:version="0.91 r13725"
	 xmlns="http://www.w3.org/2000/svg" xmlns:xlink="http://www.w3.org/1999/xlink" x="0px" y="0px" width="45px" height="52px"
	 viewBox="0 0 45 52" enable-background="new 0 0 45 52" xml:space="preserve">
<sodipodi:namedview  id="base" units="px" width="500px" pagecolor="#ffffff" borderopacity="1.0" bordercolor="#666666" inkscape:cx="-56.428571" inkscape:cy="520" showgrid="false" inkscape:zoom="0.35" inkscape:window-width="1920" inkscape:document-units="px" inkscape:pageopacity="0.0" inkscape:pageshadow="2" inkscape:current-layer="layer1-3" inkscape:window-y="-9" inkscape:window-x="-9" inkscape:window-height="1019" inkscape:window-maximized="1">
	</sodipodi:namedview>
<polygon fill="#87AF25" points="45,39 22.5,52 0,39 0,13 22.5,0 45,13 "/>
<polygon fill="#D1DE4D" points="42.045,37.293 22.5,48.586 2.955,37.293 2.955,14.707 22.5,3.415 42.045,14.707 "/>
<g enable-background="new    ">
	<path fill="#54711E" d="M32.645,23.364c-0.135,0.063-0.344,0.114-0.604,0.114c-0.572,0-0.903-0.383-0.903-0.962
		c0-0.566,0.317-1.018,0.855-1.018c0.534,0,0.749,0.444,0.749,0.914c0,0.065-0.004,0.12-0.012,0.169h-1.206
		c0.011,0.428,0.275,0.59,0.575,0.59c0.211,0,0.355-0.038,0.48-0.09L32.645,23.364z M32.362,22.296
		c0.003-0.228-0.09-0.511-0.396-0.511c-0.294,0-0.417,0.29-0.438,0.511H32.362z"/>
	<path fill="#54711E" d="M34.7,23.44h-0.399v-1.114c0-0.269-0.09-0.496-0.363-0.496c-0.195,0-0.406,0.162-0.406,0.466v1.145h-0.4
		v-1.365c0-0.211-0.007-0.373-0.014-0.535h0.349l0.021,0.283h0.01c0.09-0.162,0.29-0.324,0.576-0.324
		c0.297,0,0.628,0.193,0.628,0.779V23.44z"/>
	<path fill="#54711E" d="M36.793,22.934c0,0.172,0.008,0.376,0.015,0.507h-0.353l-0.02-0.297h-0.011
		c-0.101,0.193-0.308,0.335-0.576,0.335c-0.431,0-0.759-0.383-0.759-0.969c0-0.646,0.369-1.011,0.793-1.011
		c0.245,0,0.421,0.11,0.504,0.255h0.007v-1.079h0.399V22.934z M36.394,22.31c0-0.311-0.196-0.493-0.421-0.493
		c-0.307,0-0.476,0.304-0.476,0.679c0,0.373,0.165,0.659,0.469,0.659c0.259,0,0.428-0.228,0.428-0.493V22.31z"/>
</g>
<path fill="#54711E" d="M33.956,24.596c0,0.369-0.299,0.669-0.668,0.669h-4.922c-0.369,0-0.668-0.3-0.668-0.669v-4.925
	c0-0.37,0.299-0.668,0.668-0.668h4.922c0.369,0,0.668,0.3,0.668,0.668V24.596L33.956,24.596z"/>
<g>
	<path fill="#54711E" d="M29.979,34.009c-1.543,1.856-3.631,3.162-6.021,3.734c-2.921,0.698-5.94,0.215-8.499-1.354
		c-2.56-1.572-4.354-4.049-5.054-6.969c-1.442-6.03,2.293-12.11,8.32-13.553c2.529-0.604,5.205-0.31,7.537,0.827
		c0.399,0.194,0.565,0.676,0.37,1.074c-0.196,0.396-0.675,0.565-1.073,0.369c-1.998-0.975-4.291-1.227-6.458-0.708
		c-5.166,1.234-8.367,6.446-7.131,11.616c0.598,2.503,2.136,4.624,4.331,5.973c2.195,1.346,4.782,1.758,7.285,1.16
		c4.037-0.965,6.873-4.353,7.334-8.252c0.063-0.531,0.337-0.824,0.868-0.854c0.531-0.028,0.813,0.261,0.746,0.904
		c-0.174,1.65-0.713,3.254-1.607,4.709C30.641,33.152,30.322,33.596,29.979,34.009L29.979,34.009z"/>
</g>
<g>
	<defs>
		<path id="SVGID_1_" d="M32.604,23.322c-0.135,0.063-0.344,0.114-0.604,0.114c-0.572,0-0.903-0.383-0.903-0.962
			c0-0.566,0.317-1.018,0.855-1.018c0.534,0,0.749,0.444,0.749,0.914c0,0.065-0.004,0.12-0.012,0.169h-1.206
			c0.011,0.428,0.275,0.59,0.575,0.59c0.211,0,0.355-0.038,0.48-0.09L32.604,23.322z M32.321,22.254
			c0.003-0.228-0.09-0.511-0.396-0.511c-0.294,0-0.417,0.29-0.438,0.511H32.321z M34.659,23.398H34.26v-1.114
			c0-0.269-0.09-0.496-0.363-0.496c-0.195,0-0.406,0.162-0.406,0.466v1.145h-0.4v-1.365c0-0.211-0.007-0.373-0.014-0.535h0.349
			l0.021,0.283h0.01c0.09-0.162,0.29-0.324,0.576-0.324c0.297,0,0.628,0.193,0.628,0.779V23.398z M36.752,22.892
			c0,0.172,0.008,0.376,0.015,0.507h-0.353l-0.02-0.297h-0.011c-0.101,0.193-0.308,0.335-0.576,0.335
			c-0.431,0-0.759-0.383-0.759-0.969c0-0.646,0.369-1.011,0.793-1.011c0.245,0,0.421,0.11,0.504,0.255h0.007v-1.079h0.399V22.892z
			 M36.353,22.268c0-0.311-0.196-0.493-0.421-0.493c-0.307,0-0.476,0.304-0.476,0.679c0,0.373,0.165,0.659,0.469,0.659
			c0.259,0,0.428-0.228,0.428-0.493V22.268z"/>
	</defs>
	<clipPath id="SVGID_2_">
		<use xlink:href="#SVGID_1_"  overflow="visible"/>
	</clipPath>
	<path clip-path="url(#SVGID_2_)" fill="#D1DE4D" d="M33.914,24.554c0,0.369-0.299,0.669-0.668,0.669h-4.922
		c-0.369,0-0.668-0.3-0.668-0.669v-4.925c0-0.37,0.299-0.668,0.668-0.668h4.922c0.369,0,0.668,0.3,0.668,0.668V24.554L33.914,24.554
		z"/>
</g>
<text transform="matrix(1.2162 0 0 1 15.626 32.9775)" fill="#54711E" font-family="'AdobeHeitiStd-Regular-GBpc-EUC-H'" font-size="15.607">R</text>
</svg>
