<?xml version="1.0" encoding="utf-8"?>
<!-- Generator: Adobe Illustrator 16.0.0, SVG Export Plug-In . SVG Version: 6.00 Build 0)  -->
<!DOCTYPE svg PUBLIC "-//W3C//DTD SVG 1.1//EN" "http://www.w3.org/Graphics/SVG/1.1/DTD/svg11.dtd">
<svg version="1.1" id="图层_1" xmlns="http://www.w3.org/2000/svg" xmlns:xlink="http://www.w3.org/1999/xlink" x="0px" y="0px"
	 width="100px" height="100px" viewBox="0 0 100 100" enable-background="new 0 0 100 100" xml:space="preserve">
<g>
	<g>
		<g>
			<path fill="#87BC0C" d="M100,88c0,6.627-5.373,12-12,12H12c-6.627,0-12-5.373-12-12V12C0,5.373,5.373,0,12,0h76
				c6.627,0,12,5.373,12,12V88z"/>
		</g>
	</g>
	<g>
		<path fill="#FFFFFF" d="M30.693,78.217V21.783h21.172c4.312,0,7.77,0.571,10.375,1.713c2.604,1.143,4.645,2.9,6.121,5.273
			c1.475,2.374,2.213,4.857,2.213,7.449c0,2.412-0.654,4.684-1.963,6.813c-1.31,2.131-3.285,3.85-5.929,5.158
			c3.413,1.001,6.037,2.708,7.872,5.12c1.834,2.412,2.752,5.261,2.752,8.546c0,2.644-0.558,5.101-1.674,7.372
			c-1.117,2.271-2.496,4.022-4.139,5.255c-1.643,1.231-3.701,2.162-6.178,2.79c-2.478,0.63-5.512,0.943-9.104,0.943H30.693z
			 M38.161,45.496h12.202c3.312,0,5.685-0.218,7.123-0.654c1.898-0.564,3.329-1.502,4.291-2.811
			c0.963-1.309,1.444-2.951,1.444-4.928c0-1.873-0.45-3.522-1.348-4.946c-0.898-1.425-2.182-2.399-3.85-2.926
			c-1.669-0.525-4.53-0.789-8.585-0.789H38.161V45.496z M38.161,71.558h14.051c2.411,0,4.105-0.09,5.081-0.27
			c1.719-0.309,3.156-0.821,4.312-1.54c1.155-0.718,2.104-1.765,2.849-3.138c0.744-1.372,1.117-2.957,1.117-4.754
			c0-2.104-0.539-3.933-1.617-5.485s-2.573-2.644-4.484-3.272c-1.912-0.629-4.665-0.943-8.258-0.943h-13.05V71.558z"/>
	</g>
</g>
</svg>
