<?xml version="1.0" encoding="utf-8"?>
<!-- Generator: Adobe Illustrator 16.0.0, SVG Export Plug-In . SVG Version: 6.00 Build 0)  -->
<!DOCTYPE svg PUBLIC "-//W3C//DTD SVG 1.1//EN" "http://www.w3.org/Graphics/SVG/1.1/DTD/svg11.dtd">
<svg version="1.1" xmlns="http://www.w3.org/2000/svg" xmlns:xlink="http://www.w3.org/1999/xlink" x="0px" y="0px" width="200px"
	 height="160px" viewBox="0 0 200 160" enable-background="new 0 0 200 160" xml:space="preserve">
<g id="背景_xA0_图像_1_">
</g>
<g id="多边形_3_1_" enable-background="new    ">
	<g id="多边形_3">
		<path fill-rule="evenodd" clip-rule="evenodd" d="M78.415,20.928L12.443,86.237l26.389,26.123l65.971-65.309L78.415,20.928z
			 M120.399,32.354l-0.015-0.014c7.376-7.449,7.33-19.381-0.155-26.765c-7.454-7.353-19.479-7.423-27.037-0.24l-0.092,0.09
			l-0.006-0.006l-7.767,7.657l27.306,26.935L120.399,32.354z M82.159,138.793c-5.917,0-10.712,4.748-10.712,10.604
			c0,5.858,4.796,10.606,10.712,10.606c5.917,0,10.713-4.748,10.713-10.606C92.872,143.541,88.076,138.793,82.159,138.793z
			 M0,124.679l30.792-7.008L7.081,94.196L0,124.679z M110.726,138.793c-5.916,0-10.712,4.748-10.712,10.604
			c0,5.858,4.796,10.606,10.712,10.606c5.917,0,10.714-4.748,10.714-10.606C121.439,143.541,116.643,138.793,110.726,138.793z
			 M185.716,75.163V75.16h-0.003l-21.427-21.209V75.16h-42.847v28.282h42.847v21.2l21.425-21.2h0.005v-0.005L200,89.302
			L185.716,75.163z M139.294,138.793c-5.917,0-10.713,4.748-10.713,10.604c0,5.858,4.796,10.606,10.713,10.606
			s10.713-4.748,10.713-10.606C150.007,143.541,145.211,138.793,139.294,138.793z"/>
	</g>
</g>
</svg>
