<?xml version="1.0" encoding="utf-8"?>
<!-- Generator: Adobe Illustrator 16.0.0, SVG Export Plug-In . SVG Version: 6.00 Build 0)  -->
<!DOCTYPE svg PUBLIC "-//W3C//DTD SVG 1.1//EN" "http://www.w3.org/Graphics/SVG/1.1/DTD/svg11.dtd">
<svg version="1.1" id="图层_1" xmlns="http://www.w3.org/2000/svg" xmlns:xlink="http://www.w3.org/1999/xlink" x="0px" y="0px"
	 width="100px" height="100px" viewBox="0 0 100 100" enable-background="new 0 0 100 100" xml:space="preserve">
<path fill="#5BA8B9" d="M100,94c0,3.313-2.688,6-6,6H6c-3.313,0-6-2.688-6-6V6c0-3.313,2.687-6,6-6h88c3.313,0,6,2.687,6,6V94z"/>
<g>
	<g transform="scale(0.1953125, 0.1953125)">
		<path fill="#FFFFFF" d="M422.044,294.394l-109.63,39.515c-2.695,0.985-5.44,0.94-8.17,1.155l-16.53-46.535l9.235-3.335
			c2.855,8.975,12.17,13.715,20.825,10.6l78.285-28.23c8.66-3.12,13.35-12.907,10.495-21.885l-20.625-64.942
			c-2.84-8.97-12.17-13.707-20.815-10.6l-78.29,28.22c-8.65,3.12-13.35,12.917-10.5,21.885l-11.38,4.092l-16.037-45.202
			c3.345-3.287,7.337-5.94,11.937-7.612l109.605-39.5c17.3-6.227,35.945,3.255,41.645,21.185l30.95,97.442
			C448.749,268.569,439.339,288.159,422.044,294.394L422.044,294.394z M261.974,85.982l13.7,7.147l-30.38,48.735l-13.7-7.142
			L261.974,85.982L261.974,85.982z M199.145,301.984c-5.712-7.265-4.697-17.95,2.257-23.87l21.255-18.09l21.547,25.54l-22.1,18.815
			C215.147,310.324,204.874,309.244,199.145,301.984L199.145,301.984z M317.954,241.434c2.855,8.967-1.855,18.77-10.5,21.88
			l-25.425,9.17l-11.39-32.092l26.51-9.555C305.779,227.714,315.114,232.459,317.954,241.434L317.954,241.434z M203.659,254.237
			c-5.712-7.25-15.995-8.325-22.95-2.39l-63.01,53.652c-6.972,5.93-7.97,16.605-2.25,23.86l41.395,52.54
			c5.705,7.28,15.985,8.345,22.95,2.415l63.002-53.645c6.965-5.925,7.97-16.605,2.252-23.87l0,0l9.95-8.485l30.01,35.58
			c-1.995,4.61-4.9,8.89-8.935,12.32l-88.202,75.105c-13.897,11.865-34.477,9.725-45.887-4.8l-62.082-78.85
			c-11.432-14.49-19.002-21.08-5.097-32.92l97.802-89.912c2.473-2.107,5.33-3.242,8.132-4.48l31.137,36.89L203.659,254.237
			L203.659,254.237z M106.855,187.287l67.887-13.637l3.147,16.652l-67.915,13.645L106.855,187.287L106.855,187.287z M176.277,92.062
			l13.967-9.047l9.222,62.012l-13.99,9.04L176.277,92.062L176.277,92.062z"/>
	</g>
</g>
</svg>
