<?xml version="1.0" encoding="utf-8"?>
<!-- Generator: Adobe Illustrator 16.0.0, SVG Export Plug-In . SVG Version: 6.00 Build 0)  -->
<!DOCTYPE svg PUBLIC "-//W3C//DTD SVG 1.1//EN" "http://www.w3.org/Graphics/SVG/1.1/DTD/svg11.dtd">
<svg version="1.1"
	 id="svg4156" sodipodi:docname="start-selected-latest.svg" inkscape:version="0.91 r13725" xmlns:cc="http://creativecommons.org/ns#" xmlns:svg="http://www.w3.org/2000/svg" xmlns:sodipodi="http://sodipodi.sourceforge.net/DTD/sodipodi-0.dtd" xmlns:dc="http://purl.org/dc/elements/1.1/" xmlns:rdf="http://www.w3.org/1999/02/22-rdf-syntax-ns#" xmlns:inkscape="http://www.inkscape.org/namespaces/inkscape"
	 xmlns="http://www.w3.org/2000/svg" xmlns:xlink="http://www.w3.org/1999/xlink" x="0px" y="0px" width="45px" height="52px"
	 viewBox="0 0 45 52" enable-background="new 0 0 45 52" xml:space="preserve">
<sodipodi:namedview  id="base" width="500px" units="px" inkscape:pageopacity="0.0" inkscape:document-units="px" inkscape:window-width="1920" inkscape:current-layer="layer1-3" inkscape:window-x="-9" inkscape:window-height="1019" inkscape:window-y="-9" inkscape:pageshadow="2" inkscape:cy="520" inkscape:zoom="0.35" showgrid="false" pagecolor="#ffffff" borderopacity="1.0" bordercolor="#666666" inkscape:cx="-56.428571" inkscape:window-maximized="1">
	</sodipodi:namedview>
<g>
	<polygon fill="#84C1BC" points="45,39 22.5,52 0,39 0,13 22.5,0 45,13 	"/>
	<g id="g4274-0_1_" transform="matrix(1.2891752,0,0,1.2891752,575.65756,-72.611309)">
		<g id="g4276-8_1_" transform="scale(0.1953125,0.1953125)">
			<path id="path4278-5_1_" inkscape:connector-curvature="0" fill="#FFFFFF" d="M-2155.471,386.168l-56.047-40.737
				c-2.052-1.487-4.77-1.705-7.024-0.553c-2.261,1.15-3.681,3.485-3.681,6.017v81.472c0,2.529,1.417,4.856,3.681,6.012
				c0.966,0.496,2.013,0.737,3.06,0.737c1.396,0,2.792-0.43,3.964-1.288l56.047-40.739c1.753-1.28,2.777-3.304,2.777-5.467
				C-2152.694,389.463-2153.726,387.44-2155.471,386.168L-2155.471,386.168z"/>
		</g>
	</g>
</g>
</svg>
