<?xml version="1.0" standalone="no"?><!DOCTYPE svg PUBLIC "-//W3C//DTD SVG 1.1//EN" "http://www.w3.org/Graphics/SVG/1.1/DTD/svg11.dtd"><svg class="icon" style="" viewBox="0 0 1026 1024" version="1.1" xmlns="http://www.w3.org/2000/svg" p-id="6354" xmlns:xlink="http://www.w3.org/1999/xlink" width="200.390625" height="200"><defs><style type="text/css"><![CDATA[

]]></style></defs><path d="M891.797825 326.765625c9.15625 13.453125 18.3125 26.90625 27.46875 40.359375 0.375 0.1875 0.75 0.375 1.125 0.55625 10.8125-17.365625 21.65625-34.75 32.5-52.125 16.875-25.28125 35.40625-45.21875 45.40625-78.475 19.34375-64.453125-26.59375-112.1-87.4375-110.984375-4.3125 0.740625-8.609375 1.490625-12.90625 2.240625-14.625 4.31875-29.546875 13.46875-38.125 24.1-6.984375 8.6875-14 18.021875-18.484375 29.146875-11.421875 28.44375-2.609375 61.365625 9.515625 81.28125C864.516575 284.1625 878.141575 305.46875 891.797825 326.765625zM878.891575 200.640625c6.0625-19.421875 19.03125-23.365625 37.5625-30.81875 58.265625-0.859375 59.3125 81.56875 5.609375 89.678125C894.610325 263.646875 870.110325 228.865625 878.891575 200.640625zM271.27595 671.496875c33.875-47.40625 65.896875-84.765625 85.765625-147.984375 44.428125-141.421875-45.59375-257.4125-183.85-255.046875-10.8125 4.234375-26.803125 2.84375-37.5625 6.1625-32.234375 9.953125-62.896875 29.109375-81.834375 52.69375-16.5375 20.59375-31.50625 40.803125-42.0375 67.81875-24.65625 63.265625-6.625 130.06875 20.740625 174.88125 31.71875 51.96875 63.9375 102.65625 98.646875 151.90625 18.3125 27.09375 36.625 54.1875 54.9375 81.28125 0.553125 0.375 1.115625 0.75 1.678125 1.125 11.396875-18.5 22.796875-37 34.19375-55.5C238.291575 722.621875 253.5572 696.309375 271.27595 671.496875zM95.8322 434.390625c9.053125-29.09375 30.53125-51.78125 57.734375-62.78125 8.6-3.475 18.990625-2.50625 28.59375-6.1625 63.9375-0.365625 118.06875 64.53125 91.359375 133.40625-13.225 34.1-38.625 57.9125-79.59375 64.459375C131.3322 573.3125 76.3072 497.09375 95.8322 434.390625zM939.985325 624.403125c-46.875-30.640625-93.78125-61.28125-140.6875-91.921875-16.0625-11.03125-32.125-22.053125-48.203125-33.06875-31.765625-17.375-63.515625-34.765625-95.296875-52.13125-17.03125-9.9625-36.96875-18.3125-50.4375-31.953125-0.375-0.1875-0.75-0.375-1.125-0.5625 63.5-13.1625 129.625-13.975 196.1875-25.21875 34.1875-3.921875 68.390625-7.85 102.578125-11.771875 0-0.1875 0-0.375 0-0.5625-5.234375-7.115625-20.140625-27.234375-27.453125-30.828125-8.59375 0.75-17.203125 1.49375-25.78125 2.240625-31.03125 1.86875-62.046875 3.74375-93.0625 5.609375-24.1875 3.75625-48.96875 0.515625-74.5625 4.475-71.90625 6.5375-143.875 13.084375-215.796875 19.625 32.50625 25.03125 65.015625 50.06875 97.53125 75.109375 34.859375 23.265625 72.25 41.59375 105.953125 65.578125 42.96875 33.44375 85.9375 66.896875 128.90625 100.35 0.375 0.546875 0.75 1.109375 1.125 1.671875-103.5 6.546875-207.03125 13.078125-310.53125 19.609375-20.928125 0.9375-41.859375 1.875-62.78125 2.8125-25.50625 3.96875-49.178125 5-72.875 9.53125-11.390625 1.6875-22.7875 3.359375-34.1875 5.03125-33.81875 57-67.640625 114-101.459375 170.96875-0.36875 0.5625-0.74375 1.125-1.115625 1.6875 114.890625-25.34375 233.640625-44.34375 350.328125-70.0625 63.15625-11.21875 126.3125-22.4375 189.46875-33.640625 89.484375-15.328125 179-30.640625 268.5-45.953125 0-0.1875 0-0.375 0-0.5625C996.797825 661.778125 968.391575 643.090625 939.985325 624.403125z" p-id="6355"></path></svg>