<?xml version="1.0" encoding="utf-8"?>
<!-- Generator: Adobe Illustrator 21.0.2, SVG Export Plug-In . SVG Version: 6.00 Build 0)  -->
<svg version="1.1" id="图层_1" xmlns="http://www.w3.org/2000/svg" xmlns:xlink="http://www.w3.org/1999/xlink" x="0px" y="0px"
	 viewBox="0 0 200 200" style="enable-background:new 0 0 200 200;" xml:space="preserve">
<style type="text/css">
	.st0{fill:#00BBDD;}
</style>
<path class="st0" d="M40.2,144c-5.7,0-10.9-4.7-10.9-10.3c0-5.7,4.7-10.4,10.9-10.4c6.2,0,10.9,4.7,10.9,10.4
	C51.1,139.3,45.9,144,40.2,144z M173.7,87.6c-1.1-8.3-6.2-15-13-20.2l-2.6-2.1l-2.1,2.6c-4.1,4.7-5.8,12.9-5.2,19.1
	c0.5,4.7,2,9.3,4.6,13c-2.1,1-4.8,2.1-6.8,3.1c-4.8,1.5-9.4,2.1-14,2.1H0.8l-0.5,3.1c-1,10.1,0.6,20.2,4.7,29.5l2.1,3.6v0.5
	c12.5,20.7,34.8,30,59,30c46.6,0,84.9-20.2,103-63.6c11.9,0.5,23.9-2.6,29.5-14l1.5-2.6l-2.5-1.5c-6.8-4.1-16-4.7-23.8-2.6
	L173.7,87.6z M106.9,79.3H86.7v20.2h20.3L106.9,79.3L106.9,79.3z M106.9,54H86.7v20.2h20.3L106.9,54L106.9,54z M106.9,28.1H86.7
	v20.2h20.3L106.9,28.1L106.9,28.1z M131.7,79.3h-20.1v20.2h20.2L131.7,79.3L131.7,79.3z M56.7,79.3H36.6v20.2h20.2L56.7,79.3
	L56.7,79.3z M81.9,79.3h-20v20.2H82V79.3L81.9,79.3z M31.7,79.3h-20v20.2h20.2V79.3L31.7,79.3z M81.9,54h-20v20.2H82V54L81.9,54z
	 M56.5,54h-20v20.2h20.1V54L56.5,54z"/>
</svg>
