<?xml version="1.0" encoding="utf-8"?>
<!-- Generator: Adobe Illustrator 21.0.2, SVG Export Plug-In . SVG Version: 6.00 Build 0)  -->
<svg version="1.1" id="图层_1" xmlns="http://www.w3.org/2000/svg" xmlns:xlink="http://www.w3.org/1999/xlink" x="0px" y="0px"
	 viewBox="0 0 200.4 200" style="enable-background:new 0 0 200.4 200;" xml:space="preserve">
<style type="text/css">
	.st0{fill:#00BBDD;}
</style>
<path class="st0" d="M174.2,63.8c1.8,2.6,3.6,5.3,5.4,7.9c0.1,0,0.1,0.1,0.2,0.1c2.1-3.4,4.2-6.8,6.3-10.2c3.3-4.9,6.9-8.8,8.9-15.3
	c3.8-12.6-5.2-21.9-17.1-21.7c-0.8,0.1-1.7,0.3-2.5,0.4c-2.9,0.8-5.8,2.6-7.4,4.7c-1.4,1.7-2.7,3.5-3.6,5.7
	c-2.2,5.6-0.5,12,1.9,15.9C168.9,55.5,171.5,59.7,174.2,63.8z M171.7,39.2c1.2-3.8,3.7-4.6,7.3-6c11.4-0.2,11.6,15.9,1.1,17.5
	C174.7,51.5,169.9,44.7,171.7,39.2z M53,131.2c6.6-9.3,12.9-16.6,16.8-28.9c8.7-27.6-8.9-50.3-35.9-49.8c-2.1,0.8-5.2,0.6-7.3,1.2
	c-6.3,1.9-12.3,5.7-16,10.3c-3.2,4-6.2,8-8.2,13.2c-4.8,12.4-1.3,25.4,4.1,34.2c6.2,10.2,12.5,20.1,19.3,29.7
	c3.6,5.3,7.2,10.6,10.7,15.9c0.1,0.1,0.2,0.1,0.3,0.2c2.2-3.6,4.5-7.2,6.7-10.8C46.5,141.1,49.5,136,53,131.2z M18.7,84.8
	c1.8-5.7,6-10.1,11.3-12.3c1.7-0.7,3.7-0.5,5.6-1.2C48.1,71.3,58.6,84,53.4,97.4c-2.6,6.7-7.5,11.3-15.5,12.6
	C25.7,112,14.9,97.1,18.7,84.8z M183.6,122c-9.2-6-18.3-12-27.5-18c-3.1-2.2-6.3-4.3-9.4-6.5c-6.2-3.4-12.4-6.8-18.6-10.2
	c-3.3-1.9-7.2-3.6-9.9-6.2c-0.1,0-0.1-0.1-0.2-0.1c12.4-2.6,25.3-2.7,38.3-4.9c6.7-0.8,13.4-1.5,20-2.3c0,0,0-0.1,0-0.1
	c-1-1.4-3.9-5.3-5.4-6c-1.7,0.1-3.4,0.3-5,0.4c-6.1,0.4-12.1,0.7-18.2,1.1c-4.7,0.7-9.6,0.1-14.6,0.9c-14,1.3-28.1,2.6-42.1,3.8
	c6.3,4.9,12.7,9.8,19,14.7c6.8,4.5,14.1,8.1,20.7,12.8c8.4,6.5,16.8,13.1,25.2,19.6c0.1,0.1,0.1,0.2,0.2,0.3
	c-20.2,1.3-40.4,2.6-60.7,3.8c-4.1,0.2-8.2,0.4-12.3,0.5c-5,0.8-9.6,1-14.2,1.9c-2.2,0.3-4.5,0.7-6.7,1
	c-6.6,11.1-13.2,22.3-19.8,33.4c-0.1,0.1-0.1,0.2-0.2,0.3c22.4-4.9,45.6-8.7,68.4-13.7c12.3-2.2,24.7-4.4,37-6.6c17.5-3,35-6,52.4-9
	c0,0,0-0.1,0-0.1C194.7,129.3,189.1,125.6,183.6,122z"/>
</svg>
