<?xml version="1.0" encoding="utf-8"?>
<!-- Generator: Adobe Illustrator 21.0.0, SVG Export Plug-In . SVG Version: 6.00 Build 0)  -->
<svg version="1.1" id="图层_1" xmlns="http://www.w3.org/2000/svg" xmlns:xlink="http://www.w3.org/1999/xlink" x="0px" y="0px"
	 viewBox="0 0 200 200" style="enable-background:new 0 0 200 200;" xml:space="preserve">
<style type="text/css">
	.st0{fill:#76A8CB;}
	.st1{fill:#999999;}
	.st2{fill:#FFFFFF;}
</style>
<circle class="st0" cx="100" cy="100" r="93.3"/>
<path class="st1" d="M100,200C44.9,200,0,155.1,0,100S44.9,0,100,0s100,44.9,100,100S155.1,200,100,200z M100,13.3
	c-47.8,0-86.7,38.9-86.7,86.7s38.9,86.7,86.7,86.7s86.7-38.9,86.7-86.7S147.8,13.3,100,13.3z"/>
<g>
	<path class="st2" d="M155.5,99.4l-49.6,49.8c-2.7,2.7-7.1,2.7-9.9,0l-2.9-2.9c-2.7-2.7-2.7-7.1,0-9.8l49.6-49.8
		c2.7-2.7,7.1-2.7,9.9,0l2.9,2.9C158.2,92.3,158.2,96.7,155.5,99.4z"/>
	<path class="st2" d="M98.2,151.4L44.4,97.3c-1.5-1.5-1.5-4,0-5.5l7.2-7.2c1.5-1.5,4-1.5,5.6,0l53.9,54.1c1.5,1.5,1.5,4,0,5.5
		l-7.2,7.2C102.2,152.9,99.8,152.9,98.2,151.4z"/>
	<path class="st2" d="M110,88.5c0,5-4,9-9,9s-9-4-9-9s4-9,9-9S110,83.5,110,88.5z"/>
	<path class="st2" d="M110,58.4c0,5-4,9-9,9s-9-4-9-9s4-9,9-9S110,53.4,110,58.4z"/>
</g>
</svg>
