<?xml version="1.0" encoding="utf-8"?>
<!-- Generator: Adobe Illustrator 21.0.0, SVG Export Plug-In . SVG Version: 6.00 Build 0)  -->
<svg version="1.1" id="图层_1" xmlns="http://www.w3.org/2000/svg" xmlns:xlink="http://www.w3.org/1999/xlink" x="0px" y="0px"
	 viewBox="0 0 200 200" style="enable-background:new 0 0 200 200;" xml:space="preserve">
<style type="text/css">
	.st0{opacity:0.5;fill:#00A99D;}
	.st1{fill:#00A99D;}
</style>
<g>
	<path class="st0" d="M197,200H3c-1.7,0-3-1.3-3-3V3c0-1.7,1.3-3,3-3h194c1.7,0,3,1.3,3,3v194C200,198.7,198.7,200,197,200z"/>
	<g>
		<path class="st1" d="M57.1,111.6c-3.1,3.1-6.8,4.6-11.3,4.6c-4.3,0-8-1.5-11.1-4.6s-4.6-6.8-4.6-11.3c0-4.3,1.5-8,4.6-11.1
			c3.1-3.1,6.7-4.6,11.1-4.6c4.4,0,8.2,1.5,11.3,4.6c3.1,3.1,4.6,6.8,4.6,11.1C61.7,104.8,60.2,108.6,57.1,111.6z"/>
		<path class="st1" d="M111.2,111.6c-3.1,3.1-6.8,4.6-11.3,4.6c-4.3,0-8-1.5-11.1-4.6s-4.6-6.8-4.6-11.3c0-4.3,1.5-8,4.6-11.1
			c3.1-3.1,6.7-4.6,11.1-4.6c4.4,0,8.2,1.5,11.3,4.6c3.1,3.1,4.6,6.8,4.6,11.1C115.8,104.8,114.2,108.6,111.2,111.6z"/>
		<path class="st1" d="M165.2,111.6c-3.1,3.1-6.8,4.6-11.3,4.6c-4.3,0-8-1.5-11.1-4.6s-4.6-6.8-4.6-11.3c0-4.3,1.5-8,4.6-11.1
			c3.1-3.1,6.7-4.6,11.1-4.6c4.4,0,8.2,1.5,11.3,4.6c3.1,3.1,4.6,6.8,4.6,11.1C169.8,104.8,168.3,108.6,165.2,111.6z"/>
	</g>
</g>
</svg>
