<?xml version="1.0" standalone="no"?><!DOCTYPE svg PUBLIC "-//W3C//DTD SVG 1.1//EN" "http://www.w3.org/Graphics/SVG/1.1/DTD/svg11.dtd"><svg t="1481191236370" class="icon" style="" viewBox="0 0 1024 1024" version="1.1" xmlns="http://www.w3.org/2000/svg" p-id="3253" xmlns:xlink="http://www.w3.org/1999/xlink" width="200" height="200"><defs><style type="text/css"></style></defs><path d="M363.913778 640.419811l131.399679-42.205241-70.702272-82.520435L363.913778 640.419811zM750.322385 224.725204 440.194092 498.747161l74.299193 86.799902 310.049498-274.015817L750.322385 224.725204zM842.004481 296.725028l34.842553-29.53978c19.261693-16.264429 21.568225-45.022403 5.136997-64.202231l-14.806217-17.374716c-16.444531-19.173688-45.369304-21.488407-64.629973-5.135974l-34.843576 29.532617L842.004481 296.725028zM204.096886 169.597653c-62.403259 0-73.611531 11.389398-73.02313 73.791633l0 537.237801c0 59.07342 12.585643 73.79982 73.02313 73.79982l588.17696 0c61.801555 0 65.995063-15.242146 66.683748-73.624834L858.957595 522.882861c0-11.041474-15.582907-31.760354-26.449395-31.760354-10.961656 0-25.681916 21.233604-25.681916 31.586392l0 280.523021-624.217804-0.427742-0.254803-581.758784 339.843058 0c10.619872 0 30.555923-14.639418 30.555923-25.339108 0-10.012028-19.602454-26.108634-30.128181-26.108634L204.096886 169.597653z" p-id="3254"></path></svg>