<?xml version="1.0" standalone="no"?><!DOCTYPE svg PUBLIC "-//W3C//DTD SVG 1.1//EN" "http://www.w3.org/Graphics/SVG/1.1/DTD/svg11.dtd"><svg t="1484209151602" class="icon" style="" viewBox="0 0 1024 1024" version="1.1" xmlns="http://www.w3.org/2000/svg" p-id="3954" xmlns:xlink="http://www.w3.org/1999/xlink" width="200" height="200"><defs><style type="text/css"></style></defs><path d="M177.311335 156.116617c-22.478967 4.729721-32.774451 17.336854-36.251645 36.893258-10.080589 56.697303-33.399691 257.604032-13.234419 277.769304l445.342858 445.341834c23.177885 23.177885 60.757782 23.178909 83.935668 0l246.019183-246.019183c23.177885-23.177885 23.177885-60.757782 0-83.935668l-445.341834-445.341834C437.419398 120.463606 231.004211 144.82034 177.311335 156.116617zM331.22375 344.221786c-26.195615 26.195615-68.667939 26.195615-94.863555 0-26.195615-26.195615-26.195615-68.666916 0-94.863555s68.667939-26.195615 94.862531 0C357.418342 275.55487 357.419366 318.02617 331.22375 344.221786z" p-id="3955"></path></svg>