<?xml version="1.0" standalone="no"?><!DOCTYPE svg PUBLIC "-//W3C//DTD SVG 1.1//EN" "http://www.w3.org/Graphics/SVG/1.1/DTD/svg11.dtd"><svg t="1484463794692" class="icon" style="" viewBox="0 0 1024 1024" version="1.1" xmlns="http://www.w3.org/2000/svg" p-id="8144" xmlns:xlink="http://www.w3.org/1999/xlink" width="200" height="200"><defs><style type="text/css"></style></defs><path d="M535.273 81.818c-257.07 0-465.455 208.384-465.455 465.455s208.385 465.455 465.455 465.455c257.071 0 465.455-208.384 465.455-465.455S792.344 81.818 535.273 81.818L535.273 81.818zM851.503 821.472C684.082 560.5 384.097 560.5 219.09 821.519c-63.86-73.542-102.727-169.239-102.727-274.246 0-231.377 187.532-418.909 418.909-418.909s418.909 187.532 418.909 418.909C954.182 652.28 915.27 747.977 851.503 821.472L851.503 821.472z" p-id="8145"></path><path d="M538.495 607.83" p-id="8146"></path><path d="M535.273 443.999m-150 0a150 150 0 1 0 300 0 150 150 0 1 0-300 0Z" p-id="8147"></path></svg>