<?xml version="1.0" encoding="utf-8"?>
<!-- Generator: Adobe Illustrator 21.0.0, SVG Export Plug-In . SVG Version: 6.00 Build 0)  -->
<svg version="1.1" id="图层_1" xmlns="http://www.w3.org/2000/svg" xmlns:xlink="http://www.w3.org/1999/xlink" x="0px" y="0px"
	 viewBox="0 0 200 200" style="enable-background:new 0 0 200 200;" xml:space="preserve">
<path d="M30.8,48.1c-4,0.8-5.8,3.1-6.4,6.5c-1.8,10-5.9,45.5-2.3,49l78.6,78.6c4.1,4.1,10.7,4.1,14.8,0l43.4-43.4
	c4.1-4.1,4.1-10.7,0-14.8L80.3,45.4C76.7,41.8,40.2,46.1,30.8,48.1z M57.9,81.3c-4.6,4.6-12.1,4.6-16.8,0s-4.6-12.1,0-16.8
	s12.1-4.6,16.8,0C62.6,69.1,62.6,76.6,57.9,81.3z"/>
<path d="M178,45.7c0-0.4-0.2-0.9-0.5-1.2c-0.3-0.3-0.8-0.5-1.2-0.5h-2.6c-1.1,0-2.3-0.9-2.6-1.9l-1.4-3.3c-0.5-1-0.3-2.4,0.5-3.2
	l1.9-1.9c0.3-0.3,0.5-0.7,0.5-1.2s-0.2-0.9-0.5-1.2l-3.2-3.2c-0.3-0.3-0.7-0.5-1.2-0.5c-0.5,0-0.9,0.2-1.2,0.5l-1.9,1.9
	c-0.8,0.8-2.2,1-3.2,0.5l-3.3-1.4c-1-0.3-1.9-1.5-1.9-2.6v-2.7c0-0.4-0.2-0.9-0.5-1.2c-0.3-0.3-0.8-0.5-1.2-0.5h-4.5
	c-0.4,0-0.9,0.2-1.2,0.5c-0.3,0.3-0.5,0.8-0.5,1.2v2.7c0,1.1-0.9,2.3-1.9,2.6l-3.3,1.4c-1,0.5-2.4,0.3-3.2-0.5l-1.9-1.9
	c-0.3-0.3-0.7-0.5-1.2-0.5s-0.9,0.2-1.2,0.5l-3.2,3.2c-0.3,0.3-0.5,0.7-0.5,1.2c0,0.5,0.2,0.9,0.5,1.2l1.9,1.9
	c0.8,0.8,1,2.2,0.5,3.2l-1.4,3.3c-0.3,1-1.5,1.9-2.6,1.9l-2.6,0c-0.4,0-0.9,0.2-1.2,0.5c-0.3,0.3-0.5,0.8-0.5,1.2v4.5
	c0,0.4,0.2,0.9,0.5,1.2c0.3,0.3,0.8,0.5,1.2,0.5h2.6c1.1,0,2.3,0.9,2.6,1.9l1.4,3.3c0.5,1,0.3,2.4-0.5,3.2l-1.9,1.9
	c-0.3,0.3-0.5,0.7-0.5,1.2c0,0.5,0.2,0.9,0.5,1.2l3.2,3.2c0.3,0.3,0.7,0.5,1.2,0.5c0.5,0,0.9-0.2,1.2-0.5l1.9-1.9
	c0.8-0.8,2.2-1,3.2-0.5l3.3,1.4c1,0.3,1.9,1.5,1.9,2.6v2.6c0,0.4,0.2,0.9,0.5,1.2c0.3,0.3,0.8,0.5,1.2,0.5h4.5
	c0.4,0,0.9-0.2,1.2-0.5c0.3-0.3,0.5-0.8,0.5-1.2v-2.6c0-1.1,0.9-2.3,1.9-2.6l3.3-1.4c1-0.5,2.4-0.3,3.2,0.5l1.9,1.9
	c0.3,0.3,0.7,0.5,1.2,0.5c0.5,0,0.9-0.2,1.2-0.5l3.2-3.2c0.3-0.3,0.5-0.7,0.5-1.2c0-0.5-0.2-0.9-0.5-1.2l-1.9-1.9
	c-0.8-0.8-1-2.2-0.5-3.2l1.4-3.3c0.3-1,1.5-1.9,2.6-1.9h2.6c0.4,0,0.9-0.2,1.2-0.5c0.3-0.3,0.5-0.8,0.5-1.2V45.7L178,45.7L178,45.7z
	 M163.1,47.9c0,6.1-5,11.1-11.1,11.1c-6.1,0-11.1-5-11.1-11.1c0-6.1,5-11.1,11.1-11.1C158.2,36.8,163.1,41.8,163.1,47.9"/>
</svg>
