<?xml version="1.0" encoding="utf-8"?>
<!-- Generator: Adobe Illustrator 16.0.0, SVG Export Plug-In . SVG Version: 6.00 Build 0)  -->
<!DOCTYPE svg PUBLIC "-//W3C//DTD SVG 1.1//EN" "http://www.w3.org/Graphics/SVG/1.1/DTD/svg11.dtd">
<svg version="1.1" xmlns="http://www.w3.org/2000/svg" xmlns:xlink="http://www.w3.org/1999/xlink" x="0px" y="0px" width="196px"
	 height="146px" viewBox="0 0 196 146" enable-background="new 0 0 196 146" xml:space="preserve">
<g id="背景_xA0_图像_1_">
</g>
<g id="圆角矩形_14_副本_2_1_" enable-background="new    ">
	<g id="圆角矩形_14_副本_2">
		<path fill-rule="evenodd" clip-rule="evenodd" fill="#DDB600" d="M164.387,0H56.903v63.754l14.241-14.297
			c2.515-2.525,6.593-2.525,9.107,0c2.516,2.525,2.516,6.619,0,9.144L55.207,83.746c-0.479,0.481-1.015,0.868-1.586,1.166
			c-0.902,0.499-1.938,0.783-3.04,0.783c-0.854,0-1.657-0.187-2.399-0.494c-0.146-0.058-0.29-0.123-0.434-0.191
			c-0.059-0.03-0.121-0.052-0.179-0.084c-0.581-0.3-1.128-0.69-1.614-1.18L20.909,58.601c-2.515-2.524-2.515-6.618,0-9.144
			c2.516-2.525,6.593-2.525,9.107,0l14.241,14.297V0H31.613C14.153,0,0,14.21,0,31.738v82.522C0,131.789,14.153,146,31.613,146
			h132.773C181.846,146,196,131.789,196,114.261V31.738C196,14.21,181.846,0,164.387,0z M102.742,38.088h56.902
			c2.619,0,4.742,2.131,4.742,4.76c0,2.63-2.123,4.761-4.742,4.761h-56.902c-2.619,0-4.742-2.131-4.742-4.761
			C98,40.219,100.123,38.088,102.742,38.088z M159.645,104.738h-56.902c-2.619,0-4.742-2.131-4.742-4.76
			c0-2.63,2.123-4.761,4.742-4.761h56.902c2.619,0,4.742,2.131,4.742,4.761C164.387,102.607,162.264,104.738,159.645,104.738z
			 M169.129,85.695h-56.903c-2.618,0-4.741-2.131-4.741-4.761s2.123-4.761,4.741-4.761h56.903c2.619,0,4.742,2.131,4.742,4.761
			S171.748,85.695,169.129,85.695z M169.129,66.652h-56.903c-2.618,0-4.741-2.132-4.741-4.762c0-2.629,2.123-4.76,4.741-4.76h56.903
			c2.619,0,4.742,2.131,4.742,4.76C173.871,64.521,171.748,66.652,169.129,66.652z"/>
	</g>
</g>
</svg>
