<?xml version="1.0" encoding="UTF-8" standalone="no"?>
<!-- Generator: Adobe Illustrator 16.0.0, SVG Export Plug-In . SVG Version: 6.00 Build 0)  -->

<svg
   xmlns:dc="http://purl.org/dc/elements/1.1/"
   xmlns:cc="http://creativecommons.org/ns#"
   xmlns:rdf="http://www.w3.org/1999/02/22-rdf-syntax-ns#"
   xmlns:svg="http://www.w3.org/2000/svg"
   xmlns="http://www.w3.org/2000/svg"
   xmlns:sodipodi="http://sodipodi.sourceforge.net/DTD/sodipodi-0.dtd"
   xmlns:inkscape="http://www.inkscape.org/namespaces/inkscape"
   version="1.1"
   id="图层_1"
   x="0px"
   y="0px"
   width="38px"
   height="38px"
   viewBox="0 0 38 38"
   enable-background="new 0 0 38 38"
   xml:space="preserve"
   inkscape:version="0.91 r13725"
   sodipodi:docname="history-action-selected-fail.svg"><metadata
     id="metadata23"><rdf:RDF><cc:Work
         rdf:about=""><dc:format>image/svg+xml</dc:format><dc:type
           rdf:resource="http://purl.org/dc/dcmitype/StillImage" /><dc:title></dc:title></cc:Work></rdf:RDF></metadata><defs
     id="defs21" /><sodipodi:namedview
     pagecolor="#ffffff"
     bordercolor="#666666"
     borderopacity="1"
     objecttolerance="10"
     gridtolerance="10"
     guidetolerance="10"
     inkscape:pageopacity="0"
     inkscape:pageshadow="2"
     inkscape:window-width="1920"
     inkscape:window-height="1018"
     id="namedview19"
     showgrid="false"
     inkscape:zoom="6.2105263"
     inkscape:cx="-5.7161017"
     inkscape:cy="19"
     inkscape:window-x="-8"
     inkscape:window-y="-8"
     inkscape:window-maximized="1"
     inkscape:current-layer="g3" /><g
     id="g3"><path
       fill="#EB4F38"
       d="M34,22.091C34,23.799,32.699,25,31.037,25H6.975C5.314,25,4,23.799,4,22.091v-6.183   C4,14.2,5.314,13,6.975,13h24.062C32.699,13,34,14.2,34,15.908V22.091z"
       id="path5"
       style="fill:#7e1101;fill-opacity:1" /><path
       fill="#FFFFFF"
       d="M31,20.999C31,21.551,30.666,22,30.107,22H7.894C7.336,22,7,21.551,7,20.999v-3.998   C7,16.449,7.336,16,7.894,16h22.213C30.666,16,31,16.449,31,17.001V20.999z"
       id="path7" /><g
       id="g9"><path
         fill="#EB4F38"
         d="M12.33,9c-0.562,0-0.688,0.31-0.284,0.691l2.583,2.432c0.405,0.383,1.069,0.381,1.475-0.001l2.582-2.43    C19.091,9.311,18.963,9,18.402,9H12.33z"
         id="path11"
         style="fill:#7e1101;fill-opacity:1" /><path
         fill="#EB4F38"
         d="M14.307,9h2.255C15.366-1,0,0.11,0,0.11v1.886C2,1.997,12.739,2,14.307,9z"
         id="path13"
         style="fill:#7e1101;fill-opacity:1" /></g><path
       fill="#EB4F38"
       d="M34,30.891c0-0.553,0.574-0.664,0.945-0.248l2.664,2.834c0.371,0.416,0.438,1.096,0.068,1.512l-2.77,2.839   c-0.368,0.411-0.91,0.302-0.91-0.25L34,30.891L34,30.891z"
       id="path15"
       style="fill:#7e1101;fill-opacity:1" /><path
       fill="#EB4F38"
       d="M34,32.781v2.576C19,35.357,17.699,23,17.699,23h2.81C20.509,25,23,32.781,34,32.781z"
       id="path17"
       style="fill:#7e1101;fill-opacity:1" /></g></svg>