<?xml version="1.0" encoding="utf-8"?>
<!-- Generator: Adobe Illustrator 16.0.0, SVG Export Plug-In . SVG Version: 6.00 Build 0)  -->
<!DOCTYPE svg PUBLIC "-//W3C//DTD SVG 1.1//EN" "http://www.w3.org/Graphics/SVG/1.1/DTD/svg11.dtd">
<svg version="1.1"
	 id="svg4156" xmlns:svg="http://www.w3.org/2000/svg" xmlns:inkscape="http://www.inkscape.org/namespaces/inkscape" xmlns:rdf="http://www.w3.org/1999/02/22-rdf-syntax-ns#" xmlns:cc="http://creativecommons.org/ns#" xmlns:sodipodi="http://sodipodi.sourceforge.net/DTD/sodipodi-0.dtd" xmlns:dc="http://purl.org/dc/elements/1.1/" sodipodi:docname="start-latest.svg" inkscape:version="0.91 r13725"
	 xmlns="http://www.w3.org/2000/svg" xmlns:xlink="http://www.w3.org/1999/xlink" x="0px" y="0px" width="45px" height="52px"
	 viewBox="0 0 45 52" enable-background="new 0 0 45 52" xml:space="preserve">
<sodipodi:namedview  id="base" units="px" width="500px" pagecolor="#ffffff" borderopacity="1.0" bordercolor="#666666" inkscape:cx="-56.428571" inkscape:cy="520" showgrid="false" inkscape:zoom="0.35" inkscape:window-width="1920" inkscape:document-units="px" inkscape:pageopacity="0.0" inkscape:pageshadow="2" inkscape:current-layer="layer1-3" inkscape:window-y="-9" inkscape:window-x="-9" inkscape:window-height="1019" inkscape:window-maximized="1">
	</sodipodi:namedview>
<polygon fill="#87AF25" points="45,39 22.5,52 0,39 0,13 22.5,0 45,13 "/>
<polygon fill="#D1DE4D" points="42.045,37.293 22.5,48.586 2.955,37.293 2.955,14.707 22.5,3.415 42.045,14.707 "/>
<g>
	<path fill="#87AF25" d="M22.467,15.657c-1,0.275-1.583,1.306-1.308,2.302c0.273,0.997,1.306,1.58,2.301,1.306
		c0.997-0.276,1.583-1.306,1.308-2.303C24.492,15.967,23.461,15.382,22.467,15.657z"/>
	<path fill="#87AF25" d="M27.691,34.594c-0.498,0.139-0.791,0.651-0.65,1.153c0.137,0.495,0.65,0.789,1.15,0.651
		c0.498-0.14,0.789-0.653,0.652-1.152C28.706,34.748,28.189,34.457,27.691,34.594z"/>
	<path fill="#87AF25" d="M28.238,15.758c-0.916-0.238-1.853,0.313-2.09,1.228l0,0c-0.239,0.917,0.312,1.854,1.229,2.091
		c0.914,0.239,1.852-0.312,2.091-1.227C29.705,16.933,29.154,15.997,28.238,15.758z"/>
	<path fill="#87AF25" d="M23.295,34.781c-0.415-0.104-0.842,0.146-0.95,0.563c-0.107,0.415,0.144,0.842,0.558,0.947
		c0.416,0.111,0.842-0.141,0.949-0.557C23.96,35.316,23.709,34.893,23.295,34.781z"/>
	<path fill="#87AF25" d="M33.116,18.708c-0.612-0.605-1.604-0.597-2.206,0.016l0,0c-0.604,0.613-0.596,1.602,0.019,2.206
		c0.612,0.604,1.602,0.596,2.203-0.018C33.738,20.299,33.729,19.311,33.116,18.708z"/>
	<path fill="#87AF25" d="M19.324,32.695c-0.248-0.241-0.641-0.238-0.884,0.008l0,0c-0.241,0.242-0.239,0.636,0.003,0.881
		c0.248,0.241,0.645,0.238,0.884-0.006C19.57,33.332,19.567,32.938,19.324,32.695z"/>
	<path fill="#87AF25" d="M34.098,22.636c-0.746,0.206-1.186,0.979-0.979,1.727c0.205,0.747,0.979,1.186,1.727,0.979
		c0.746-0.207,1.186-0.979,0.979-1.727C35.614,22.867,34.845,22.429,34.098,22.636z"/>
	<path fill="#87AF25" d="M16.312,28.52c-0.251,0.067-0.396,0.326-0.326,0.574c0.066,0.248,0.323,0.395,0.573,0.325
		c0.251-0.067,0.398-0.325,0.328-0.573C16.818,28.598,16.561,28.447,16.312,28.52z"/>
	<path fill="#87AF25" d="M34.826,27.625c-0.667-0.173-1.35,0.229-1.521,0.895s0.227,1.349,0.894,1.521
		c0.668,0.175,1.348-0.228,1.521-0.894C35.895,28.479,35.494,27.8,34.826,27.625z"/>
	<path fill="#87AF25" d="M15.842,25.54c-0.168-0.042-0.339,0.058-0.383,0.223c-0.043,0.167,0.058,0.336,0.223,0.381
		c0.17,0.043,0.339-0.057,0.381-0.223C16.107,25.754,16.008,25.583,15.842,25.54z"/>
	<path fill="#87AF25" d="M32.879,32.27c-0.431-0.42-1.121-0.416-1.543,0.012l0,0c-0.423,0.431-0.418,1.121,0.012,1.545
		c0.432,0.421,1.121,0.418,1.543-0.014C33.313,33.387,33.309,32.693,32.879,32.27z"/>
</g>
<g enable-background="new    ">
	<path fill="#54711E" d="M14.996,25.233c1.082,0.328,1.689,1.171,2.031,2.435c0.437,1.561,0.797,2.795,1.082,3.247h-2.277
		c-0.209-0.343-0.551-1.39-0.911-2.856c-0.399-1.592-1.101-2.201-2.639-2.201h-1.329v5.058H8.77V19.13
		c0.93-0.141,2.221-0.25,3.531-0.25c1.898,0,3.227,0.281,4.138,0.952c0.759,0.546,1.158,1.374,1.158,2.342
		c0,1.529-1.139,2.575-2.601,3.028V25.233z M12.433,24.5c1.822,0,2.961-0.858,2.961-2.139c0-1.545-1.329-2.076-2.904-2.076
		c-0.741,0-1.272,0.047-1.538,0.109V24.5H12.433z"/>
</g>
<g enable-background="new    ">
	<path fill="#54711E" d="M20.632,28.488c0,0.783-0.39,1.114-0.952,1.114c-0.541,0-0.907-0.317-0.907-1.104v-1.572h0.4v1.597
		c0,0.527,0.217,0.751,0.521,0.751c0.331,0,0.538-0.228,0.538-0.751v-1.597h0.4V28.488z"/>
	<path fill="#54711E" d="M23.07,29.564h-0.403l-0.693-1.234c-0.159-0.286-0.317-0.597-0.438-0.894l-0.014,0.004
		c0.021,0.334,0.028,0.676,0.028,1.138v0.986h-0.369v-2.638h0.435l0.689,1.221c0.166,0.289,0.314,0.593,0.428,0.872l0.01-0.003
		c-0.031-0.359-0.041-0.697-0.041-1.118v-0.972h0.369V29.564z"/>
	<path fill="#54711E" d="M25.516,29.564h-0.402L24.42,28.33c-0.158-0.286-0.317-0.597-0.438-0.894l-0.014,0.004
		c0.021,0.334,0.028,0.676,0.028,1.138v0.986h-0.369v-2.638h0.434l0.689,1.221c0.166,0.289,0.314,0.593,0.428,0.872l0.011-0.003
		c-0.03-0.359-0.041-0.697-0.041-1.118v-0.972h0.368V29.564z"/>
	<path fill="#54711E" d="M26.072,26.927h0.4v2.638h-0.4V26.927z"/>
	<path fill="#54711E" d="M28.912,29.564h-0.404l-0.693-1.234c-0.158-0.286-0.316-0.597-0.438-0.894l-0.014,0.004
		c0.021,0.334,0.027,0.676,0.027,1.138v0.986h-0.369v-2.638h0.436l0.689,1.221c0.165,0.289,0.313,0.593,0.428,0.872l0.01-0.003
		c-0.031-0.359-0.041-0.697-0.041-1.118v-0.972h0.369V29.564z"/>
	<path fill="#54711E" d="M31.364,29.458c-0.147,0.059-0.438,0.134-0.751,0.134c-1.143,0-1.287-0.906-1.287-1.327
		c0-0.855,0.563-1.366,1.352-1.366c0.26,0,0.483,0.045,0.614,0.11l-0.09,0.328c-0.124-0.056-0.282-0.101-0.524-0.101
		c-0.541,0-0.931,0.342-0.931,1.011c0,0.666,0.362,1.018,0.88,1.018c0.172,0,0.293-0.024,0.352-0.056v-0.744h-0.455v-0.321h0.841
		V29.458z"/>
</g>
</svg>
