<?xml version="1.0" encoding="utf-8"?>
<!-- Generator: Adobe Illustrator 16.0.0, SVG Export Plug-In . SVG Version: 6.00 Build 0)  -->
<!DOCTYPE svg PUBLIC "-//W3C//DTD SVG 1.1//EN" "http://www.w3.org/Graphics/SVG/1.1/DTD/svg11.dtd">
<svg version="1.1" id="图层_1" xmlns="http://www.w3.org/2000/svg" xmlns:xlink="http://www.w3.org/1999/xlink" x="0px" y="0px"
	 width="100px" height="100px" viewBox="0 0 100 100" enable-background="new 0 0 100 100" xml:space="preserve">
<g>
	<g>
		<g>
			<path fill="#BE8DB9" d="M100,88c0,6.627-5.373,12-12,12H12c-6.627,0-12-5.373-12-12V12C0,5.373,5.373,0,12,0h76
				c6.627,0,12,5.373,12,12V88z"/>
		</g>
	</g>
	<g>
		<path fill="#FFFFFF" d="M21.913,73.363l21.093-54.924h7.83l22.479,54.924h-8.28l-6.406-16.635H35.662l-6.031,16.635H21.913z
			 M37.761,50.809h18.62l-5.732-15.21c-1.748-4.621-3.047-8.417-3.896-11.389c-0.699,3.521-1.686,7.019-2.959,10.49L37.761,50.809z"
			/>
	</g>
</g>
</svg>
