<?xml version="1.0" encoding="utf-8"?>
<!-- Generator: Adobe Illustrator 16.0.0, SVG Export Plug-In . SVG Version: 6.00 Build 0)  -->
<!DOCTYPE svg PUBLIC "-//W3C//DTD SVG 1.1//EN" "http://www.w3.org/Graphics/SVG/1.1/DTD/svg11.dtd">
<svg version="1.1" id="图层_1" xmlns="http://www.w3.org/2000/svg" xmlns:xlink="http://www.w3.org/1999/xlink" x="0px" y="0px"
	 width="100px" height="100px" viewBox="0 0 100 100" enable-background="new 0 0 100 100" xml:space="preserve">
<g>
	<path fill="#0BAFB3" d="M100,88c0,6.627-5.373,12-12,12H12c-6.627,0-12-5.373-12-12V12C0,5.373,5.373,0,12,0h76
		c6.627,0,12,5.373,12,12V88z"/>
	<g>
		<path fill="#FFFFF0" d="M28.541,59.635l6.73-0.588c0.318,2.698,1.06,4.91,2.225,6.639c1.164,1.729,2.972,3.126,5.424,4.192
			c2.451,1.066,5.209,1.6,8.275,1.6c2.722,0,5.123-0.404,7.208-1.213c2.084-0.81,3.635-1.918,4.652-3.329
			c1.017-1.409,1.526-2.947,1.526-4.615c0-1.691-0.491-3.169-1.472-4.432c-0.98-1.262-2.599-2.323-4.854-3.182
			c-1.447-0.563-4.646-1.439-9.599-2.629c-4.953-1.189-8.422-2.311-10.408-3.366c-2.575-1.347-4.493-3.021-5.756-5.02
			c-1.263-1.998-1.894-4.235-1.894-6.711c0-2.722,0.772-5.265,2.317-7.631c1.544-2.366,3.8-4.162,6.767-5.388
			c2.966-1.226,6.264-1.839,9.893-1.839c3.997,0,7.521,0.644,10.574,1.93c3.052,1.288,5.4,3.182,7.043,5.682
			c1.643,2.501,2.524,5.333,2.647,8.496l-6.84,0.515c-0.368-3.408-1.613-5.982-3.733-7.724c-2.121-1.741-5.254-2.611-9.397-2.611
			c-4.315,0-7.46,0.791-9.433,2.372c-1.975,1.581-2.96,3.488-2.96,5.719c0,1.938,0.698,3.53,2.096,4.78
			c1.374,1.251,4.959,2.532,10.757,3.844c5.799,1.313,9.776,2.458,11.935,3.438c3.138,1.447,5.456,3.279,6.951,5.498
			c1.495,2.22,2.243,4.775,2.243,7.668c0,2.869-0.821,5.572-2.464,8.109c-1.643,2.538-4.003,4.513-7.079,5.922
			c-3.078,1.409-6.542,2.114-10.39,2.114c-4.88,0-8.969-0.711-12.266-2.133c-3.298-1.422-5.884-3.562-7.76-6.418
			C29.625,66.471,28.638,63.239,28.541,59.635z"/>
	</g>
</g>
</svg>
