<?xml version="1.0" encoding="utf-8"?>
<!-- Generator: Adobe Illustrator 16.0.0, SVG Export Plug-In . SVG Version: 6.00 Build 0)  -->
<!DOCTYPE svg PUBLIC "-//W3C//DTD SVG 1.1//EN" "http://www.w3.org/Graphics/SVG/1.1/DTD/svg11.dtd">
<svg version="1.1" xmlns="http://www.w3.org/2000/svg" xmlns:xlink="http://www.w3.org/1999/xlink" x="0px" y="0px" width="200px"
	 height="160px" viewBox="0 0 200 160" enable-background="new 0 0 200 160" xml:space="preserve">
<g id="背景_xA0_图像_1_">
</g>
<g id="多边形_3_1_" enable-background="new    ">
	<g id="多边形_3">
		<path fill-rule="evenodd" clip-rule="evenodd" d="M152.533,56.25l-65.971,65.309l26.389,26.123l65.971-65.309L152.533,56.25z
			 M194.519,67.676l-0.015-0.014c7.376-7.449,7.33-19.381-0.155-26.765c-7.454-7.353-19.479-7.423-27.037-0.24l-0.092,0.09
			l-0.007-0.006l-7.767,7.657l27.306,26.935L194.519,67.676z M88.659,0.004c-5.917,0-10.712,4.748-10.712,10.604
			c0,5.858,4.796,10.606,10.712,10.606c5.917,0,10.713-4.748,10.713-10.606C99.372,4.752,94.576,0.004,88.659,0.004z M74.119,160
			l30.791-7.008L81.2,129.518L74.119,160z M117.226,0.004c-5.916,0-10.712,4.748-10.712,10.604c0,5.858,4.796,10.606,10.712,10.606
			c5.917,0,10.714-4.748,10.714-10.606C127.939,4.752,123.143,0.004,117.226,0.004z M64.276,45.216v-0.003h-0.003L42.847,24.004
			v21.209H0v28.282h42.847v21.2l21.425-21.2h0.005V73.49l14.284-14.136L64.276,45.216z M145.794,0.004
			c-5.917,0-10.713,4.748-10.713,10.604c0,5.858,4.796,10.606,10.713,10.606s10.713-4.748,10.713-10.606
			C156.507,4.752,151.711,0.004,145.794,0.004z"/>
	</g>
</g>
</svg>
