<?xml version="1.0" encoding="utf-8"?>
<!-- Generator: Adobe Illustrator 16.0.0, SVG Export Plug-In . SVG Version: 6.00 Build 0)  -->
<!DOCTYPE svg PUBLIC "-//W3C//DTD SVG 1.1//EN" "http://www.w3.org/Graphics/SVG/1.1/DTD/svg11.dtd">
<svg version="1.1" xmlns="http://www.w3.org/2000/svg" xmlns:xlink="http://www.w3.org/1999/xlink" x="0px" y="0px" width="196px"
	 height="146px" viewBox="0 0 196 146" enable-background="new 0 0 196 146" xml:space="preserve">
<g id="背景_xA0_图像_1_">
</g>
<g id="圆角矩形_14_副本_2_1_" enable-background="new    ">
	<g id="圆角矩形_14_副本_2">
		<path fill-rule="evenodd" clip-rule="evenodd" fill="#DDB600" d="M31.613,146h107.483V82.246l-14.241,14.297
			c-2.515,2.525-6.593,2.525-9.107,0c-2.516-2.525-2.516-6.619,0-9.144l25.045-25.146c0.479-0.481,1.015-0.868,1.586-1.166
			c0.902-0.499,1.938-0.783,3.04-0.783c0.854,0,1.657,0.187,2.399,0.494c0.146,0.058,0.29,0.123,0.434,0.191
			c0.059,0.03,0.121,0.052,0.179,0.084c0.581,0.3,1.128,0.69,1.614,1.18l25.046,25.146c2.515,2.524,2.515,6.618,0,9.144
			c-2.516,2.525-6.593,2.525-9.107,0l-14.241-14.297V146h12.645c17.46,0,31.613-14.21,31.613-31.738V31.739
			C196,14.211,181.847,0,164.387,0H31.613C14.154,0,0,14.211,0,31.739v82.522C0,131.79,14.154,146,31.613,146z M93.258,107.912
			H36.355c-2.619,0-4.742-2.131-4.742-4.76c0-2.63,2.123-4.761,4.742-4.761h56.902c2.619,0,4.742,2.131,4.742,4.761
			C98,105.781,95.877,107.912,93.258,107.912z M36.355,41.262h56.902c2.619,0,4.742,2.131,4.742,4.76
			c0,2.63-2.123,4.761-4.742,4.761H36.355c-2.619,0-4.742-2.131-4.742-4.761C31.613,43.393,33.736,41.262,36.355,41.262z
			 M26.871,60.305h56.903c2.618,0,4.741,2.131,4.741,4.761s-2.123,4.761-4.741,4.761H26.871c-2.619,0-4.742-2.131-4.742-4.761
			S24.252,60.305,26.871,60.305z M26.871,79.348h56.903c2.618,0,4.741,2.132,4.741,4.762c0,2.629-2.123,4.76-4.741,4.76H26.871
			c-2.619,0-4.742-2.131-4.742-4.76C22.129,81.479,24.252,79.348,26.871,79.348z"/>
	</g>
</g>
</svg>
