<?xml version="1.0" encoding="utf-8"?>
<!-- Generator: Adobe Illustrator 21.0.0, SVG Export Plug-In . SVG Version: 6.00 Build 0)  -->
<svg version="1.1"
	 id="图层_1" inkscape:version="0.91 r13725" sodipodi:docname="workflow-setting-selected.svg" xmlns:cc="http://creativecommons.org/ns#" xmlns:dc="http://purl.org/dc/elements/1.1/" xmlns:inkscape="http://www.inkscape.org/namespaces/inkscape" xmlns:rdf="http://www.w3.org/1999/02/22-rdf-syntax-ns#" xmlns:sodipodi="http://sodipodi.sourceforge.net/DTD/sodipodi-0.dtd" xmlns:svg="http://www.w3.org/2000/svg"
	 xmlns="http://www.w3.org/2000/svg" xmlns:xlink="http://www.w3.org/1999/xlink" x="0px" y="0px" viewBox="0 0 100 100"
	 style="enable-background:new 0 0 100 100;" xml:space="preserve">
<style type="text/css">
	.st0{fill:#FF9955;}
	.st1{fill:#FFF6D5;}
</style>
<sodipodi:namedview  bordercolor="#666666" borderopacity="1" gridtolerance="10" guidetolerance="10" id="namedview4158" inkscape:current-layer="图层_1" inkscape:cx="24.477994" inkscape:cy="35.185394" inkscape:pageopacity="0" inkscape:pageshadow="2" inkscape:window-height="706" inkscape:window-maximized="1" inkscape:window-width="1366" inkscape:window-x="-8" inkscape:window-y="-8" inkscape:zoom="3.337544" objecttolerance="10" pagecolor="#ffffff" showgrid="false">
	</sodipodi:namedview>
<path id="path4150" class="st0" d="M100,94c0,3.3-2.7,6-6,6H6c-3.3,0-6-2.7-6-6V6c0-3.3,2.7-6,6-6h88c3.3,0,6,2.7,6,6V94z"/>
<path id="path4144" inkscape:connector-curvature="0" class="st1" d="M85,47c0-0.6-0.2-1.2-0.7-1.7c-0.5-0.5-1.1-0.7-1.7-0.7h-3.6
	c-1.5,0-3.1-1.2-3.5-2.6l-1.9-4.5c-0.7-1.3-0.4-3.2,0.6-4.3l2.5-2.5c0.4-0.4,0.7-1,0.7-1.7c0-0.6-0.3-1.2-0.7-1.7l-4.3-4.3
	c-0.4-0.4-1-0.7-1.7-0.7c-0.6,0-1.2,0.3-1.7,0.7l-2.5,2.5c-1,1-3,1.3-4.3,0.6L58,24.4c-1.4-0.4-2.6-2-2.6-3.5v-3.6
	c0-0.6-0.2-1.2-0.7-1.7C54.2,15.2,53.6,15,53,15H47c-0.6,0-1.2,0.2-1.7,0.7c-0.5,0.5-0.7,1.1-0.7,1.7v3.6c0,1.5-1.2,3.1-2.6,3.5
	l-4.5,1.9c-1.3,0.7-3.2,0.4-4.3-0.6l-2.5-2.5c-0.4-0.4-1-0.7-1.7-0.7c-0.6,0-1.2,0.3-1.7,0.7l-4.3,4.3c-0.4,0.4-0.7,1-0.7,1.7
	c0,0.6,0.3,1.2,0.7,1.7l2.5,2.5c1,1,1.3,3,0.6,4.3L24.4,42c-0.4,1.4-2,2.6-3.5,2.6l-3.6,0c-0.6,0-1.2,0.2-1.7,0.7
	C15.2,45.8,15,46.4,15,47V53c0,0.6,0.2,1.2,0.7,1.7c0.5,0.5,1.1,0.7,1.7,0.7h3.6c1.5,0,3,1.2,3.5,2.6l1.9,4.5
	c0.7,1.3,0.4,3.2-0.6,4.3l-2.5,2.5c-0.4,0.4-0.7,1-0.7,1.7c0,0.6,0.3,1.2,0.7,1.7l4.3,4.3c0.4,0.4,1,0.7,1.7,0.7
	c0.6,0,1.2-0.3,1.7-0.7l2.5-2.5c1-1,3-1.3,4.3-0.6l4.5,1.9c1.4,0.4,2.6,2,2.6,3.5v3.6c0,0.6,0.2,1.2,0.7,1.7
	c0.5,0.5,1.1,0.7,1.7,0.7H53c0.6,0,1.2-0.2,1.7-0.7c0.5-0.5,0.7-1.1,0.7-1.7v-3.6c0-1.5,1.2-3.1,2.6-3.5l4.5-1.9
	c1.3-0.7,3.2-0.4,4.3,0.6l2.5,2.5c0.4,0.4,1,0.7,1.7,0.7c0.6,0,1.2-0.3,1.7-0.7l4.3-4.3c0.4-0.4,0.7-1,0.7-1.7
	c0-0.6-0.3-1.2-0.7-1.7l-2.5-2.5c-1-1-1.3-3-0.6-4.3l1.9-4.5c0.4-1.4,2-2.6,3.5-2.6h3.6c0.6,0,1.2-0.2,1.7-0.7
	c0.5-0.5,0.7-1.1,0.7-1.7V47L85,47L85,47L85,47z M64.9,49.9c0,8.3-6.7,15-15,15c-8.3,0-15-6.7-15-15c0-8.3,6.7-15,15-15
	C58.2,34.9,64.9,41.6,64.9,49.9"/>
</svg>
